<svg version="1.1" id="Layer_1" xmlns="http://www.w3.org/2000/svg" xmlns:xlink="http://www.w3.org/1999/xlink" xml:space="preserve" >
<g id="big_icon">
	<path style="clip-path:url(#SVGID_4_);fill:#004E5F;" d="M43.689,5.785l-8.081-3.48C35.59,2.297,35.57,2.296,35.55,2.292
		c-0.013-0.007-0.025-0.018-0.039-0.023l-6.49-2.199C28.886,0.023,28.744,0,28.6,0H17.657c-0.108,0-0.215,0.012-0.319,0.038
		L8.564,2.239c-0.017,0.004-0.03,0.015-0.047,0.02C8.494,2.268,8.466,2.268,8.442,2.276L0.471,5.13
		c-0.638,0.23-0.996,0.907-0.827,1.562l2.93,11.36c0.091,0.349,0.32,0.646,0.636,0.82c0.196,0.108,0.414,0.164,0.633,0.164
		c0.134,0,0.482-0.021,0.613-0.062L8,17.915v18.775C8,37.414,8.16,38,8.883,38H35.09C35.814,38,36,37.414,36,36.689V17.916
		l3.51,1.059c0.131,0.041,0.365,0.062,0.5,0.062c0.213,0,0.476-0.053,0.668-0.157c0.314-0.167,0.57-0.453,0.666-0.794l3.075-10.738
		C44.6,6.715,44.294,6.044,43.689,5.785 M4.979,16.057L2.8,7.196L8,5.373v9.792L4.979,16.057z M34,35H10V16.122V4.532L17.818,3
		h10.565L34,4.449v11.672V35z M39.02,16.065L36,15.165V5.5l5.295,2.236L39.02,16.065z"/>
	<path style="clip-path:url(#SVGID_4_);fill:#004E5F;" d="M22,13.269c3.674,0,7-2.927,7-6.664V5.242c0-0.724-0.775-1.311-1.5-1.311
		S26,4.518,26,5.242v1.363c0,2.268-1.795,4.043-4,4.043s-4-1.775-4-4.043V5.242c0-0.724-0.775-1.311-1.5-1.311S15,4.518,15,5.242
		v1.363C15,10.342,18.326,13.269,22,13.269"/>
	<path style="clip-path:url(#SVGID_4_);fill:#004E5F;" d="M31.159,31H12.814c-0.362,0-0.655,0.638-0.655,1s0.293,1,0.655,1h18.345
		c0.362,0,0.655-0.638,0.655-1S31.521,31,31.159,31"/>
</g>
</svg>
