<svg version="1.1" id="Layer_1" xmlns="http://www.w3.org/2000/svg" xmlns:xlink="http://www.w3.org/1999/xlink" xml:space="preserve">
<g id="small_icon">
	<path style="fill:#004E5F;" d="M9.5,15h-1C7.122,15,6,16.121,6,17.5S7.122,20,8.5,20h1c1.378,0,2.5-1.121,2.5-2.5S10.878,15,9.5,15
		z M9.5,19h-1C7.673,19,7,18.327,7,17.5S7.673,16,8.5,16h1c0.827,0,1.5,0.673,1.5,1.5S10.327,19,9.5,19z"/>
	<path style="fill:#004E5F;" d="M24.5,15h-1c-1.378,0-2.5,1.121-2.5,2.5s1.122,2.5,2.5,2.5h1c1.378,0,2.5-1.121,2.5-2.5
		S25.878,15,24.5,15z M24.5,19h-1c-0.827,0-1.5-0.673-1.5-1.5s0.673-1.5,1.5-1.5h1c0.827,0,1.5,0.673,1.5,1.5S25.327,19,24.5,19z"/>
	<path style="fill:#004E5F;" d="M29.75,9h-0.5C28.807,9,28.385,9.078,28,9.217V6.056C28,2.717,25.284,0,21.945,0h-10.89
		C7.716,0,5,2.717,5,6.056v3.161C4.615,9.078,4.193,9,3.75,9h-0.5C1.458,9,0,10.256,0,11.8v0.4c0,1.054,0.501,1.896,1.479,2.312
		C1.172,15.221,1,16,1,16.82V23h1v2.621C2,27.484,3.516,29,5.379,29h0.242C7.484,29,9,27.484,9,25.621V23h15v2.621
		C24,27.484,25.516,29,27.379,29h0.242C29.484,29,31,27.484,31,25.621V23h1v-6.18c0-0.82-0.172-1.6-0.479-2.308
		C32.499,14.096,33,13.254,33,12.2v-0.4C33,10.256,31.542,9,29.75,9z M30,21H3v-4.18C3,14.713,4.713,13,6.82,13h19.36
		c2.106,0,3.82,1.713,3.82,3.82V21z M7.006,6h18.988C25.995,6.019,26,6.037,26,6.056V11h-2.578l-5.205-2.513
		C17.969,8.368,17.67,8.472,17.55,8.72s-0.016,0.547,0.233,0.667L21.123,11h-6.7L9.217,8.487C8.97,8.368,8.669,8.472,8.55,8.72
		C8.43,8.969,8.534,9.268,8.783,9.388L12.123,11H7V6.056C7,6.037,7.005,6.019,7.006,6z M11.055,2h10.89c1.483,0,2.769,0.809,3.476,2
		H7.579C8.287,2.809,9.572,2,11.055,2z M2,12.2v-0.4C2,11.421,2.513,11,3.25,11h0.5c0.455,0,0.806,0.167,1.022,0.379
		c-0.785,0.296-1.491,0.752-2.073,1.335C2.405,12.617,2,12.439,2,12.2z M7,25.621C7,26.381,6.381,27,5.621,27H5.379
		C4.619,27,4,26.381,4,25.621V23h3V25.621z M29,25.621C29,26.381,28.381,27,27.621,27h-0.242C26.619,27,26,26.381,26,25.621V23h3
		V25.621z M28.228,11.379C28.444,11.167,28.795,11,29.25,11h0.5c0.737,0,1.25,0.421,1.25,0.8v0.4c0,0.239-0.405,0.417-0.7,0.514
		C29.719,12.131,29.012,11.675,28.228,11.379z"/>
</g>
</svg>
