<svg version="1.1" id="Layer_1" xmlns="http://www.w3.org/2000/svg" xmlns:xlink="http://www.w3.org/1999/xlink" xml:space="preserve">
<g id="big_icon">
	<g>
		<path fill="#084F5F" d="M49.878,50.464H1.286c-0.553,0-1-0.448-1-1v-4.825c0-0.552,0.447-1,1-1h48.592c0.553,0,1,0.448,1,1v4.825
			C50.878,50.016,50.431,50.464,49.878,50.464z M2.286,48.464h46.592v-2.825H2.286V48.464z"/>
	</g>
	<g>
		<path fill="#084F5F" d="M47.386,45.017c-0.553,0-1-0.448-1-1v-1.869H4.778v1.869c0,0.552-0.447,1-1,1s-1-0.448-1-1v-2.869
			c0-0.552,0.447-1,1-1h43.607c0.553,0,1,0.448,1,1v2.869C48.386,44.569,47.938,45.017,47.386,45.017z"/>
	</g>
	<g>
		<path fill="#084F5F" d="M49.878,15.245H1.286c-0.553,0-1-0.448-1-1v-2.492c0-0.4,0.238-0.761,0.605-0.919L25.188,0.398
			c0.252-0.108,0.537-0.108,0.789,0l24.295,10.436c0.367,0.158,0.605,0.519,0.605,0.919v2.492
			C50.878,14.797,50.431,15.245,49.878,15.245z M2.286,13.245h46.592v-0.833L25.583,2.406L2.286,12.412V13.245z"/>
	</g>
	<g>
		<path fill="#084F5F" d="M47.386,18.737H3.778c-0.553,0-1-0.448-1-1v-2.869c0-0.552,0.447-1,1-1s1,0.448,1,1v1.869h41.607v-1.869
			c0-0.552,0.447-1,1-1s1,0.448,1,1v2.869C48.386,18.29,47.938,18.737,47.386,18.737z"/>
	</g>
	<g>
		<g>
			<g>
				<g>
					<path fill="#084F5F" d="M11.354,22.229H7.421c-0.318,0-0.617-0.151-0.806-0.407L4.111,18.42
						c-0.327-0.445-0.232-1.071,0.213-1.398c0.446-0.328,1.071-0.232,1.398,0.212l2.204,2.994h2.917l2.193-3.027
						c0.323-0.448,0.947-0.548,1.396-0.224c0.447,0.324,0.547,0.949,0.223,1.396l-2.492,3.44
						C11.977,22.075,11.675,22.229,11.354,22.229z"/>
				</g>
			</g>
			<g>
				<g>
					<path fill="#084F5F" d="M13.848,42.096c-0.31,0-0.615-0.144-0.811-0.414l-2.193-3.027H7.927L5.723,41.65
						c-0.327,0.445-0.952,0.54-1.398,0.212c-0.444-0.327-0.54-0.953-0.213-1.398l2.504-3.402c0.188-0.256,0.487-0.407,0.806-0.407
						h3.934c0.32,0,0.622,0.154,0.81,0.414l2.492,3.44c0.324,0.447,0.225,1.072-0.223,1.396
						C14.256,42.034,14.051,42.096,13.848,42.096z"/>
				</g>
			</g>
			<g>
				<path fill="#084F5F" d="M11.251,38.655H7.513c-0.553,0-1-0.448-1-1V21.229c0-0.552,0.447-1,1-1h3.738c0.553,0,1,0.448,1,1
					v16.427C12.251,38.208,11.804,38.655,11.251,38.655z M8.513,36.655h1.738V22.229H8.513V36.655z"/>
			</g>
		</g>
		<g>
			<g>
				<g>
					<path fill="#084F5F" d="M22.153,22.229h-3.936c-0.318,0-0.617-0.151-0.806-0.407l-2.504-3.401
						c-0.327-0.445-0.232-1.071,0.213-1.398c0.446-0.328,1.071-0.232,1.398,0.212l2.204,2.994h2.919l2.193-3.027
						c0.323-0.448,0.946-0.548,1.396-0.224c0.447,0.324,0.547,0.949,0.223,1.396l-2.492,3.44
						C22.775,22.075,22.474,22.229,22.153,22.229z"/>
				</g>
			</g>
			<g>
				<g>
					<path fill="#084F5F" d="M24.646,42.096c-0.31,0-0.615-0.144-0.811-0.414l-2.193-3.027h-2.919L16.52,41.65
						c-0.327,0.445-0.952,0.54-1.398,0.212c-0.444-0.327-0.54-0.953-0.213-1.398l2.504-3.402c0.188-0.256,0.487-0.407,0.806-0.407
						h3.936c0.32,0,0.622,0.154,0.81,0.414l2.492,3.44c0.324,0.447,0.225,1.072-0.223,1.396
						C25.055,42.034,24.85,42.096,24.646,42.096z"/>
				</g>
			</g>
			<g>
				<path fill="#084F5F" d="M22.048,38.655h-3.736c-0.553,0-1-0.448-1-1V21.229c0-0.552,0.447-1,1-1h3.736c0.553,0,1,0.448,1,1
					v16.427C23.048,38.208,22.601,38.655,22.048,38.655z M19.312,36.655h1.736V22.229h-1.736V36.655z"/>
			</g>
		</g>
		<g>
			<g>
				<g>
					<path fill="#084F5F" d="M33.046,22.229h-3.934c-0.317,0-0.616-0.151-0.805-0.407L25.8,18.42
						c-0.328-0.444-0.233-1.07,0.211-1.398s1.07-0.233,1.398,0.211l2.208,2.995h2.918l2.193-3.027
						c0.323-0.448,0.947-0.548,1.396-0.224c0.447,0.324,0.547,0.949,0.223,1.396l-2.492,3.44
						C33.668,22.075,33.366,22.229,33.046,22.229z"/>
				</g>
			</g>
			<g>
				<g>
					<path fill="#084F5F" d="M35.352,42.096c-0.31,0-0.615-0.144-0.811-0.414l-2.193-3.027h-2.917l-2.206,2.996
						c-0.327,0.444-0.953,0.54-1.398,0.212s-0.54-0.954-0.213-1.398l2.506-3.402c0.188-0.256,0.488-0.407,0.806-0.407h3.934
						c0.32,0,0.622,0.154,0.81,0.414l2.492,3.44c0.324,0.447,0.225,1.072-0.223,1.396C35.76,42.034,35.555,42.096,35.352,42.096z"/>
				</g>
			</g>
			<g>
				<path fill="#084F5F" d="M32.753,38.655h-3.736c-0.553,0-1-0.448-1-1V21.229c0-0.552,0.447-1,1-1h3.736c0.553,0,1,0.448,1,1
					v16.427C33.753,38.208,33.306,38.655,32.753,38.655z M30.017,36.655h1.736V22.229h-1.736V36.655z"/>
			</g>
		</g>
		<g>
			<g>
				<g>
					<path fill="#084F5F" d="M43.751,22.229h-3.934c-0.317,0-0.616-0.151-0.805-0.407l-2.508-3.401
						c-0.328-0.444-0.233-1.07,0.211-1.398c0.445-0.328,1.07-0.233,1.398,0.211l2.208,2.995h2.918l2.19-3.027
						c0.324-0.448,0.949-0.548,1.396-0.224c0.448,0.324,0.548,0.949,0.225,1.396l-2.49,3.44
						C44.373,22.075,44.071,22.229,43.751,22.229z"/>
				</g>
			</g>
			<g>
				<g>
					<path fill="#084F5F" d="M46.242,42.096c-0.31,0-0.615-0.144-0.812-0.414l-2.19-3.027h-2.918l-2.208,2.996
						c-0.327,0.445-0.953,0.539-1.398,0.212c-0.444-0.328-0.539-0.954-0.211-1.398l2.508-3.402c0.188-0.256,0.487-0.407,0.805-0.407
						h3.934c0.32,0,0.622,0.154,0.811,0.414l2.49,3.44c0.323,0.447,0.224,1.073-0.225,1.396
						C46.65,42.034,46.445,42.096,46.242,42.096z"/>
				</g>
			</g>
			<g>
				<path fill="#084F5F" d="M43.646,38.655h-3.738c-0.553,0-1-0.448-1-1V21.229c0-0.552,0.447-1,1-1h3.738c0.553,0,1,0.448,1,1
					v16.427C44.646,38.208,44.198,38.655,43.646,38.655z M40.907,36.655h1.738V22.229h-1.738V36.655z"/>
			</g>
		</g>
	</g>
	<g>
		<path fill="none" stroke="#084F5F" stroke-width="2" stroke-linecap="round" stroke-linejoin="round" stroke-miterlimit="10" d="
			M25.579,11.753"/>
	</g>
	<g>
		<path fill="#084F5F" d="M25.579,12.753c-0.553,0-1-0.448-1-1V4.277c0-0.552,0.447-1,1-1s1,0.448,1,1v7.476
			C26.579,12.305,26.132,12.753,25.579,12.753z"/>
	</g>
</g>
</svg>
