<svg version="1.1" id="Layer_1" xmlns="http://www.w3.org/2000/svg" xmlns:xlink="http://www.w3.org/1999/xlink" xml:space="preserve">
<g id="small_icon">
	<g>
		<path fill="#084F5F" d="M37.73,38.427H1.286c-0.553,0-1-0.448-1-1v-3.619c0-0.553,0.447-1,1-1H37.73c0.553,0,1,0.447,1,1v3.619
			C38.73,37.979,38.283,38.427,37.73,38.427z M2.286,36.427H36.73v-1.619H2.286V36.427z"/>
	</g>
	<g>
		<path fill="#084F5F" d="M35.861,34.341c-0.553,0-1-0.448-1-1v-1.15H4.155v1.15c0,0.552-0.447,1-1,1s-1-0.448-1-1v-2.15
			c0-0.553,0.447-1,1-1h32.706c0.553,0,1,0.447,1,1v2.15C36.861,33.893,36.414,34.341,35.861,34.341z"/>
	</g>
	<g>
		<path fill="#084F5F" d="M37.73,12.013H1.286c-0.553,0-1-0.448-1-1V9.144c0-0.4,0.238-0.762,0.605-0.919l18.223-7.826
			c0.252-0.108,0.537-0.108,0.789,0l18.222,7.826c0.367,0.157,0.605,0.519,0.605,0.919v1.869
			C38.73,11.564,38.283,12.013,37.73,12.013z M2.286,10.013H36.73V9.802L19.509,2.405L2.286,9.802V10.013z"/>
	</g>
	<g>
		<path fill="#084F5F" d="M35.861,14.632H3.155c-0.553,0-1-0.448-1-1v-2.152c0-0.553,0.447-1,1-1s1,0.447,1,1v1.152h30.706v-1.152
			c0-0.553,0.447-1,1-1s1,0.447,1,1v2.152C36.861,14.184,36.414,14.632,35.861,14.632z"/>
	</g>
	<g>
		<g>
			<g>
				<g>
					<path fill="#084F5F" d="M9.093,16.751H5.635l-2.028-2.755c-0.164-0.222-0.116-0.535,0.105-0.698
						c0.223-0.164,0.536-0.118,0.699,0.105l1.729,2.348h2.442l1.719-2.374c0.164-0.224,0.479-0.272,0.698-0.111
						c0.224,0.162,0.274,0.475,0.112,0.698L9.093,16.751z"/>
				</g>
			</g>
			<g>
				<g>
					<path fill="#084F5F" d="M10.707,31.651c-0.154,0-0.307-0.072-0.405-0.207l-1.719-2.373H6.141l-1.729,2.347
						c-0.163,0.224-0.476,0.271-0.699,0.106c-0.222-0.164-0.27-0.477-0.105-0.699l2.028-2.754h3.458l2.02,2.786
						c0.162,0.224,0.111,0.536-0.112,0.698C10.912,31.62,10.81,31.651,10.707,31.651z"/>
				</g>
			</g>
			<g>
				<path fill="#084F5F" d="M9.26,29.071H5.456v-13.32H9.26V29.071z M6.456,28.071H8.26v-11.32H6.456V28.071z"/>
			</g>
		</g>
		<g>
			<g>
				<g>
					<path fill="#084F5F" d="M17.192,16.751h-3.46l-2.027-2.755c-0.164-0.222-0.116-0.535,0.105-0.699
						c0.223-0.162,0.536-0.117,0.699,0.106l1.729,2.348h2.444l1.718-2.374c0.163-0.224,0.479-0.272,0.698-0.111
						c0.224,0.162,0.274,0.475,0.112,0.698L17.192,16.751z"/>
				</g>
			</g>
			<g>
				<g>
					<path fill="#084F5F" d="M18.806,31.651c-0.154,0-0.308-0.072-0.405-0.207l-1.718-2.373h-2.444l-1.729,2.347
						c-0.163,0.224-0.476,0.271-0.699,0.106c-0.222-0.164-0.27-0.477-0.105-0.699l2.027-2.754h3.46l2.019,2.786
						c0.162,0.225,0.111,0.537-0.112,0.698C19.011,31.62,18.907,31.651,18.806,31.651z"/>
				</g>
			</g>
			<g>
				<path fill="#084F5F" d="M17.358,29.071h-3.803v-13.32h3.803V29.071z M14.556,28.071h1.803v-11.32h-1.803V28.071z"/>
			</g>
		</g>
		<g>
			<g>
				<g>
					<path fill="#084F5F" d="M25.361,16.751h-3.459l-2.029-2.754c-0.164-0.223-0.116-0.536,0.105-0.699
						c0.223-0.164,0.536-0.117,0.699,0.105l1.73,2.348h2.443l1.719-2.374c0.165-0.224,0.479-0.272,0.698-0.111
						c0.224,0.162,0.274,0.475,0.112,0.698L25.361,16.751z"/>
				</g>
			</g>
			<g>
				<g>
					<path fill="#084F5F" d="M26.835,31.651c-0.154,0-0.307-0.072-0.405-0.207l-1.719-2.373h-2.443l-1.729,2.347
						c-0.164,0.224-0.476,0.271-0.699,0.106c-0.222-0.164-0.27-0.477-0.105-0.699l2.028-2.754h3.459l2.02,2.786
						c0.162,0.224,0.111,0.536-0.112,0.698C27.04,31.62,26.938,31.651,26.835,31.651z"/>
				</g>
			</g>
			<g>
				<path fill="#084F5F" d="M25.387,29.071h-3.803v-13.32h3.803V29.071z M22.584,28.071h1.803v-11.32h-1.803V28.071z"/>
			</g>
		</g>
		<g>
			<g>
				<g>
					<path fill="#084F5F" d="M33.39,16.751h-3.458l-2.029-2.754c-0.164-0.223-0.116-0.536,0.105-0.699
						c0.224-0.164,0.535-0.117,0.699,0.105l1.73,2.348h2.442l1.718-2.374c0.163-0.224,0.478-0.272,0.698-0.111
						c0.224,0.162,0.274,0.475,0.112,0.698L33.39,16.751z"/>
				</g>
			</g>
			<g>
				<g>
					<path fill="#084F5F" d="M35.003,31.651c-0.154,0-0.308-0.072-0.405-0.207l-1.718-2.373h-2.442l-1.73,2.348
						c-0.163,0.223-0.476,0.27-0.699,0.105c-0.222-0.164-0.27-0.477-0.105-0.699l2.029-2.754h3.458l2.019,2.786
						c0.162,0.225,0.111,0.537-0.112,0.698C35.208,31.62,35.104,31.651,35.003,31.651z"/>
				</g>
			</g>
			<g>
				<path fill="#084F5F" d="M33.557,29.071h-3.804v-13.32h3.804V29.071z M30.753,28.071h1.804v-11.32h-1.804V28.071z"/>
			</g>
		</g>
	</g>
	<g>
		<path fill="none" stroke="#084F5F" stroke-width="2" stroke-linecap="round" stroke-linejoin="round" stroke-miterlimit="10" d="
			M19.507,9.144"/>
	</g>
	<g>
		<path fill="#084F5F" d="M19.507,9.11c-0.276,0-0.5-0.224-0.5-0.5V4.068c0-0.276,0.224-0.5,0.5-0.5s0.5,0.224,0.5,0.5V8.61
			C20.007,8.887,19.783,9.11,19.507,9.11z"/>
	</g>
</g>
</svg>
