<svg version="1.1" xmlns="http://www.w3.org/2000/svg" xmlns:xlink="http://www.w3.org/1999/xlink" xml:space="preserve">
<g id="small_icon">
	<g>
		<path fill="#004E5F" d="M21,20H4V0h17V20z M6,18h13V2H6V18z"/>
		<path fill="none" stroke="#004E5F" stroke-width="2" stroke-miterlimit="10" d="M4,5"/>
		<polygon fill="#004E5F" points="20,24 0,24 0,19 2,19 2,22 18,22 18,19 20,19 		"/>
		<path fill="#004E5F" d="M2.608,21.736c-0.871,0-1.697-0.275-2.269-0.781C0.124,20.766,0,20.492,0,20.205v-18
			c0-0.393,0.23-0.75,0.588-0.911c0.357-0.161,0.778-0.1,1.073,0.161c0.419,0.369,1.075,0.571,1.563,0.478
			C3.505,1.88,3.696,1.735,3.827,1.477c0.25-0.493,0.854-0.689,1.344-0.439C5.664,1.288,5.86,1.89,5.61,2.382
			C5.201,3.19,4.487,3.728,3.6,3.897C3.087,3.995,2.534,3.967,2,3.828v15.814c0.288,0.099,0.659,0.123,1.012,0.056
			c0.241-0.046,0.831-0.21,1.097-0.733c0.25-0.493,0.853-0.688,1.344-0.439c0.493,0.25,0.689,0.852,0.439,1.344
			c-0.469,0.926-1.382,1.578-2.503,1.793C3.128,21.713,2.866,21.736,2.608,21.736z"/>
	</g>
	<g>
		<path fill="#004E5F" d="M23,21.667c-1.62,0-3.156-0.519-4.441-1.497l1.212-1.592c0.935,0.713,2.051,1.089,3.229,1.089
			c2.941,0,5.334-2.393,5.334-5.333S25.941,9,23,9c-0.833,0-1.63,0.187-2.37,0.554l-0.891-1.791C20.758,7.257,21.855,7,23,7
			c4.044,0,7.334,3.29,7.334,7.333S27.044,21.667,23,21.667z"/>
		<path fill="#004E5F" d="M22.875,16c-0.942,0-1.708-0.766-1.708-1.708s0.767-1.708,1.708-1.708s1.708,0.767,1.708,1.708
			S23.817,16,22.875,16z M22.875,13.583c-0.391,0-0.708,0.318-0.708,0.708S22.484,15,22.875,15s0.708-0.317,0.708-0.708
			S23.266,13.583,22.875,13.583z"/>
	</g>
	<g>
		<path fill="#004E5F" d="M24,31.667c-4.043,0-7.333-3.29-7.333-7.333c0-0.351,0.025-0.701,0.074-1.043l1.979,0.281
			c-0.035,0.249-0.053,0.503-0.053,0.762c0,2.94,2.393,5.333,5.333,5.333c2.941,0,5.334-2.393,5.334-5.333
			c0-1.775-0.879-3.429-2.352-4.424l1.119-1.657c2.023,1.367,3.232,3.641,3.232,6.081C31.334,28.377,28.043,31.667,24,31.667z"/>
		<path fill="#004E5F" d="M23.875,26c-0.942,0-1.708-0.766-1.708-1.708s0.767-1.708,1.708-1.708s1.708,0.766,1.708,1.708
			S24.817,26,23.875,26z M23.875,23.584c-0.391,0-0.708,0.317-0.708,0.708S23.484,25,23.875,25s0.708-0.317,0.708-0.708
			S24.266,23.584,23.875,23.584z"/>
	</g>
</g>
</svg>
