<svg version="1.1" id="Layer_1" xmlns="http://www.w3.org/2000/svg" xmlns:xlink="http://www.w3.org/1999/xlink" xml:space="preserve">
<g id="big_icon">
	<g>
		<path style="fill:none;stroke:#004E5F;stroke-width:2;stroke-linecap:round;stroke-linejoin:round;stroke-miterlimit:10;" d="
			M3.044,24.292"/>
		<path style="fill:#004E5F;" d="M35.383,26H4c-0.553,0-1-0.447-1-1s0.447-1,1-1h31.383C35.918,24,36,24,36,23.274V3.384
			C36,3.242,35.982,2,35.383,2H12c-0.553,0-1-0.448-1-1s0.447-1,1-1h23.383C36.973,0,38,1.328,38,3.384v19.891
			C38,25.646,36.36,26,35.383,26z"/>
		<path style="fill:#004E5F;" d="M34.863,40H4.137C2.407,40,1,38.594,1,36.865v-4.73C1,30.406,2.407,29,4.137,29h30.727
			C36.593,29,38,30.406,38,32.135v4.73C38,38.594,36.593,40,34.863,40z M4.137,31C3.51,31,3,31.51,3,32.135v4.73
			C3,37.49,3.51,38,4.137,38h30.727C35.49,38,36,37.49,36,36.865v-4.73C36,31.51,35.49,31,34.863,31H4.137z"/>
		<rect x="13" y="25" style="fill:#004E5F;" width="16" height="5"/>
		<rect x="8" y="33" style="fill:#004E5F;" width="2" height="1"/>
		<rect x="8" y="35" style="fill:#004E5F;" width="2" height="1"/>
		<rect x="12" y="33" style="fill:#004E5F;" width="3" height="1"/>
		<rect x="12" y="35" style="fill:#004E5F;" width="3" height="1"/>
		<rect x="16" y="33" style="fill:#004E5F;" width="3" height="1"/>
		<rect x="16" y="35" style="fill:#004E5F;" width="3" height="1"/>
		<rect x="21" y="33" style="fill:#004E5F;" width="2" height="1"/>
		<rect x="21" y="35" style="fill:#004E5F;" width="2" height="1"/>
		<rect x="25" y="33" style="fill:#004E5F;" width="4" height="1"/>
		<rect x="25" y="35" style="fill:#004E5F;" width="4" height="1"/>
		<rect x="30" y="33" style="fill:#004E5F;" width="3" height="1"/>
		<rect x="30" y="35" style="fill:#004E5F;" width="3" height="1"/>
		<path style="fill:#004E5F;" d="M36,20H2c-0.553,0-1-0.448-1-1s0.447-1,1-1h34c0.553,0,1,0.448,1,1S36.553,20,36,20z"/>
	</g>
	<path style="fill:#004E5F;" d="M28,26H3.326C1.492,26,0,24.549,0,22.766V3.234C0,1.451,1.492,0,3.326,0H28c0.553,0,1,0.448,1,1
		s-0.447,1-1,1H3.326C2.596,2,2,2.554,2,3.234v19.532C2,23.446,2.596,24,3.326,24H28c0.553,0,1,0.447,1,1S28.553,26,28,26z"/>
</g>
</svg>
