<svg version="1.1" id="Layer_1" xmlns="http://www.w3.org/2000/svg" xmlns:xlink="http://www.w3.org/1999/xlink" xml:space="preserve">
<g id="small_icon">
	<path style="fill:#004E5F;" d="M6.288,23.655L0.951,9.918L27.549-0.414l5.336,13.737L6.288,23.655z M3.54,11.059l3.887,10.008
		l22.87-8.883L26.41,2.175L3.54,11.059z"/>
	<path style="fill:#004E5F;" d="M16.741,16.269c-1.933,0-3.634-1.164-4.334-2.966c-0.928-2.391,0.262-5.089,2.651-6.017
		c0.54-0.21,1.106-0.316,1.682-0.316c1.933,0,3.634,1.165,4.334,2.966c0.928,2.389-0.261,5.087-2.649,6.016
		C17.882,16.162,17.316,16.269,16.741,16.269z M16.739,8.97c-0.327,0-0.649,0.061-0.958,0.181c-1.362,0.528-2.039,2.066-1.511,3.428
		c0.399,1.026,1.369,1.69,2.47,1.69c0.327,0,0.649-0.061,0.958-0.181c1.36-0.529,2.038-2.066,1.509-3.428
		C18.816,9.649,17.823,8.97,16.739,8.97z"/>
	<g>
		<polygon style="fill:#004E5F;" points="5.226,34.27 -0.11,20.531 5.673,18.286 6.397,20.15 2.479,21.672 6.366,31.68 
			29.236,22.797 26.024,14.531 27.889,13.806 31.825,23.938 		"/>
		<path style="fill:#004E5F;" d="M15.677,26.884c-0.637,0-1.272-0.132-1.872-0.396c-1.137-0.501-2.01-1.413-2.459-2.571
			c-0.467-1.201-0.411-2.555,0.152-3.715l1.799,0.874c-0.326,0.671-0.357,1.423-0.087,2.116c0.256,0.66,0.754,1.18,1.401,1.465
			c0.647,0.285,1.367,0.303,2.026,0.045c1.361-0.529,2.039-2.066,1.51-3.427c-0.256-0.659-0.754-1.181-1.401-1.466l0.807-1.83
			c1.136,0.5,2.009,1.414,2.459,2.571c0.928,2.389-0.26,5.087-2.649,6.017C16.815,26.777,16.246,26.884,15.677,26.884z"/>
	</g>
</g>
</svg>
