<svg version="1.1" id="Layer_1" xmlns="http://www.w3.org/2000/svg" xmlns:xlink="http://www.w3.org/1999/xlink" xml:space="preserve">
<g id="big_icon">
	<polygon style="fill:#004E5F;" points="6.843,46.608 -0.248,28.354 7.424,25.374 8.328,27.703 2.986,29.778 8.268,43.373 
		39.115,31.392 34.773,20.218 37.104,19.313 42.35,32.816 	"/>
	<path style="fill:#004E5F;" d="M20.809,36.73c-0.841,0-1.681-0.176-2.475-0.525c-1.502-0.661-2.656-1.867-3.25-3.397
		c-0.617-1.587-0.544-3.377,0.201-4.911l2.249,1.094c-0.448,0.923-0.491,1.957-0.12,2.912c0.353,0.907,1.037,1.623,1.928,2.016
		c0.892,0.392,1.882,0.414,2.789,0.062c1.872-0.728,2.805-2.844,2.076-4.716c-0.352-0.907-1.037-1.623-1.928-2.016l1.008-2.288
		c1.502,0.662,2.656,1.869,3.25,3.398c1.227,3.157-0.344,6.724-3.501,7.951C22.314,36.59,21.561,36.73,20.809,36.73z"/>
	<g>
		<path style="fill:#004E5F;" d="M8.267,32.372L1.176,14.117L36.682,0.325l7.092,18.255L8.267,32.372z M4.41,15.542l5.281,13.595
			l30.846-11.981L35.257,3.56L4.41,15.542z"/>
		<path style="fill:#004E5F;" d="M22.236,22.491c-2.555,0-4.804-1.539-5.729-3.92c-0.595-1.53-0.557-3.2,0.104-4.702
			s1.868-2.656,3.398-3.25c0.714-0.277,1.462-0.417,2.222-0.417c2.516,0,4.818,1.575,5.729,3.92
			c1.227,3.158-0.344,6.724-3.502,7.951C23.745,22.351,22.996,22.491,22.236,22.491z M22.232,12.701
			c-0.449,0-0.893,0.083-1.316,0.248c-0.908,0.353-1.623,1.037-2.016,1.928c-0.393,0.891-0.415,1.881-0.063,2.789
			c0.549,1.412,1.883,2.325,3.398,2.325c0.449,0,0.893-0.084,1.318-0.249c1.871-0.728,2.804-2.843,2.076-4.716
			C25.091,13.636,23.725,12.701,22.232,12.701z"/>
	</g>
</g>
</svg>
