<svg version="1.1" id="Layer_1" xmlns="http://www.w3.org/2000/svg" xmlns:xlink="http://www.w3.org/1999/xlink" xml:space="preserve">
<g id="small_icon">
	<path style="fill:#004E5F;" d="M42,3H32V1c0-0.552-0.447-1-1-1H12c-0.553,0-1,0.448-1,1v2H1C0.447,3,0,3.448,0,4v18
		c0,0.553,0.447,1,1,1h10c0,0.553,0.447,1,1,1h19c0.553,0,1-0.447,1-1h10c0.553,0,1-0.447,1-1V4C43,3.448,42.553,3,42,3z M2,21V5h9
		v16H2z M22,14h4v8h-4V14z M21,22h-4v-8h4V22z M27,22v-8.5c0-0.276-0.224-0.5-0.5-0.5h-5h-5c-0.276,0-0.5,0.224-0.5,0.5V22h-3V4V2
		h17v2v18H27z M41,21h-9V5h9V21z"/>
	<path style="fill:#004E5F;" d="M6,10h1c0.553,0,1-0.448,1-1V8c0-0.552-0.447-1-1-1H6C5.447,7,5,7.448,5,8v1C5,9.552,5.447,10,6,10z
		"/>
	<path style="fill:#004E5F;" d="M36,10h1c0.553,0,1-0.448,1-1V8c0-0.552-0.447-1-1-1h-1c-0.553,0-1,0.448-1,1v1
		C35,9.552,35.447,10,36,10z"/>
	<path style="fill:#004E5F;" d="M18,6h1c0.553,0,1-0.448,1-1V4c0-0.552-0.447-1-1-1h-1c-0.553,0-1,0.448-1,1v1
		C17,5.552,17.447,6,18,6z"/>
	<path style="fill:#004E5F;" d="M25,6h1c0.553,0,1-0.448,1-1V4c0-0.552-0.447-1-1-1h-1c-0.553,0-1,0.448-1,1v1
		C24,5.552,24.447,6,25,6z"/>
	<polygon style="fill:#004E5F;" points="4,13 4,14.125 4.867,13 	"/>
	<polygon style="fill:#004E5F;" points="9,19 9,17.057 7.502,19 	"/>
	<polygon style="fill:#004E5F;" points="4,15.354 4,19 6.556,19 9,15.828 9,13 5.814,13 	"/>
	<polygon style="fill:#004E5F;" points="34,13 34,14.125 34.867,13 	"/>
	<polygon style="fill:#004E5F;" points="39,19 39,17.057 37.502,19 	"/>
	<polygon style="fill:#004E5F;" points="39,15.828 39,13 35.814,13 34,15.354 34,19 36.556,19 	"/>
	<path style="fill:#004E5F;" d="M28.5,8h-14C14.224,8,14,8.224,14,8.5v3c0,0.276,0.224,0.5,0.5,0.5h14c0.276,0,0.5-0.224,0.5-0.5v-3
		C29,8.224,28.776,8,28.5,8z M28,11H15V9h13V11z"/>
	<rect x="19.5" y="17.057" style="fill:#004E5F;" width="0.375" height="0.972"/>
	<rect x="22.5" y="17.057" style="fill:#004E5F;" width="0.375" height="0.972"/>
</g>
</svg>
