<svg version="1.1" id="Layer_1" xmlns="http://www.w3.org/2000/svg" xmlns:xlink="http://www.w3.org/1999/xlink" xml:space="preserve">
<g id="big_icon">
	<g>
		<rect x="3.495" y="4.924" fill="#084F5F" width="1" height="45.778"/>
	</g>
	<g>
		<polygon fill="#084F5F" points="42.57,51.702 3.995,51.702 3.995,49.702 40.57,49.702 40.57,5.924 3.995,5.924 3.995,3.924 
			42.57,3.924 		"/>
	</g>
	<g>
		<rect x="9.862" y="4.924" fill="#084F5F" width="2" height="45.778"/>
	</g>
	<g>
		<g>
			<path fill="#084F5F" d="M3.995,13.404c-2.228,0-4.04-1.812-4.04-4.04s1.812-4.04,4.04-4.04s4.039,1.812,4.039,4.04
				S6.223,13.404,3.995,13.404z M3.995,7.325c-1.125,0-2.04,0.915-2.04,2.04c0,1.125,0.915,2.04,2.04,2.04
				c1.124,0,2.039-0.915,2.039-2.04C6.034,8.24,5.119,7.325,3.995,7.325z"/>
		</g>
		<g>
			<path fill="#084F5F" d="M3.995,19.482c-2.228,0-4.04-1.812-4.04-4.039s1.812-4.039,4.04-4.039s4.039,1.812,4.039,4.039
				S6.223,19.482,3.995,19.482z M3.995,13.404c-1.125,0-2.04,0.915-2.04,2.039c0,1.124,0.915,2.039,2.04,2.039
				c1.124,0,2.039-0.915,2.039-2.039C6.034,14.319,5.119,13.404,3.995,13.404z"/>
		</g>
		<g>
			<path fill="#084F5F" d="M3.995,25.562c-2.228,0-4.04-1.812-4.04-4.04s1.812-4.04,4.04-4.04s4.039,1.812,4.039,4.04
				S6.223,25.562,3.995,25.562z M3.995,19.482c-1.125,0-2.04,0.915-2.04,2.04c0,1.125,0.915,2.04,2.04,2.04
				c1.124,0,2.039-0.915,2.039-2.04C6.034,20.397,5.119,19.482,3.995,19.482z"/>
		</g>
		<g>
			<path fill="#084F5F" d="M3.995,31.639c-2.228,0-4.04-1.812-4.04-4.04c0-2.227,1.812-4.038,4.04-4.038s4.039,1.812,4.039,4.038
				C8.034,29.827,6.223,31.639,3.995,31.639z M3.995,25.562c-1.125,0-2.04,0.914-2.04,2.038c0,1.125,0.915,2.04,2.04,2.04
				c1.124,0,2.039-0.915,2.039-2.04C6.034,26.476,5.119,25.562,3.995,25.562z"/>
		</g>
		<g>
			<path fill="#084F5F" d="M3.995,37.718c-2.228,0-4.04-1.812-4.04-4.04c0-2.227,1.812-4.039,4.04-4.039s4.039,1.812,4.039,4.039
				C8.034,35.906,6.223,37.718,3.995,37.718z M3.995,31.639c-1.125,0-2.04,0.915-2.04,2.039c0,1.125,0.915,2.04,2.04,2.04
				c1.124,0,2.039-0.915,2.039-2.04C6.034,32.554,5.119,31.639,3.995,31.639z"/>
		</g>
		<g>
			<path fill="#084F5F" d="M3.995,43.796c-2.228,0-4.04-1.812-4.04-4.04c0-2.227,1.812-4.038,4.04-4.038s4.039,1.812,4.039,4.038
				C8.034,41.984,6.223,43.796,3.995,43.796z M3.995,37.718c-1.125,0-2.04,0.914-2.04,2.038c0,1.125,0.915,2.04,2.04,2.04
				c1.124,0,2.039-0.915,2.039-2.04C6.034,38.632,5.119,37.718,3.995,37.718z"/>
		</g>
		<g>
			<path fill="#084F5F" d="M3.995,49.875c-2.228,0-4.04-1.812-4.04-4.041c0-2.227,1.812-4.039,4.04-4.039s4.039,1.812,4.039,4.039
				C8.034,48.063,6.223,49.875,3.995,49.875z M3.995,43.796c-1.125,0-2.04,0.915-2.04,2.039c0,1.125,0.915,2.041,2.04,2.041
				c1.124,0,2.039-0.916,2.039-2.041C6.034,44.711,5.119,43.796,3.995,43.796z"/>
		</g>
	</g>
	<g>
		<g>
			<path fill="#084F5F" d="M53.156,43.501h-6.291V7.246h6.291V43.501z M48.865,41.501h2.291V9.246h-2.291V41.501z"/>
		</g>
		<g>
			<path fill="#084F5F" d="M52.156,49.158h-4.291c-0.553,0-1-0.448-1-1v-5.657c0-0.552,0.447-1,1-1h4.291c0.553,0,1,0.448,1,1v5.657
				C53.156,48.71,52.709,49.158,52.156,49.158z M48.865,47.158h2.291v-3.657h-2.291V47.158z"/>
		</g>
		<g>
			<polygon fill="#084F5F" points="51.224,8.606 50.011,5.473 48.798,8.606 46.933,7.885 50.011,-0.068 53.089,7.885 			"/>
		</g>
	</g>
	<g>
		<path fill="#084F5F" d="M37.922,22.406H14.511v-8.007h23.411V22.406z M15.511,21.406h21.411v-6.007H15.511V21.406z"/>
	</g>
	<g>
		<rect x="47.865" y="37.917" fill="#084F5F" width="4.291" height="2"/>
	</g>
</g>
</svg>
