<svg version="1.1" id="Layer_1" xmlns="http://www.w3.org/2000/svg" xmlns:xlink="http://www.w3.org/1999/xlink" xml:space="preserve">
<g id="small_icon">
	<g>
		<g>
			<path style="fill:#004E5F;" d="M6.661,11.345c-0.659,0-1.29-0.299-1.746-0.799c-0.43,0.396-1.027,0.62-1.706,0.62
				c-1.424,0-2.417-1.399-2.417-2.655c0-0.371,0.092-0.544,0.263-0.734c0.07-0.079,0.201-0.224,0.378-0.819
				C-0.17,6.726-0.358,5.613-0.358,5.104c0-0.57,0.235-1.896,2.417-1.896c0.379,0,0.691,0.063,0.92,0.109
				C3.019,3.325,3.056,3.333,3.09,3.34c0.002-0.033,0.003-0.072,0.003-0.119c0-1.341,1.084-2.433,2.417-2.433
				c1.232,0,2.252,0.916,2.399,2.094c1.371,0.04,2.319,0.924,2.319,2.177c0,0.934-0.533,1.578-1.467,1.827
				c0.247,0.616,0.316,1.367,0.316,1.596C9.078,9.806,8.022,11.345,6.661,11.345z M4.936,9.19L4.936,9.19
				c0.193,0,0.368,0.111,0.451,0.285c0.252,0.528,0.752,0.87,1.274,0.87c0.729,0,1.417-1.049,1.417-1.863
				c0-0.527-0.217-1.296-0.379-1.492c-0.228-0.046-0.4-0.248-0.4-0.49c0-0.276,0.224-0.5,0.5-0.5c1.429,0,1.429-0.708,1.429-0.94
				c0-0.87-0.763-1.179-1.417-1.179C7.713,3.957,7.613,4.012,7.488,4.042C7.318,4.083,7.142,4.032,7.019,3.909
				C6.896,3.787,6.846,3.61,6.885,3.441c0.033-0.138,0.042-0.179,0.042-0.265c0-0.778-0.623-1.388-1.417-1.388
				c-0.781,0-1.417,0.643-1.417,1.433c0,0.757-0.283,1.141-0.841,1.141c-0.127,0-0.285-0.027-0.472-0.065
				c-0.208-0.042-0.443-0.09-0.721-0.09c-1.417,0-1.417,0.628-1.417,0.896S0.642,6,2.059,6c0.153,0,0.303,0.07,0.398,0.189
				c0.095,0.12,0.136,0.276,0.101,0.425c-0.29,1.23-0.533,1.579-0.757,1.829c-0.008,0.833,0.61,1.723,1.408,1.723
				c0.353,0,0.987-0.09,1.275-0.692C4.568,9.3,4.743,9.19,4.936,9.19z"/>
			<path style="fill:#004E5F;" d="M5.189,7.63c-0.91,0-1.649-0.74-1.649-1.65c0-0.909,0.74-1.649,1.649-1.649
				s1.649,0.74,1.649,1.649C6.838,6.89,6.099,7.63,5.189,7.63z M5.189,5.331c-0.358,0-0.649,0.291-0.649,0.649
				c0,0.358,0.292,0.65,0.649,0.65s0.649-0.292,0.649-0.65C5.838,5.622,5.547,5.331,5.189,5.331z"/>
		</g>
		<g>
			<path style="fill:#004E5F;" d="M7.811,18.343c-1.355,0-2.417-1.045-2.417-2.38c0-0.365,0.086-0.81,0.265-1.185
				c-0.836-0.386-1.415-1.236-1.415-2.219c0-1.346,1.084-2.441,2.417-2.441c0.382,0,0.697,0.065,0.927,0.113
				c0.034,0.007,0.07,0.014,0.104,0.021c0.001-0.031,0.002-0.068,0.002-0.112c0-1.332,1.084-2.415,2.417-2.415
				c1.304,0,2.37,1.04,2.416,2.335c1.28,0.061,2.302,1.137,2.302,2.45c0,0.986-0.591,1.86-1.42,2.26
				c0.182,0.377,0.27,0.828,0.27,1.197c0,1.317-1.062,2.348-2.417,2.348c-0.667,0-1.28-0.265-1.725-0.72
				C9.088,18.063,8.465,18.343,7.811,18.343z M6.673,15c-0.074,0.053-0.279,0.494-0.279,0.962c0,0.774,0.623,1.38,1.417,1.38
				c0.534,0,1.034-0.325,1.274-0.829c0.166-0.348,0.736-0.348,0.902,0c0.236,0.494,0.724,0.801,1.274,0.801
				c0.808,0,1.417-0.58,1.417-1.348c0-0.457-0.194-0.888-0.308-0.968c-0.021-0.002-0.042-0.005-0.062-0.009
				c-0.25-0.026-0.429-0.235-0.429-0.494C11.881,14.22,12.124,14,12.4,14c0.78,0,1.429-0.682,1.429-1.49
				c0-0.788-0.649-1.453-1.417-1.453c-0.118,0-0.232,0.002-0.324,0.023c-0.171,0.038-0.346-0.011-0.468-0.134
				c-0.123-0.123-0.172-0.3-0.132-0.469c0.027-0.114,0.042-0.229,0.042-0.333c0-0.784-0.636-1.421-1.417-1.421
				S8.695,9.36,8.695,10.14c0,0.754-0.281,1.137-0.836,1.137c-0.152,0-0.301-0.031-0.474-0.067
				c-0.208-0.043-0.444-0.092-0.724-0.092c-0.782,0-1.417,0.646-1.417,1.441C5.244,13.354,5.879,14,6.661,14
				c0.004,0,0.008,0,0.012,0c0.276,0,0.5,0.224,0.5,0.5S6.949,15,6.673,15z"/>
			<path style="fill:#004E5F;" d="M9.791,14.532c-0.91,0-1.65-0.74-1.65-1.65s0.74-1.649,1.65-1.649s1.649,0.74,1.649,1.649
				S10.7,14.532,9.791,14.532z M9.791,12.233c-0.358,0-0.65,0.292-0.65,0.649c0,0.358,0.292,0.65,0.65,0.65
				c0.358,0,0.649-0.292,0.649-0.65C10.44,12.524,10.148,12.233,9.791,12.233z"/>
		</g>
		<g>
			<path style="fill:#004E5F;" d="M15.863,10.204c-0.657,0-1.287-0.294-1.742-0.787c-0.431,0.407-1.03,0.637-1.709,0.637
				c-1.288,0-2.417-1.223-2.417-2.617c0-0.565,0.193-0.926,0.46-1.427c0.014-0.027,0.029-0.055,0.044-0.083
				C9.448,5.713,8.845,5.037,8.845,4.029c0-1.234,0.903-1.971,2.417-1.971c0.379,0,0.692,0.063,0.92,0.11
				c0.039,0.008,0.076,0.016,0.11,0.023c0.002-0.033,0.003-0.072,0.003-0.118c0-1.339,1.084-2.429,2.417-2.429
				c1.243,0,2.269,0.932,2.403,2.126c1.348,0.044,2.315,0.962,2.315,2.215c0,0.95-0.541,1.625-1.461,1.891
				c0.242,0.596,0.311,1.315,0.311,1.536C18.28,8.702,17.225,10.204,15.863,10.204z M14.138,8.059c0.192,0,0.368,0.11,0.451,0.284
				c0.25,0.523,0.75,0.861,1.274,0.861c0.75,0,1.417-1.002,1.417-1.793c0-0.503-0.212-1.235-0.37-1.419
				c-0.232-0.043-0.409-0.247-0.409-0.492c0-0.276,0.224-0.5,0.5-0.5c0.659,0,1.43-0.176,1.43-1.016c0-0.84-0.712-1.216-1.417-1.216
				c-0.12,0.07-0.213,0.115-0.325,0.142c-0.169,0.04-0.345-0.011-0.468-0.133c-0.123-0.122-0.173-0.299-0.133-0.468
				c0.032-0.136,0.042-0.183,0.042-0.274c0-0.78-0.623-1.392-1.417-1.392c-0.781,0-1.417,0.641-1.417,1.429
				c0,0.757-0.283,1.14-0.84,1.14c-0.127,0-0.285-0.027-0.472-0.065c-0.208-0.042-0.443-0.09-0.722-0.09
				c-0.94,0-1.417,0.327-1.417,0.971S10.322,5,11.262,5c0.171,0,0.336,0.087,0.428,0.232s0.109,0.326,0.037,0.481
				c-0.146,0.312-0.278,0.558-0.39,0.768c-0.254,0.477-0.342,0.656-0.342,0.956c0,0.831,0.688,1.617,1.417,1.617
				c0.595,0,1.059-0.259,1.274-0.71C13.77,8.169,13.945,8.059,14.138,8.059z"/>
			<path style="fill:#004E5F;" d="M14.392,6.479c-0.91,0-1.649-0.74-1.649-1.649c0-0.909,0.74-1.649,1.649-1.649
				s1.649,0.74,1.649,1.649C16.041,5.74,15.301,6.479,14.392,6.479z M14.392,4.181c-0.358,0-0.649,0.291-0.649,0.649
				s0.292,0.649,0.649,0.649s0.649-0.292,0.649-0.649S14.75,4.181,14.392,4.181z"/>
		</g>
		<g>
			<path style="fill:#004E5F;" d="M18.164,17.229c-1.355,0-2.417-1.029-2.417-2.343c0-0.397,0.088-0.8,0.251-1.131
				c-0.822-0.409-1.401-1.286-1.401-2.273c0-1.364,1.107-2.517,2.417-2.517c0.276,0,0.5,0.224,0.5,0.5s-0.224,0.5-0.5,0.5
				c-0.755,0-1.417,0.708-1.417,1.517c0,0.809,0.663,1.518,1.417,1.518c0.004,0,0.008,0,0.012,0c0.276,0,0.5,0.224,0.5,0.5
				s-0.224,0.5-0.5,0.5c-0.082,0.044-0.279,0.429-0.279,0.887c0,0.766,0.609,1.343,1.417,1.343c0.529,0,1.029-0.333,1.274-0.847
				c0.166-0.347,0.736-0.349,0.902,0c0.233,0.488,0.722,0.792,1.274,0.792c0.821,0,1.417-0.538,1.417-1.278
				c0-0.452-0.191-0.835-0.296-0.897c-0.016-0.001-0.032-0.002-0.048-0.005c-0.255-0.021-0.446-0.234-0.446-0.496
				c0-0.276,0.235-0.498,0.512-0.498c0.754,0,1.429-0.746,1.429-1.564c0-0.182-0.032-0.405-0.075-0.53
				c-0.091-0.261,0.047-0.546,0.308-0.636c0.261-0.093,0.545,0.047,0.636,0.308c0.097,0.277,0.131,0.625,0.131,0.858
				c0,0.989-0.592,1.89-1.407,2.312c0.167,0.335,0.257,0.745,0.257,1.148c0,1.298-1.039,2.278-2.417,2.278
				c-0.666,0-1.277-0.26-1.721-0.709C19.442,16.943,18.818,17.229,18.164,17.229z"/>
			<path style="fill:#004E5F;" d="M20.144,13.382c-0.91,0-1.649-0.74-1.649-1.65c0-0.909,0.74-1.649,1.649-1.649
				s1.649,0.74,1.649,1.649C21.793,12.642,21.053,13.382,20.144,13.382z M20.144,11.083c-0.358,0-0.649,0.291-0.649,0.649
				c0,0.358,0.292,0.65,0.649,0.65s0.649-0.292,0.649-0.65C20.793,11.374,20.501,11.083,20.144,11.083z"/>
		</g>
		<g>
			<path style="fill:#004E5F;" d="M17.014,22.907c-0.655,0-1.275-0.272-1.723-0.73c-0.446,0.462-1.061,0.73-1.728,0.73
				c-1.333,0-2.417-1.084-2.417-2.417c0-0.437,0.116-0.854,0.331-1.217c-0.575-0.232-1.041-0.673-1.289-1.249
				c-0.109-0.253,0.008-0.548,0.261-0.657c0.252-0.109,0.548,0.007,0.657,0.261c0.217,0.503,0.729,0.828,1.307,0.828
				c0.216,0,0.413,0.138,0.481,0.342s0.003,0.429-0.17,0.558c-0.367,0.272-0.577,0.687-0.577,1.134c0,0.781,0.636,1.417,1.417,1.417
				c0.547,0,1.036-0.311,1.274-0.811c0.083-0.173,0.259-0.284,0.451-0.284l0,0c0.193,0,0.368,0.111,0.451,0.285
				c0.239,0.499,0.727,0.81,1.274,0.81c0.798,0,1.417-0.884,1.417-1.645c0-0.498-0.213-1.125-0.354-1.27
				c-0.026-0.005-0.052-0.011-0.077-0.02c-0.243-0.028-0.395-0.229-0.395-0.485c0-0.276,0.27-0.488,0.546-0.488
				c0.718,0,1.43-0.368,1.43-1.189c0-0.276,0.224-0.5,0.5-0.5s0.5,0.224,0.5,0.5c0,0.953-0.573,1.709-1.452,2.026
				c0.219,0.505,0.302,1.109,0.302,1.425C19.431,21.672,18.302,22.907,17.014,22.907z"/>
			<path style="fill:#004E5F;" d="M15.542,19.133c-0.91,0-1.649-0.74-1.649-1.649c0-0.909,0.74-1.649,1.649-1.649
				s1.649,0.74,1.649,1.649C17.191,18.394,16.452,19.133,15.542,19.133z M15.542,16.835c-0.358,0-0.649,0.291-0.649,0.649
				s0.292,0.649,0.649,0.649s0.649-0.292,0.649-0.649S15.9,16.835,15.542,16.835z"/>
		</g>
		<g>
			<path style="fill:#004E5F;" d="M22.766,11.404c-0.654,0-1.275-0.273-1.723-0.731c-0.445,0.463-1.061,0.731-1.728,0.731
				c-1.333,0-2.417-1.084-2.417-2.417c0-0.276,0.224-0.5,0.5-0.5s0.5,0.224,0.5,0.5c0,0.782,0.636,1.417,1.417,1.417
				c0.547,0,1.035-0.311,1.274-0.811c0.166-0.348,0.736-0.348,0.902,0c0.239,0.5,0.728,0.811,1.274,0.811
				c0.73,0,1.417-1.066,1.417-1.893c0-0.537-0.219-1.322-0.383-1.522c-0.227-0.047-0.396-0.249-0.396-0.489
				c0-0.276,0.224-0.5,0.5-0.5c1.43,0,1.43-0.708,1.43-0.94c0-0.87-0.763-1.179-1.417-1.179c-0.097,0.076-0.197,0.131-0.322,0.161
				c-0.169,0.041-0.346-0.01-0.468-0.131c-0.123-0.122-0.174-0.299-0.135-0.468c0.032-0.137,0.042-0.18,0.042-0.267
				c0-0.778-0.623-1.388-1.417-1.388c-0.782,0-1.417,0.643-1.417,1.433c0,0.276-0.224,0.5-0.5,0.5s-0.5-0.224-0.5-0.5
				c0-1.341,1.084-2.433,2.417-2.433c1.232,0,2.252,0.916,2.399,2.094c1.371,0.04,2.319,0.924,2.319,2.177
				c0,0.935-0.535,1.58-1.471,1.828c0.25,0.625,0.32,1.392,0.32,1.625C25.183,9.85,24.127,11.404,22.766,11.404z"/>
			<path style="fill:none;stroke:#004E5F;stroke-linecap:round;stroke-linejoin:round;stroke-miterlimit:10;" d="M18.164,3.714"/>
			<path style="fill:#004E5F;" d="M21.294,7.63c-0.91,0-1.65-0.74-1.65-1.65c0-0.909,0.74-1.649,1.65-1.649
				c0.909,0,1.649,0.74,1.649,1.649C22.943,6.89,22.203,7.63,21.294,7.63z M21.294,5.331c-0.358,0-0.65,0.291-0.65,0.649
				c0,0.358,0.292,0.65,0.65,0.65c0.358,0,0.649-0.292,0.649-0.65C21.943,5.622,21.652,5.331,21.294,5.331z"/>
		</g>
	</g>
	<path style="fill:#004E5F;" d="M11.857,33.625c-0.028,0-0.056-0.001-0.084-0.004c-0.335-0.027-0.633-0.223-0.794-0.519L0.872,14.51
		c-0.125-0.229-0.155-0.498-0.084-0.749l1.079-3.826l1.925,0.543l-0.969,3.434l9.188,16.901l11.068-14.058l-0.48-0.198l0.762-1.85
		l1.704,0.702c0.29,0.12,0.507,0.368,0.586,0.671s0.012,0.626-0.182,0.873L12.643,33.244C12.453,33.485,12.163,33.625,11.857,33.625
		z"/>
	<path style="fill:#004E5F;" d="M5.189,16.026c-0.092,0-0.186-0.013-0.278-0.04l-3.438-0.994c-0.531-0.153-0.836-0.708-0.684-1.238
		c0.154-0.531,0.71-0.835,1.238-0.684l3.439,0.994c0.531,0.153,0.836,0.708,0.684,1.239C6.023,15.741,5.624,16.026,5.189,16.026z"/>
	<path style="fill:#004E5F;" d="M13.662,31.334c-0.058,0-0.118-0.005-0.177-0.016c-0.543-0.098-0.905-0.617-0.808-1.16l1.419-7.928
		c0.097-0.543,0.615-0.908,1.161-0.808c0.543,0.097,0.905,0.616,0.808,1.161l-1.419,7.926
		C14.559,30.994,14.137,31.334,13.662,31.334z"/>
</g>
</svg>
