<svg version="1.1" id="Layer_1" xmlns="http://www.w3.org/2000/svg" xmlns:xlink="http://www.w3.org/1999/xlink" xml:space="preserve">
<g id="big_icon">
	<g>
		<g>
			<path style="fill:#004E5F;" d="M10.125,17.195c-0.902,0-1.766-0.347-2.43-0.939c-0.65,0.552-1.494,0.867-2.406,0.867
				c-1.997,0-3.685-1.731-3.685-3.781c0-0.717,0.233-1.048,0.495-1.351c0.049-0.058,0.108-0.127,0.178-0.231
				c-1.37-0.494-2.285-1.702-2.285-3.188c0-1.955,1.584-3.429,3.686-3.429c0.459,0,0.846,0.062,1.154,0.122
				c0.106-1.941,1.717-3.488,3.68-3.488c1.859,0,3.4,1.378,3.65,3.163c1.859,0.2,3.26,1.694,3.26,3.566
				c0,1.378-0.76,2.522-1.924,3.096c0.222,0.612,0.312,1.272,0.312,1.728C13.81,15.425,12.122,17.195,10.125,17.195z M7.707,13.637
				L7.707,13.637c0.386,0,0.736,0.222,0.902,0.569c0.287,0.601,0.881,0.989,1.516,0.989c0.881,0,1.685-0.889,1.685-1.864
				c0-0.512-0.19-1.127-0.341-1.362c-0.432-0.111-0.75-0.502-0.75-0.968c0-0.552,0.447-0.999,0.998-1h0.002
				c0.829,0,1.703-0.467,1.703-1.494c0-0.906-0.725-1.589-1.686-1.589c-0.062,0.005-0.125,0.029-0.188,0.046l-0.198,0.052
				c-0.335,0.08-0.69-0.021-0.937-0.265c-0.245-0.245-0.346-0.599-0.268-0.936c0.037-0.158,0.051-0.257,0.051-0.363
				c0-0.923-0.756-1.674-1.686-1.674c-0.929,0-1.686,0.759-1.686,1.692c0,1.648-0.922,1.895-1.473,1.895
				c-0.242,0-0.477-0.048-0.723-0.099C4.354,7.208,4.039,7.143,3.678,7.143c-0.839,0-1.686,0.442-1.686,1.429S2.839,10,3.678,10
				c0.32,0,0.631,0.154,0.818,0.414c0.188,0.26,0.25,0.594,0.148,0.899c-0.387,1.174-0.734,1.639-1.029,1.982
				c-0.002,0.002-0.004,0.004-0.006,0.005c0.023,1.02,0.799,1.822,1.68,1.822c0.664,0,1.245-0.352,1.516-0.917
				C6.971,13.858,7.322,13.637,7.707,13.637z"/>
			<path style="fill:#004E5F;" d="M8.063,11.931c-1.439,0-2.61-1.171-2.61-2.611c0-1.439,1.171-2.61,2.61-2.61
				s2.609,1.171,2.609,2.61C10.672,10.76,9.502,11.931,8.063,11.931z M8.063,8.71c-0.336,0-0.61,0.273-0.61,0.61
				c0,0.337,0.274,0.611,0.61,0.611S8.672,9.657,8.672,9.32C8.672,8.984,8.398,8.71,8.063,8.71z"/>
		</g>
		<g>
			<path style="fill:#004E5F;" d="M11.736,27.125c-2.102,0-3.687-1.482-3.687-3.448c0-0.467,0.085-0.899,0.235-1.273
				c-1.125-0.776-1.847-2.187-1.847-3.493c0-1.93,1.576-4.087,3.687-4.087c0.458,0,0.846,0.063,1.154,0.124
				c0.111-1.926,1.719-3.458,3.68-3.458c1.948,0,3.549,1.531,3.678,3.462c1.802,0.297,3.23,1.987,3.23,3.89
				c0,1.333-0.727,2.773-1.854,3.561c0.155,0.382,0.242,0.825,0.242,1.304c0,1.938-1.48,3.24-3.686,3.24
				c-0.902,0-1.738-0.306-2.385-0.841C13.512,26.748,12.639,27.125,11.736,27.125z M10.223,22.997
				c-0.063,0.083-0.173,0.317-0.173,0.68c0,1,0.847,1.448,1.687,1.448c0.688,0,1.256-0.544,1.514-1.084
				c0.166-0.348,0.518-0.569,0.902-0.569c0.386,0,0.737,0.222,0.902,0.569c0.271,0.567,0.838,0.905,1.516,0.905
				c0.507,0,1.686-0.121,1.686-1.24c0-0.351-0.107-0.613-0.182-0.71c-0.51-0.046-0.909-0.474-0.909-0.996
				c0-0.552,0.446-0.999,0.999-1h0.001c0.909,0,1.702-1.208,1.702-2.159c0-0.988-0.818-1.922-1.686-1.922
				c-0.142,0-0.281-0.019-0.42-0.042c-0.034-0.009-0.025-0.013-0.002-0.018c-0.329,0.062-0.666-0.04-0.902-0.276
				c-0.244-0.246-0.344-0.601-0.264-0.938c0.029-0.122,0.051-0.308,0.051-0.442c0-0.945-0.756-1.714-1.686-1.714
				s-1.686,0.75-1.686,1.671c0,1.644-0.919,1.889-1.467,1.889c-0.244,0-0.479-0.049-0.727-0.102
				c-0.279-0.058-0.594-0.125-0.955-0.125c-0.908,0-1.687,1.148-1.687,2.087C8.438,19.854,9.249,21.005,10.132,21
				c0.003,0,0.006,0,0.009,0c0.553,0,1,0.448,1,1C11.141,22.525,10.736,22.955,10.223,22.997z"/>
			<path style="fill:#004E5F;" d="M14.509,21.601c-1.439,0-2.61-1.171-2.61-2.611c0-1.439,1.171-2.61,2.61-2.61
				s2.61,1.171,2.61,2.61C17.119,20.429,15.948,21.601,14.509,21.601z M14.509,18.38c-0.337,0-0.61,0.273-0.61,0.61
				c0,0.337,0.273,0.611,0.61,0.611s0.61-0.274,0.61-0.611C15.119,18.653,14.846,18.38,14.509,18.38z"/>
		</g>
		<g>
			<path style="fill:#004E5F;" d="M23.016,15.559c-0.906,0-1.775-0.358-2.443-0.97c-0.645,0.526-1.482,0.825-2.391,0.825
				c-1.998,0-3.686-1.775-3.686-3.877c0-0.683,0.196-1.019,0.453-1.387c0.065-0.093,0.141-0.2,0.225-0.351
				c-1.414-0.435-2.289-1.548-2.289-3.036c0-1.935,1.48-3.235,3.686-3.235c0.459,0,0.846,0.062,1.154,0.121
				c0.104-1.945,1.715-3.496,3.68-3.496c1.832,0,3.355,1.333,3.639,3.074c1.892,0.184,3.271,1.615,3.271,3.472
				c0,1.363-0.746,2.438-1.941,2.958c0.253,0.735,0.328,1.51,0.328,1.853C26.701,13.426,25.188,15.559,23.016,15.559z
				 M20.599,11.977c0.386,0,0.735,0.221,0.901,0.568c0.295,0.616,0.891,1.014,1.516,1.014c0.908,0,1.686-1.126,1.686-2.047
				c0-0.56-0.215-1.285-0.376-1.553C23.912,9.835,23.611,9.453,23.611,9c0-0.552,0.446-0.999,0.998-1h0.002
				c0.412,0,1.703-0.094,1.703-1.3c0-1.025-0.874-1.492-1.686-1.492c0.039,0.002,0.004,0.018-0.033,0.032
				c-0.119,0.045-0.238,0.087-0.354,0.114c-0.34,0.077-0.691-0.022-0.936-0.267c-0.244-0.245-0.346-0.598-0.267-0.935
				c0.038-0.163,0.051-0.234,0.051-0.338c0-0.931-0.741-1.661-1.687-1.661c-0.929,0-1.686,0.761-1.686,1.697
				c0,1.649-0.924,1.896-1.475,1.896c-0.242,0-0.475-0.047-0.722-0.098c-0.277-0.057-0.591-0.121-0.952-0.121
				c-0.507,0-1.686,0.121-1.686,1.235C14.885,7.879,16.063,8,16.57,8c0.32,0,0.631,0.154,0.818,0.414
				c0.188,0.26,0.249,0.594,0.148,0.899c-0.391,1.184-0.739,1.684-0.947,1.983c-0.035,0.05-0.068,0.09-0.092,0.135
				c0.002,0.001-0.002,0.035-0.002,0.106c0,0.982,0.803,1.877,1.686,1.877c0.689,0,1.255-0.325,1.515-0.868
				C19.862,12.198,20.213,11.977,20.599,11.977L20.599,11.977z"/>
			<path style="fill:#004E5F;" d="M20.955,10.319c-1.439,0-2.611-1.171-2.611-2.61s1.172-2.61,2.611-2.61s2.609,1.171,2.609,2.61
				S22.395,10.319,20.955,10.319z M20.955,7.1c-0.337,0-0.611,0.273-0.611,0.61s0.274,0.61,0.611,0.61
				c0.336,0,0.609-0.273,0.609-0.61S21.291,7.1,20.955,7.1z"/>
		</g>
		<g>
			<path style="fill:#004E5F;" d="M26.239,25.416c-2.067,0-3.686-1.557-3.686-3.545c0-0.479,0.091-0.964,0.261-1.396
				c-1.11-0.682-1.872-1.953-1.872-3.373c0-2.113,1.688-3.898,3.687-3.898c0.552,0,1,0.448,1,1s-0.448,1-1,1
				c-0.883,0-1.687,0.905-1.687,1.898c0,0.994,0.804,1.898,1.687,1.898c0.006,0,0.012,0.001,0.017,0c0.552,0,1,0.448,1,1
				c0,0.505-0.374,0.922-0.86,0.99c-0.096,0.132-0.231,0.479-0.231,0.88c0,0.896,0.709,1.545,1.686,1.545
				c0.706,0,1.27-0.519,1.515-1.034c0.166-0.348,0.518-0.569,0.902-0.569l0,0c0.386,0,0.736,0.221,0.902,0.568
				c0.275,0.574,0.855,0.93,1.516,0.93c0.839,0,1.686-0.44,1.686-1.423c0-0.408-0.138-0.763-0.235-0.898
				c-0.483-0.07-0.855-0.487-0.855-0.99c0-0.552,0.448-1,1-1c0.884,0,1.702-0.955,1.702-1.965c0-0.25-0.047-0.559-0.088-0.679
				c-0.182-0.521,0.093-1.092,0.614-1.274c0.522-0.183,1.092,0.093,1.274,0.615c0.147,0.424,0.199,0.986,0.199,1.338
				c0,1.419-0.777,2.721-1.883,3.423c0.178,0.44,0.271,0.938,0.271,1.43c0,1.951-1.584,3.423-3.686,3.423
				c-0.908,0-1.749-0.315-2.4-0.869C28.006,25.056,27.141,25.416,26.239,25.416z"/>
			<path style="fill:#004E5F;" d="M29.013,19.989c-1.439,0-2.61-1.171-2.61-2.611c0-1.439,1.171-2.61,2.61-2.61
				s2.61,1.171,2.61,2.61C31.623,18.818,30.452,19.989,29.013,19.989z M29.013,16.769c-0.337,0-0.61,0.273-0.61,0.61
				c0,0.337,0.273,0.611,0.61,0.611s0.61-0.274,0.61-0.611C29.623,17.042,29.35,16.769,29.013,16.769z"/>
		</g>
		<g>
			<path style="fill:#004E5F;" d="M24.629,33.334c-0.9,0-1.758-0.338-2.418-0.916c-0.66,0.578-1.518,0.916-2.417,0.916
				c-2.032,0-3.687-1.653-3.687-3.686c0-0.551,0.121-1.082,0.349-1.563c-0.735-0.379-1.331-0.996-1.667-1.773
				c-0.218-0.508,0.016-1.096,0.523-1.314c0.506-0.22,1.096,0.016,1.314,0.523c0.251,0.584,0.844,0.965,1.518,0.978
				c0.477-0.026,0.863,0.259,1.004,0.685c0.136,0.409-0.006,0.859-0.353,1.117c-0.437,0.324-0.688,0.816-0.688,1.348
				c0,0.93,0.757,1.686,1.687,1.686c0.649,0,1.23-0.37,1.515-0.965c0.166-0.348,0.518-0.569,0.902-0.569l0,0
				c0.386,0,0.736,0.222,0.902,0.569c0.284,0.595,0.865,0.965,1.516,0.965c0.865,0,1.686-0.94,1.686-1.935
				c0-0.528-0.201-1.187-0.356-1.435c-0.425-0.115-0.736-0.504-0.736-0.965c0-0.553,0.448-1,1-1c0.856,0,1.704-0.444,1.704-1.437
				c0-0.552,0.447-1,1-1c0.552,0,1,0.448,1,1c0,1.359-0.763,2.486-1.932,3.05c0.228,0.631,0.32,1.314,0.32,1.786
				C28.314,31.495,26.592,33.334,24.629,33.334z"/>
			<path style="fill:#004E5F;" d="M22.566,28.047c-1.439,0-2.61-1.172-2.61-2.61c0-1.439,1.171-2.61,2.61-2.61
				s2.609,1.171,2.609,2.61C25.176,26.875,24.006,28.047,22.566,28.047z M22.566,24.827c-0.337,0-0.61,0.273-0.61,0.61
				s0.273,0.61,0.61,0.61c0.336,0,0.609-0.274,0.609-0.61S22.902,24.827,22.566,24.827z"/>
		</g>
		<g>
			<path style="fill:#004E5F;" d="M32.686,17.219c-0.898,0-1.756-0.338-2.417-0.916c-0.661,0.578-1.518,0.916-2.417,0.916
				c-2.033,0-3.686-1.653-3.686-3.686c0-0.552,0.447-1,1-1c0.552,0,1,0.448,1,1c0,0.93,0.756,1.686,1.686,1.686
				c0.65,0,1.23-0.37,1.515-0.966c0.166-0.348,0.517-0.569,0.902-0.569s0.736,0.222,0.902,0.569
				c0.284,0.596,0.865,0.966,1.515,0.966c0.883,0,1.686-0.894,1.686-1.876c0-0.517-0.191-1.138-0.343-1.375
				c-0.431-0.112-0.749-0.503-0.749-0.968c0-0.552,0.448-1,1-1c0.83,0,1.703-0.467,1.703-1.494c0-0.906-0.725-1.589-1.686-1.589
				c-0.061,0.005-0.123,0.029-0.186,0.046l-0.197,0.052c-0.338,0.079-0.691-0.021-0.936-0.264c-0.246-0.244-0.348-0.598-0.27-0.935
				c0.037-0.16,0.051-0.259,0.051-0.365c0-0.923-0.756-1.674-1.686-1.674s-1.686,0.759-1.686,1.692c0,0.552-0.448,1-1,1
				c-0.553,0-1-0.448-1-1c0-2.036,1.652-3.692,3.686-3.692c1.858,0,3.399,1.378,3.65,3.163c1.857,0.2,3.258,1.694,3.258,3.566
				c0,1.379-0.76,2.523-1.924,3.097c0.223,0.616,0.313,1.281,0.313,1.74C36.371,15.444,34.684,17.219,32.686,17.219z"/>
			<path style="fill:none;stroke:#004E5F;stroke-width:2;stroke-linecap:round;stroke-linejoin:round;stroke-miterlimit:10;" d="
				M26.239,6.146"/>
			<path style="fill:#004E5F;" d="M30.624,11.931c-1.439,0-2.61-1.171-2.61-2.611c0-1.439,1.171-2.61,2.61-2.61
				c1.438,0,2.61,1.171,2.61,2.61C33.234,10.76,32.063,11.931,30.624,11.931z M30.624,8.71c-0.337,0-0.61,0.273-0.61,0.61
				c0,0.337,0.273,0.611,0.61,0.611s0.61-0.274,0.61-0.611C31.234,8.984,30.961,8.71,30.624,8.71z"/>
		</g>
	</g>
	<path style="fill:#004E5F;" d="M17.404,47.648c-0.027,0-0.057-0.002-0.084-0.004c-0.336-0.028-0.634-0.224-0.795-0.52L2.366,21.078
		c-0.124-0.229-0.155-0.498-0.084-0.749l1.403-4.974l1.924,0.543L4.317,20.48l13.24,24.355l16.21-20.588l-0.793-0.326l0.762-1.849
		l2.016,0.83c0.29,0.12,0.508,0.368,0.587,0.671s0.013,0.626-0.182,0.873L18.189,47.267C18,47.508,17.709,47.648,17.404,47.648z"/>
	<path style="fill:#004E5F;" d="M8.063,22.993c-0.092,0-0.186-0.013-0.277-0.04l-4.818-1.392c-0.53-0.153-0.836-0.708-0.684-1.239
		c0.154-0.53,0.707-0.835,1.239-0.683l4.817,1.392c0.531,0.153,0.836,0.708,0.684,1.239C8.896,22.708,8.497,22.993,8.063,22.993z"/>
	<path style="fill:#004E5F;" d="M19.932,44.438c-0.058,0-0.117-0.005-0.177-0.016c-0.544-0.097-0.905-0.616-0.808-1.161
		l1.987-11.104c0.097-0.543,0.614-0.909,1.161-0.808c0.543,0.097,0.904,0.616,0.808,1.16l-1.987,11.105
		C20.829,44.099,20.407,44.438,19.932,44.438z"/>
</g>
</svg>
