<svg version="1.1" id="Layer_1" xmlns="http://www.w3.org/2000/svg" xmlns:xlink="http://www.w3.org/1999/xlink" xml:space="preserve">
<g id="small_icon">
	<g>
		<path style="fill:#004E5F;" d="M6.058,19.84c-0.314,0-0.631-0.023-0.948-0.07c-1.673-0.25-3.149-1.136-4.155-2.496l-0.199-0.268
			c-2.077-2.806-1.484-6.78,1.322-8.858l9.11-6.743c1.36-1.006,3.03-1.422,4.703-1.174c1.673,0.25,3.149,1.136,4.155,2.496
			l0.199,0.268c2.077,2.807,1.484,6.78-1.322,8.858l-2.035,1.507c-0.445,0.327-1.071,0.234-1.399-0.208
			c-0.329-0.444-0.235-1.07,0.208-1.399l2.035-1.507c1.92-1.421,2.326-4.141,0.905-6.061l-0.199-0.268
			c-0.688-0.93-1.698-1.537-2.843-1.708c-1.146-0.172-2.288,0.115-3.218,0.803l-9.11,6.743c-1.92,1.422-2.326,4.141-0.904,6.062
			l0.199,0.268c0.688,0.93,1.698,1.537,2.843,1.708c1.145,0.17,2.288-0.115,3.218-0.803l2.151-1.592
			c0.442-0.329,1.07-0.235,1.398,0.209s0.235,1.07-0.209,1.398l-2.15,1.592C8.71,19.412,7.404,19.84,6.058,19.84z"/>
		<path style="fill:#004E5F;" d="M5.402,10.421c0.869-0.116,1.698-0.016,2.518,0.137c0.815,0.175,1.621,0.403,2.387,0.849
			c0.252,0.146,0.338,0.47,0.191,0.722c-0.082,0.141-0.221,0.23-0.37,0.255c-0.875,0.146-1.709,0.073-2.534-0.052
			c-0.82-0.147-1.631-0.348-2.403-0.764c-0.298-0.161-0.409-0.533-0.249-0.831C5.04,10.56,5.215,10.448,5.402,10.421z"/>
		<path style="fill:#004E5F;" d="M11.083,6.211c0.869-0.116,1.698-0.016,2.518,0.137c0.815,0.175,1.622,0.403,2.387,0.849
			c0.252,0.146,0.338,0.47,0.191,0.722c-0.082,0.141-0.221,0.23-0.37,0.255c-0.875,0.146-1.709,0.073-2.534-0.052
			c-0.82-0.148-1.631-0.348-2.403-0.764c-0.298-0.161-0.409-0.533-0.249-0.831C10.721,6.35,10.897,6.238,11.083,6.211z"/>
	</g>
	<g>
		<path style="fill:#004E5F;" d="M31,14H20c-0.552,0-1-0.448-1-1V9c0-0.552,0.448-1,1-1h11c0.552,0,1,0.448,1,1v4
			C32,13.552,31.552,14,31,14z M21,12h9v-2h-9V12z"/>
		<path style="fill:#004E5F;" d="M30,26h-9c-0.552,0-1-0.447-1-1V13c0-0.552,0.448-1,1-1h9c0.552,0,1,0.448,1,1v12
			C31,25.553,30.552,26,30,26z M22,24h7V14h-7V24z"/>
		<path style="fill:#004E5F;" d="M22.5,13.5c-0.276,0-0.5-0.224-0.5-0.5v-3c0-0.276,0.224-0.5,0.5-0.5S23,9.724,23,10v3
			C23,13.276,22.776,13.5,22.5,13.5z"/>
		<path style="fill:#004E5F;" d="M24.5,13.5c-0.276,0-0.5-0.224-0.5-0.5v-3c0-0.276,0.224-0.5,0.5-0.5S25,9.724,25,10v3
			C25,13.276,24.776,13.5,24.5,13.5z"/>
		<path style="fill:#004E5F;" d="M26.5,13.5c-0.276,0-0.5-0.224-0.5-0.5v-3c0-0.276,0.224-0.5,0.5-0.5S27,9.724,27,10v3
			C27,13.276,26.776,13.5,26.5,13.5z"/>
		<path style="fill:#004E5F;" d="M28.5,13.5c-0.276,0-0.5-0.224-0.5-0.5v-3c0-0.276,0.224-0.5,0.5-0.5S29,9.724,29,10v3
			C29,13.276,28.776,13.5,28.5,13.5z"/>
		<path style="fill:#004E5F;" d="M27.5,21h-4c-0.276,0-0.5-0.224-0.5-0.5v-4c0-0.276,0.224-0.5,0.5-0.5h4c0.276,0,0.5,0.224,0.5,0.5
			v4C28,20.776,27.776,21,27.5,21z M24,20h3v-3h-3V20z"/>
	</g>
	<g>
		<path style="fill:#004E5F;" d="M17,37h-6c-1.654,0-3-1.436-3-3.2v-8.6c0-1.169,1.392-5.009,2.054-6.767
			C10,18.155,10,17.861,10,17.625v-0.25C10,16.065,11.065,15,12.375,15h3.25C16.935,15,18,16.065,18,17.375v0.856
			c2,6.373,2,6.805,2,6.969v8.6C20,35.564,18.654,37,17,37z M12,17.748c0.178,0.262,0.229,0.594,0.112,0.898
			C11.096,21.303,10,24.564,10,25.2v8.6c0,0.661,0.449,1.2,1,1.2h6c0.551,0,1-0.539,1-1.2v-8.6c-0.063-0.358-1.044-3.62-1.954-6.516
			C16.016,18.587,16,18.474,16,18.373v-0.998C16,17.168,15.832,17,15.625,17h-3.25C12.168,17,12,17.168,12,17.375v0.25
			C12,17.669,12,17.709,12,17.748z"/>
		<path style="fill:#004E5F;" d="M15.621,17h-3.241C11.067,17,10,15.878,10,14.5s1.067-2.5,2.379-2.5h3.241
			C16.933,12,18,13.122,18,14.5S16.933,17,15.621,17z M12.379,14C12.174,14,12,14.229,12,14.5s0.174,0.5,0.379,0.5h3.241
			C15.826,15,16,14.771,16,14.5S15.826,14,15.621,14H12.379z"/>
		<path style="fill:#004E5F;" d="M16.5,31h-5c-0.276,0-0.5-0.224-0.5-0.5v-5c0-0.276,0.224-0.5,0.5-0.5h5c0.276,0,0.5,0.224,0.5,0.5
			v5C17,30.776,16.776,31,16.5,31z M12,30h4v-4h-4V30z"/>
	</g>
</g>
</svg>
