<svg version="1.1" id="Layer_1" xmlns="http://www.w3.org/2000/svg" xmlns:xlink="http://www.w3.org/1999/xlink" xml:space="preserve">
<g id="big_icon">
	<g>
		<path style="fill:#004E5F;" d="M7.569,24.661c-0.388,0-0.776-0.028-1.166-0.087c-2.058-0.307-3.872-1.397-5.11-3.069l-0.252-0.342
			c-2.555-3.45-1.825-8.336,1.625-10.892L14.26,1.69c1.672-1.238,3.725-1.754,5.783-1.443c2.059,0.307,3.873,1.397,5.109,3.069
			l0.253,0.34c2.554,3.452,1.825,8.338-1.626,10.893l-2.59,1.918c-0.443,0.328-1.07,0.234-1.398-0.208
			c-0.328-0.444-0.235-1.07,0.209-1.399l2.59-1.918c2.564-1.899,3.106-5.53,1.208-8.095l-0.253-0.34
			c-0.92-1.243-2.268-2.053-3.797-2.281c-1.528-0.232-3.055,0.153-4.298,1.073L3.856,11.878c-2.563,1.899-3.106,5.531-1.208,8.096
			l0.254,0.342c0.918,1.242,2.268,2.052,3.796,2.28c1.526,0.227,3.056-0.153,4.298-1.073l2.737-2.026
			c0.443-0.329,1.069-0.235,1.398,0.209c0.329,0.444,0.235,1.07-0.209,1.398l-2.737,2.026C10.831,24.135,9.225,24.661,7.569,24.661z
			"/>
		<path style="fill:#004E5F;" d="M6.707,13.103c1.092-0.075,2.145,0.066,3.188,0.26c1.039,0.215,2.068,0.484,3.058,0.971
			c0.257,0.126,0.362,0.435,0.236,0.691c-0.082,0.167-0.242,0.27-0.414,0.286c-1.099,0.104-2.156-0.008-3.205-0.175
			c-1.044-0.188-2.078-0.429-3.074-0.886c-0.302-0.139-0.434-0.496-0.295-0.798C6.296,13.246,6.494,13.118,6.707,13.103z"/>
		<path style="fill:#004E5F;" d="M13.938,7.745c1.093-0.075,2.146,0.066,3.189,0.26c1.039,0.216,2.068,0.485,3.058,0.972
			c0.257,0.126,0.362,0.436,0.235,0.691c-0.082,0.167-0.242,0.27-0.414,0.286c-1.098,0.104-2.156-0.009-3.205-0.175
			c-1.043-0.188-2.078-0.43-3.073-0.887c-0.302-0.139-0.435-0.496-0.296-0.798C13.527,7.888,13.726,7.76,13.938,7.745z"/>
	</g>
	<g>
		<path style="fill:#004E5F;" d="M39,17H25c-0.553,0-1-0.448-1-1v-5c0-0.552,0.447-1,1-1h14c0.553,0,1,0.448,1,1v5
			C40,16.552,39.553,17,39,17z M26,15h12v-3H26V15z"/>
		<path style="fill:#004E5F;" d="M38,33H27c-0.553,0-1-0.447-1-1V16c0-0.552,0.447-1,1-1h11c0.553,0,1,0.448,1,1v16
			C39,32.553,38.553,33,38,33z M28,31h9V17h-9V31z"/>
		<path style="fill:#004E5F;" d="M28.5,16.5c-0.276,0-0.5-0.224-0.5-0.5v-4c0-0.276,0.224-0.5,0.5-0.5S29,11.724,29,12v4
			C29,16.276,28.776,16.5,28.5,16.5z"/>
		<path style="fill:#004E5F;" d="M31.5,16.5c-0.276,0-0.5-0.224-0.5-0.5v-4c0-0.276,0.224-0.5,0.5-0.5S32,11.724,32,12v4
			C32,16.276,31.776,16.5,31.5,16.5z"/>
		<path style="fill:#004E5F;" d="M33.5,16.5c-0.276,0-0.5-0.224-0.5-0.5v-4c0-0.276,0.224-0.5,0.5-0.5S34,11.724,34,12v4
			C34,16.276,33.776,16.5,33.5,16.5z"/>
		<path style="fill:#004E5F;" d="M36.5,16.5c-0.276,0-0.5-0.224-0.5-0.5v-4c0-0.276,0.224-0.5,0.5-0.5S37,11.724,37,12v4
			C37,16.276,36.776,16.5,36.5,16.5z"/>
		<path style="fill:#004E5F;" d="M34.5,26h-5c-0.276,0-0.5-0.224-0.5-0.5v-5c0-0.276,0.224-0.5,0.5-0.5h5c0.276,0,0.5,0.224,0.5,0.5
			v5C35,25.776,34.776,26,34.5,26z M30,25h4v-4h-4V25z"/>
	</g>
	<g>
		<path style="fill:#004E5F;" d="M21.496,47h-7.637C11.947,47,10,44.83,10,42.699V31.756c0-1.523,2.152-6.922,2.906-8.768
			c0-0.099,0.014-0.196,0.038-0.287C12.981,22.568,13,22.371,13,22.114v-0.318C13,20.229,14.146,19,15.609,19h4.137
			C20.274,19,22,19.202,22,21.796v1.105c3,8.108,3,8.649,3,8.854v10.943C25,44.734,23.561,47,21.496,47z M14.97,22.718
			c0.05,0.203,0.037,0.421-0.047,0.624C13.486,26.814,12,30.912,12,31.756v10.943C12,43.788,13.108,45,13.859,45h7.637
			C22.213,45,23,43.796,23,42.699V31.756c-0.09-0.459-1.566-4.623-2.938-8.328C20.021,23.317,20,23.198,20,23.079v-1.283
			c0-0.613-0.143-0.778-0.148-0.785l0,0c-0.002,0-0.033-0.012-0.105-0.012h-4.137C15.162,21,15,21.476,15,21.796v0.318
			C15,22.356,14.988,22.555,14.97,22.718z"/>
		<path style="fill:#004E5F;" d="M20.244,21h-4.488C14.236,21,13,19.695,13,18.091v-0.182C13,16.305,14.236,15,15.756,15h4.488
			C21.764,15,23,16.305,23,17.909v0.182C23,19.695,21.764,21,20.244,21z M15.756,17C15.339,17,15,17.408,15,17.909v0.182
			C15,18.592,15.339,19,15.756,19h4.488C20.661,19,21,18.592,21,18.091v-0.182C21,17.408,20.661,17,20.244,17H15.756z"/>
		<path style="fill:#004E5F;" d="M20.5,39h-6c-0.276,0-0.5-0.224-0.5-0.5v-6c0-0.276,0.224-0.5,0.5-0.5h6c0.276,0,0.5,0.224,0.5,0.5
			v6C21,38.776,20.776,39,20.5,39z M15,38h5v-5h-5V38z"/>
	</g>
</g>
</svg>
