<svg version="1.1" id="Layer_1" xmlns="http://www.w3.org/2000/svg" xmlns:xlink="http://www.w3.org/1999/xlink" xml:space="preserve">
<g id="small_icon">
	<path style="fill:#004E5F;" d="M34,14L34,14L2,13.989c-0.419,0-0.794-0.263-0.938-0.656C-1.671,5.868,4.032,1.725,4.089,1.684
		c0.419-0.295,0.993-0.228,1.33,0.158c1.582,1.808,5.274,1.996,6.534,2.005c1.246-3.282,2.987-3.996,4.266-3.996
		c1.345,0,2.321,0.796,2.428,0.887C18.735,0.813,18.809,0.901,18.866,1c2.053,3.559,5.244,3.662,5.601,3.662
		c5.483,0.096,8.044,2.333,9.24,4.192c1.317,2.045,1.294,4.08,1.293,4.165C34.99,13.563,34.545,14,34,14z M2.721,11.989L32.88,12
		c-0.377-1.754-1.936-5.224-8.369-5.339c-0.849,0.014-4.706-0.217-7.269-4.476c-0.184-0.119-0.576-0.334-1.023-0.334
		c-1.334,0-2.203,2.062-2.602,3.292c-0.127,0.391-0.482,0.665-0.893,0.689c0,0-0.249,0.015-0.667,0.015
		c-1.561,0-5.162-0.21-7.42-2.002C3.534,4.935,1.438,7.686,2.721,11.989z"/>
	<path style="fill:#004E5F;" d="M34,17H2c-0.552,0-1-0.447-1-1v-3c0-0.553,0.448-1,1-1h32c0.552,0,1,0.447,1,1v3
		C35,16.553,34.552,17,34,17z M3,15h30v-1H3V15z"/>
	<path style="fill:#004E5F;" d="M17.659,6.807c-0.299,0-0.595-0.134-0.792-0.389c-0.337-0.437-0.257-1.065,0.18-1.403l3.476-2.685
		c0.437-0.337,1.064-0.257,1.403,0.18c0.337,0.437,0.257,1.065-0.18,1.403L18.27,6.598C18.087,6.739,17.873,6.807,17.659,6.807z"/>
	<path style="fill:#004E5F;" d="M21.088,7.925c-0.289,0-0.575-0.125-0.773-0.365c-0.351-0.427-0.289-1.057,0.137-1.408l3.537-2.909
		c0.426-0.351,1.057-0.289,1.408,0.137c0.351,0.427,0.289,1.057-0.137,1.408l-3.537,2.909C21.537,7.851,21.312,7.925,21.088,7.925z"
		/>
	<path style="fill:#004E5F;" d="M5.5,16.5C5.224,16.5,5,16.276,5,16v-3c0-0.276,0.224-0.5,0.5-0.5S6,12.724,6,13v3
		C6,16.276,5.776,16.5,5.5,16.5z"/>
	<path style="fill:#004E5F;" d="M8.5,16.5C8.224,16.5,8,16.276,8,16v-3c0-0.276,0.224-0.5,0.5-0.5S9,12.724,9,13v3
		C9,16.276,8.776,16.5,8.5,16.5z"/>
	<path style="fill:#004E5F;" d="M11.5,16.5c-0.276,0-0.5-0.224-0.5-0.5v-3c0-0.276,0.224-0.5,0.5-0.5S12,12.724,12,13v3
		C12,16.276,11.776,16.5,11.5,16.5z"/>
	<path style="fill:#004E5F;" d="M14.5,16.5c-0.276,0-0.5-0.224-0.5-0.5v-3c0-0.276,0.224-0.5,0.5-0.5S15,12.724,15,13v3
		C15,16.276,14.776,16.5,14.5,16.5z"/>
	<path style="fill:#004E5F;" d="M17.5,16.5c-0.276,0-0.5-0.224-0.5-0.5v-3c0-0.276,0.224-0.5,0.5-0.5S18,12.724,18,13v3
		C18,16.276,17.776,16.5,17.5,16.5z"/>
	<path style="fill:#004E5F;" d="M21.5,16.5c-0.276,0-0.5-0.224-0.5-0.5v-3c0-0.276,0.224-0.5,0.5-0.5S22,12.724,22,13v3
		C22,16.276,21.776,16.5,21.5,16.5z"/>
	<path style="fill:#004E5F;" d="M24.5,16.5c-0.276,0-0.5-0.224-0.5-0.5v-3c0-0.276,0.224-0.5,0.5-0.5S25,12.724,25,13v3
		C25,16.276,24.776,16.5,24.5,16.5z"/>
	<path style="fill:#004E5F;" d="M27.5,16.5c-0.276,0-0.5-0.224-0.5-0.5v-3c0-0.276,0.224-0.5,0.5-0.5S28,12.724,28,13v3
		C28,16.276,27.776,16.5,27.5,16.5z"/>
	<path style="fill:#004E5F;" d="M30.5,16.5c-0.276,0-0.5-0.224-0.5-0.5v-3c0-0.276,0.224-0.5,0.5-0.5S31,12.724,31,13v3
		C31,16.276,30.776,16.5,30.5,16.5z"/>
	<path style="fill:#004E5F;" d="M23.551,13.02c-0.141,0-0.281-0.061-0.38-0.176c-1.493-1.746-4.247-2.715-7.487-2.688
		c-5.334,0.06-6.746,2.161-6.76,2.182c-0.148,0.229-0.455,0.3-0.688,0.156c-0.232-0.146-0.306-0.448-0.164-0.681
		c0.064-0.106,1.644-2.59,7.599-2.657c3.584-0.013,6.574,1.067,8.259,3.039c0.18,0.21,0.155,0.525-0.055,0.704
		C23.782,12.979,23.666,13.02,23.551,13.02z"/>
</g>
</svg>
