<svg version="1.1" id="Layer_1" xmlns="http://www.w3.org/2000/svg" xmlns:xlink="http://www.w3.org/1999/xlink" xml:space="preserve">
<g id="small_icon">
	<g>
		<path style="fill:#004E5F;" d="M5.66,15.813c-0.312,0-0.609-0.146-0.799-0.399L0.238,9.262C0.026,8.98-0.021,8.607,0.113,8.281
			l2.931-7.114c0.137-0.333,0.442-0.565,0.798-0.611l7.554-0.963c0.356-0.044,0.71,0.104,0.926,0.392l4.623,6.151
			c0.212,0.282,0.26,0.655,0.125,0.981l-2.931,7.114c-0.137,0.333-0.442,0.565-0.798,0.611l-7.553,0.963
			C5.744,15.811,5.702,15.813,5.66,15.813z M2.179,8.516l3.931,5.231l6.4-0.816l2.493-6.05l-3.931-5.231l-6.4,0.816L2.179,8.516z"/>
		<path style="fill:#004E5F;" d="M8.597,11.112c-1.668,0-3.086-1.25-3.297-2.908C5.187,7.323,5.425,6.45,5.969,5.747
			c0.544-0.704,1.33-1.153,2.212-1.265c1.842-0.234,3.495,1.084,3.723,2.881c0.112,0.882-0.125,1.754-0.669,2.458
			c-0.544,0.704-1.33,1.153-2.212,1.265C8.88,11.104,8.738,11.112,8.597,11.112z M8.605,5.455c-0.099,0-0.198,0.006-0.298,0.019
			C7.69,5.552,7.14,5.866,6.76,6.358C6.379,6.85,6.213,7.461,6.292,8.078c0.16,1.258,1.309,2.183,2.604,2.015
			c0.618-0.079,1.167-0.393,1.548-0.885c0.38-0.492,0.547-1.103,0.468-1.719C10.764,6.329,9.772,5.455,8.605,5.455z"/>
	</g>
	<g>
		<path style="fill:#004E5F;" d="M7.903,29.725c-0.307,0-0.601-0.143-0.792-0.389l-3.192-4.133c-0.22-0.285-0.27-0.666-0.131-0.997
			l2.032-4.869c0.136-0.325,0.434-0.556,0.783-0.604l5.225-0.737c0.357-0.05,0.711,0.095,0.931,0.379l3.192,4.132
			c0.22,0.284,0.27,0.664,0.131,0.996l-2.032,4.87c-0.136,0.325-0.434,0.556-0.783,0.604l-5.225,0.738
			C7.996,29.721,7.95,29.725,7.903,29.725z M5.858,24.439l2.481,3.213l4.085-0.576l1.589-3.808l-2.481-3.212l-4.085,0.576
			L5.858,24.439z"/>
		<path style="fill:#004E5F;" d="M9.89,26.33c-0.762,0-1.466-0.346-1.932-0.948c-0.398-0.516-0.572-1.155-0.489-1.802
			s0.413-1.223,0.929-1.621c1.034-0.799,2.625-0.592,3.422,0.439c0.398,0.516,0.572,1.156,0.489,1.804
			c-0.083,0.646-0.413,1.222-0.929,1.618C10.95,26.154,10.435,26.33,9.89,26.33z M9.887,22.451c-0.321,0-0.624,0.104-0.878,0.299
			c-0.305,0.236-0.5,0.575-0.548,0.957c-0.049,0.381,0.054,0.759,0.289,1.063c0.471,0.611,1.408,0.735,2.019,0.26
			c0.305-0.234,0.5-0.574,0.548-0.955c0.049-0.381-0.053-0.76-0.289-1.064C10.753,22.654,10.337,22.451,9.887,22.451z"/>
	</g>
	<g>
		<path style="fill:#004E5F;" d="M27.846,14.658c-0.078,0-0.157-0.009-0.234-0.028l-10.001-2.405
			c-0.537-0.129-0.868-0.669-0.738-1.206l2.404-10.002c0.062-0.258,0.224-0.48,0.45-0.619s0.499-0.181,0.756-0.119l2.584,0.622
			c0.391,0.094,0.687,0.412,0.752,0.809l0.099,0.594l0.665-0.595c0.246-0.218,0.582-0.303,0.9-0.227l5.001,1.202
			c0.258,0.062,0.481,0.224,0.619,0.45c0.139,0.227,0.182,0.498,0.12,0.756l-2.404,10.002c-0.062,0.258-0.224,0.48-0.45,0.619
			C28.21,14.608,28.029,14.658,27.846,14.658z M19.051,10.515l8.057,1.938l1.937-8.058l-3.519-0.846l-1.63,1.457
			c-0.271,0.244-0.653,0.319-0.999,0.198c-0.344-0.121-0.595-0.42-0.654-0.78L21.955,2.69l-0.968-0.233L19.051,10.515z"/>
		<path style="fill:#004E5F;" d="M19.07,20.598c-0.206,0-0.414-0.064-0.593-0.195c-1.991-1.471-2.904-3.977-2.326-6.382l0.722-3
			c0.129-0.537,0.669-0.868,1.206-0.738c0.537,0.129,0.868,0.669,0.738,1.206l-0.722,3c-0.39,1.624,0.226,3.313,1.57,4.305
			c0.444,0.328,0.538,0.954,0.21,1.398C19.679,20.457,19.376,20.598,19.07,20.598z"/>
		<path style="fill:#004E5F;" d="M22.961,21.532c-0.48,0-0.904-0.347-0.985-0.837c-0.09-0.545,0.278-1.059,0.823-1.149
			c1.647-0.273,2.964-1.499,3.354-3.122l0.721-3c0.129-0.537,0.672-0.868,1.206-0.738c0.537,0.129,0.868,0.669,0.738,1.206l-0.721,3
			c-0.578,2.405-2.53,4.221-4.971,4.626C23.071,21.527,23.016,21.532,22.961,21.532z"/>
		<path style="fill:#004E5F;" d="M27.126,17.658c-0.078,0-0.156-0.009-0.235-0.027l-10.002-2.404
			c-0.537-0.129-0.868-0.669-0.738-1.207c0.129-0.537,0.673-0.868,1.206-0.738l10.002,2.404c0.537,0.129,0.868,0.67,0.738,1.207
			C27.987,17.351,27.578,17.658,27.126,17.658z"/>
		<path style="fill:#004E5F;" d="M18.757,32.517c-0.235,0-0.475-0.027-0.713-0.085c-0.794-0.191-1.466-0.68-1.893-1.376
			c-0.426-0.696-0.556-1.519-0.365-2.312l2.164-9.002c0.129-0.537,0.672-0.867,1.206-0.738c0.537,0.129,0.868,0.669,0.738,1.206
			l-2.164,9.002c-0.066,0.274-0.021,0.559,0.126,0.8c0.147,0.24,0.38,0.41,0.654,0.476c0.566,0.137,1.139-0.214,1.275-0.782
			l2.164-9.001c0.129-0.537,0.672-0.867,1.206-0.738c0.537,0.129,0.868,0.669,0.738,1.206l-2.164,9.002
			C21.394,31.573,20.138,32.517,18.757,32.517z"/>
	</g>
</g>
</svg>
