<svg version="1.1" id="Layer_1" xmlns="http://www.w3.org/2000/svg" xmlns:xlink="http://www.w3.org/1999/xlink" xml:space="preserve">
<g id="big_icon">
	<g>
		<path style="fill:#004E5F;" d="M7.612,22.82c-0.312,0-0.609-0.146-0.799-0.399l-6.574-8.748c-0.212-0.282-0.26-0.655-0.125-0.981
			L4.281,2.573c0.137-0.333,0.442-0.565,0.798-0.611l10.743-1.37c0.359-0.046,0.709,0.104,0.926,0.392l6.574,8.748
			c0.212,0.282,0.26,0.655,0.125,0.981l-4.168,10.118c-0.137,0.333-0.442,0.565-0.798,0.611l-10.742,1.37
			C7.696,22.817,7.654,22.82,7.612,22.82z M2.179,12.926l5.883,7.828l9.589-1.223l3.73-9.054l-5.883-7.828L5.909,3.873L2.179,12.926
			z"/>
		<path style="fill:#004E5F;" d="M11.789,16.847c-2.518,0-4.657-1.886-4.976-4.388c-0.17-1.331,0.188-2.648,1.01-3.709
			C8.644,7.688,9.829,7.01,11.16,6.84c2.783-0.354,5.273,1.636,5.619,4.348c0.169,1.331-0.189,2.648-1.01,3.709
			c-0.821,1.062-2.006,1.739-3.338,1.909C12.215,16.833,12,16.847,11.789,16.847z M11.8,8.8c-0.128,0-0.257,0.008-0.388,0.025
			c-0.801,0.102-1.514,0.51-2.008,1.148s-0.71,1.432-0.608,2.232c0.208,1.634,1.712,2.827,3.381,2.616
			c0.802-0.102,1.515-0.51,2.009-1.149c0.494-0.638,0.71-1.431,0.607-2.232C14.603,9.935,13.315,8.8,11.8,8.8z"/>
	</g>
	<g>
		<path style="fill:#004E5F;" d="M10.802,42.604c-0.307,0-0.601-0.142-0.792-0.389l-4.54-5.878c-0.22-0.283-0.27-0.664-0.131-0.996
			l2.89-6.925c0.136-0.325,0.434-0.556,0.783-0.604l7.431-1.049c0.355-0.049,0.711,0.095,0.931,0.379l4.54,5.877
			c0.22,0.283,0.27,0.664,0.131,0.996l-2.89,6.926c-0.136,0.326-0.434,0.556-0.783,0.605l-7.431,1.048
			C10.895,42.602,10.848,42.604,10.802,42.604z M7.409,35.576l3.829,4.957l6.291-0.888l2.447-5.864l-3.829-4.955l-6.291,0.887
			L7.409,35.576z"/>
		<path style="fill:#004E5F;" d="M13.627,37.989c-1.018,0-1.959-0.462-2.581-1.267c-0.532-0.689-0.765-1.544-0.654-2.408
			c0.111-0.863,0.552-1.632,1.241-2.164c0.575-0.444,1.263-0.68,1.989-0.68c1.019,0,1.96,0.463,2.582,1.268
			c0.532,0.689,0.765,1.544,0.654,2.408c-0.111,0.863-0.552,1.631-1.241,2.162C15.043,37.754,14.354,37.989,13.627,37.989z
			 M13.623,32.471c-0.503,0-0.979,0.163-1.378,0.471c-0.478,0.369-0.783,0.902-0.86,1.501c-0.077,0.599,0.084,1.19,0.453,1.668
			c0.738,0.957,2.209,1.149,3.168,0.407c0.478-0.369,0.783-0.9,0.86-1.499c0.077-0.599-0.084-1.191-0.453-1.669
			C14.982,32.791,14.33,32.471,13.623,32.471z"/>
	</g>
	<g>
		<path style="fill:#004E5F;" d="M39.164,21.178c-0.078,0-0.156-0.009-0.233-0.028l-14.224-3.42
			c-0.537-0.129-0.868-0.669-0.738-1.206l3.419-14.225c0.062-0.258,0.224-0.48,0.45-0.619c0.226-0.138,0.497-0.181,0.756-0.119
			l3.675,0.884c0.391,0.094,0.687,0.412,0.752,0.809l0.266,1.602l1.518-1.357c0.246-0.218,0.582-0.303,0.9-0.227l7.113,1.709
			c0.258,0.062,0.48,0.224,0.618,0.45c0.139,0.227,0.182,0.499,0.12,0.756l-3.42,14.226c-0.063,0.258-0.224,0.48-0.45,0.619
			C39.528,21.128,39.348,21.178,39.164,21.178z M26.146,16.02l12.279,2.953l2.952-12.281l-5.63-1.353l-2.483,2.22
			c-0.271,0.244-0.654,0.32-0.999,0.198c-0.344-0.121-0.595-0.42-0.654-0.78l-0.455-2.741l-2.059-0.496L26.146,16.02z"/>
		<path style="fill:#004E5F;" d="M26.683,29.625c-0.206,0-0.415-0.064-0.593-0.196c-2.695-1.99-3.931-5.38-3.148-8.637l1.026-4.268
			c0.129-0.538,0.67-0.868,1.206-0.738c0.537,0.129,0.868,0.669,0.738,1.206l-1.026,4.268c-0.594,2.473,0.345,5.049,2.392,6.561
			c0.444,0.328,0.538,0.954,0.21,1.398C27.292,29.484,26.99,29.625,26.683,29.625z"/>
		<path style="fill:#004E5F;" d="M32.218,30.954c-0.48,0-0.904-0.347-0.985-0.837c-0.09-0.545,0.278-1.059,0.823-1.149
			c2.51-0.417,4.517-2.283,5.112-4.757l1.025-4.267c0.13-0.537,0.671-0.868,1.206-0.738c0.537,0.129,0.867,0.669,0.738,1.206
			l-1.025,4.267c-0.783,3.257-3.424,5.714-6.729,6.262C32.327,30.949,32.272,30.954,32.218,30.954z"/>
		<path style="fill:#004E5F;" d="M38.141,25.445c-0.078,0-0.156-0.01-0.235-0.028L23.68,21.998
			c-0.537-0.129-0.868-0.669-0.738-1.206c0.129-0.537,0.672-0.866,1.206-0.738l14.225,3.419c0.537,0.129,0.867,0.669,0.738,1.206
			C39.002,25.137,38.592,25.445,38.141,25.445z"/>
		<path style="fill:#004E5F;" d="M26.238,46.576c-0.302,0-0.609-0.035-0.916-0.109c-1.02-0.244-1.883-0.873-2.431-1.768
			c-0.548-0.895-0.714-1.948-0.468-2.968L25.5,28.93c0.129-0.537,0.671-0.869,1.206-0.738c0.537,0.129,0.868,0.668,0.738,1.205
			l-3.077,12.803c-0.121,0.501-0.039,1.018,0.229,1.457c0.269,0.438,0.692,0.746,1.192,0.867c1.034,0.247,2.075-0.391,2.323-1.424
			l3.078-12.803c0.129-0.537,0.673-0.867,1.206-0.738c0.537,0.129,0.868,0.67,0.738,1.207l-3.078,12.801
			C29.625,45.365,28.011,46.576,26.238,46.576z"/>
	</g>
</g>
</svg>
