<svg version="1.1" id="Layer_1" xmlns="http://www.w3.org/2000/svg" xmlns:xlink="http://www.w3.org/1999/xlink" xml:space="preserve">
<g id="small_icon">
	<g>
		<path style="fill:#004E5F;" d="M8,31H1c-0.552,0-1-0.447-1-1V13c0-0.552,0.448-1,1-1h7c0.552,0,1,0.448,1,1v17
			C9,30.553,8.552,31,8,31z M2,29h5V14H2V29z"/>
		<path style="fill:#004E5F;" d="M7,14c-0.552,0-1-0.448-1-1V5.525L4.131,3.563C3.549,3.754,3,4.37,3,5.125V13c0,0.552-0.448,1-1,1
			s-1-0.448-1-1V5.125C1,3.194,2.636,1.5,4.5,1.5c0.273,0,0.535,0.112,0.724,0.311l2.5,2.625C7.901,4.621,8,4.868,8,5.125V13
			C8,13.552,7.552,14,7,14z"/>
		<path style="fill:#004E5F;" d="M8,19H1c-0.552,0-1-0.447-1-1s0.448-1,1-1h7c0.552,0,1,0.447,1,1S8.552,19,8,19z"/>
	</g>
	<path style="fill:#004E5F;" d="M23.35,34.305c-0.424,0-0.852-0.049-1.275-0.15c-1.413-0.338-2.609-1.205-3.37-2.443L6.299,11.507
		c-0.289-0.471-0.142-1.086,0.329-1.375C7.097,9.843,7.713,9.99,8.003,10.46L20.41,30.664c0.48,0.783,1.237,1.332,2.131,1.545
		c0.891,0.213,1.816,0.066,2.599-0.414l3.78-2.32c1.259-0.773,1.811-2.215,1.68-3.379l-3.67,2.254
		c-0.589,0.361-1.395,0.418-2.209,0.156c-0.746-0.241-1.37-0.699-1.712-1.258l-0.232-0.378c-0.362-0.59-0.435-1.344-0.198-2.068
		c0.213-0.652,0.655-1.223,1.213-1.565l3.608-2.215l-1.046-1.705l-3.608,2.216c-1.741,1.067-2.922,0.526-3.451-0.334l-0.232-0.378
		c-0.369-0.602-0.426-1.355-0.157-2.068c0.227-0.604,0.673-1.143,1.224-1.48l3.607-2.215l-1.046-1.705l-3.608,2.216
		c-0.385,0.236-0.985,0.522-1.661,0.544c-0.776,0.029-1.451-0.326-1.843-0.964l-0.232-0.378c-0.376-0.612-0.417-1.367-0.113-2.07
		c0.242-0.559,0.68-1.054,1.231-1.393L20.07,9.09l-1.046-1.704l-3.608,2.216c-0.547,0.336-1.163,0.499-1.741,0.502
		c-0.771-0.017-1.432-0.384-1.814-1.007L11.627,8.72c-0.687-1.119-0.194-2.54,1.171-3.378l3.794-2.33
		c-1.235-1.337-2.978-1.692-4.419-0.807l-3.78,2.321c-0.35,0.215-0.65,0.498-0.892,0.842C7.185,5.82,6.561,5.929,6.109,5.611
		C5.657,5.293,5.548,4.669,5.866,4.218C6.266,3.65,6.764,3.18,7.347,2.822l3.78-2.321c2.642-1.624,5.984-0.648,7.774,2.267
		c0.139,0.226,0.182,0.498,0.121,0.756s-0.223,0.481-0.449,0.62l-4.727,2.903c-0.383,0.235-0.563,0.548-0.514,0.627l0.232,0.377
		c0.013,0.022,0.031,0.052,0.154,0.054c0.198,0.023,0.436-0.075,0.65-0.207l4.461-2.739c0.226-0.139,0.499-0.182,0.756-0.121
		c0.258,0.062,0.481,0.224,0.62,0.449l2.093,3.409c0.289,0.471,0.142,1.086-0.329,1.375l-4.46,2.739
		c-0.196,0.121-0.366,0.306-0.443,0.483c-0.066,0.151-0.031,0.208-0.018,0.229l0.232,0.378c0.054,0.027,0.347,0.011,0.752-0.238
		l4.46-2.739c0.226-0.139,0.499-0.181,0.756-0.121c0.258,0.062,0.481,0.224,0.62,0.449l2.093,3.409
		c0.289,0.471,0.142,1.086-0.329,1.375l-4.46,2.74c-0.175,0.107-0.328,0.291-0.399,0.48c-0.029,0.077-0.069,0.221-0.01,0.316
		l0.232,0.379c-0.004-0.018,0.257-0.053,0.7-0.324l4.46-2.739c0.227-0.139,0.498-0.182,0.756-0.121
		c0.258,0.061,0.481,0.223,0.62,0.45l2.093,3.408c0.289,0.471,0.142,1.086-0.329,1.375l-4.46,2.74
		c-0.155,0.095-0.292,0.279-0.358,0.48c-0.053,0.161-0.052,0.314,0.001,0.401l0.232,0.378c0.205,0.335,0.972,0.554,1.171,0.443
		l4.726-2.902c0.226-0.139,0.499-0.181,0.756-0.12c0.258,0.062,0.481,0.224,0.62,0.45c1.394,2.27,0.451,5.59-2.018,7.105
		l-3.78,2.321C25.319,34.031,24.342,34.305,23.35,34.305z"/>
</g>
</svg>
