<svg version="1.1" id="Layer_1" xmlns="http://www.w3.org/2000/svg" xmlns:xlink="http://www.w3.org/1999/xlink" xml:space="preserve">
<g id="big_icon">
	<g>
		<path style="fill:#004E5F;" d="M10,40H1c-0.552,0-1-0.447-1-1V17c0-0.552,0.448-1,1-1h9c0.552,0,1,0.448,1,1v22
			C11,39.553,10.552,40,10,40z M2,38h7V18H2V38z"/>
		<path style="fill:#004E5F;" d="M9,18c-0.552,0-1-0.448-1-1V7.188L5.132,4.399C4.096,4.602,3,5.61,3,6.766V17c0,0.552-0.448,1-1,1
			s-1-0.448-1-1V6.766c0-2.521,2.376-4.404,4.5-4.404c0.26,0,0.511,0.102,0.697,0.283l3.5,3.404C9.891,6.237,10,6.496,10,6.766V17
			C10,17.552,9.552,18,9,18z"/>
		<path style="fill:#004E5F;" d="M10,24H1c-0.552,0-1-0.447-1-1c0-0.552,0.448-1,1-1h9c0.552,0,1,0.448,1,1
			C11,23.553,10.552,24,10,24z"/>
	</g>
	<path style="fill:#004E5F;" d="M29.979,44.306c-0.527,0-1.058-0.062-1.583-0.188c-1.755-0.419-3.242-1.496-4.186-3.034
		L8.124,14.886c-0.289-0.471-0.142-1.086,0.329-1.375c0.471-0.29,1.086-0.142,1.375,0.329l16.087,26.197
		c0.665,1.083,1.711,1.841,2.946,2.136c1.237,0.297,2.512,0.093,3.594-0.572l4.9-3.009c1.932-1.187,2.654-3.429,2.244-5.118
		l-5.135,3.154c-0.69,0.424-1.645,0.487-2.619,0.172c-0.9-0.289-1.65-0.838-2.059-1.502l-0.301-0.49
		c-0.424-0.691-0.507-1.578-0.228-2.435c0.254-0.78,0.782-1.462,1.446-1.869l4.931-3.028l-1.668-2.715l-4.931,3.027
		c-0.684,0.421-1.329,0.661-1.916,0.715c-0.917,0.084-1.684-0.289-2.151-1.05l-0.301-0.491c-0.436-0.709-0.5-1.57-0.179-2.422
		c0.272-0.721,0.806-1.366,1.465-1.771l4.93-3.028l-1.667-2.715l-4.931,3.028c-0.468,0.288-1.196,0.636-2.007,0.662
		c-0.928,0.036-1.67-0.364-2.127-1.108l-0.301-0.491c-0.443-0.72-0.488-1.577-0.127-2.411c0.286-0.66,0.825-1.269,1.479-1.671
		l4.932-3.029L24.468,9.29l-4.932,3.028c-0.661,0.407-1.407,0.615-2.095,0.607c-0.91-0.02-1.658-0.434-2.106-1.164l-0.301-0.489
		c-0.801-1.304-0.204-2.975,1.42-3.973l5.219-3.205c-1.707-2.063-4.248-2.653-6.34-1.368l-4.901,3.01
		C9.944,6.036,9.525,6.431,9.188,6.911c-0.317,0.451-0.941,0.56-1.394,0.242C7.343,6.835,7.234,6.211,7.552,5.76
		c0.495-0.704,1.112-1.285,1.833-1.727l4.9-3.01c3.282-2.016,7.44-0.794,9.673,2.841c0.139,0.226,0.182,0.498,0.121,0.756
		s-0.223,0.481-0.449,0.62L17.5,9.004c-0.456,0.28-0.995,0.845-0.764,1.221l0.301,0.489c0.042,0.067,0.126,0.205,0.447,0.212
		c0.286-0.006,0.676-0.11,1.004-0.312l5.785-3.552c0.226-0.139,0.499-0.181,0.756-0.121c0.258,0.062,0.481,0.224,0.62,0.45
		l2.713,4.42c0.289,0.47,0.142,1.086-0.329,1.375l-5.784,3.552c-0.309,0.189-0.566,0.474-0.691,0.762
		c-0.146,0.338-0.039,0.512-0.003,0.57l0.301,0.491c0.045,0.073,0.103,0.172,0.357,0.155c0.287-0.009,0.661-0.143,1.026-0.367
		l5.784-3.552c0.226-0.139,0.498-0.182,0.756-0.121c0.258,0.062,0.481,0.224,0.62,0.45l2.713,4.42
		c0.289,0.47,0.143,1.086-0.328,1.375L27,24.473c-0.284,0.175-0.523,0.463-0.64,0.772c-0.069,0.185-0.124,0.45,0.012,0.67
		l0.301,0.491c0.05,0.08,0.074,0.123,0.265,0.104c0.27-0.024,0.643-0.176,1.05-0.426l5.783-3.552
		c0.227-0.139,0.497-0.181,0.756-0.121c0.258,0.062,0.481,0.223,0.62,0.449l2.714,4.42c0.139,0.226,0.183,0.498,0.12,0.756
		c-0.061,0.258-0.223,0.481-0.449,0.62l-5.783,3.551c-0.258,0.159-0.484,0.459-0.591,0.785c-0.097,0.298-0.086,0.577,0.031,0.767
		l0.301,0.491c0.127,0.207,0.476,0.487,0.969,0.646c0.45,0.145,0.812,0.115,0.958,0.025l6.128-3.763
		c0.226-0.14,0.498-0.181,0.756-0.12c0.259,0.062,0.481,0.223,0.62,0.449c1.724,2.809,0.547,6.924-2.52,8.807l-4.9,3.01
		C32.425,43.966,31.212,44.306,29.979,44.306z"/>
</g>
</svg>
