<svg version="1.1" id="Layer_1" xmlns="http://www.w3.org/2000/svg" xmlns:xlink="http://www.w3.org/1999/xlink" xml:space="preserve">
<g id="small_icon">
	<path style="fill:#004E5F;" d="M33,19H1c-0.552,0-1-0.447-1-1v-3c0-0.553,0.448-1,1-1h32c0.552,0,1,0.447,1,1v3
		C34,18.553,33.552,19,33,19z M2,17h30v-1H2V17z"/>
	<path style="fill:#004E5F;" d="M5.781,26H5.385C4.048,26,3,25.176,3,24.125V18c0-0.553,0.448-1,1-1s1,0.447,1,1v5.93
		C5.077,23.963,5.206,24,5.385,24h0.396c0.098,0,0.17-0.012,0.219-0.024V18c0-0.553,0.448-1,1-1s1,0.447,1,1v6.125
		C8,25.057,7.238,26,5.781,26z"/>
	<path style="fill:#004E5F;" d="M28.781,26h-0.396C27.048,26,26,25.176,26,24.125V18c0-0.553,0.448-1,1-1s1,0.447,1,1v5.93
		c0.077,0.033,0.206,0.07,0.385,0.07h0.396c0.098,0,0.17-0.012,0.219-0.024V18c0-0.553,0.448-1,1-1s1,0.447,1,1v6.125
		C31,25.057,30.238,26,28.781,26z"/>
	<path style="fill:#004E5F;" d="M30.667,16H3.333C1.464,16,0,14.81,0,13.289V12.71C0,11.19,1.464,10,3.333,10h27.334
		C32.536,10,34,11.19,34,12.71v0.579C34,14.81,32.536,16,30.667,16z M3.333,12C2.532,12,2,12.428,2,12.71v0.579
		C2,13.572,2.532,14,3.333,14h27.334C31.468,14,32,13.572,32,13.289V12.71c0-0.283-0.532-0.71-1.333-0.71H3.333z"/>
	<path style="fill:#004E5F;" d="M29.467,12H4.533C2.585,12,1,10.415,1,8.466V3.534C1,1.585,2.585,0,4.533,0h24.934
		C31.415,0,33,1.585,33,3.534v4.933C33,10.415,31.415,12,29.467,12z M4.533,2C3.688,2,3,2.688,3,3.534v4.933
		C3,9.312,3.688,10,4.533,10h24.934C30.312,10,31,9.312,31,8.466V3.534C31,2.688,30.312,2,29.467,2H4.533z"/>
	<circle style="fill:#004E5F;" cx="7.918" cy="5.5" r="0.583"/>
	<circle style="fill:#004E5F;" cx="15.918" cy="5.5" r="0.583"/>
	<circle style="fill:#004E5F;" cx="23.918" cy="5.5" r="0.583"/>
</g>
</svg>
