<svg version="1.1" id="Layer_1" xmlns="http://www.w3.org/2000/svg" xmlns:xlink="http://www.w3.org/1999/xlink" xml:space="preserve">
<g id="big_icon">
	<path style="fill:#004E5F;" d="M47,26H1c-0.552,0-1-0.447-1-1v-4c0-0.553,0.448-1,1-1h46c0.553,0,1,0.447,1,1v4
		C48,25.553,47.553,26,47,26z M2,24h44v-2H2V24z"/>
	<path style="fill:#004E5F;" d="M7.873,35H7.304C5.297,35,4,34.212,4,32.992V25c0-0.553,0.448-1,1-1s1,0.447,1,1v7.783
		C6.207,32.88,6.672,33,7.304,33h0.569C8.454,33,8.832,32.898,9,32.819V25c0-0.553,0.448-1,1-1s1,0.447,1,1v7.992
		C11,33.963,10.179,35,7.873,35z"/>
	<path style="fill:#004E5F;" d="M40.936,35h-0.569C38.321,35,37,34.212,37,32.992V25c0-0.553,0.447-1,1-1s1,0.447,1,1v7.772
		C39.217,32.873,39.705,33,40.366,33h0.569c0.549,0,0.906-0.094,1.064-0.168V25c0-0.553,0.447-1,1-1s1,0.447,1,1v7.992
		C44,33.963,43.195,35,40.936,35z"/>
	<path style="fill:#004E5F;" d="M43.646,22H4.354C1.912,22,0,20.48,0,18.541v-1.082C0,15.52,1.912,14,4.354,14h39.293
		C46.088,14,48,15.52,48,17.459v1.082C48,20.48,46.088,22,43.646,22z M4.354,16C2.967,16,2,16.77,2,17.459v1.082
		C2,19.23,2.967,20,4.354,20h39.293C45.033,20,46,19.23,46,18.541v-1.082C46,16.77,45.033,16,43.646,16H4.354z"/>
	<path style="fill:#004E5F;" d="M41.358,16H5.642C3.082,16,1,13.917,1,11.358V4.642C1,2.083,3.082,0,5.642,0h35.717
		C43.918,0,46,2.083,46,4.642v6.716C46,13.917,43.918,16,41.358,16z M5.642,2C4.185,2,3,3.185,3,4.642v6.716
		C3,12.815,4.185,14,5.642,14h35.717C42.814,14,44,12.815,44,11.358V4.642C44,3.185,42.814,2,41.358,2H5.642z"/>
	<circle style="fill:#004E5F;" cx="10.944" cy="7.219" r="0.838"/>
	<circle style="fill:#004E5F;" cx="22.444" cy="7.219" r="0.838"/>
	<circle style="fill:#004E5F;" cx="33.944" cy="7.219" r="0.838"/>
</g>
</svg>
