<svg version="1.1" id="Layer_1" xmlns="http://www.w3.org/2000/svg" xmlns:xlink="http://www.w3.org/1999/xlink" xml:space="preserve">
<g id="big_icon">
<path fill="#084F5F" d="M55.551,18.079L38.65,1.177c-0.375-0.375-1.039-0.375-1.414,0l-3.568,3.569L25.68,0.135
	c-0.478-0.277-1.09-0.112-1.366,0.366l-3.065,5.311L13.031,3.61c-0.531-0.142-1.082,0.174-1.225,0.707l-1.769,6.6H1
	c-0.553,0-1,0.448-1,1v32c0,0.552,0.447,1,1,1h24c0.553,0,1-0.448,1-1v-2.144l1.448,0.388c0.085,0.023,0.172,0.034,0.259,0.034
	c0.174,0,0.347-0.045,0.5-0.134c0.229-0.133,0.397-0.351,0.466-0.607l0.209-0.781l0.745,0.43c0.157,0.091,0.329,0.134,0.499,0.134
	c0.308,0,0.601-0.148,0.794-0.405l0.938,0.939c0.188,0.188,0.441,0.293,0.707,0.293s0.52-0.105,0.707-0.293l22.278-22.279
	C55.941,19.102,55.941,18.469,55.551,18.079z M32.565,39.65l-0.599-0.599l14.78-25.6c0.133-0.229,0.168-0.502,0.1-0.759
	s-0.236-0.475-0.466-0.607l-10.92-6.304l2.482-2.483L53.43,18.786L32.565,39.65z M27.089,39.639L27,39.971l-1-0.268V39.01v-1.155
	V36.7v-0.788v-1.414v-1.414V15.242v-1.414v-1.414v-0.497c0-0.552-0.447-1-1-1h-4.391h-1.154H18.3h-6.191L13.479,5.8l6.733,1.804
	l1,0.268l1,0.268l6.357,1.704l1.115,0.299l1.115,0.299l3.835,1.027l-6.392,23.86l-0.299,1.115l-0.299,1.115l-0.021,0.08l-0.268,1
	L27.089,39.639z M24,41.238v1.679H2v-30h7.502h1.035h1.035h5.573H18.3h1.155H24v1.497v1.414v1.414v13.842v1.414v1.414v1.633V36.7
	v1.155v1.312v1.035V41.238z M29.761,38.872l-0.343-0.198l0.16-0.597l0.299-1.115l6.949-25.941c0.143-0.534-0.174-1.082-0.707-1.225
	l-3.686-0.987L31.318,8.51l-1.115-0.299l-6.955-1.864l2.298-3.98l6.657,3.843L33.1,6.728l0.896,0.518l10.519,6.072L30.502,37.587
	l-0.518,0.896L29.761,38.872z"/>
</g>
</svg>
