<svg version="1.1" id="Layer_1" xmlns="http://www.w3.org/2000/svg" xmlns:xlink="http://www.w3.org/1999/xlink" xml:space="preserve">
<g id="small_icon">
<path fill="#084F5F" d="M39.135,12.571L27.467,0.904c-0.375-0.375-1.039-0.375-1.414,0l-2.295,2.295l-5.309-3.064
	c-0.478-0.276-1.09-0.113-1.366,0.366l-1.998,3.46L9.644,2.503C9.113,2.36,8.562,2.677,8.419,3.21L7.426,6.917H1
	c-0.553,0-1,0.448-1,1v22c0,0.552,0.447,1,1,1h17c0.553,0,1-0.448,1-1v-0.319l0.435,0.117c0.085,0.023,0.172,0.034,0.259,0.034
	c0.174,0,0.347-0.045,0.5-0.134c0.229-0.133,0.397-0.351,0.466-0.607l0.04-0.149l0.166,0.096c0.157,0.091,0.329,0.134,0.499,0.134
	c0.19,0,0.375-0.059,0.536-0.162l0.439,0.439c0.195,0.195,0.451,0.293,0.707,0.293s0.512-0.098,0.707-0.293l15.381-15.379
	c0.188-0.188,0.293-0.442,0.293-0.707S39.322,12.759,39.135,12.571z M23.047,27.244l-0.025-0.025L33.106,9.751
	c0.051-0.088,0.074-0.186,0.096-0.284l3.812,3.811L23.047,27.244z M17,28.917h-0.541H2v-20h4.89h1.035H8.96h3.265h1.154h1.155H17
	v1.04v1.414v1.414v8.411v1.414v1.414v0.388v1.155v1.155v0.27v1.035V28.917z M19,27.473v-0.75v-0.698v-0.457V24.61v-1.414V10.785
	V9.371V7.957v-0.04c0-0.552-0.447-1-1-1h-2.312h-1.155h-1.154H9.496l0.596-2.223l3.958,1.061l1,0.268l1.001,0.268l3.641,0.976
	l1.115,0.299l1.115,0.299l2.176,0.583L19.903,24.1l-0.299,1.115l-0.162,0.607l-0.137,0.508l-0.132,0.492L19,27.473z M22.293,4.664
	l0.896,0.518l0.896,0.518l6.788,3.918l-9.316,16.137l-0.05,0.086l0.028-0.107l4.752-17.735c0.068-0.256,0.033-0.529-0.1-0.759
	s-0.352-0.397-0.607-0.466L23.555,6.23l-1.115-0.299l-1.115-0.299l-4.238-1.136l1.229-2.13L22.293,4.664z M26.76,3.025l4.513,4.513
	l-5.722-3.303L26.76,3.025z"/>
</g>
</svg>
