<svg version="1.1" id="Layer_1" xmlns="http://www.w3.org/2000/svg" xmlns:xlink="http://www.w3.org/1999/xlink" xml:space="preserve">
<g id="big_icon">
	<path style="fill:#004E5F;" d="M15.375,42.25c-8.623,0-15.639-7.016-15.639-15.64c0-8.624,7.016-15.639,15.639-15.639
		s15.64,7.016,15.64,15.639C31.015,35.234,23.998,42.25,15.375,42.25z M15.375,12.971c-7.521,0-13.639,6.119-13.639,13.639
		s6.118,13.64,13.639,13.64c7.521,0,13.64-6.119,13.64-13.64S22.896,12.971,15.375,12.971z"/>
	<path style="fill:#004E5F;" d="M15.375,37.813c-6.193,0-11.232-5.039-11.232-11.232s5.039-11.232,11.232-11.232
		s11.232,5.039,11.232,11.232S21.568,37.813,15.375,37.813z M15.375,17.348c-5.091,0-9.232,4.142-9.232,9.232
		s4.142,9.232,9.232,9.232s9.232-4.142,9.232-9.232S20.466,17.348,15.375,17.348z"/>
	<path style="fill:#004E5F;" d="M8.32,14.781c-0.304,0-0.604-0.138-0.801-0.399L1.965,6.999C1.652,6.583,1.711,5.996,2.1,5.65
		l6.069-5.397C8.352,0.09,8.588,0,8.834,0h13.067c0.212,0,0.417,0.067,0.589,0.191l7.055,5.133c0.227,0.165,0.373,0.418,0.404,0.697
		c0.031,0.278-0.055,0.558-0.24,0.769l-6.67,7.648c-0.362,0.417-0.994,0.46-1.411,0.096c-0.417-0.363-0.46-0.995-0.097-1.411
		l5.953-6.825L21.576,2H9.214L4.117,6.533l5.002,6.647c0.332,0.441,0.242,1.068-0.199,1.4C8.74,14.716,8.529,14.781,8.32,14.781z"/>
	<path style="fill:#004E5F;" d="M2.764,7c-0.547,0-0.994-0.321-1-0.87c-0.005-0.552,0.438-0.944,0.99-0.95l26.191-0.235
		c0.551,0.007,1.006,0.453,1.011,1.004c0.005,0.552-0.438,0.893-0.989,0.898L2.774,7C2.771,7,2.768,7,2.764,7z"/>
	<path style="fill:#004E5F;" d="M15.375,6.974c-0.222,0-0.443-0.073-0.629-0.223L9.098,2.183c-0.43-0.347-0.496-0.977-0.148-1.406
		s0.977-0.496,1.406-0.148l5.648,4.569c0.43,0.347,0.496,0.977,0.148,1.406C15.955,6.847,15.666,6.974,15.375,6.974z"/>
	<path style="fill:#004E5F;" d="M16.5,7c-0.264,0-0.525-0.103-0.723-0.309c-0.381-0.399-0.367-1.032,0.031-1.414l4.799-4.595
		c0.398-0.382,1.031-0.37,1.414,0.031c0.381,0.399,0.367,1.032-0.031,1.414l-4.799,4.595C16.998,6.908,16.748,7,16.5,7z"/>
</g>
</svg>
