<svg version="1.1" id="Layer_1" xmlns="http://www.w3.org/2000/svg" xmlns:xlink="http://www.w3.org/1999/xlink" xml:space="preserve">
<g id="small_icon">
	<path style="fill:#004E5F;" d="M12.375,33.75c-6.919,0-12.548-5.629-12.548-12.548S5.456,8.654,12.375,8.654
		s12.548,5.629,12.548,12.548S19.294,33.75,12.375,33.75z M12.375,10.654c-5.816,0-10.548,4.732-10.548,10.548
		c0,5.815,4.732,10.548,10.548,10.548s10.548-4.732,10.548-10.548C22.923,15.386,18.191,10.654,12.375,10.654z"/>
	<path style="fill:#004E5F;" d="M12.375,30.25c-5.002,0-9.072-4.069-9.072-9.072s4.069-9.072,9.072-9.072s9.072,4.069,9.072,9.072
		S17.377,30.25,12.375,30.25z M12.375,14.106c-3.899,0-7.072,3.172-7.072,7.072c0,3.9,3.172,7.072,7.072,7.072
		s7.072-3.172,7.072-7.072C19.447,17.279,16.274,14.106,12.375,14.106z"/>
	<path style="fill:#004E5F;" d="M17.825,12.082c-0.233,0-0.467-0.081-0.657-0.247c-0.417-0.363-0.459-0.995-0.096-1.411l4.544-5.21
		L17.198,2H7.595L3.81,5.367l3.204,3.905c0.351,0.427,0.288,1.057-0.139,1.407c-0.426,0.351-1.057,0.289-1.407-0.139L1.654,5.892
		C1.313,5.477,1.362,4.867,1.763,4.511L6.55,0.253C6.733,0.09,6.97,0,7.215,0h10.308c0.211,0,0.417,0.067,0.588,0.191l5.565,4.049
		c0.227,0.165,0.374,0.418,0.405,0.697c0.031,0.278-0.056,0.558-0.24,0.769l-5.262,6.033C18.382,11.966,18.104,12.082,17.825,12.082
		z"/>
	<path style="fill:#004E5F;" d="M2.427,6c-0.548,0-0.995-0.375-1-0.923C1.422,4.524,1.865,4.105,2.417,4.1l20.661-0.192
		c0.595-0.004,1.005,0.446,1.01,0.998s-0.438,0.942-0.99,0.948L2.438,6C2.434,6,2.431,6,2.427,6z"/>
	<path style="fill:#004E5F;" d="M12.375,5.924c-0.221,0-0.443-0.073-0.628-0.223L7.291,2.097C6.861,1.75,6.794,1.12,7.142,0.691
		c0.347-0.43,0.977-0.496,1.406-0.148l4.456,3.604c0.429,0.347,0.496,0.977,0.148,1.406C12.955,5.797,12.666,5.924,12.375,5.924z"/>
	<path style="fill:#004E5F;" d="M13.375,6.133c-0.25,0-0.5-0.093-0.694-0.28c-0.397-0.383-0.41-1.016-0.026-1.414l3.673-3.813
		c0.383-0.398,1.016-0.41,1.414-0.026c0.397,0.383,0.41,1.016,0.026,1.414l-3.673,3.813C13.899,6.03,13.637,6.133,13.375,6.133z"/>
</g>
</svg>
