<svg version="1.1" id="Layer_1" xmlns="http://www.w3.org/2000/svg" xmlns:xlink="http://www.w3.org/1999/xlink" xml:space="preserve">
<g id="big_icon">
	<path style="fill:#004E5F;" d="M40.258,27c-0.447,0-0.842-0.469-0.963-0.903c-0.773-2.796-3.336-5.263-6.688-6.302
		c-0.728-0.226-1.529-0.382-2.383-0.382c-3.302,0-6.627,1.635-8.205,3.271c-0.262,0.271-0.656,0.362-1.016,0.25l-1.02-0.322
		c-0.361-0.112-0.629-0.42-0.691-0.793c-0.52-3.104-3.756-7.4-7.31-8.502c-3.567-1.106-7.442-0.359-9.516,1.79
		c-0.263,0.272-0.657,0.374-1.016,0.261l-1.007-0.313c-0.27-0.083-0.492-0.277-0.611-0.533c-0.119-0.255-0.125-0.55-0.016-0.81
		C3.303,5.426,10.567,0.479,19.254,0.479c2.32,0,4.668,0.363,6.977,1.08C37.182,4.953,43.214,14.88,41.244,26.005
		C41.162,26.465,40.773,27,40.307,27C40.29,27,40.274,27,40.258,27z M30.225,17.37c1.055,0,2.056,0.145,2.975,0.43
		c2.662,0.825,4.916,2.393,6.405,4.366c0.179-8.667-5.132-15.958-13.966-18.697c-2.117-0.657-4.266-0.99-6.385-0.99
		c-7.095,0-13.146,3.663-16.58,9.913c2.654-1.66,6.421-2.066,9.902-0.987c4.141,1.284,7.602,5.714,8.537,9.363
		C23.074,19.048,26.547,17.37,30.225,17.37z"/>
	<path style="fill:#004E5F;" d="M13.571,48.822c-0.308,0-0.618-0.046-0.927-0.142c-0.801-0.248-1.458-0.794-1.848-1.535
		c-0.391-0.741-0.469-1.591-0.221-2.392l7.811-25.184c0.163-0.527,0.724-0.822,1.251-0.659s0.822,0.724,0.659,1.251l-7.811,25.185
		c-0.09,0.29-0.062,0.598,0.08,0.866c0.141,0.269,0.379,0.466,0.67,0.557c0.6,0.187,1.238-0.151,1.424-0.75l7.809-25.183
		c0.164-0.528,0.725-0.824,1.252-0.659c0.527,0.164,0.822,0.724,0.658,1.251L16.57,46.613C16.153,47.957,14.91,48.822,13.571,48.822
		z"/>
	<path style="fill:#004E5F;" d="M23.071,15.555c-0.049,0-0.099-0.007-0.147-0.022c-0.265-0.082-0.412-0.362-0.33-0.625l2.533-8.167
		c0.082-0.263,0.361-0.412,0.625-0.33c0.265,0.082,0.412,0.362,0.33,0.625l-2.533,8.167C23.482,15.417,23.285,15.555,23.071,15.555z
		"/>
</g>
</svg>
