<svg version="1.1" id="Layer_1" xmlns="http://www.w3.org/2000/svg" xmlns:xlink="http://www.w3.org/1999/xlink" xml:space="preserve">
<g id="small_icon">
	<path style="fill:#004E5F;" d="M34,32H0v-1c0-9.092,4.299-16.408,10-17.771V0h5v4.38C15,5.79,16.147,6,16.831,6h0.354
		C17.863,6,19,5.79,19,4.38V0h5v13.292c5.574,1.515,10,8.75,10,17.708V32z M2.09,30h29.57C31.34,21.642,27,15,22,15v-2l0,0V2h-1
		v2.38C21,6.545,19.467,8,17.185,8h-0.354C14.54,8,13,6.545,13,4.38V2h-1v12l0,0v1C7,15,2.409,21.642,2.09,30z"/>
	<path style="fill:#004E5F;" d="M19,15h-5c-0.276,0-0.5-0.224-0.5-0.5S13.724,14,14,14h5c0.276,0,0.5,0.224,0.5,0.5S19.276,15,19,15
		z"/>
</g>
</svg>
