<svg version="1.1" id="Layer_1" xmlns="http://www.w3.org/2000/svg" xmlns:xlink="http://www.w3.org/1999/xlink" xml:space="preserve">
<g id="big_icon">
	<path style="fill:#004E5F;" d="M46,43H0v-1c0-12.152,6.238-22.224,14-23.789V0h6v5.629C20,7.202,20.947,8,22.814,8h0.484
		C25.721,8,26,6.647,26,5.629V0h6v18.265C39.641,19.994,46,29.979,46,42V43z M2.248,41h41.254C43.159,29.518,37,20,30,20v-2l0,0V2
		h-2v3.629C28,8.366,26.242,10,23.299,10h-0.484C19.846,10,18,8.325,18,5.629V2h-2v16l0,0v2C9,20,2.59,29.518,2.248,41z"/>
	<path style="fill:#004E5F;" d="M25,19h-5c-0.276,0-0.5-0.224-0.5-0.5S19.724,18,20,18h5c0.276,0,0.5,0.224,0.5,0.5S25.276,19,25,19
		z"/>
</g>
</svg>
