<svg version="1.1" id="Layer_1" xmlns="http://www.w3.org/2000/svg" xmlns:xlink="http://www.w3.org/1999/xlink" xml:space="preserve">
<g id="big_icon">
	<path style="fill:none;stroke:#004E5F;stroke-width:2;stroke-linecap:round;stroke-linejoin:round;stroke-miterlimit:10;" d="
		M17.044,28.292"/>
	<path style="fill:#004E5F;" d="M49.383,30H18c-0.553,0-1-0.447-1-1s0.447-1,1-1h31.383C49.918,28,50,28,50,27.274V7.384
		C50,7.242,49.982,6,49.383,6H26c-0.553,0-1-0.448-1-1s0.447-1,1-1h23.383C50.973,4,52,5.328,52,7.384v19.891
		C52,29.646,50.36,30,49.383,30z"/>
	<path style="fill:#004E5F;" d="M48.863,44H18.137C16.407,44,15,42.594,15,40.865v-4.73C15,34.406,16.407,33,18.137,33h30.727
		C50.593,33,52,34.406,52,36.135v4.73C52,42.594,50.593,44,48.863,44z M18.137,35C17.51,35,17,35.51,17,36.135v4.73
		C17,41.49,17.51,42,18.137,42h30.727C49.49,42,50,41.49,50,40.865v-4.73C50,35.51,49.49,35,48.863,35H18.137z"/>
	<rect x="27" y="29" style="fill:#004E5F;" width="16" height="5"/>
	<rect x="22" y="37" style="fill:#004E5F;" width="2" height="1"/>
	<rect x="22" y="39" style="fill:#004E5F;" width="2" height="1"/>
	<rect x="26" y="37" style="fill:#004E5F;" width="3" height="1"/>
	<rect x="26" y="39" style="fill:#004E5F;" width="3" height="1"/>
	<rect x="30" y="37" style="fill:#004E5F;" width="3" height="1"/>
	<rect x="30" y="39" style="fill:#004E5F;" width="3" height="1"/>
	<rect x="35" y="37" style="fill:#004E5F;" width="2" height="1"/>
	<rect x="35" y="39" style="fill:#004E5F;" width="2" height="1"/>
	<rect x="39" y="37" style="fill:#004E5F;" width="4" height="1"/>
	<rect x="39" y="39" style="fill:#004E5F;" width="4" height="1"/>
	<rect x="44" y="37" style="fill:#004E5F;" width="3" height="1"/>
	<rect x="44" y="39" style="fill:#004E5F;" width="3" height="1"/>
	<path style="fill:#004E5F;" d="M50,24H22c-0.553,0-1-0.447-1-1s0.447-1,1-1h28c0.553,0,1,0.447,1,1S50.553,24,50,24z"/>
	<g>
		<path style="fill:#004E5F;" d="M6.478,40.18c-0.197,0-0.392-0.059-0.558-0.17l-5.014-3.366c-0.221-0.147-0.373-0.377-0.424-0.638
			c-0.052-0.26,0.002-0.529,0.15-0.75l10.708-15.949c1.001-1.493,2.769-1.673,4.755-0.338l0.091,0.061
			c0.722,0.484,1.968,1.493,2.229,2.829c0.133,0.677-0.006,1.344-0.4,1.931L7.309,39.736c-0.148,0.221-0.377,0.373-0.638,0.424
			C6.606,40.174,6.542,40.18,6.478,40.18z M2.851,35.541l3.354,2.251l10.152-15.119c0.101-0.148,0.128-0.272,0.097-0.431
			c-0.087-0.444-0.615-1.038-1.379-1.55l-0.091-0.061c-0.551-0.37-1.045-0.573-1.395-0.573c-0.179,0-0.374,0.044-0.587,0.363
			L2.851,35.541z"/>
		<path style="fill:#004E5F;" d="M17.226,21.461c-0.192,0-0.388-0.055-0.559-0.171c-0.037-0.025-0.072-0.052-0.104-0.081
			c-0.078-0.021-0.166-0.042-0.258-0.066c-0.443-0.113-0.901-0.23-1.23-0.451l-0.091-0.061c-0.401-0.271-0.653-0.711-0.836-1.033
			c-0.001-0.001-0.001-0.003-0.003-0.004c-0.443-0.312-0.557-0.923-0.254-1.375l3.716-5.532c0.298-0.442,0.89-0.574,1.345-0.299
			l2.592,1.558c0.234,0.141,0.4,0.372,0.461,0.64c0.059,0.268,0.006,0.547-0.146,0.775l-3.801,5.658
			c0,0.001-0.002,0.003-0.003,0.005C17.86,21.308,17.546,21.461,17.226,21.461z M15.956,18.731c0.063,0.106,0.136,0.224,0.179,0.268
			l0.052,0.03c0.08,0.039,0.427,0.128,0.614,0.176c0.018,0.005,0.037,0.01,0.055,0.015l2.756-4.103l-0.875-0.526L15.956,18.731z"/>
		<path style="fill:#004E5F;" d="M25.152,20.497c-0.021,0-0.042,0-0.063-0.002c-0.355-0.022-0.672-0.232-0.832-0.55
			c0,0-0.328-0.655-0.846-1.706c-0.143-0.289-0.137-0.628,0.016-0.913c0.116-0.218,0.445-0.966-0.205-1.404
			c-0.373-0.25-0.924-0.275-1.291-0.057c-0.316,0.185-0.707,0.186-1.021-0.001l-5.578-3.318c-0.236-0.141-0.404-0.372-0.464-0.64
			c-0.061-0.268-0.007-0.549,0.146-0.777l1.143-1.697c0.102-0.296,0.655-2.481-3.769-5.453c-0.187-0.125-0.325-0.31-0.395-0.524
			c-0.104-0.327-0.402-1.454,0.177-2.249c0.521-0.719,1.463-0.868,2.721-0.307c0.076,0.035,0.148,0.079,0.215,0.131l10.496,8.318
			c0.234,0.183,0.377,0.461,0.385,0.759c0.013,0.402,0.169,0.707,0.465,0.905c0.385,0.259,0.824,0.212,1.244-0.097
			c0.136-0.1,0.295-0.164,0.463-0.186c1.152-0.149,2.252-0.212,2.299-0.215c0.387-0.013,0.737,0.174,0.925,0.503
			c0.188,0.33,0.173,0.737-0.039,1.053l-5.36,7.984C25.797,20.332,25.484,20.497,25.152,20.497z M22.518,13.712
			c0.653,0,1.283,0.19,1.82,0.55c0.949,0.639,1.391,1.692,1.249,2.793l2.855-4.254c-1,0.533-2.18,0.492-3.106-0.129
			c-0.701-0.471-1.152-1.172-1.298-2.007l-1.928-1.5l-6.348-5.055c3.601,3.453,2.226,6.145,2.155,6.276l-0.656,0.98l4.227,2.514
			C21.814,13.77,22.163,13.712,22.518,13.712z"/>
	</g>
</g>
</svg>
