<svg version="1.1" id="Layer_1" xmlns="http://www.w3.org/2000/svg" xmlns:xlink="http://www.w3.org/1999/xlink" xml:space="preserve">
<g id="big_icon">
	<g>
		<path style="fill:none;stroke:#004E5F;stroke-width:2;stroke-linecap:round;stroke-linejoin:round;stroke-miterlimit:10;" d="
			M31.548,26.503"/>
		<g>
			<path style="fill:#004E5F;" d="M28.264,42c-0.252,0-0.494,0.095-0.68-0.076l-3.902-3.52c-0.193-0.18-0.309-0.383-0.318-0.648
				c-0.011-0.264,0.084-0.499,0.266-0.693l11.492-12.4c0.469-0.506,1.076-0.768,1.755-0.768c1.206,0,2.311,0.859,2.862,1.37
				c0.003,0.003,0.078,0.076,0.081,0.079c0.881,0.814,1.349,1.658,1.382,2.497c0.024,0.654-0.221,1.278-0.71,1.807L28.998,41.869
				C28.817,42.064,28.566,42,28.302,42C28.289,42,28.276,42,28.264,42z M25.775,37.711l2.434,2.256l10.814-11.678
				c0.186-0.199,0.181-0.319,0.179-0.371c-0.011-0.272-0.292-0.689-0.751-1.114c-0.004-0.003-0.079-0.075-0.082-0.079
				c-0.538-0.497-1.128-0.824-1.493-0.824c-0.101,0-0.185,0.021-0.286,0.132L25.775,37.711z"/>
			<path style="fill:#004E5F;" d="M40.172,27.563c-0.229,0-0.459-0.078-0.645-0.235c-0.322-0.096-0.752-0.227-1.074-0.523
				c-0.004-0.004-0.08-0.076-0.084-0.08c-0.261-0.24-0.459-0.617-0.65-0.983c-0.034-0.063-0.066-0.126-0.096-0.183
				c-0.027-0.02-0.055-0.043-0.081-0.066c-0.405-0.375-0.431-1.007-0.057-1.412c0.001-0.002,0.003-0.004,0.004-0.005l4.077-4.402
				c0.186-0.201,0.446-0.316,0.721-0.32c0.27-0.001,0.537,0.105,0.729,0.301l1.859,1.904c0.371,0.381,0.38,0.986,0.018,1.377
				l-3.986,4.307c-0.002,0.002-0.002,0.002-0.002,0.003C40.707,27.457,40.439,27.563,40.172,27.563z M39.505,24.842
				c0.077,0.148,0.202,0.384,0.261,0.453c0.025,0.018,0.09,0.041,0.16,0.063l2.854-3.082l-0.461-0.472L39.505,24.842z"/>
			<path style="fill:#004E5F;" d="M54.072,25.918c-0.139,0-0.227-0.007-0.227-0.007c-0.221-0.019-0.438-0.112-0.601-0.263
				c-3.376-3.127-5.028-2.276-5.276-2.12l-1.214,1.313c-0.187,0.201-0.448,0.317-0.724,0.32c-0.232,0.008-0.537-0.106-0.729-0.305
				l-3.977-4.107c-0.255-0.262-0.346-0.643-0.236-0.993c0.102-0.325-0.014-0.726-0.281-0.973c-0.304-0.283-0.713-0.211-1.081,0.113
				c-0.241,0.212-0.571,0.295-0.882,0.225c-1.01-0.229-1.637-0.378-1.637-0.378c-0.346-0.082-0.623-0.342-0.726-0.682
				c-0.104-0.34-0.019-0.709,0.223-0.97l5.753-6.214c0.258-0.279,0.65-0.389,1.016-0.28c0.364,0.106,0.637,0.41,0.703,0.784
				c0.008,0.041,0.178,1.001,0.283,2.022c0.018,0.167-0.008,0.337-0.074,0.492c-0.114,0.271-0.183,0.655,0.14,0.953
				c0.204,0.19,0.46,0.246,0.765,0.186c0.291-0.06,0.595,0.013,0.827,0.2l1.968,1.581l7.29,5.724
				c0.066,0.053,0.126,0.113,0.177,0.18c0.642,0.84,0.806,1.591,0.488,2.233C55.732,25.575,55.033,25.918,54.072,25.918z
				 M43.119,19.728l2.885,2.979l0.561-0.605c0.205-0.189,0.951-0.79,2.318-0.79c0.768,0,1.57,0.188,2.404,0.56l-6.096-4.816
				c-0.042,0.002-0.084,0.003-0.126,0.003h-0.001c-0.719,0-1.375-0.257-1.898-0.744c-0.658-0.61-0.957-1.457-0.854-2.334
				l-2.484,2.684c0.839-0.178,1.695,0.057,2.341,0.653C42.846,17.946,43.188,18.844,43.119,19.728z"/>
		</g>
	</g>
	<g>
		<g>
			<path style="fill:#004E5F;" d="M17.014,35.346c-2.891,0-5.568-1.305-7.346-3.578c-3.164-4.047-2.446-9.916,1.601-13.081
				c1.655-1.294,3.637-1.978,5.733-1.978c2.891,0,5.569,1.305,7.347,3.58c1.533,1.96,2.211,4.4,1.908,6.871s-1.549,4.676-3.51,6.208
				C21.094,34.662,19.11,35.346,17.014,35.346z M17.002,18.709c-1.646,0-3.202,0.537-4.501,1.553
				c-3.178,2.486-3.742,7.096-1.257,10.273c1.396,1.787,3.5,2.811,5.771,2.811c1.646,0,3.203-0.537,4.502-1.553
				c1.54-1.204,2.519-2.936,2.756-4.876s-0.295-3.856-1.499-5.396C21.377,19.734,19.273,18.709,17.002,18.709z"/>
			<circle style="fill:#004E5F;" cx="16.402" cy="25.956" r="1.299"/>
			<circle style="fill:#004E5F;" cx="39.142" cy="8.902" r="1.3"/>
			<path style="fill:#004E5F;" d="M34.77,17.257c-0.164,0-0.33-0.04-0.484-0.125c-1.093-0.605-2.041-1.417-2.817-2.41
				c-1.533-1.96-2.211-4.4-1.908-6.871c0.302-2.471,1.549-4.676,3.51-6.208c4.047-3.166,9.915-2.447,13.079,1.6
				c2.272,2.904,2.617,6.883,0.879,10.135c-0.261,0.487-0.866,0.671-1.354,0.411c-0.486-0.26-0.67-0.866-0.41-1.353
				c1.365-2.555,1.094-5.68-0.69-7.96c-2.485-3.179-7.093-3.741-10.272-1.257c-1.54,1.204-2.519,2.936-2.756,4.876
				c-0.238,1.94,0.295,3.856,1.498,5.396c0.611,0.781,1.355,1.417,2.213,1.893c0.482,0.268,0.657,0.876,0.389,1.359
				C35.463,17.071,35.121,17.257,34.77,17.257z"/>
			<path style="fill:#004E5F;" d="M23.151,13.815c-4.342,0-7.867-0.533-8.188-0.583l0.308-1.977
				c0.167,0.026,16.787,2.536,21.922-3.362l1.508,1.313C35.432,12.963,28.639,13.815,23.151,13.815z"/>
			
				<rect x="2.283" y="12.012" transform="matrix(0.616 0.7877 -0.7877 0.616 12.3917 0.6027)" style="fill:#004E5F;" width="6.59" height="2"/>
			<polygon style="fill:#004E5F;" points="9.307,17.018 8.211,15.345 23.279,5.475 38.967,7.995 38.649,9.97 23.727,7.572 			"/>
			
				<rect x="19.67" y="3.781" transform="matrix(0.5436 0.8393 -0.8393 0.5436 14.0473 -16.271)" style="fill:#004E5F;" width="4.631" height="2.001"/>
			<path style="fill:#004E5F;" d="M22.592,0.544c0.448,0.573,0.348,1.402-0.227,1.85l-5.189,4.059
				c-0.574,0.448-1.401,0.347-1.852-0.227l0,0c-0.446-0.573-0.346-1.401,0.228-1.85l5.19-4.058
				C21.315-0.13,22.145-0.029,22.592,0.544L22.592,0.544z"/>
			
				<rect x="5.277" y="16.683" transform="matrix(0.6159 0.7878 -0.7878 0.6159 17.4754 -0.48)" style="fill:#004E5F;" width="7.907" height="1.999"/>
			
				<rect x="3.879" y="5.119" transform="matrix(0.6159 0.7878 -0.7878 0.6159 10.5784 0.4003)" style="fill:#004E5F;" width="1.999" height="11.859"/>
		</g>
	</g>
</g>
</svg>
