<svg version="1.1" id="Layer_1" xmlns="http://www.w3.org/2000/svg" xmlns:xlink="http://www.w3.org/1999/xlink" xml:space="preserve">
<g id="big_icon">
	<g>
		<path style="fill:none;stroke:#004E5F;stroke-width:2;stroke-linecap:round;stroke-linejoin:round;stroke-miterlimit:10;" d="
			M27.035,25.674"/>
		<g>
			<path style="fill:#004E5F;" d="M30.577,42.717c-0.269,0-0.536-0.107-0.733-0.32L17.448,29.012
				c-0.513-0.553-0.77-1.206-0.744-1.89c0.034-0.884,0.53-1.774,1.476-2.649l0.068-0.064c0.595-0.552,1.769-1.462,3.041-1.462
				c0.711,0,1.346,0.28,1.836,0.81l12.393,13.385c0.181,0.194,0.276,0.452,0.267,0.717c-0.011,0.266-0.126,0.516-0.319,0.696
				l-4.208,3.897C31.064,42.629,30.82,42.717,30.577,42.717z M21.289,24.946c-0.418,0-1.06,0.353-1.673,0.921l-0.069,0.064
				c-0.746,0.69-0.839,1.115-0.845,1.268c-0.002,0.059-0.008,0.215,0.212,0.453l11.716,12.651l2.74-2.538L21.656,25.114
				C21.545,24.993,21.441,24.946,21.289,24.946z"/>
			<path style="fill:#004E5F;" d="M17.735,26.74c-0.268,0-0.535-0.107-0.732-0.319c0,0-0.001-0.001-0.001-0.002l-4.3-4.644
				c-0.362-0.391-0.354-0.997,0.019-1.378l2.005-2.053c0.191-0.196,0.476-0.284,0.729-0.301c0.274,0.004,0.534,0.12,0.721,0.32
				l4.292,4.634c0.238,0.183,0.393,0.471,0.393,0.795c0,0.348-0.178,0.655-0.447,0.834c-0.031,0.059-0.064,0.124-0.1,0.191
				c-0.205,0.388-0.415,0.79-0.697,1.05l-0.068,0.064c-0.352,0.324-0.814,0.461-1.154,0.562C18.204,26.658,17.97,26.74,17.735,26.74
				z M14.815,21.114l3.162,3.416c0.1-0.031,0.204-0.066,0.248-0.093l0.023-0.029c0.055-0.067,0.209-0.362,0.293-0.521
				c0.003-0.005,0.006-0.011,0.009-0.017l-3.128-3.377L14.815,21.114z"/>
			<path style="fill:#004E5F;" d="M2.745,24.966c-1.005,0-1.734-0.354-2.053-0.999c-0.328-0.664-0.154-1.446,0.519-2.326
				c0.051-0.067,0.11-0.127,0.177-0.18l9.984-7.878c0.232-0.187,0.535-0.26,0.828-0.2c0.354,0.071,0.653,0.002,0.892-0.218
				c0.382-0.354,0.304-0.802,0.171-1.117c-0.066-0.155-0.091-0.325-0.074-0.492c0.113-1.098,0.296-2.131,0.304-2.174
				c0.066-0.374,0.339-0.678,0.703-0.784c0.364-0.108,0.757,0.001,1.015,0.28l6.205,6.701c0.24,0.261,0.326,0.63,0.223,0.97
				c-0.104,0.34-0.38,0.6-0.726,0.682c0,0-0.677,0.161-1.764,0.408c-0.315,0.07-0.642-0.012-0.883-0.225
				c-0.433-0.382-0.91-0.455-1.274-0.119c-0.307,0.285-0.439,0.75-0.322,1.128c0.109,0.35,0.019,0.73-0.236,0.993l-4.288,4.43
				c-0.191,0.198-0.489,0.305-0.73,0.305c-0.275-0.003-0.537-0.119-0.723-0.321l-1.316-1.424c-0.259-0.167-2.059-1.17-5.793,2.289
				c-0.163,0.151-0.379,0.244-0.601,0.263C2.983,24.958,2.891,24.966,2.745,24.966z M8.341,20.155c1.478,0,2.286,0.681,2.374,0.758
				l0.729,0.785l3.195-3.301c-0.084-0.94,0.275-1.9,0.994-2.568c0.747-0.69,1.756-0.915,2.714-0.621l-3.038-3.281
				c0.203,1.011-0.101,2.006-0.857,2.705c-0.587,0.546-1.34,0.809-2.155,0.775l-1.792,1.44l-5.407,4.246
				C6.233,20.469,7.318,20.155,8.341,20.155z"/>
		</g>
	</g>
	<g>
		<path style="fill:#004E5F;" d="M18.104,31.982c-0.067,0-0.136-0.006-0.205-0.021l-3.103-0.646C14.333,31.219,14,30.811,14,30.337
			V26c0-0.553,0.448-1,1-1s1,0.447,1,1v3.523l2.306,0.48c0.541,0.113,0.888,0.643,0.775,1.183
			C18.983,31.658,18.567,31.982,18.104,31.982z"/>
		<path style="fill:#004E5F;" d="M32,35c-0.553,0-1-0.447-1-1V8.801L16,6.72V7c0,0.552-0.448,1-1,1s-1-0.448-1-1V5.572
			c0-0.289,0.125-0.564,0.343-0.754c0.218-0.19,0.512-0.277,0.794-0.237l17,2.358C32.632,7.008,33,7.431,33,7.93V34
			C33,34.553,32.553,35,32,35z"/>
		<path style="fill:#004E5F;" d="M32,34.875c-0.234,0-0.464-0.083-0.646-0.236C31.129,34.448,31,34.169,31,33.875V7.93
			c0-0.509,0.383-0.937,0.889-0.994l21-2.358c0.285-0.032,0.566,0.059,0.777,0.248C53.879,5.016,54,5.287,54,5.572v24.765
			c0,0.488-0.353,0.905-0.834,0.986l-21,3.538C32.111,34.87,32.055,34.875,32,34.875z M33,8.824v23.867l19-3.2V6.69L33,8.824z"/>
		<path style="fill:#004E5F;" d="M53,8c-0.553,0-1-0.448-1-1V5.257L36.08,2.938L15.375,5.704c-0.543,0.073-1.051-0.311-1.124-0.859
			c-0.073-0.547,0.312-1.05,0.859-1.124l20.844-2.784c0.091-0.012,0.184-0.013,0.276,0.001l16.914,2.464
			C53.636,3.475,54,3.896,54,4.393V7C54,7.552,53.553,8,53,8z"/>
		<path style="fill:#004E5F;" d="M39.5,32.5c-0.276,0-0.5-0.224-0.5-0.5V8c0-0.276,0.224-0.5,0.5-0.5S40,7.724,40,8v24
			C40,32.276,39.776,32.5,39.5,32.5z"/>
		<path style="fill:#004E5F;" d="M46.5,31.5c-0.276,0-0.5-0.224-0.5-0.5V7c0-0.276,0.224-0.5,0.5-0.5S47,6.724,47,7v24
			C47,31.276,46.776,31.5,46.5,31.5z"/>
		<path style="fill:#004E5F;" d="M23.5,23.5c-0.276,0-0.5-0.224-0.5-0.5V7c0-0.276,0.224-0.5,0.5-0.5S24,6.724,24,7v16
			C24,23.276,23.776,23.5,23.5,23.5z"/>
		<path style="fill:#004E5F;" d="M23.477,6.859c-0.246,0-0.461-0.183-0.494-0.435c-0.037-0.273,0.156-0.525,0.43-0.561L46.021,2.87
			c0.271-0.038,0.524,0.157,0.561,0.43c0.037,0.273-0.156,0.525-0.43,0.561L23.543,6.854C23.521,6.857,23.498,6.859,23.477,6.859z"
			/>
		<path style="fill:#004E5F;" d="M39.398,6.859c-0.02,0-0.039-0.001-0.059-0.003L21.918,4.805c-0.273-0.032-0.47-0.281-0.438-0.555
			c0.032-0.274,0.281-0.474,0.555-0.438l17.422,2.051c0.273,0.032,0.47,0.281,0.438,0.555C39.865,6.672,39.648,6.859,39.398,6.859z"
			/>
		<path style="fill:#004E5F;" d="M46.475,6.072c-0.021,0-0.041-0.001-0.063-0.004L28.525,3.861
			c-0.273-0.034-0.469-0.283-0.435-0.557s0.294-0.474,0.558-0.435l17.887,2.207c0.273,0.034,0.469,0.283,0.435,0.557
			C46.938,5.886,46.723,6.072,46.475,6.072z"/>
		<path style="fill:#004E5F;" d="M30.688,18c-0.036,0-0.072-0.004-0.107-0.012l-8.03-1.769c-0.271-0.06-0.44-0.326-0.381-0.596
			c0.06-0.27,0.326-0.439,0.596-0.381L30.742,17h0.99l21.152-3.22c0.273-0.041,0.527,0.146,0.568,0.419
			c0.042,0.273-0.146,0.528-0.418,0.569l-21.228,3.226L30.688,18z"/>
		<path style="fill:#004E5F;" d="M30.688,26c-0.035,0-0.07-0.004-0.104-0.011l-6.229-1.321c-0.271-0.058-0.443-0.323-0.386-0.593
			s0.324-0.442,0.593-0.386L30.74,25h0.992l21.153-3.157c0.276-0.036,0.528,0.148,0.568,0.421c0.04,0.273-0.147,0.527-0.421,0.568
			l-21.227,3.162L30.688,26z"/>
	</g>
</g>
</svg>
