<svg version="1.1" id="Layer_1" xmlns="http://www.w3.org/2000/svg" xmlns:xlink="http://www.w3.org/1999/xlink" xml:space="preserve">
<g id="small_icon">
	<g>
		<path style="fill:none;stroke:#004E5F;stroke-width:2;stroke-linecap:round;stroke-linejoin:round;stroke-miterlimit:10;" d="
			M11.171,20.26"/>
		<g>
			<path style="fill:#004E5F;" d="M4.174,27.97c-0.099,0-0.196-0.029-0.279-0.085l-3.32-2.23c-0.229-0.153-0.29-0.464-0.136-0.693
				L7.529,14.4c0.614-0.915,1.689-1.008,2.923-0.179c0.433,0.29,0.938,0.696,1.241,1.222c0.345,0.598,0.34,1.218-0.013,1.745
				L4.589,27.748c-0.074,0.11-0.188,0.187-0.318,0.213C4.238,27.967,4.206,27.97,4.174,27.97z M1.547,25.104l2.49,1.672
				l6.813-10.146c0.094-0.139,0.175-0.343-0.023-0.688c-0.162-0.281-0.471-0.583-0.87-0.851C9.5,14.785,9.15,14.645,8.883,14.645
				c-0.146,0-0.338,0.035-0.524,0.313L1.547,25.104z"/>
			<path style="fill:#004E5F;" d="M11.292,15.574c-0.096,0-0.193-0.027-0.279-0.085c-0.029-0.02-0.055-0.042-0.079-0.066
				c-0.06-0.018-0.134-0.035-0.211-0.055c-0.281-0.072-0.571-0.146-0.766-0.277c-0.294-0.197-0.443-0.459-0.563-0.669
				c-0.007-0.012-0.014-0.024-0.021-0.037c-0.006-0.004-0.013-0.008-0.02-0.013c-0.229-0.154-0.289-0.464-0.135-0.693l2.459-3.664
				c0.149-0.22,0.445-0.286,0.673-0.15l1.716,1.031c0.117,0.071,0.201,0.187,0.23,0.32c0.029,0.134,0.003,0.274-0.073,0.388
				l-2.517,3.748l0,0.001C11.61,15.497,11.452,15.574,11.292,15.574z M10.26,13.922c0.001,0.002,0.002,0.004,0.003,0.005
				c0.047,0.083,0.145,0.255,0.196,0.298c0.123,0.075,0.375,0.14,0.511,0.174c0.051,0.013,0.1,0.025,0.146,0.038l1.984-2.954
				l-0.858-0.516L10.26,13.922z"/>
			<path style="fill:#004E5F;" d="M16.54,15c-0.01,0-0.021,0-0.031,0c-0.177,0-0.335-0.148-0.416-0.308c0,0-0.217-0.448-0.56-1.144
				c-0.071-0.145-0.068-0.322,0.007-0.464c0.192-0.361,0.244-0.855-0.188-1.146c-0.301-0.202-0.731-0.222-1.028-0.045
				c-0.157,0.093-0.353,0.092-0.51-0.001l-3.694-2.198c-0.118-0.07-0.202-0.186-0.232-0.32C9.858,9.24,9.884,9.099,9.961,8.985
				l0.79-1.175c0,0,0,0,0,0c-0.007,0,0.672-1.607-2.572-3.786C8.085,3.962,8.016,3.87,7.981,3.763
				C7.936,3.622,7.728,2.895,8.075,2.419c0.301-0.413,0.852-0.487,1.604-0.15c0.039,0.018,0.075,0.039,0.107,0.065l6.952,5.51
				c0.118,0.091,0.188,0.23,0.193,0.379c0.01,0.321,0.137,0.566,0.379,0.729c0.308,0.206,0.677,0.174,1.01-0.069
				c0.068-0.05,0.148-0.082,0.232-0.093c0.765-0.098,1.509-0.141,1.509-0.141c0.191-0.006,0.369,0.086,0.463,0.251
				c0.094,0.165,0.087,0.369-0.019,0.527l-3.55,5.319C16.862,14.885,16.706,15,16.54,15z M16.536,13.304
				c0.023,0.047,0.046,0.094,0.068,0.138l2.49-3.709c-0.096,0.01-0.195,0.021-0.295,0.034c-0.643,0.417-1.434,0.427-2.047,0.016
				c-0.444-0.298-0.722-0.748-0.8-1.283l-1.327-1.034L9.215,3.157C8.994,3.064,8.88,3.054,8.839,3.054
				c0.015,0.008,0.03,0.124,0.056,0.25c3.9,2.699,2.762,4.928,2.711,5.022l-0.521,0.778l3.012,1.792
				c0.582-0.222,1.286-0.145,1.814,0.209C16.64,11.595,16.875,12.456,16.536,13.304z"/>
		</g>
	</g>
	<g>
		<path style="fill:#004E5F;" d="M21.446,3.1c-0.093,0-0.187-0.017-0.278-0.054c-0.321-0.128-0.505-0.454-0.467-0.782h-1.708
			c0.027,0.323-0.152,0.644-0.466,0.769c-0.385,0.154-0.816-0.021-0.97-0.405c-0.294-0.735-0.018-1.419,0.719-1.786
			c0.104-0.051,0.218-0.078,0.333-0.078h2.48c0.116,0,0.23,0.027,0.333,0.078c0.737,0.366,1.012,1.05,0.718,1.786
			C22.025,2.922,21.744,3.1,21.446,3.1z"/>
		<path style="fill:#004E5F;" d="M17.162,30.963c-0.845,0-1.552-0.273-2.078-0.816c-0.128-0.133-0.243-0.28-0.347-0.442
			c-0.026-0.04-0.048-0.083-0.066-0.128c-0.088-0.221-0.252-0.631-0.164-12.957c0.002-0.287,0.004-0.536,0.02-0.747
			c-0.002-0.022-0.004-0.044-0.005-0.067h0.011c0,0,0-0.001,0-0.001h-0.011l0.011,0c0.05-0.528,0.208-0.794,0.73-0.798
			c0.002,0,0.004,0,0.006,0c0.407,0,0.742,0.355,0.752,0.763c0.001,0.041-0.001,0.082-0.007,0.122
			c-0.002,0.106-0.005,0.322-0.008,0.74c-0.058,8.071-0.004,11.644,0.07,12.375c0.027,0.035,0.056,0.069,0.086,0.101
			c0.251,0.259,0.624,0.385,1.134,0.354l5.073-0.001c0.751,0.023,1.082-0.223,1.27-0.478c0.111-0.914,0.085-9.144,0.037-14.188
			c-0.037-0.773-0.526-1.468-1.495-2.097c-0.011-0.006-0.022-0.012-0.033-0.018c-0.624-0.35-1.295-1.109-0.947-2.742
			c0.07-0.459,0.095-0.969,0.065-1.475c-0.157-1.353-0.418-2.77-0.775-4.194c-0.051-0.205-0.014-0.421,0.103-0.597
			c0.097-0.146,0.183-0.335-0.039-0.727c-0.204-0.361-0.076-0.818,0.285-1.022c0.36-0.203,0.817-0.076,1.022,0.285
			c0.38,0.674,0.431,1.366,0.154,1.982c0.336,1.391,0.586,2.774,0.743,4.117c0.003,0.029,0.005,0.083,0.005,0.112
			c0.035,0.568,0.005,1.186-0.089,1.792c-0.184,0.866,0.055,1.071,0.179,1.146c0.023,0.011,0.045,0.022,0.063,0.032
			c1.445,0.92,2.196,2.047,2.258,3.364c0.091,9.373,0.041,14.352-0.148,14.826c-0.017,0.044-0.039,0.085-0.064,0.125
			c-0.387,0.606-1.153,1.325-2.624,1.257h-5.011C17.273,30.962,17.217,30.963,17.162,30.963z"/>
		<path style="fill:none;stroke:#004E5F;stroke-width:1.5;stroke-linecap:round;stroke-linejoin:round;stroke-miterlimit:10;" d="
			M17.184,12.025"/>
		<path style="fill:none;stroke:#004E5F;stroke-width:1.5;stroke-linecap:round;stroke-linejoin:round;stroke-miterlimit:10;" d="
			M17.685,8.418"/>
		<path style="fill:#004E5F;" d="M17.876,7.771c-0.04,0-0.08-0.003-0.12-0.01c-0.409-0.066-0.687-0.451-0.621-0.859
			c0.144-0.891,0.327-1.803,0.547-2.713c-0.277-0.616-0.225-1.308,0.155-1.981c0.205-0.36,0.662-0.486,1.022-0.285
			c0.361,0.204,0.488,0.661,0.285,1.022c-0.21,0.373-0.143,0.57-0.039,0.727c0.116,0.176,0.154,0.392,0.103,0.596
			c-0.241,0.964-0.44,1.931-0.592,2.873C18.556,7.509,18.237,7.771,17.876,7.771z"/>
	</g>
	<g>
		<path style="fill:#004E5F;" d="M29.161,3.1c-0.093,0-0.187-0.017-0.278-0.054c-0.321-0.128-0.505-0.454-0.467-0.782h-1.708
			c0.027,0.323-0.152,0.644-0.466,0.769c-0.386,0.154-0.817-0.021-0.97-0.405c-0.294-0.735-0.018-1.419,0.719-1.786
			c0.104-0.051,0.218-0.078,0.333-0.078h2.48c0.116,0,0.23,0.027,0.333,0.078c0.737,0.366,1.012,1.05,0.718,1.786
			C29.74,2.922,29.458,3.1,29.161,3.1z"/>
		<path style="fill:#004E5F;" d="M30.228,30.963c-0.057,0-0.114-0.002-0.172-0.004h-4.011c-0.414,0-0.75-0.336-0.75-0.75
			s0.336-0.75,0.75-0.75h4.042c0.757,0.023,1.082-0.223,1.27-0.478c0.111-0.914,0.086-9.144,0.037-14.188
			c-0.037-0.773-0.526-1.468-1.495-2.097c-0.011-0.006-0.022-0.012-0.033-0.018c-0.624-0.35-1.295-1.109-0.947-2.742
			c0.07-0.459,0.095-0.969,0.065-1.475c-0.157-1.353-0.418-2.77-0.775-4.194c-0.051-0.205-0.014-0.421,0.103-0.597
			c0.097-0.146,0.183-0.335-0.039-0.727c-0.204-0.361-0.076-0.818,0.285-1.022c0.36-0.203,0.817-0.076,1.022,0.285
			c0.38,0.674,0.431,1.366,0.154,1.982c0.336,1.391,0.586,2.774,0.743,4.117c0.003,0.029,0.005,0.083,0.005,0.112
			c0.035,0.568,0.005,1.186-0.089,1.792c-0.184,0.866,0.055,1.071,0.179,1.146c0.023,0.011,0.045,0.022,0.063,0.032
			c1.445,0.92,2.196,2.047,2.258,3.364c0.091,9.373,0.041,14.352-0.148,14.826c-0.017,0.044-0.038,0.085-0.063,0.125
			C32.309,30.284,31.584,30.963,30.228,30.963z"/>
		<path style="fill:#004E5F;" d="M25.184,12.561c-0.192,0-0.384-0.073-0.53-0.22c-0.293-0.293-0.293-0.768,0-1.061
			c0.212-0.212,0.167-0.678,0.093-1.031c-0.102-0.646-0.132-1.263-0.095-1.876c0.159-1.403,0.409-2.791,0.746-4.185
			c-0.277-0.616-0.225-1.308,0.155-1.981c0.205-0.36,0.662-0.486,1.022-0.285c0.361,0.204,0.488,0.661,0.285,1.022
			c-0.21,0.373-0.143,0.57-0.039,0.727c0.117,0.176,0.154,0.392,0.103,0.597c-0.357,1.427-0.619,2.844-0.777,4.211
			c-0.026,0.489-0.002,0.999,0.076,1.499c0.214,1.002,0.046,1.81-0.507,2.363C25.567,12.487,25.375,12.561,25.184,12.561z"/>
	</g>
</g>
</svg>
