<svg version="1.1" id="Layer_1" xmlns="http://www.w3.org/2000/svg" xmlns:xlink="http://www.w3.org/1999/xlink" xml:space="preserve">
<g id="small_icon">
	<g>
		<path style="fill:none;stroke:#004E5F;stroke-width:2;stroke-linecap:round;stroke-linejoin:round;stroke-miterlimit:10;" d="
			M11.17,18.316"/>
		<g>
			<path style="fill:#004E5F;" d="M2.977,25c-0.131,0-0.256-0.235-0.35-0.326l-2.858-2.89c-0.197-0.192-0.201-0.556-0.008-0.753
				l8.895-9.117c0.768-0.786,1.85-0.691,2.907,0.345c0.373,0.363,0.795,0.849,0.998,1.421c0.23,0.651,0.113,1.257-0.331,1.71
				l-8.896,9.276C3.242,24.762,3.115,25,2.982,25C2.981,25,2.979,25,2.977,25z M0.826,21.327l2.144,2.098l8.546-8.736
				c0.117-0.12,0.235-0.306,0.103-0.68c-0.108-0.306-0.357-0.659-0.701-0.995c-0.446-0.436-0.814-0.646-1.092-0.646
				c-0.102,0-0.259,0.023-0.455,0.223L0.826,21.327z"/>
			<path style="fill:#004E5F;" d="M12.233,13.739c-0.126,0-0.253-0.048-0.351-0.143c-0.024-0.024-0.046-0.051-0.065-0.079
				c-0.056-0.028-0.126-0.059-0.199-0.092c-0.263-0.121-0.534-0.247-0.702-0.411c-0.254-0.249-0.353-0.533-0.432-0.761
				c-0.005-0.014-0.009-0.027-0.014-0.04c-0.006-0.005-0.012-0.011-0.017-0.016c-0.196-0.193-0.199-0.509-0.007-0.706l3.085-3.154
				c0.187-0.19,0.49-0.201,0.688-0.025l1.5,1.326c0.103,0.091,0.164,0.22,0.168,0.356s-0.046,0.27-0.142,0.368l-3.157,3.227
				c0,0-0.001,0.001-0.001,0.001C12.491,13.689,12.362,13.739,12.233,13.739z M11.428,11.918c0.001,0.002,0.001,0.004,0.002,0.006
				c0.031,0.09,0.096,0.277,0.139,0.329c0.106,0.095,0.343,0.205,0.47,0.264c0.048,0.022,0.094,0.043,0.138,0.064l2.488-2.543
				l-0.75-0.663L11.428,11.918z"/>
			<path style="fill:#004E5F;" d="M17.51,14.065c-0.041,0-0.081-0.005-0.122-0.015c-0.172-0.043-0.309-0.174-0.358-0.345
				c0,0-0.135-0.464-0.345-1.211c-0.043-0.155-0.01-0.321,0.09-0.447c0.254-0.32,0.395-0.792,0.023-1.156
				c-0.259-0.254-0.677-0.349-1.004-0.229c-0.171,0.062-0.365,0.026-0.501-0.094L12.06,7.734c-0.104-0.09-0.165-0.22-0.17-0.357
				c-0.005-0.138,0.046-0.271,0.143-0.369l0.991-1.01l0,0c-0.008,0,0.954-1.457-1.841-4.19c-0.081-0.079-0.132-0.182-0.146-0.293
				c-0.017-0.135-0.085-0.83,0.279-1.245c0.356-0.404,0.948-0.408,1.663,0.085c0.034,0.024,0.066,0.052,0.093,0.084l5.833,6.683
				c0.099,0.111,0.143,0.261,0.12,0.408c-0.049,0.318,0.032,0.582,0.241,0.786c0.265,0.258,0.636,0.295,1.005,0.116
				c0.077-0.037,0.168-0.052,0.246-0.049c0.77,0.042,1.509,0.135,1.509,0.135c0.188,0.024,0.347,0.152,0.41,0.332
				c0.063,0.179,0.018,0.378-0.115,0.514l-4.453,4.552C17.772,14.012,17.643,14.065,17.51,14.065z M17.712,12.453
				c0.015,0.051,0.028,0.101,0.042,0.148l3.123-3.193c-0.096-0.007-0.196-0.014-0.296-0.021c-0.718,0.294-1.487,0.159-2.015-0.357
				c-0.382-0.374-0.574-0.867-0.554-1.407l-1.117-1.258l-4.536-5.222c-0.26-0.17-0.367-0.173-0.371-0.173
				c0.028,0.012,0.026,0.129,0.03,0.258c3.345,3.364,1.82,5.349,1.752,5.433l-0.654,0.67l2.636,2.31
				c0.614-0.114,1.292,0.093,1.746,0.536C18.125,10.792,18.199,11.68,17.712,12.453z"/>
		</g>
	</g>
	<g>
		<g>
			<path style="fill:#004E5F;" d="M14.062,28.289c-0.81,0-1.258-0.343-1.491-0.631c-1.082-1.332,0.533-3.464,1.064-4.164
				c1.125-1.485,2.827-3.181,4.792-4.776c2.57-2.086,6.329-4.523,8.464-4.523c0.809,0,1.257,0.342,1.49,0.629
				c1.949,2.402-4.537,7.87-5.856,8.941C19.955,25.853,16.197,28.289,14.062,28.289z M26.676,16.229
				c-1.309,0.204-3.989,1.608-6.988,4.042c-3.416,2.772-5.083,5.075-5.418,6.002c1.194-0.159,3.928-1.57,6.995-4.061
				C24.657,19.459,26.326,17.168,26.676,16.229z"/>
			<path style="fill:#004E5F;" d="M18.432,30.41c-0.195,0-0.381-0.115-0.461-0.307c-0.106-0.255,0.014-0.548,0.268-0.654
				c1.644-0.688,3.78-2.053,5.862-3.742c1.985-1.611,3.711-3.354,4.737-4.782c0.161-0.225,0.474-0.276,0.698-0.115
				c0.225,0.161,0.276,0.473,0.115,0.698c-1.075,1.497-2.868,3.311-4.919,4.976c-2.152,1.747-4.378,3.165-6.105,3.888
				C18.562,30.398,18.497,30.41,18.432,30.41z"/>
			<path style="fill:#004E5F;" d="M16.61,39.91L16.61,39.91c-1.022,0-1.572-0.414-1.853-0.76L7.92,29.136
				c-2.213-2.722,4.359-9.292,8.6-12.733c4.892-3.971,9.729-6.537,12.326-6.537c1.005,0,1.578,0.376,1.892,0.724l9.261,8.07
				c2.264,2.79-5.064,9.974-9.752,13.78C24.656,36.977,19.303,39.91,16.61,39.91z M16.302,37.871
				c0.037,0.014,0.129,0.039,0.308,0.039c1.851,0,6.696-2.412,12.376-7.023c6.67-5.415,9.653-9.94,9.452-10.954l-9.187-8.005l0,0
				c-0.003,0-0.105-0.062-0.406-0.062c-1.771,0-6.141,2.092-11.065,6.089C11.7,22.891,9.14,27.147,9.529,27.95L16.302,37.871z"/>
		</g>
	</g>
</g>
</svg>
