<svg version="1.1" id="Layer_1" xmlns="http://www.w3.org/2000/svg" xmlns:xlink="http://www.w3.org/1999/xlink" xml:space="preserve">
<g id="big_icon">
	<g>
		<path style="fill:none;stroke:#004E5F;stroke-width:2;stroke-linecap:round;stroke-linejoin:round;stroke-miterlimit:10;" d="
			M14.482,24.778"/>
		<g>
			<path style="fill:#004E5F;" d="M5.177,35.365c-0.197,0-0.392-0.058-0.558-0.17l-4.415-2.964
				c-0.458-0.308-0.581-0.929-0.272-1.388l9.43-14.044c0.917-1.368,2.545-1.544,4.353-0.329c0.604,0.404,1.317,0.979,1.753,1.734
				c0.527,0.913,0.516,1.863-0.029,2.675L6.007,34.923c-0.147,0.22-0.377,0.373-0.637,0.425C5.306,35.359,5.242,35.365,5.177,35.365
				z M2.15,31.129l2.754,1.85l8.874-13.214c0.063-0.095,0.15-0.224-0.043-0.56c-0.188-0.325-0.571-0.697-1.053-1.02
				c0,0-0.084-0.054-0.084-0.055c-0.625-0.42-0.994-0.483-1.159-0.483c-0.121,0-0.252,0.021-0.417,0.267L2.15,31.129z"/>
			<path style="fill:#004E5F;" d="M14.642,18.883c-0.192,0-0.386-0.055-0.558-0.17c-0.029-0.02-0.058-0.041-0.084-0.063
				c-0.061-0.016-0.129-0.032-0.199-0.05c-0.4-0.103-0.813-0.208-1.119-0.415c-0.001,0-0.085-0.055-0.086-0.056
				c-0.363-0.246-0.589-0.634-0.755-0.925c-0.427-0.315-0.534-0.915-0.236-1.36c0,0,0.001-0.001,0.001-0.001l3.271-4.872
				c0.296-0.441,0.887-0.575,1.345-0.3l2.281,1.371c0.235,0.141,0.402,0.373,0.461,0.64c0.061,0.267,0.008,0.547-0.146,0.775
				l-3.346,4.984c0,0-0.001,0.001-0.001,0.002C15.278,18.729,14.963,18.883,14.642,18.883z M13.666,16.362
				c0.039,0.064,0.078,0.125,0.104,0.151c0.077,0.031,0.334,0.098,0.496,0.139l2.308-3.439l-0.565-0.339L13.666,16.362z"/>
			<path style="fill:#004E5F;" d="M21.621,18.033c-0.02,0-0.041,0-0.063-0.002c-0.354-0.022-0.67-0.231-0.83-0.549
				c0,0-0.29-0.576-0.746-1.505c-0.141-0.288-0.135-0.626,0.016-0.91c0.116-0.218,0.336-0.76-0.141-1.081
				c-0.292-0.195-0.727-0.215-1.01-0.047c-0.315,0.186-0.707,0.186-1.021-0.001l-4.913-2.923c-0.236-0.141-0.404-0.372-0.464-0.64
				c-0.061-0.268-0.008-0.549,0.146-0.777l0.997-1.482c0.087-0.271,0.499-2.114-3.276-4.648c-0.187-0.125-0.326-0.31-0.395-0.524
				c-0.097-0.301-0.37-1.341,0.174-2.086c0.495-0.678,1.378-0.828,2.539-0.31c0.077,0.035,0.149,0.079,0.215,0.131l9.242,7.326
				c0.235,0.183,0.376,0.461,0.386,0.759c0.014,0.472,0.271,0.644,0.355,0.7c0.299,0.202,0.629,0.159,0.959-0.083
				c0.137-0.1,0.296-0.164,0.463-0.186c1.018-0.132,1.992-0.188,2.033-0.19c0.387-0.016,0.737,0.175,0.925,0.503
				c0.188,0.33,0.173,0.738-0.039,1.053l-4.722,7.03C22.266,17.868,21.953,18.033,21.621,18.033z M19.303,11.821
				c0.599,0,1.176,0.174,1.668,0.504c0.748,0.503,1.154,1.283,1.176,2.132l2.041-3.039c-0.822,0.301-1.736,0.199-2.471-0.294
				c-0.633-0.424-1.043-1.052-1.186-1.8l-1.66-1.292l-4.456-3.549c1.973,2.573,0.997,4.48,0.94,4.585l-0.513,0.768l3.568,2.123
				C18.695,11.868,18.996,11.821,19.303,11.821z"/>
		</g>
	</g>
	<g>
		<g>
			<path style="fill:#004E5F;" d="M20.763,37.169c-0.392,0-0.743-0.104-1.042-0.309c-3.063-2.097,3.184-11.417,3.906-12.472
				c2.672-3.907,6.678-8.47,9.168-8.47c0.393,0,0.742,0.104,1.042,0.309c3.063,2.097-3.184,11.418-3.906,12.474
				C27.258,32.607,23.253,37.169,20.763,37.169z M32.677,17.933c-0.97,0.196-3.894,2.46-7.399,7.584
				c-3.383,4.944-4.59,8.678-4.396,9.639c0.956-0.188,3.886-2.449,7.399-7.584C31.66,22.632,32.869,18.896,32.677,17.933z"/>
			<path style="fill:#004E5F;" d="M27.418,38.18c-0.146,0-0.289-0.063-0.389-0.184c-0.174-0.215-0.143-0.529,0.071-0.704
				c1.737-1.421,3.825-3.829,5.727-6.608c1.813-2.65,3.27-5.37,3.996-7.463c0.09-0.261,0.374-0.399,0.636-0.308
				c0.262,0.09,0.399,0.375,0.309,0.636c-0.754,2.173-2.254,4.979-4.115,7.699c-1.953,2.854-4.11,5.34-5.919,6.818
				C27.641,38.143,27.529,38.18,27.418,38.18z"/>
			<path style="fill:#004E5F;" d="M27.727,50.251L27.727,50.251c-0.486,0-0.918-0.126-1.282-0.376l-11.763-9.57
				c-1.366-0.93-1.41-3.314-0.065-7.039c1.166-3.228,3.259-7.126,5.894-10.978c4.193-6.13,9.962-12.314,13.395-12.314
				c0.479,0,0.906,0.115,1.273,0.343l13.974,6.37c1.464,1.001,1.399,3.482-0.196,7.583c-1.371,3.521-3.736,7.814-6.66,12.088
				C37.563,43.273,31.224,50.251,27.727,50.251z M33.904,11.974c-1.883,0-6.908,4.375-11.744,11.443
				c-2.543,3.716-4.554,7.455-5.663,10.528c-1.225,3.393-0.849,4.603-0.62,4.76l11.755,9.563c-0.032-0.029,0.017-0.016,0.095-0.017
				c1.928,0.001,7.414-4.978,12.918-13.022c2.84-4.151,5.129-8.301,6.447-11.685c1.41-3.623,1.148-4.938,0.962-5.176l-13.921-6.346
				C34.074,11.982,33.976,11.974,33.904,11.974z"/>
		</g>
	</g>
</g>
</svg>
