<svg version="1.1" xmlns="http://www.w3.org/2000/svg" xmlns:xlink="http://www.w3.org/1999/xlink" xml:space="preserve">
<g id="big_icon">
	<path fill="#004E5F" d="M13.936,17.075c-0.04-0.025-0.082-0.048-0.125-0.067c-0.004-0.002-0.012-0.005-0.02-0.009
		c-0.252-0.151-0.742-0.554-0.405-2.14c0.152-0.984,0.2-1.988,0.145-2.965c0-0.039-0.003-0.078-0.007-0.116
		c-0.263-2.24-0.682-4.547-1.244-6.865c0.296-0.613,0.449-1.436,0.105-2.425c0.05-0.068,0.098-0.139,0.13-0.221
		c0.435-1.089,0.024-1.861-1.071-2.406C11.305-0.207,11.152,0,10.998,0H6.895C6.74,0,6.588-0.207,6.449-0.138
		C5.354,0.407,4.942,1.3,5.377,2.389c0.032,0.08,0.087,0.081,0.136,0.147C5.162,3.53,5.316,4.328,5.613,4.943
		C5.494,5.433,5.392,5.908,5.285,6.397C4.586,8.797,3.49,13.14,4.072,15.105c0.125,0.982-0.509,2.177-0.703,2.479L2.734,16.08
		c-0.215-0.509-0.801-0.748-1.311-0.533c-0.509,0.215-0.748,0.801-0.533,1.31l1.438,3.406c0.162,0.381,0.531,0.612,0.922,0.612
		c0.123,0,0.248-0.023,0.369-0.071l3.342-1.33c0.514-0.204,0.764-0.786,0.56-1.299c-0.204-0.514-0.787-0.764-1.299-0.56
		l-0.958,0.381c0.528-0.742,0.852-1.888,0.826-2.869l-0.088-0.564c-0.261-0.546,1.425-8.37,1.535-8.722
		c0.049-0.152,0.049-0.305,0.025-0.453C7.594,5.263,7.617,5.137,7.648,5.01c0.068-0.272,0.02-0.561-0.137-0.795
		c-0.204-0.309-0.357-0.48,0.055-1.21C7.809,2.578,7.687,2,7.32,2h3.251c-0.364,0-0.487,0.577-0.246,1.005
		c0.413,0.73,0.259,1.022,0.055,1.331c-0.155,0.234-0.206,0.462-0.138,0.735c0.592,2.365,1.027,4.69,1.289,6.951
		c0.051,0.855,0.009,1.702-0.111,2.491c-0.547,2.558,0.486,3.73,1.447,4.27c0.012,0.007,0.032,0.012,0.054,0.022
		c1.682,1.089,2.532,2.303,2.598,3.678c0.081,8.321,0.121,21.822-0.101,23.609C15.091,46.543,14.486,47,13.116,47H4.732
		c-0.922,0-1.592-0.188-2.053-0.662c-0.073-0.077-0.143-0.164-0.207-0.252C2.346,45.006,2.25,39.117,2.35,25.52
		c0.004-0.705,0.009-1.063,0.012-1.237c0.01-0.06,0.014-0.122,0.012-0.184C2.359,23.553,1.938,23.024,1.359,23
		c-0.692,0.007-0.904,0-0.973,1H0.375c0,0,0.002,0.128,0.004,0.153c-0.023,0.333-0.025,0.791-0.029,1.312
		C0.201,45.804,0.473,46.502,0.603,46.828c0.023,0.06,0.053,0.125,0.087,0.18c0.158,0.246,0.34,0.482,0.545,0.699
		c0.822,0.848,1.931,1.287,3.266,1.287C4.59,48.994,4.682,49,4.774,49h8.3c2.312,0,3.523-1.025,4.129-1.977
		c0.033-0.053,0.062-0.113,0.084-0.171c0.377-0.94,0.334-13.782,0.23-24.426C17.418,20.33,16.213,18.528,13.936,17.075z"/>
	<path fill="#004E5F" d="M30.279,22.424c-0.098-2.096-1.303-3.896-3.635-5.38c-0.021-0.012-0.051-0.026-0.082-0.04
		c-0.249-0.146-0.756-0.539-0.416-2.143c0.155-0.985,0.203-1.991,0.146-2.967c0-0.039-0.003-0.078-0.007-0.116
		c-0.261-2.233-0.68-4.54-1.244-6.864c0.297-0.612,0.451-1.436,0.105-2.425c0.051-0.068,0.098-0.139,0.131-0.221
		c0.436-1.089,0.024-1.861-1.072-2.406C24.067-0.207,23.915,0,23.761,0h-4.103c-0.154,0-0.307-0.207-0.444-0.139
		c-1.099,0.545-1.511,1.438-1.075,2.527c0.032,0.081,0.088,0.082,0.137,0.148c-0.352,0.994-0.197,1.792,0.1,2.406
		c-0.566,2.329-0.984,4.625-1.247,6.945c-0.06,0.996-0.013,1.993,0.151,3.034c0.199,0.933,0.125,1.577-0.219,1.922
		c-0.39,0.391-0.389,1.022,0.002,1.412c0.195,0.195,0.45,0.292,0.706,0.292c0.257,0,0.513-0.098,0.708-0.294
		c0.853-0.854,1.045-2.118,0.707-3.702C19.051,13.707,19,12.846,19,11.994c0-0.008,0-0.022,0-0.037c0-2.251,0.76-4.588,1.35-6.946
		c0.068-0.273,0.049-0.562-0.106-0.796c-0.204-0.308-0.342-0.478,0.07-1.21C20.555,2.576,20.447,2,20.082,2h3.252
		c-0.365,0-0.487,0.577-0.246,1.005c0.413,0.731,0.26,1.022,0.055,1.329c-0.156,0.234-0.207,0.463-0.139,0.737
		c0.594,2.373,1.029,4.697,1.29,6.953c0.052,0.854,0.01,1.699-0.112,2.489c-0.545,2.559,0.487,3.731,1.449,4.27
		c0.018,0.01,0.037,0.016,0.058,0.025c1.679,1.088,2.527,2.301,2.592,3.674c0.081,8.427,0.122,22.164-0.079,23.581
		C27.879,46.521,27.273,47,25.878,47h-6.687c-0.553,0-1,0.447-1,1s0.447,1,1,1h6.645c0.095,0,0.187-0.004,0.277-0.004
		c2.135,0,3.271-1.065,3.852-1.978c0.034-0.053,0.062-0.11,0.086-0.169C30.426,45.91,30.383,33.066,30.279,22.424z"/>
</g>

</svg>
