<svg version="1.1" xmlns="http://www.w3.org/2000/svg" xmlns:xlink="http://www.w3.org/1999/xlink" x="0px" y="0px" width="200px"
	 height="150px" xml:space="preserve">
<g id="small_icon">
	<g>
		<path fill="#004E5F" d="M14.435,12.086c-0.009,0.002-0.017,0.005-0.026,0.008c-0.013,0.004-0.027,0.003-0.041,0.007
			 M11.049,20.309l0.104,0.487c0.05,0.192,0.167,0.355,0.341,0.451c0.107,0.06,0.223,0.091,0.344,0.091
			c0.073,0,0.2-0.012,0.272-0.035L14,20.719v10.349C14,31.467,14.211,32,14.611,32h14.443C29.453,32,30,31.467,30,31.067V20.72
			l1.712,0.583c0.072,0.023,0.091,0.035,0.165,0.035c0.117,0,0.207-0.029,0.312-0.086c0.173-0.093,0.286-0.25,0.34-0.439
			l1.681-5.917c0.101-0.348-0.08-0.718-0.413-0.861l-4.455-1.917c-0.01-0.004-0.021-0.005-0.033-0.008
			c-0.008-0.004-0.014-0.01-0.021-0.012l-3.577-1.135C25.635,10.935,25.557,11,25.478,11h-3.716l-1.35,1h4.946L29,13.297v6.433V30
			H15V19.645l-0.668-0.441l-1.77,0.492l-0.15-0.764L11.049,20.309z M31.442,19.699L30,19.203v-5.326l2.807,1.232L31.442,19.699z"/>
		<path fill="#004E5F" d="M17.867,15.039c0.229,1.876,2.156,3.207,4.055,3.207c2.025,0,4.078-1.701,4.078-3.76v-0.752
			c0-0.398-0.601-0.722-1-0.722s-1,0.324-1,0.722v0.752c0,1.25-0.785,2.228-2,2.228s-2-0.979-2-2.228V14"/>
		<path fill="#004E5F" d="M26.889,28H16.777c-0.2,0-0.361,0.301-0.361,0.5s0.161,0.5,0.361,0.5h10.111c0.199,0,0.36-0.301,0.36-0.5
			S27.088,28,26.889,28z"/>
	</g>
	<g>
		<g>
			<path fill="none" stroke="#004E5F" stroke-linecap="round" stroke-linejoin="round" stroke-miterlimit="10" d="M12.037,19.997"/>
			<g>
				<path fill="#004E5F" d="M4.227,28.545c-0.099,0-0.196-0.029-0.279-0.085l-3.706-2.488c-0.229-0.153-0.29-0.464-0.136-0.694
					l7.915-11.789c0.667-0.995,1.835-1.09,3.184-0.184c0.478,0.319,1.033,0.767,1.366,1.345c0.374,0.648,0.369,1.318-0.012,1.886
					L4.642,28.324c-0.074,0.109-0.188,0.186-0.318,0.211C4.291,28.542,4.259,28.545,4.227,28.545z M1.214,25.42l2.875,1.932
					l7.639-11.374c0.113-0.169,0.213-0.417-0.024-0.829c-0.185-0.321-0.536-0.665-0.988-0.968c-0.966-0.647-1.489-0.697-1.864-0.135
					L1.214,25.42z"/>
				<path fill="#004E5F" d="M12.379,14.709c-0.097,0-0.297-0.028-0.383-0.085c-0.033-0.022-0.115-0.048-0.141-0.077
					c-0.071-0.021-0.187-0.042-0.281-0.066c-0.307-0.079-0.638-0.161-0.846-0.3c-0.318-0.213-0.486-0.499-0.617-0.728
					c-0.011-0.018-0.023-0.036-0.033-0.053c-0.012-0.006-0.024-0.014-0.035-0.021c-0.229-0.154-0.291-0.464-0.138-0.693v0
					l2.746-4.089c0.148-0.22,0.444-0.286,0.673-0.15l1.914,1.151c0.117,0.071,0.201,0.187,0.23,0.32
					c0.029,0.134,0.21,0.274,0.134,0.388L13,14.488c0,0,0,0.001,0,0.001C12,14.632,12.539,14.709,12.379,14.709z M10.951,12.92
					c0.008,0.013,0.016,0.025,0.022,0.038c0.056,0.098,0.171,0.301,0.233,0.349c0.143,0.091,0.434,0.166,0.59,0.206
					c0.072,0.019,0.141,0.036,0.205,0.053l2.271-3.382l-1.057-0.635L10.951,12.92z"/>
				<path fill="#004E5F" d="M18.029,14c-0.01,0-0.021,0-0.031,0c-0.178,0-0.336-0.118-0.415-0.277c0,0-0.243-0.484-0.624-1.262
					c-0.07-0.145-0.067-0.314,0.008-0.456c0.227-0.425,0.285-1.002-0.229-1.349c-0.354-0.236-0.858-0.257-1.21-0.05
					c-0.157,0.093-0.353,0.093-0.511,0l-4.124-2.454c-0.118-0.07-0.202-0.186-0.231-0.32c-0.031-0.134-0.004-0.275,0.072-0.389
					l0.881-1.311v0c-0.006,0,0.793-1.835-2.887-4.306C8.636,1.765,8.566,1.672,8.531,1.565C8.482,1.413,8.258,0.626,8.629,0.117
					c0.318-0.438,0.906-0.512,1.719-0.15c0.037,0.017,0.074,0.039,0.107,0.065l7.76,6.152c0.118,0.091,0.188,0.23,0.193,0.379
					c0.008,0.26,0.092,0.62,0.449,0.859c0.365,0.247,0.805,0.209,1.195-0.078c0.067-0.05,0.146-0.082,0.23-0.092
					c0.853-0.111,1.682-0.158,1.682-0.158c0.193-0.008,0.369,0.087,0.463,0.251c0.094,0.165,0.086,0.369-0.02,0.526l-3.963,5.904
					C18.352,13.916,18.195,14,18.029,14z M17.963,12.235c0.047,0.095,0.09,0.184,0.132,0.268L21,8.177
					c-0.15,0.015-0.309,0.033-0.468,0.052c-0.704,0.459-1.564,0.474-2.231,0.025c-0.488-0.327-0.793-0.823-0.872-1.415L15.93,5.672
					L9.883,0.856C9.633,0.75,9.496,0.733,9.436,0.733c-0.029,0.035-0.023,0.203,0.01,0.372c4.334,2.988,3.082,5.439,3.025,5.543
					l-0.612,0.914l3.439,2.046c0.636-0.253,1.415-0.173,1.997,0.217C18.092,10.362,18.344,11.307,17.963,12.235z"/>
			</g>
		</g>
	</g>
</g>
</svg>
