<svg version="1.1" xmlns="http://www.w3.org/2000/svg" xmlns:xlink="http://www.w3.org/1999/xlink" xml:space="preserve">
<g id="small_icon">
	<path fill="#004E5F" d="M19,32H0v-8.24L5.113,21h9.732L19,23.76V32z M2,30h15v-5.047L14.339,23H5.618L2,24.953V30z"/>
	<path fill="#004E5F" d="M17.379,18.871l-0.742-0.109l0.29-1.979l0.742,0.108c1.773,0.26,3.427-0.971,3.687-2.744l0.217-1.484
		c0.26-1.772-0.971-3.426-2.744-3.687l-0.742-0.108l0.29-1.979l0.742,0.109c2.864,0.42,4.853,3.091,4.433,5.956l-0.218,1.484
		C22.915,17.301,20.244,19.291,17.379,18.871z"/>
	<rect x="10" y="10" fill="#004E5F" width="1" height="7"/>
	<rect x="9" y="11" fill="#004E5F" width="4" height="1"/>
	<rect x="9" y="14" fill="#004E5F" width="4" height="1"/>
	<path fill="#004E5F" d="M4.976,34h-1c-0.827,0-1.5-0.672-1.5-1.5c0-0.826,0.673-1.5,1.5-1.5h1c0.827,0,1.5,0.674,1.5,1.5
		C6.476,33.328,5.803,34,4.976,34z M3.976,32.26c-0.276,0-0.5,0.225-0.5,0.5s0.224,0.5,0.5,0.5h1c0.276,0,0.5-0.225,0.5-0.5
		s-0.224-0.5-0.5-0.5H3.976z"/>
	<path fill="#004E5F" d="M15.976,34h-1c-0.827,0-1.5-0.672-1.5-1.5c0-0.826,0.673-1.5,1.5-1.5h1c0.827,0,1.5,0.674,1.5,1.5
		C17.476,33.328,16.803,34,15.976,34z M14.976,32.26c-0.276,0-0.5,0.225-0.5,0.5s0.224,0.5,0.5,0.5h1c0.276,0,0.5-0.225,0.5-0.5
		s-0.224-0.5-0.5-0.5H14.976z"/>
	<path fill="#004E5F" d="M13.976,28h-8c-0.827,0-1.5-0.672-1.5-1.5c0-0.826,0.673-1.5,1.5-1.5h8c0.827,0,1.5,0.674,1.5,1.5
		C15.476,27.328,14.803,28,13.976,28z M5.976,26c-0.276,0-0.5,0.225-0.5,0.5S5.7,27,5.976,27h8c0.276,0,0.5-0.225,0.5-0.5
		s-0.224-0.5-0.5-0.5H5.976z"/>
	<rect x="7.038" y="25.76" fill="#004E5F" width="1.75" height="2"/>
	<polygon fill="none" stroke="#004E5F" stroke-width="2" stroke-miterlimit="10" points="16.319,19 4.444,19 2.96,4 17.803,4 	"/>
	<path fill="#004E5F" d="M1.476,1.726L1.476,1.726C1.476,0.906,2.14,0,2.96,0h14.843c0.82,0,1.484,0.786,1.484,1.605l0,0"/>
</g>
</svg>
