<svg version="1.1" xmlns="http://www.w3.org/2000/svg" xmlns:xlink="http://www.w3.org/1999/xlink" xml:space="preserve">
<g id="big_icon">
	<path fill="#004E5F" d="M12.516,21h1.969C15.322,21,16,20.426,16,19.718v-0.436C16,18.574,15.322,18,14.484,18h-1.969
		C11.678,18,11,18.574,11,19.282v0.436C11,20.426,11.678,21,12.516,21z"/>
	<path fill="#004E5F" d="M17,24c0,1-0.688,1.011-1.5,1.011S14,24.529,14,23.979V23h-1v0.979c0,0.554-0.688,1.037-1.5,1.037
		S10,25,10,24H9c0,1,1.121,2.016,2.5,2.016c0.817,0,1.537-0.328,1.994-0.825c0.451,0.497,1.172,0.82,2.006,0.82
		C16.879,26.011,18,25,18,24H17z"/>
	<circle fill="#004E5F" cx="7.727" cy="13.384" r="1.255"/>
	<circle fill="#004E5F" cx="19.727" cy="13.384" r="1.255"/>
	<path fill="#004E5F" d="M31.5,38.011c-0.812,0-1.5-0.481-1.5-1.032V36h-1v0.979c0,0.554-0.688,1.037-1.5,1.037S26,38,26,37h-1
		c0,1,1.121,2.016,2.5,2.016c0.817,0,1.537-0.328,1.994-0.825c0.451,0.497,1.172,0.82,2.006,0.82C32.879,39.011,34,38,34,37h-1
		C33,38,32.312,38.011,31.5,38.011z"/>
	<circle fill="#004E5F" cx="25.727" cy="29.384" r="1.255"/>
	<circle fill="#004E5F" cx="33.727" cy="29.384" r="1.255"/>
	<path fill="#004E5F" d="M39.581,24.551l0.18-0.684c0.428-1.626,0.333-3.577-0.261-5.351c-0.29-0.867-1.131-2.927-2.666-3.331
		c-1.107-0.292-2.31,0.247-3.381,1.519c-0.699,0.831-1.297,1.926-1.736,3.151c-0.683-0.114-1.379-0.188-2.092-0.188
		c-0.82,0-1.622,0.096-2.41,0.248c-0.355-0.691-0.768-1.344-1.215-1.927V12.19c0-2.4-1.188-4.524-3-5.831V5.844
		c0-3.474-1.977-6.242-4.407-6.242c-2.217,0-4.038,2.011-4.345,5.397h-2.68c-0.294-3.386-2.047-5.397-4.254-5.397
		C4.895-0.397,3,2.312,3,5.844v0.515C1.188,7.666,0,9.79,0,12.19v6.619c0,3.544,2.535,6.529,6.029,7.097l0.027-0.17
		C6.332,27.578,7.91,29,9.828,29h7.344c0.092,0,0.178-0.021,0.268-0.027c-0.295,1.08-0.449,2.195-0.449,3.33
		c0,6.967,5.668,12.635,12.635,12.635S42.26,39.27,42.26,32.303C42.26,29.38,41.253,26.693,39.581,24.551z M34.983,17.992
		c0.581-0.689,1.107-0.937,1.341-0.873c0.229,0.06,0.84,0.717,1.279,2.031c0.406,1.214,0.504,2.506,0.32,3.648
		c-1.232-1.077-2.672-1.918-4.254-2.455C34.021,19.422,34.477,18.595,34.983,17.992z M18.593,1.603c1.054,0,2.212,1.542,2.374,3.729
		C20.285,5.117,19.561,5,18.81,5H16.24C16.488,2.69,17.592,1.603,18.593,1.603z M7.314,1.603C8.279,1.603,9.338,2.69,9.577,5H7.19
		C6.438,5,5.713,5.117,5.031,5.333C5.184,3.089,6.297,1.603,7.314,1.603z M2,18.81V12.19C2,9.329,4.328,7,7.19,7H18.81
		C21.672,7,24,9.329,24,12.19v6.403l-0.053,0.048c0.018,0.02,0.035,0.042,0.053,0.062v0.106c0,2.033-1.2,3.864-3,4.704v-3.717
		c0-2.643-2.124-3.668-4-3.763v-4.803C17,9.45,15.551,8,13.768,8h-0.535C11.449,8,10,9.45,10,11.231v4.801
		c-1.984,0.088-4,1.119-4,3.795v4.015C3.666,23.296,2,21.245,2,18.81z M17.172,28H9.828C8.269,28,7,26.731,7,25.172v-5.344
		c0-2.528,2.295-2.801,3.281-2.801c0.094,0,0.156,0.003,0.17,0.004c0.141,0.014,0.281-0.033,0.385-0.127
		C10.94,16.809,11,16.674,11,16.533v-5.302C11,10.001,12.002,9,13.232,9h0.535C14.998,9,16,10.001,16,11.231v5.302
		c0,0.14,0.061,0.272,0.164,0.367c0.102,0.094,0.24,0.141,0.381,0.131c0.018-0.001,0.076-0.004,0.164-0.004
		c0.936,0,3.131,0.276,3.291,2.801v5.344c0,1.225-0.787,2.26-1.879,2.652c0,0-0.318,0.037-0.345,0.107
		C17.581,27.975,17.38,28,17.172,28z M29.625,42.938c-5.864,0-10.635-4.771-10.635-10.635c0-1.33,0.242-2.629,0.722-3.859
		c0,0,1.097-1.69,1.238-2.781c1.628-0.51,2.972-1.576,3.865-2.95l0.041,0.082c1.486-0.747,3.091-1.126,4.769-1.126
		c5.864,0,10.635,4.771,10.635,10.635S35.489,42.938,29.625,42.938z"/>
	<path fill="#004E5F" d="M28.053,34l0.416,0.896l1.031,0.614l1.016-0.554L30.947,34h-0.004C30.977,34,31,33.717,31,33.615
		C31,33.339,30.859,33,30.688,33h-2.375C28.141,33,28,33.339,28,33.615C28,33.717,28.023,34,28.057,34H28.053z"/>
	<path fill="#004E5F" d="M26.051,34.334c0.166,0,0.316-0.109,0.362-0.276c0.055-0.2-0.063-0.406-0.263-0.461L21.01,32.19
		c-0.201-0.052-0.406,0.063-0.461,0.263s0.062,0.406,0.262,0.461l5.142,1.406C25.985,34.329,26.019,34.334,26.051,34.334z"/>
	<path fill="#004E5F" d="M26.097,35.877c-0.034-0.205-0.229-0.342-0.431-0.31l-3.787,0.625c-0.205,0.034-0.344,0.228-0.31,0.431
		c0.03,0.184,0.189,0.314,0.37,0.314c0.02,0,0.041-0.002,0.061-0.005l3.787-0.625C25.992,36.273,26.131,36.08,26.097,35.877z"/>
	<path fill="#004E5F" d="M39.412,32.453c-0.055-0.199-0.26-0.314-0.461-0.263l-5.141,1.406c-0.199,0.055-0.317,0.261-0.263,0.461
		c0.046,0.167,0.196,0.276,0.362,0.276c0.032,0,0.065-0.005,0.099-0.014l5.142-1.406C39.35,32.859,39.467,32.652,39.412,32.453z"/>
	<path fill="#004E5F" d="M38.082,36.192l-3.787-0.625c-0.199-0.033-0.396,0.104-0.431,0.31c-0.034,0.203,0.104,0.396,0.31,0.431
		l3.787,0.625c0.02,0.003,0.041,0.005,0.061,0.005c0.181,0,0.34-0.131,0.37-0.314C38.426,36.42,38.287,36.227,38.082,36.192z"/>
</g>
</svg>
