<svg version="1.1" id="Layer_1" xmlns="http://www.w3.org/2000/svg" xmlns:xlink="http://www.w3.org/1999/xlink" xml:space="preserve">
<g id="small_icon">
	<g>
		<path style="fill:none;stroke:#004E5F;stroke-width:2;stroke-linecap:round;stroke-linejoin:round;stroke-miterlimit:10;" d="
			M10.712,18.301"/>
		<g>
			<path style="fill:#004E5F;" d="M3.116,25.376c-0.114,0-0.225-0.038-0.314-0.11l-3.114-2.51c-0.215-0.174-0.249-0.488-0.076-0.703
				l7.981-9.906c0.688-0.857,1.772-0.857,2.928,0.075c0.406,0.326,0.874,0.774,1.13,1.325c0.292,0.626,0.233,1.243-0.165,1.737
				l-7.982,9.905c-0.083,0.104-0.204,0.17-0.336,0.184C3.151,25.375,3.133,25.376,3.116,25.376z M0.705,22.291l2.335,1.882
				l7.669-9.517c0.105-0.13,0.205-0.327,0.037-0.687c-0.137-0.293-0.418-0.621-0.793-0.922c-0.46-0.371-0.817-0.542-1.092-0.542
				c-0.117,0-0.295,0.028-0.488,0.269L0.705,22.291z"/>
			<path style="fill:#004E5F;" d="M11.447,13.645c-0.11,0-0.303-0.036-0.396-0.111c-0.027-0.022-0.092-0.046-0.113-0.072
				c-0.059-0.022-0.151-0.046-0.227-0.073c-0.273-0.096-0.566-0.195-0.749-0.342c-0.276-0.223-0.406-0.497-0.508-0.716
				c-0.006-0.013-0.014-0.026-0.02-0.038c-0.006-0.004-0.014-0.009-0.02-0.015c-0.214-0.173-0.249-0.487-0.075-0.702l2.768-3.436
				c0.167-0.208,0.465-0.248,0.683-0.091l1.62,1.176c0.111,0.081,0.184,0.203,0.202,0.339s0.143,0.273,0.057,0.38L12,13.458v0.001
				C12,13.582,11.593,13.645,11.447,13.645z M10.355,11.908c0.001,0.002,0.002,0.004,0.003,0.006
				c0.04,0.086,0.122,0.267,0.169,0.314c0.115,0.085,0.361,0.171,0.494,0.218c0.049,0.018,0.097,0.034,0.143,0.051l2.232-2.771
				l-0.81-0.588L10.355,11.908z"/>
			<path style="fill:#004E5F;" d="M16.567,13.464c-0.024,0-0.049-0.002-0.074-0.005c-0.176-0.026-0.324-0.144-0.39-0.309
				c0,0-0.179-0.45-0.46-1.173c-0.058-0.15-0.041-0.318,0.047-0.453c0.223-0.343,0.317-0.827-0.088-1.154
				c-0.281-0.227-0.71-0.281-1.021-0.132c-0.166,0.08-0.36,0.063-0.508-0.045l-3.49-2.51c-0.111-0.08-0.185-0.203-0.204-0.339
				c-0.018-0.136,0.02-0.274,0.106-0.381l0.889-1.102c0,0,0,0,0,0c-0.007,0,0.809-1.542-2.234-3.995
				c-0.087-0.07-0.148-0.168-0.173-0.278C8.936,1.45,8.796,0.735,9.152,0.289c0.326-0.411,0.896-0.452,1.636-0.041
				c0.037,0.021,0.071,0.045,0.101,0.074l6.447,6.093c0.109,0.101,0.167,0.246,0.159,0.394c-0.018,0.321,0.088,0.577,0.315,0.76
				c0.289,0.231,0.663,0.232,1.012,0.019c0.073-0.044,0.155-0.069,0.24-0.073c0.772-0.031,1.516-0.009,1.515-0.01
				c0.19,0.006,0.36,0.119,0.439,0.291s0.054,0.375-0.065,0.522l-3.995,4.958C16.861,13.396,16.717,13.464,16.567,13.464z
				 M16.662,11.837c0.02,0.049,0.038,0.098,0.056,0.144l2.802-3.479c-0.097,0.002-0.196,0.004-0.297,0.008
				c-0.68,0.36-1.467,0.3-2.041-0.162C16.767,8.013,16.528,7.541,16.497,7l-1.232-1.145l-5.016-4.762
				c-0.246-0.13-0.359-0.137-0.38-0.137C9.894,0.966,9.901,1.083,9.917,1.21c3.652,3.027,2.325,5.149,2.266,5.239l-0.587,0.729
				l2.846,2.046c0.605-0.171,1.296-0.03,1.789,0.366C16.913,10.144,17.072,11.021,16.662,11.837z"/>
		</g>
	</g>
	<g>
		<g>
			<path style="fill:#004E5F;" d="M22.153,27.584c-0.253,0-0.502-0.098-0.69-0.277l-5.508-5.258c-0.26-0.248-0.367-0.617-0.28-0.966
				l1.863-7.465c0.085-0.342,0.345-0.615,0.684-0.716l7.371-2.207c0.344-0.104,0.717-0.014,0.977,0.235l5.508,5.258
				c0.26,0.248,0.367,0.617,0.279,0.965l-1.863,7.466c-0.085,0.342-0.345,0.614-0.683,0.715l-7.371,2.207
				C22.346,27.57,22.249,27.584,22.153,27.584z M17.756,21.004l4.667,4.455l6.269-1.877l1.585-6.349l-4.667-4.456l-6.269,1.877
				L17.756,21.004z"/>
			<path style="fill:#004E5F;" d="M23.957,22.51c-0.86,0-1.676-0.328-2.298-0.922c-0.644-0.613-1.009-1.441-1.03-2.33
				c-0.021-0.89,0.307-1.733,0.921-2.375c1.227-1.286,3.419-1.338,4.706-0.11c1.328,1.268,1.376,3.38,0.109,4.706
				C25.73,22.143,24.875,22.51,23.957,22.51z M23.958,16.852c-0.643,0-1.241,0.256-1.685,0.721c-0.43,0.45-0.658,1.04-0.644,1.662
				c0.014,0.621,0.27,1.201,0.72,1.63c0.9,0.86,2.434,0.824,3.292-0.075c0.887-0.93,0.853-2.406-0.076-3.293
				C25.13,17.08,24.559,16.852,23.958,16.852z"/>
		</g>
		<g>
			<path style="fill:#004E5F;" d="M11.121,36.426c-0.249,0-0.493-0.094-0.681-0.268l-3.864-3.592
				c-0.263-0.245-0.375-0.612-0.292-0.963l1.197-5.082c0.082-0.351,0.346-0.629,0.691-0.73l5.062-1.49
				c0.338-0.1,0.705-0.014,0.963,0.227l3.865,3.593c0.263,0.245,0.375,0.612,0.292,0.962l-1.197,5.082
				c-0.082,0.35-0.346,0.629-0.691,0.73l-5.063,1.49C11.311,36.412,11.215,36.426,11.121,36.426z M8.363,31.497l3.021,2.808
				l3.958-1.164l0.931-3.951l-3.022-2.81l-3.958,1.165L8.363,31.497z"/>
			<path style="fill:#004E5F;" d="M12.265,32.769c-0.188,0-0.377-0.022-0.563-0.065c-0.633-0.148-1.171-0.535-1.515-1.088
				c-0.344-0.555-0.451-1.211-0.301-1.846c0.304-1.291,1.64-2.119,2.935-1.815c0.634,0.149,1.172,0.536,1.515,1.091
				c0.343,0.555,0.449,1.209,0.3,1.844C14.375,31.996,13.4,32.769,12.265,32.769z M12.259,28.889c-0.67,0-1.246,0.457-1.399,1.11
				c-0.088,0.375-0.025,0.762,0.178,1.089c0.202,0.326,0.52,0.555,0.894,0.642c0.783,0.187,1.552-0.309,1.731-1.071
				c0.088-0.373,0.026-0.76-0.177-1.087s-0.52-0.556-0.894-0.644C12.482,28.902,12.371,28.889,12.259,28.889z"/>
		</g>
	</g>
</g>
</svg>
