<svg version="1.1" id="Layer_1" xmlns="http://www.w3.org/2000/svg" xmlns:xlink="http://www.w3.org/1999/xlink" xml:space="preserve">
<g id="big_icon">
	<g>
		<path style="fill:none;stroke:#004E5F;stroke-width:2;stroke-linecap:round;stroke-linejoin:round;stroke-miterlimit:10;" d="
			M14.482,24.778"/>
		<g>
			<path style="fill:#004E5F;" d="M5.177,35.365c-0.197,0-0.392-0.058-0.558-0.17l-4.415-2.964
				c-0.458-0.308-0.581-0.929-0.272-1.388l9.43-14.044c0.917-1.369,2.545-1.545,4.353-0.329c0.604,0.404,1.317,0.979,1.753,1.734
				c0.527,0.913,0.516,1.863-0.029,2.675L6.007,34.923c-0.147,0.22-0.377,0.373-0.637,0.425C5.306,35.359,5.242,35.365,5.177,35.365
				z M2.15,31.129l2.754,1.85l8.874-13.214c0.063-0.095,0.15-0.224-0.043-0.56c-0.188-0.325-0.571-0.697-1.053-1.02
				c0,0-0.084-0.054-0.084-0.055c-0.625-0.42-0.994-0.483-1.159-0.483c-0.121,0-0.252,0.021-0.417,0.267L2.15,31.129z"/>
			<path style="fill:#004E5F;" d="M14.642,18.883c-0.192,0-0.386-0.055-0.558-0.17c-0.029-0.02-0.058-0.041-0.084-0.063
				c-0.061-0.016-0.129-0.032-0.199-0.05c-0.4-0.103-0.813-0.208-1.119-0.415c-0.001,0-0.085-0.055-0.086-0.056
				c-0.363-0.246-0.589-0.634-0.755-0.925c-0.427-0.315-0.534-0.915-0.236-1.36c0,0,0.001-0.001,0.001-0.001l3.271-4.872
				c0.296-0.441,0.887-0.575,1.345-0.3l2.281,1.371c0.235,0.141,0.402,0.373,0.461,0.64c0.061,0.267,0.008,0.547-0.146,0.775
				l-3.346,4.984c0,0-0.001,0.001-0.001,0.002C15.278,18.729,14.963,18.883,14.642,18.883z M13.666,16.362
				c0.039,0.064,0.078,0.125,0.104,0.151c0.077,0.031,0.334,0.098,0.496,0.139l2.308-3.439l-0.564-0.339L13.666,16.362z"/>
			<path style="fill:#004E5F;" d="M21.621,18.033c-0.02,0-0.041,0-0.063-0.002c-0.354-0.022-0.67-0.231-0.83-0.549
				c0,0-0.29-0.576-0.746-1.505c-0.141-0.288-0.135-0.626,0.016-0.91c0.116-0.218,0.336-0.76-0.141-1.081
				c-0.292-0.194-0.727-0.215-1.01-0.047c-0.315,0.186-0.707,0.186-1.021-0.001l-4.913-2.923c-0.236-0.141-0.404-0.372-0.464-0.64
				c-0.061-0.268-0.008-0.549,0.146-0.777l0.997-1.482c0.087-0.271,0.499-2.114-3.276-4.648c-0.187-0.125-0.326-0.31-0.395-0.524
				c-0.097-0.301-0.37-1.341,0.174-2.086c0.495-0.679,1.378-0.828,2.539-0.31c0.077,0.035,0.149,0.079,0.215,0.131l9.242,7.326
				c0.235,0.183,0.376,0.461,0.386,0.759c0.014,0.472,0.271,0.644,0.355,0.7c0.299,0.203,0.629,0.159,0.959-0.083
				c0.137-0.1,0.296-0.164,0.463-0.186c1.018-0.132,1.992-0.188,2.033-0.19c0.387-0.019,0.737,0.174,0.925,0.503
				c0.188,0.33,0.173,0.738-0.039,1.053l-4.722,7.03C22.266,17.868,21.953,18.033,21.621,18.033z M19.303,11.821
				c0.599,0,1.176,0.174,1.668,0.504c0.748,0.503,1.154,1.283,1.176,2.132l2.041-3.039c-0.822,0.301-1.736,0.199-2.471-0.294
				c-0.633-0.424-1.043-1.052-1.186-1.8l-1.66-1.292l-4.456-3.549c1.973,2.573,0.997,4.48,0.94,4.585l-0.513,0.768l3.568,2.123
				C18.695,11.868,18.996,11.821,19.303,11.821z"/>
		</g>
	</g>
	<g>
		<path style="fill:#004E5F;" d="M49,33H11c-0.552,0-1-0.447-1-1v-3c0-0.553,0.448-1,1-1h38c0.553,0,1,0.447,1,1v3
			C50,32.553,49.553,33,49,33z M12,31h36v-1H12V31z"/>
		<path style="fill:#004E5F;" d="M16.191,40c-0.492,0-1.085-0.001-1.596-0.084C13.155,39.68,13,38.797,13,38.428V32
			c0-0.553,0.448-1,1-1s1,0.447,1,1v5.955C15.363,38,15.965,37.995,16.195,38h0.482c0.107-0.004,0.218,0,0.322-0.002V32
			c0-0.553,0.447-1,1-1s1,0.447,1,1v6.428c0,0.71-0.365,1.238-1.002,1.449C17.629,40,17.221,39.961,16.689,40h-0.482
			C16.202,40,16.197,40,16.191,40z"/>
		<path style="fill:#004E5F;" d="M44.018,40c-0.006,0-0.011,0-0.016,0H43.52c-0.512-0.021-0.973,0-1.365-0.105
			C41.432,39.698,41,39.15,41,38.428V32c0-0.553,0.447-1,1-1s1,0.447,1,1v5.994C43.16,38,43.359,38.003,43.508,38h0.482
			c0.271-0.001,0.709,0,1.01-0.031V32c0-0.553,0.447-1,1-1s1,0.447,1,1v6.428c0,0.284-0.106,1.23-1.477,1.484
			C45.051,39.999,44.503,40,44.018,40z"/>
		<path style="fill:#004E5F;" d="M46.229,30H13.771C11.656,30,10,28.668,10,26.969v-0.938C10,24.332,11.656,23,13.771,23h32.459
			C48.344,23,50,24.332,50,26.031v0.938C50,28.668,48.344,30,46.229,30z M13.771,25C12.757,25,12,25.545,12,26.031v0.938
			C12,27.455,12.757,28,13.771,28h32.459C47.242,28,48,27.455,48,26.969v-0.938C48,25.545,47.242,25,46.229,25H13.771z"/>
		<path style="fill:#004E5F;" d="M44.992,25H15c-0.552,0-1-0.447-1-1s0.448-1,1-1h29.992C46.1,23,47,22.099,47,20.991v-5.982
			C47,13.901,46.1,13,44.992,13H28c-0.553,0-1-0.448-1-1s0.447-1,1-1h16.992C47.201,11,49,12.798,49,15.009v5.982
			C49,23.201,47.201,25,44.992,25z"/>
		<circle style="fill:#004E5F;" cx="19.215" cy="17.137" r="0.692"/>
		<circle style="fill:#004E5F;" cx="28.715" cy="17.137" r="0.692"/>
		<circle style="fill:#004E5F;" cx="38.215" cy="17.137" r="0.692"/>
	</g>
</g>
</svg>
