<svg version="1.1" xmlns="http://www.w3.org/2000/svg" xmlns:xlink="http://www.w3.org/1999/xlink" x="0px" y="0px" width="200px"
	 height="150px" xml:space="preserve">
<g id="big_icon">
	<g>
		<path fill="#004E5F" d="M21.142,17.799c-0.014,0.003-0.024,0.008-0.038,0.012c-0.02,0.006-0.042,0.004-0.062,0.011 M16.123,29.984
			l0.156,0.723c0.074,0.285,0.246,0.527,0.504,0.669c0.16,0.089,0.33,0.134,0.51,0.134c0.109,0,0.549-0.017,0.655-0.051L21,30.594
			V45.93c0,0.592-0.189,1.07,0.402,1.07h21.406C43.4,47,44,46.521,44,45.93V30.594l2.643,0.865c0.107,0.034,0.187,0.051,0.296,0.051
			c0.175,0,0.333-0.043,0.49-0.127c0.256-0.137,0.437-0.371,0.516-0.65l2.498-8.77c0.147-0.516-0.115-1.064-0.61-1.276l-6.6-2.842
			c-0.016-0.006-0.031-0.007-0.048-0.012c-0.011-0.006-0.021-0.015-0.032-0.019l-5.301-1.776C37.74,15.999,37.624,16,37.507,16H32
			l-2,2h7.33L42,19.595v9.534V45H22V29l-1-0.652l-2.628,0.729l-0.225-1.132L16.123,29.984z M46.242,29.083L44,28.348v-7.895
			l4.213,1.827L46.242,29.083z"/>
		<path fill="#004E5F" d="M26.035,21.857c0.339,2.779,3.15,4.911,5.965,4.911c3,0,6-2.36,6-5.413v-1.114
			c0-0.591-0.908-1.07-1.5-1.07s-1.5,0.479-1.5,1.07v1.114c0,1.852-1.199,3.303-3,3.303s-3-1.451-3-3.303V20"/>
		<path fill="#004E5F" d="M39.598,41H24.613c-0.297,0-0.535,0.704-0.535,1s0.238,1,0.535,1h14.984c0.296,0,0.535-0.704,0.535-1
			S39.894,41,39.598,41z"/>
	</g>
	<g>
		<g>
			<path fill="none" stroke="#004E5F" stroke-width="2" stroke-linecap="round" stroke-linejoin="round" stroke-miterlimit="10" d="
				M17.588,29.523"/>
			<g>
				<path fill="#004E5F" d="M6.013,42.45c-0.197,0-0.392-0.058-0.558-0.17l-5.492-3.688c-0.459-0.308-0.58-0.929-0.272-1.388
					l11.73-17.472c1.067-1.592,2.948-1.774,5.077-0.342l0.09,0.059c0.64,0.429,1.496,1.12,2.016,2.018
					c0.605,1.051,0.596,2.141-0.028,3.069L6.843,42.008c-0.147,0.22-0.377,0.373-0.638,0.424C6.142,42.443,6.077,42.45,6.013,42.45z
					 M1.908,37.49l3.832,2.572l11.175-16.641c0.142-0.21,0.233-0.472-0.044-0.954c-0.256-0.442-0.748-0.921-1.386-1.35l-0.091-0.06
					c-0.629-0.422-1.189-0.65-1.591-0.65c-0.212,0-0.462,0.052-0.722,0.44L1.908,37.49z"/>
				<path fill="#004E5F" d="M17.787,21.945c-0.192,0-0.387-0.055-0.559-0.171c-0.043-0.03-0.084-0.062-0.121-0.097
					c-0.091-0.025-0.196-0.05-0.307-0.079c-0.477-0.122-0.97-0.249-1.315-0.481l-0.091-0.06c-0.432-0.291-0.699-0.761-0.895-1.104
					c-0.004-0.008-0.009-0.015-0.013-0.022c-0.001,0-0.001,0-0.001,0c-0.459-0.307-0.582-0.927-0.275-1.386
					c0,0,0.002-0.001,0.002-0.002l4.07-6.061c0.297-0.442,0.888-0.575,1.346-0.3l2.838,1.705c0.234,0.141,0.4,0.373,0.461,0.64
					c0.059,0.267,0.006,0.547-0.146,0.775l-4.163,6.2c-0.001,0.001-0.001,0.002-0.003,0.003
					C18.422,21.792,18.107,21.945,17.787,21.945z M16.284,19.046c0.077,0.135,0.183,0.311,0.243,0.368l0.061,0.037
					c0.107,0.057,0.5,0.158,0.711,0.212c0.041,0.011,0.084,0.021,0.125,0.032l3.111-4.634l-1.122-0.674L16.284,19.046z"/>
				<path fill="#004E5F" d="M26.47,20.889c-0.021,0-0.042,0-0.062-0.002c-0.354-0.022-0.671-0.231-0.831-0.549
					c0,0-0.359-0.716-0.926-1.87c-0.142-0.289-0.137-0.627,0.016-0.911c0.137-0.257,0.523-1.138-0.256-1.662
					c-0.44-0.294-1.084-0.321-1.516-0.066c-0.314,0.186-0.707,0.186-1.021-0.001l-6.111-3.636c-0.236-0.141-0.404-0.372-0.465-0.64
					s-0.008-0.549,0.146-0.777l1.257-1.87c0.113-0.313,0.789-2.772-4.158-6.095c-0.187-0.125-0.326-0.31-0.395-0.524
					c-0.111-0.347-0.428-1.543,0.181-2.378c0.547-0.75,1.534-0.898,2.862-0.306c0.076,0.035,0.148,0.079,0.215,0.131l11.499,9.115
					c0.235,0.183,0.376,0.461,0.386,0.759c0.014,0.473,0.199,0.832,0.551,1.066c0.452,0.305,0.982,0.251,1.474-0.109
					c0.136-0.1,0.296-0.164,0.462-0.186c1.258-0.164,2.461-0.232,2.512-0.235c0.39-0.021,0.736,0.174,0.925,0.503
					c0.188,0.33,0.173,0.738-0.039,1.053L27.3,20.446C27.113,20.724,26.802,20.889,26.47,20.889z M23.586,13.649
					c0.695,0,1.366,0.202,1.938,0.585c1.138,0.766,1.59,2.094,1.237,3.425l3.583-5.335c-0.025,0.003-0.052,0.006-0.077,0.009
					c-1.117,0.705-2.482,0.713-3.543,0.001c-0.756-0.507-1.238-1.266-1.387-2.171l-2.141-1.666l-8.935-7.117
					C14.146,1.333,14.05,1.3,13.974,1.278c0.003,0.032,0.007,0.064,0.012,0.098c6.503,4.532,4.562,8.327,4.474,8.488l-0.769,1.149
					l4.756,2.829C22.807,13.715,23.191,13.649,23.586,13.649z"/>
			</g>
		</g>
	</g>
</g>
</svg>
