<svg version="1.1" id="Layer_1" xmlns="http://www.w3.org/2000/svg" xmlns:xlink="http://www.w3.org/1999/xlink" xml:space="preserve">
<g id="small_icon">
	<g>
		<path style="fill:none;stroke:#004E5F;stroke-width:2;stroke-linecap:round;stroke-linejoin:round;stroke-miterlimit:10;" d="
			M10.712,18.301"/>
		<g>
			<path style="fill:#004E5F;" d="M3.116,25.376c-0.114,0-0.225-0.038-0.314-0.11l-3.114-2.51c-0.215-0.174-0.249-0.488-0.076-0.703
				l7.981-9.906c0.688-0.857,1.772-0.857,2.928,0.075c0.406,0.326,0.874,0.774,1.13,1.325c0.292,0.626,0.233,1.243-0.165,1.737
				l-7.982,9.905c-0.083,0.104-0.204,0.17-0.336,0.184C3.151,25.375,3.133,25.376,3.116,25.376z M0.705,22.291l2.335,1.882
				l7.669-9.517c0.105-0.13,0.205-0.327,0.037-0.687c-0.137-0.293-0.418-0.621-0.793-0.922c-0.46-0.371-0.817-0.542-1.092-0.542
				c-0.117,0-0.295,0.028-0.488,0.269L0.705,22.291z"/>
			<path style="fill:#004E5F;" d="M11.447,13.645c-0.11,0-0.303-0.036-0.396-0.111c-0.027-0.022-0.092-0.046-0.113-0.072
				c-0.059-0.022-0.151-0.046-0.227-0.073c-0.273-0.096-0.566-0.195-0.749-0.342c-0.276-0.223-0.406-0.497-0.508-0.716
				c-0.006-0.013-0.014-0.026-0.02-0.038c-0.006-0.004-0.014-0.009-0.02-0.015c-0.214-0.173-0.249-0.487-0.075-0.702l2.768-3.436
				c0.167-0.209,0.465-0.248,0.683-0.091l1.62,1.176c0.111,0.081,0.184,0.203,0.202,0.339s0.143,0.273,0.057,0.38L12,13.458v0.001
				C12,13.582,11.593,13.645,11.447,13.645z M10.355,11.908c0.001,0.002,0.002,0.004,0.003,0.006
				c0.04,0.086,0.122,0.267,0.169,0.314c0.115,0.085,0.361,0.171,0.494,0.218c0.049,0.018,0.097,0.034,0.143,0.051l2.232-2.771
				l-0.81-0.588L10.355,11.908z"/>
			<path style="fill:#004E5F;" d="M16.567,13.464c-0.024,0-0.049-0.002-0.074-0.005c-0.176-0.026-0.324-0.144-0.39-0.309
				c0,0-0.179-0.45-0.46-1.173c-0.058-0.15-0.041-0.318,0.047-0.453c0.223-0.343,0.317-0.827-0.088-1.154
				c-0.282-0.227-0.71-0.282-1.021-0.132c-0.165,0.08-0.36,0.063-0.508-0.045l-3.49-2.51c-0.111-0.08-0.185-0.203-0.204-0.339
				c-0.018-0.136,0.02-0.274,0.106-0.381l0.889-1.102c0,0,0,0,0,0c-0.007,0,0.809-1.542-2.234-3.995
				c-0.087-0.07-0.148-0.168-0.173-0.278C8.936,1.45,8.796,0.735,9.152,0.289c0.326-0.41,0.897-0.452,1.636-0.041
				c0.037,0.021,0.071,0.045,0.101,0.074l6.447,6.093c0.109,0.101,0.167,0.246,0.159,0.394c-0.018,0.321,0.088,0.577,0.315,0.76
				c0.289,0.231,0.663,0.232,1.012,0.019c0.073-0.044,0.155-0.069,0.24-0.073c0.772-0.032,1.516-0.009,1.515-0.01
				c0.19,0.006,0.36,0.119,0.439,0.291s0.054,0.375-0.065,0.522l-3.995,4.958C16.861,13.396,16.717,13.464,16.567,13.464z
				 M16.662,11.837c0.02,0.049,0.038,0.098,0.056,0.144l2.802-3.479c-0.097,0.002-0.196,0.004-0.297,0.008
				c-0.68,0.36-1.467,0.3-2.041-0.162C16.767,8.013,16.528,7.541,16.497,7l-1.232-1.145l-5.016-4.762
				c-0.246-0.13-0.359-0.137-0.38-0.137C9.894,0.966,9.901,1.083,9.917,1.21c3.652,3.027,2.325,5.149,2.266,5.239l-0.587,0.729
				l2.846,2.046c0.604-0.172,1.295-0.03,1.789,0.366C16.913,10.144,17.072,11.021,16.662,11.837z"/>
		</g>
	</g>
	<g>
		<path style="fill:#004E5F;" d="M35,27H8c-0.552,0-1-0.447-1-1v-3c0-0.553,0.448-1,1-1h27c0.552,0,1,0.447,1,1v3
			C36,26.553,35.552,27,35,27z M9,25h25v-1H9V25z"/>
		<path style="fill:#004E5F;" d="M12.374,32h-0.328C10.898,32,10,31.225,10,30.236V26c0-0.553,0.448-1,1-1s1,0.447,1,1v3.998
			C12.014,30,12.029,30,12.045,30h0.328c0.193,0,0.45-0.066,0.626-0.137V26c0-0.553,0.448-1,1-1s1,0.447,1,1v4.236
			C15,31.482,13.29,32,12.374,32z"/>
		<path style="fill:#004E5F;" d="M32.42,32h-0.328C32.062,32,29,31.869,29,30.236V26c0-0.553,0.448-1,1-1s1,0.447,1,1v3.779
			c0.28,0.098,1,0.199,1,0.217V26c0-0.553,0.448-1,1-1s1,0.447,1,1v4.236c0.004,0.39,0.009,0.911-0.408,1.332
			C33.309,31.855,32.915,32,32.42,32z"/>
		<path style="fill:#004E5F;" d="M33.068,24H9.932C8.288,24,7,22.938,7,21.584v-0.168C7,20.062,8.288,19,9.932,19h23.136
			C34.712,19,36,20.062,36,21.416v0.168C36,22.938,34.712,24,33.068,24z M9.932,21C9.331,21,9,21.313,9,21.416v0.168
			C9,21.688,9.331,22,9.932,22h23.136C33.669,22,34,21.688,34,21.584v-0.168C34,21.313,33.669,21,33.068,21H9.932z"/>
		<path style="fill:#004E5F;" d="M31.902,21H11.098c-0.752,0-1.478-0.273-2.042-0.768c-0.416-0.365-0.457-0.996-0.093-1.412
			c0.364-0.415,0.997-0.457,1.411-0.092c0.2,0.175,0.457,0.271,0.724,0.271h20.805C32.508,19,33,18.508,33,17.902v-3.804
			C33,13.493,32.508,13,31.902,13H20c-0.552,0-1-0.448-1-1s0.448-1,1-1h11.902C33.61,11,35,12.39,35,14.098v3.804
			C35,19.61,33.61,21,31.902,21z"/>
		<circle style="fill:#004E5F;" cx="15.143" cy="14.813" r="0.483"/>
		<circle style="fill:#004E5F;" cx="21.768" cy="14.813" r="0.483"/>
		<circle style="fill:#004E5F;" cx="28.393" cy="14.813" r="0.483"/>
	</g>
</g>
</svg>
