<svg version="1.1" id="Layer_1" xmlns="http://www.w3.org/2000/svg" xmlns:xlink="http://www.w3.org/1999/xlink" xml:space="preserve">
<g id="small_icon">
	<g>
		<path style="fill:none;stroke:#004E5F;stroke-linecap:round;stroke-linejoin:round;stroke-miterlimit:10;" d="M23.985,21.402"/>
		<g>
			<path style="fill:#004E5F;" d="M22.493,33c-0.126,0-0.247,0.047-0.34-0.039l-2.96-2.694c-0.097-0.09-0.155-0.191-0.16-0.324
				c-0.005-0.132,0.042-0.25,0.133-0.347l8.72-9.412c0.305-0.33,0.699-0.501,1.141-0.501c0.827,0,1.605,0.608,1.996,0.97
				c0.678,0.629,1.005,1.209,1.027,1.774c0.017,0.432-0.142,0.831-0.47,1.185l-8.72,9.322C22.77,33.031,22.645,33,22.512,33
				C22.506,33,22.5,33,22.493,33z M20.24,29.92l2.226,2.063l8.381-9.051c0.191-0.205,0.208-0.364,0.204-0.466
				c-0.011-0.282-0.243-0.647-0.653-1.026c-0.779-0.725-1.413-0.967-1.778-0.57L20.24,29.92z"/>
			<path style="fill:#004E5F;" d="M31.303,21.863c-0.122,0-0.245-0.045-0.341-0.135c-0.001-0.001-0.001-0.002-0.002-0.003
				c-0.008-0.002-0.015-0.005-0.023-0.007c-0.208-0.061-0.468-0.138-0.658-0.311c-0.208-0.19-0.333-0.424-0.455-0.65
				c-0.03-0.056-0.058-0.109-0.083-0.154c-0.026-0.016-0.05,0.045-0.074,0.023C29.465,20.438,29.455,20,29.643,20h0.001l2.672-2.925
				c0.093-0.099,0.222-0.195,0.357-0.197c0.137-0.008,0.266,0.03,0.362,0.128l1.235,1.234c0.189,0.19,0.194,0.493,0.009,0.688
				l-2.611,2.779C31.57,21.813,31.437,21.863,31.303,21.863z M30.665,20.213c0.013,0.023,0.026,0.047,0.039,0.071
				c0.055,0.103,0.159,0.295,0.205,0.345c0.068,0.055,0.201,0.098,0.282,0.123l2.029-2.16l-0.53-0.535L30.665,20.213z"/>
			<path style="fill:#004E5F;" d="M41.074,20.699c-0.093,0-0.151-0.004-0.151-0.004c-0.111-0.01-0.219-0.057-0.301-0.133
				c-3.039-2.813-4.338-1.625-4.363-1.604l-0.926,1.006c-0.093,0.102-0.224,0.16-0.361,0.161c-0.127,0.009-0.27-0.053-0.365-0.152
				l-3.017-3.116c-0.127-0.131-0.172-0.322-0.118-0.496c0.107-0.344-0.007-0.748-0.284-1.006c-0.325-0.301-0.786-0.254-1.167,0.082
				c-0.121,0.105-0.286,0.146-0.441,0.112c-0.717-0.163-2.147-0.273-2.162-0.274c-0.193-0.015-0.359-0.139-0.429-0.319
				c-0.069-0.18-0.028-0.384,0.105-0.524l5.129-5.38c0.125-0.131,0.31-0.182,0.487-0.139c0.175,0.045,0.313,0.182,0.358,0.357
				c0.016,0.058,0.375,1.436,0.457,2.22c0.008,0.083-0.004,0.168-0.037,0.246c-0.079,0.186-0.219,0.655,0.169,1.014
				c0.215,0.199,0.493,0.267,0.807,0.204c0.147-0.029,0.298,0.006,0.415,0.1l1.493,1.2l5.533,4.345
				c0.033,0.026,0.063,0.056,0.089,0.089c0.422,0.553,0.538,1.031,0.344,1.423C42.148,20.49,41.7,20.699,41.074,20.699z
				 M37.137,17.723c1.213,0,2.565,0.664,4.02,1.975c0.134-0.007,0.227-0.029,0.275-0.049c-0.026-0.025-0.071-0.13-0.198-0.305
				l-6.813-5.375c-0.061,0.005-0.121,0.008-0.181,0.008l0,0c-0.479,0-0.916-0.171-1.263-0.495c-0.55-0.509-0.721-1.268-0.46-2.006
				c-0.041-0.313-0.122-0.714-0.203-1.071l-3.787,3.973c0.344,0.04,0.72,0.089,1.037,0.148c0.738-0.516,1.673-0.486,2.305,0.097
				c0.484,0.45,0.713,1.104,0.627,1.731l2.463,2.545l0.61-0.66C35.658,18.155,36.173,17.723,37.137,17.723z"/>
		</g>
	</g>
	<g>
		<g>
			<path style="fill:#004E5F;" d="M12.958,27.352c-2.268,0-4.368-1.022-5.763-2.807c-2.482-3.176-1.919-7.779,1.256-10.263
				c1.298-1.015,2.854-1.552,4.498-1.552c2.268,0,4.369,1.024,5.764,2.809c1.203,1.537,1.735,3.452,1.498,5.391
				s-1.215,3.668-2.754,4.871C16.159,26.815,14.604,27.352,12.958,27.352z M12.949,14.73c-1.194,0-2.323,0.39-3.266,1.127
				c-2.307,1.805-2.716,5.148-0.913,7.455c1.014,1.297,2.54,2.039,4.188,2.039c1.194,0,2.324-0.389,3.267-1.127
				c1.118-0.873,1.829-2.13,2.001-3.538c0.172-1.407-0.214-2.799-1.088-3.916C16.125,15.474,14.598,14.73,12.949,14.73z"/>
			<circle style="fill:#004E5F;" cx="12.494" cy="19.987" r="0.986"/>
			<circle style="fill:#004E5F;" cx="29.746" cy="7.048" r="0.987"/>
			<path style="fill:#004E5F;" d="M26.429,13.629c-0.164,0-0.331-0.04-0.484-0.125c-0.858-0.476-1.603-1.113-2.211-1.892
				C22.531,10.074,22,8.16,22.237,6.222c0.237-1.938,1.215-3.668,2.754-4.871c1.538-1.203,3.448-1.735,5.391-1.498
				c1.938,0.237,3.668,1.214,4.871,2.752c1.783,2.279,2.054,5.4,0.689,7.953c-0.26,0.486-0.865,0.67-1.354,0.41
				c-0.487-0.26-0.67-0.866-0.41-1.354c0.991-1.854,0.794-4.122-0.501-5.777c-0.874-1.118-2.13-1.828-3.539-2
				c-1.406-0.172-2.798,0.215-3.916,1.088c-1.118,0.874-1.828,2.13-2,3.538c-0.172,1.408,0.214,2.799,1.087,3.916
				c0.443,0.566,0.983,1.029,1.605,1.374c0.483,0.268,0.658,0.876,0.39,1.359C27.122,13.443,26.78,13.629,26.429,13.629z"/>
			<path style="fill:#004E5F;" d="M17.589,11.014c-3.306,0-5.979-0.404-6.224-0.443l0.308-1.976
				c3.494,0.543,13.253,1.159,16.413-2.47l1.508,1.313C27.054,10.355,21.807,11.014,17.589,11.014z"/>
			
				<rect x="1.782" y="9.166" transform="matrix(0.6161 0.7877 -0.7877 0.6161 9.6515 0.5306)" style="fill:#004E5F;" width="4.999" height="2"/>
			<polygon style="fill:#004E5F;" points="7.244,13.408 6.148,11.735 17.657,4.195 29.652,6.122 29.334,8.096 18.105,6.292 			"/>
			
				<rect x="14.973" y="2.922" transform="matrix(0.5435 0.8394 -0.8394 0.5435 10.9302 -12.2529)" style="fill:#004E5F;" width="3.514" height="2"/>
			<path style="fill:#004E5F;" d="M17.19,0.707c0.34,0.435,0.263,1.063-0.172,1.403l-3.938,3.08
				c-0.435,0.34-1.063,0.263-1.405-0.172l0,0c-0.338-0.435-0.262-1.063,0.173-1.403l3.938-3.079
				C16.222,0.196,16.851,0.272,17.19,0.707L17.19,0.707z"/>
			
				<rect x="4.053" y="12.711" transform="matrix(0.6159 0.7878 -0.7878 0.6159 13.5103 -0.2899)" style="fill:#004E5F;" width="5.999" height="1.999"/>
			
				<rect x="2.752" y="4.179" transform="matrix(0.6159 0.7878 -0.7878 0.6159 8.2771 0.3774)" style="fill:#004E5F;" width="1.999" height="8.997"/>
		</g>
	</g>
</g>
</svg>
