<svg version="1.1" id="Layer_1" xmlns="http://www.w3.org/2000/svg" xmlns:xlink="http://www.w3.org/1999/xlink" xml:space="preserve">
<g id="big_icon">
	<path style="fill:#004E5F;" d="M44,46H19V35.002L25.093,32h13.112L44,35.018V46z M21,44h21v-7.769L37.715,34H25.559L21,36.246V44z"
		/>
	<polygon style="fill:#004E5F;" points="41.473,32 21.861,32 20.617,22.521 22.602,22.261 23.615,30 39.604,30 40.837,12 35,12 
		35,10 42.979,10 	"/>
	<path style="fill:#004E5F;" d="M41.833,29.73c-0.235,0-0.471-0.012-0.705-0.035l-0.93-0.096l0.205-1.99l0.93,0.096
		c1.283,0.13,2.63-0.251,3.681-1.053c1.064-0.813,1.721-1.952,1.851-3.206l0.21-2.043c0.131-1.269-0.294-2.623-1.166-3.714
		c-0.871-1.091-2.091-1.791-3.346-1.92l-0.93-0.096l0.205-1.989l0.93,0.096c1.785,0.184,3.499,1.154,4.703,2.661
		c1.197,1.498,1.777,3.381,1.594,5.167l-0.211,2.043c-0.186,1.808-1.119,3.438-2.626,4.591C44.967,29.205,43.397,29.73,41.833,29.73
		z"/>
	<path style="fill:#004E5F;" d="M25,4h13.836c2.453,0,4.441,1,4.441,4H28"/>
	<rect x="33" y="16" style="fill:#004E5F;" width="1" height="10"/>
	<rect x="31" y="18" style="fill:#004E5F;" width="5" height="1"/>
	<rect x="31" y="22" style="fill:#004E5F;" width="5" height="1"/>
	<path style="fill:#004E5F;" d="M25.131,49h-1.262C22.838,49,22,48.162,22,47.131v-0.262C22,45.838,22.838,45,23.869,45h1.262
		C26.162,45,27,45.838,27,46.869v0.262C27,48.162,26.162,49,25.131,49z M23.869,46C23.39,46,23,46.39,23,46.869v0.262
		C23,47.61,23.39,48,23.869,48h1.262C25.61,48,26,47.61,26,47.131v-0.262C26,46.39,25.61,46,25.131,46H23.869z"/>
	<path style="fill:#004E5F;" d="M40.131,49h-1.262C37.838,49,37,48.162,37,47.131v-0.262C37,45.838,37.838,45,38.869,45h1.262
		C41.162,45,42,45.838,42,46.869v0.262C42,48.162,41.162,49,40.131,49z M38.869,46C38.39,46,38,46.39,38,46.869v0.262
		C38,47.61,38.39,48,38.869,48h1.262C40.61,48,41,47.61,41,47.131v-0.262C41,46.39,40.61,46,40.131,46H38.869z"/>
	<path style="fill:#004E5F;" d="M37.131,41H25.869C24.838,41,24,40.162,24,39.131v-0.262C24,37.838,24.838,37,25.869,37h11.262
		C38.162,37,39,37.838,39,38.869v0.262C39,40.162,38.162,41,37.131,41z M25.869,38C25.39,38,25,38.39,25,38.869v0.262
		C25,39.61,25.39,40,25.869,40h11.262C37.61,40,38,39.61,38,39.131v-0.262C38,38.39,37.61,38,37.131,38H25.869z"/>
	<rect x="28" y="38" style="fill:#004E5F;" width="2" height="2"/>
	<g>
		<g>
			<path style="fill:none;stroke:#004E5F;stroke-width:2;stroke-linecap:round;stroke-linejoin:round;stroke-miterlimit:10;" d="
				M17.588,30.523"/>
			<g>
				<path style="fill:#004E5F;" d="M6.013,43.45c-0.197,0-0.392-0.058-0.558-0.17l-5.492-3.688c-0.459-0.308-0.58-0.929-0.272-1.388
					l11.73-17.472c1.067-1.591,2.948-1.774,5.077-0.342l0.09,0.059c0.64,0.429,1.496,1.12,2.016,2.018
					c0.605,1.051,0.596,2.141-0.028,3.069L6.843,43.008c-0.147,0.22-0.377,0.373-0.638,0.424C6.142,43.443,6.077,43.45,6.013,43.45z
					 M1.908,38.49l3.832,2.572l11.175-16.641c0.142-0.21,0.233-0.472-0.044-0.954c-0.256-0.442-0.748-0.921-1.386-1.35l-0.091-0.06
					c-0.629-0.422-1.189-0.65-1.591-0.65c-0.212,0-0.462,0.052-0.722,0.44L1.908,38.49z"/>
				<path style="fill:#004E5F;" d="M17.787,22.945c-0.192,0-0.387-0.055-0.559-0.171c-0.043-0.03-0.084-0.062-0.121-0.097
					c-0.091-0.025-0.196-0.05-0.307-0.079c-0.477-0.122-0.97-0.249-1.315-0.481l-0.091-0.06c-0.432-0.291-0.699-0.761-0.895-1.104
					c-0.004-0.008-0.009-0.015-0.013-0.022c-0.001,0-0.001,0-0.001,0c-0.459-0.307-0.582-0.927-0.275-1.386
					c0,0,0.002-0.001,0.002-0.002l4.07-6.061c0.297-0.442,0.888-0.575,1.346-0.3l2.838,1.705c0.234,0.141,0.4,0.373,0.461,0.64
					c0.059,0.267,0.006,0.547-0.146,0.775l-4.163,6.2c-0.001,0.001-0.001,0.002-0.003,0.003
					C18.422,22.792,18.107,22.945,17.787,22.945z M16.284,20.046c0.077,0.135,0.183,0.311,0.243,0.368l0.061,0.037
					c0.107,0.057,0.5,0.158,0.711,0.212c0.041,0.011,0.084,0.021,0.125,0.032l3.111-4.634l-1.122-0.674L16.284,20.046z"/>
				<path style="fill:#004E5F;" d="M26.47,21.889c-0.021,0-0.042,0-0.063-0.002c-0.354-0.022-0.671-0.231-0.831-0.549
					c0,0-0.359-0.716-0.926-1.87c-0.142-0.289-0.137-0.627,0.016-0.911c0.137-0.257,0.523-1.138-0.256-1.662
					c-0.439-0.294-1.084-0.321-1.516-0.066c-0.314,0.187-0.707,0.186-1.021-0.001l-6.111-3.636c-0.236-0.141-0.404-0.372-0.465-0.64
					s-0.008-0.549,0.146-0.777l1.257-1.87c0.113-0.313,0.789-2.772-4.158-6.095c-0.187-0.125-0.326-0.31-0.395-0.524
					c-0.111-0.347-0.428-1.543,0.181-2.378c0.547-0.75,1.534-0.898,2.862-0.306c0.076,0.035,0.148,0.079,0.215,0.131l11.499,9.115
					c0.235,0.183,0.376,0.461,0.386,0.759c0.014,0.473,0.199,0.832,0.551,1.066c0.452,0.306,0.982,0.25,1.474-0.109
					c0.136-0.1,0.296-0.164,0.462-0.186c1.258-0.164,2.461-0.232,2.512-0.235c0.391-0.013,0.736,0.174,0.925,0.503
					c0.188,0.33,0.173,0.738-0.039,1.053L27.3,21.446C27.113,21.724,26.802,21.889,26.47,21.889z M23.586,14.649
					c0.695,0,1.366,0.202,1.938,0.585c1.138,0.766,1.59,2.094,1.237,3.425l3.583-5.335c-0.025,0.003-0.052,0.006-0.077,0.009
					c-1.117,0.705-2.483,0.713-3.543,0.001c-0.756-0.507-1.238-1.266-1.387-2.171l-2.141-1.666l-8.935-7.117
					C14.146,2.333,14.05,2.3,13.974,2.278c0.003,0.032,0.007,0.064,0.012,0.098c6.503,4.532,4.562,8.327,4.474,8.488l-0.769,1.149
					l4.756,2.829C22.807,14.715,23.191,14.649,23.586,14.649z"/>
			</g>
		</g>
	</g>
</g>
</svg>
