<svg version="1.1" id="Layer_1" xmlns="http://www.w3.org/2000/svg" xmlns:xlink="http://www.w3.org/1999/xlink" xml:space="preserve">
<g id="small_icon">
	<g>
		<path style="fill:none;stroke:#004E5F;stroke-linecap:round;stroke-linejoin:round;stroke-miterlimit:10;" d="M18.744,21.402"/>
		<g>
			<path style="fill:#004E5F;" d="M20.236,33c-0.006,0-0.013,0-0.019,0c-0.133,0-0.258,0.031-0.348-0.065l-8.72-9.37
				c-0.328-0.354-0.486-0.729-0.47-1.16c0.021-0.566,0.349-1.133,0.973-1.71c0.444-0.413,1.223-1.014,2.049-1.014
				c0.442,0,0.836,0.177,1.142,0.507l8.719,9.418c0.09,0.098,0.138,0.228,0.133,0.359c-0.005,0.133-0.063,0.258-0.16,0.348
				l-2.96,2.648C20.483,33.047,20.362,33,20.236,33z M13.702,20.686c-0.349,0-0.841,0.262-1.316,0.702
				c-0.465,0.431-0.696,0.796-0.708,1.078c-0.004,0.102,0.013,0.261,0.204,0.466l8.381,9.051l2.226-2.063l-8.38-9.051
				C13.992,20.742,13.867,20.686,13.702,20.686z"/>
			<path style="fill:#004E5F;" d="M11.446,21.863c-0.007,0-0.014-0.003-0.02,0c-0.133,0-0.266-0.053-0.365-0.158L8.45,18.924
				c-0.185-0.196-0.18-0.503,0.009-0.694l1.235-1.245c0.096-0.096,0.231-0.133,0.362-0.148c0.136,0.002,0.265,0.059,0.357,0.158
				l2.599,2.767c0.138,0.089,0.229,0.244,0.229,0.42c0,0.19-0.106,0.355-0.262,0.44c-0.023,0.041-0.047,0.088-0.073,0.136
				c-0.122,0.226-0.248,0.46-0.406,0.605c-0.236,0.216-0.493,0.293-0.701,0.354C11.709,21.808,11.584,21.863,11.446,21.863z
				 M9.509,18.592l2.029,2.16c0.081-0.024,0.21-0.064,0.251-0.092c0.077-0.081,0.181-0.272,0.236-0.375
				c0.013-0.024,0.026-0.048,0.039-0.072l-2.025-2.155L9.509,18.592z"/>
			<path style="fill:#004E5F;" d="M1.656,20.7c-0.626,0-1.074-0.209-1.262-0.589c-0.194-0.392-0.078-0.87,0.344-1.422
				c0.026-0.033,0.056-0.063,0.089-0.089l7.025-5.545c0.117-0.094,0.268-0.13,0.415-0.1c0.314,0.065,0.592-0.004,0.806-0.203
				c0.388-0.359,0.248-0.829,0.169-1.015c-0.033-0.078-0.045-0.163-0.037-0.246c0.082-0.785,0.441-2.162,0.457-2.22
				c0.046-0.175,0.183-0.312,0.358-0.357c0.177-0.042,0.362,0.008,0.487,0.139l5.129,5.38c0.133,0.14,0.174,0.344,0.105,0.524
				s-0.236,0.305-0.429,0.319c-0.014,0.001-1.446,0.112-2.162,0.274c-0.156,0.037-0.32-0.007-0.441-0.112
				c-0.382-0.337-0.841-0.384-1.169-0.081c-0.276,0.257-0.39,0.661-0.283,1.004c0.054,0.175,0.009,0.365-0.118,0.497l-3.017,3.116
				c-0.095,0.099-0.219,0.148-0.365,0.152c-0.137-0.001-0.268-0.06-0.361-0.161L6.43,18.919c0.014,0.024-0.266-0.197-0.837-0.197
				c-0.683,0-1.842,0.319-3.485,1.841c-0.082,0.076-0.189,0.123-0.301,0.132C1.807,20.695,1.749,20.7,1.656,20.7z M1.354,19.683
				c0.046,0,0.121,0.011,0.218,0.015c1.455-1.311,2.807-1.976,4.021-1.976c0.964,0,1.479,0.433,1.534,0.482l0.645,0.695l2.463-2.545
				c-0.086-0.628,0.143-1.281,0.625-1.73c0.634-0.585,1.569-0.614,2.306-0.098c0.316-0.059,0.692-0.108,1.037-0.148l-3.787-3.973
				c-0.081,0.357-0.162,0.759-0.203,1.071c0.26,0.739,0.089,1.498-0.461,2.007c-0.39,0.363-0.896,0.538-1.443,0.486l-1.323,1.064
				l-5.49,4.311c-0.147,0.202-0.182,0.313-0.19,0.352C1.312,19.686,1.329,19.683,1.354,19.683z"/>
		</g>
	</g>
	<g>
		<path style="fill:#004E5F;" d="M22,24.517c-0.08,0-0.16-0.009-0.238-0.028l-2.868-0.705c-0.537-0.131-0.865-0.673-0.733-1.209
			c0.131-0.537,0.672-0.865,1.209-0.733l1.63,0.4V6.33l-8.935-1.333l0.112,2.074c0.03,0.552-0.393,1.023-0.944,1.053
			c-0.544,0.019-1.023-0.393-1.053-0.944l-0.179-3.298c-0.016-0.3,0.103-0.591,0.325-0.794c0.222-0.201,0.524-0.293,0.821-0.25
			l11,1.641C22.637,4.552,23,4.973,23,5.468v18.048c0,0.308-0.141,0.597-0.383,0.787C22.439,24.443,22.222,24.517,22,24.517z"/>
		<path style="fill:#004E5F;" d="M22,24.517c-0.235,0-0.465-0.083-0.647-0.237C21.129,24.089,21,23.811,21,23.517V5.468
			c0-0.51,0.384-0.938,0.891-0.994l15-1.641c0.283-0.032,0.565,0.06,0.776,0.25C37.879,3.272,38,3.543,38,3.827v17.228
			c0,0.49-0.355,0.908-0.838,0.987l-15,2.462C22.108,24.512,22.054,24.517,22,24.517z M23,6.365V22.34l13-2.134V4.942L23,6.365z"/>
		<path style="fill:#004E5F;" d="M37,6c-0.552,0-1-0.448-1-1V3.874L25.302,2.347L11.01,4.31c-0.553,0.073-1.052-0.307-1.127-0.854
			c-0.075-0.547,0.308-1.052,0.854-1.127l14.43-1.982c0.093-0.013,0.186-0.013,0.277,0.001l11.696,1.669
			C37.634,2.087,38,2.509,38,3.007V5C38,5.552,37.552,6,37,6z"/>
		<path style="fill:#004E5F;" d="M27.5,23.5c-0.276,0-0.5-0.224-0.5-0.5V5c0-0.276,0.224-0.5,0.5-0.5S28,4.724,28,5v18
			C28,23.276,27.776,23.5,27.5,23.5z"/>
		<path style="fill:#004E5F;" d="M32.5,21.5c-0.276,0-0.5-0.224-0.5-0.5V5c0-0.276,0.224-0.5,0.5-0.5S33,4.724,33,5v16
			C33,21.276,32.776,21.5,32.5,21.5z"/>
		<path style="fill:#004E5F;" d="M16.5,19.5c-0.276,0-0.5-0.224-0.5-0.5V5c0-0.276,0.224-0.5,0.5-0.5S17,4.724,17,5v14
			C17,19.276,16.776,19.5,16.5,19.5z"/>
		<path style="fill:#004E5F;" d="M16.742,4.875c-0.247,0-0.462-0.183-0.495-0.435c-0.036-0.273,0.156-0.525,0.43-0.561l15.729-2.083
			c0.275-0.036,0.525,0.157,0.561,0.43s-0.156,0.525-0.43,0.561L16.808,4.871C16.786,4.874,16.764,4.875,16.742,4.875z"/>
		<path style="fill:#004E5F;" d="M27.818,4.875c-0.02,0-0.039-0.001-0.059-0.003L15.64,3.445c-0.274-0.032-0.47-0.281-0.438-0.555
			s0.277-0.47,0.555-0.438l12.119,1.427c0.274,0.032,0.47,0.281,0.438,0.555C28.285,4.688,28.068,4.875,27.818,4.875z"/>
		<path style="fill:#004E5F;" d="M32.74,4.327c-0.021,0-0.041-0.001-0.062-0.004L20.236,2.789c-0.274-0.034-0.469-0.283-0.435-0.557
			s0.293-0.469,0.557-0.435l12.442,1.535c0.274,0.034,0.469,0.283,0.435,0.557C33.205,4.142,32.989,4.327,32.74,4.327z"/>
		<path style="fill:#004E5F;" d="M21.758,12l-8.849-1.621c-0.272-0.05-0.451-0.311-0.401-0.582c0.05-0.271,0.311-0.453,0.582-0.401
			l8.758,1.613L22.485,11l14.697-2.083c0.275-0.042,0.526,0.152,0.565,0.425s-0.152,0.526-0.425,0.565l-14.767,2.088L21.758,12z"/>
		<path style="fill:#004E5F;" d="M21.758,18c-0.033,0-0.067-0.003-0.1-0.01l-6.614-1.344c-0.271-0.055-0.445-0.319-0.39-0.589
			s0.319-0.441,0.589-0.391L21.809,17h0.677l14.694-2.147c0.275-0.045,0.527,0.15,0.567,0.422c0.04,0.273-0.149,0.527-0.422,0.567
			l-14.767,2.152L21.758,18z"/>
	</g>
</g>
</svg>
