<svg version="1.1" id="Layer_1" xmlns="http://www.w3.org/2000/svg" xmlns:xlink="http://www.w3.org/1999/xlink" xml:space="preserve">
<g id="small_icon">
	<path style="fill:#004E5F;" d="M29,33H10v-8.5l4.637-2.5h9.732L29,24.5V33z M12,31h15v-5.307L23.864,24h-8.722L12,25.693V31z"/>
	<polygon style="fill:#004E5F;" points="26.936,23 12.116,23 11.206,15.638 13.19,15.393 13.884,21 25.064,21 25.931,8 22,8 22,6 
		28.069,6 	"/>
	<path style="fill:#004E5F;" d="M27.75,22H27v-2h0.75c1.792,0,3.25-1.458,3.25-3.25v-1.5c0-1.792-1.458-3.25-3.25-3.25H27v-2h0.75
		c2.895,0,5.25,2.355,5.25,5.25v1.5C33,19.645,30.645,22,27.75,22z"/>
	<path style="fill:#004E5F;" d="M15,2h9.756C26.548,2,28,3,28,5H17"/>
	<rect x="20" y="11" style="fill:#004E5F;" width="1" height="7"/>
	<rect x="19" y="12" style="fill:#004E5F;" width="4" height="1"/>
	<rect x="19" y="15" style="fill:#004E5F;" width="4" height="1"/>
	<path style="fill:#004E5F;" d="M14.5,35h-1c-0.827,0-1.5-0.673-1.5-1.5s0.673-1.5,1.5-1.5h1c0.827,0,1.5,0.673,1.5,1.5
		S15.327,35,14.5,35z M13.5,33c-0.276,0-0.5,0.225-0.5,0.5s0.224,0.5,0.5,0.5h1c0.276,0,0.5-0.225,0.5-0.5S14.776,33,14.5,33H13.5z"
		/>
	<path style="fill:#004E5F;" d="M25.5,35h-1c-0.827,0-1.5-0.673-1.5-1.5s0.673-1.5,1.5-1.5h1c0.827,0,1.5,0.673,1.5,1.5
		S26.327,35,25.5,35z M24.5,33c-0.276,0-0.5,0.225-0.5,0.5s0.224,0.5,0.5,0.5h1c0.276,0,0.5-0.225,0.5-0.5S25.776,33,25.5,33H24.5z"
		/>
	<path style="fill:#004E5F;" d="M23.5,29h-8c-0.827,0-1.5-0.673-1.5-1.5s0.673-1.5,1.5-1.5h8c0.827,0,1.5,0.673,1.5,1.5
		S24.327,29,23.5,29z M15.5,27c-0.276,0-0.5,0.225-0.5,0.5s0.224,0.5,0.5,0.5h8c0.276,0,0.5-0.225,0.5-0.5S23.776,27,23.5,27H15.5z"
		/>
	<rect x="16.563" y="26.5" style="fill:#004E5F;" width="1.75" height="2"/>
	<g>
		<g>
			<path style="fill:none;stroke:#004E5F;stroke-width:2;stroke-linecap:round;stroke-linejoin:round;stroke-miterlimit:10;" d="
				M10.712,18.301"/>
			<g>
				<path style="fill:#004E5F;" d="M3.116,25.376c-0.114,0-0.225-0.038-0.314-0.11l-3.114-2.51
					c-0.215-0.174-0.249-0.488-0.076-0.703l7.981-9.906c0.688-0.856,1.772-0.857,2.928,0.075c0.406,0.326,0.874,0.774,1.13,1.325
					c0.292,0.626,0.233,1.243-0.165,1.737l-7.982,9.905c-0.083,0.104-0.204,0.17-0.336,0.184
					C3.151,25.375,3.133,25.376,3.116,25.376z M0.705,22.291l2.335,1.882l7.669-9.517c0.105-0.13,0.205-0.327,0.037-0.687
					c-0.137-0.293-0.418-0.621-0.793-0.922c-0.46-0.371-0.817-0.542-1.092-0.542c-0.117,0-0.295,0.028-0.488,0.269L0.705,22.291z"/>
				<path style="fill:#004E5F;" d="M11.447,13.645c-0.11,0-0.303-0.036-0.396-0.111c-0.027-0.022-0.092-0.046-0.113-0.072
					c-0.059-0.022-0.151-0.046-0.227-0.073c-0.273-0.096-0.566-0.195-0.749-0.342c-0.276-0.223-0.406-0.497-0.508-0.716
					c-0.006-0.013-0.014-0.026-0.02-0.038c-0.006-0.004-0.014-0.009-0.02-0.015c-0.214-0.173-0.249-0.487-0.075-0.702l2.768-3.436
					c0.166-0.209,0.465-0.248,0.683-0.091l1.62,1.176c0.111,0.081,0.184,0.203,0.202,0.339s0.143,0.273,0.057,0.38L12,13.458v0.001
					C12,13.582,11.593,13.645,11.447,13.645z M10.355,11.908c0.001,0.002,0.002,0.004,0.003,0.006
					c0.04,0.086,0.122,0.267,0.169,0.314c0.115,0.085,0.361,0.171,0.494,0.218c0.049,0.018,0.097,0.034,0.143,0.051l2.232-2.771
					l-0.81-0.588L10.355,11.908z"/>
				<path style="fill:#004E5F;" d="M16.567,13.464c-0.024,0-0.049-0.002-0.074-0.005c-0.176-0.026-0.324-0.144-0.39-0.309
					c0,0-0.179-0.45-0.46-1.173c-0.058-0.15-0.041-0.318,0.047-0.453c0.223-0.343,0.317-0.827-0.088-1.154
					c-0.282-0.227-0.709-0.281-1.021-0.132c-0.166,0.08-0.36,0.063-0.508-0.045l-3.49-2.51c-0.111-0.08-0.185-0.203-0.204-0.339
					c-0.018-0.136,0.02-0.274,0.106-0.381l0.889-1.102c0,0,0,0,0,0c-0.007,0,0.809-1.542-2.234-3.995
					c-0.087-0.07-0.148-0.168-0.173-0.278C8.936,1.45,8.796,0.735,9.152,0.289c0.327-0.41,0.897-0.451,1.636-0.041
					c0.037,0.021,0.071,0.045,0.101,0.074l6.447,6.093c0.109,0.101,0.167,0.246,0.159,0.394c-0.018,0.321,0.088,0.577,0.315,0.76
					c0.289,0.231,0.663,0.232,1.012,0.019c0.073-0.044,0.155-0.069,0.24-0.073c0.771-0.031,1.515-0.01,1.515-0.01
					c0.19,0.006,0.36,0.119,0.439,0.291s0.054,0.375-0.065,0.522l-3.995,4.958C16.861,13.396,16.717,13.464,16.567,13.464z
					 M16.662,11.837c0.02,0.049,0.038,0.098,0.056,0.144l2.802-3.479c-0.097,0.002-0.196,0.004-0.297,0.008
					c-0.68,0.36-1.467,0.3-2.041-0.162C16.767,8.013,16.528,7.541,16.497,7l-1.232-1.145l-5.016-4.762
					c-0.246-0.13-0.359-0.137-0.38-0.137C9.894,0.966,9.901,1.083,9.917,1.21c3.652,3.027,2.325,5.149,2.266,5.239l-0.587,0.729
					l2.846,2.046c0.604-0.172,1.296-0.03,1.789,0.366C16.913,10.144,17.072,11.021,16.662,11.837z"/>
			</g>
		</g>
	</g>
</g>
</svg>
