<svg version="1.1" id="Layer_1" xmlns="http://www.w3.org/2000/svg" xmlns:xlink="http://www.w3.org/1999/xlink" xml:space="preserve">
<g id="small_icon">
	<g>
		<path style="fill:none;stroke:#004E5F;stroke-width:2;stroke-linecap:round;stroke-linejoin:round;stroke-miterlimit:10;" d="
			M10.712,18.301"/>
		<g>
			<path style="fill:#004E5F;" d="M3.116,25.376c-0.114,0-0.225-0.038-0.314-0.11l-3.114-2.51c-0.215-0.174-0.249-0.488-0.076-0.703
				l7.981-9.906c0.688-0.857,1.772-0.857,2.928,0.075c0.406,0.326,0.874,0.774,1.13,1.325c0.292,0.626,0.233,1.243-0.165,1.737
				l-7.982,9.905c-0.083,0.104-0.204,0.17-0.336,0.184C3.151,25.375,3.133,25.376,3.116,25.376z M0.705,22.291l2.335,1.882
				l7.669-9.517c0.105-0.13,0.205-0.327,0.037-0.687c-0.137-0.293-0.418-0.621-0.793-0.922c-0.46-0.371-0.817-0.542-1.092-0.542
				c-0.117,0-0.295,0.028-0.488,0.269L0.705,22.291z"/>
			<path style="fill:#004E5F;" d="M11.447,13.645c-0.11,0-0.303-0.036-0.396-0.111c-0.027-0.022-0.092-0.046-0.113-0.072
				c-0.059-0.022-0.151-0.046-0.227-0.073c-0.273-0.096-0.566-0.195-0.749-0.342c-0.276-0.223-0.406-0.497-0.508-0.716
				c-0.006-0.013-0.014-0.026-0.02-0.038c-0.006-0.004-0.014-0.009-0.02-0.015c-0.214-0.173-0.249-0.487-0.075-0.702l2.768-3.436
				c0.166-0.208,0.465-0.247,0.683-0.091l1.62,1.176c0.111,0.081,0.184,0.203,0.202,0.339s0.143,0.273,0.057,0.38L12,13.458v0.001
				C12,13.582,11.593,13.645,11.447,13.645z M10.355,11.908c0.001,0.002,0.002,0.004,0.003,0.006
				c0.04,0.086,0.122,0.267,0.169,0.314c0.115,0.085,0.361,0.171,0.494,0.218c0.049,0.018,0.097,0.034,0.143,0.051l2.232-2.771
				l-0.81-0.588L10.355,11.908z"/>
			<path style="fill:#004E5F;" d="M16.567,13.464c-0.024,0-0.049-0.002-0.074-0.005c-0.176-0.026-0.324-0.144-0.39-0.309
				c0,0-0.179-0.45-0.46-1.173c-0.058-0.15-0.041-0.318,0.047-0.453c0.223-0.343,0.317-0.827-0.088-1.154
				c-0.282-0.227-0.709-0.282-1.021-0.132c-0.166,0.079-0.36,0.063-0.508-0.045l-3.49-2.51c-0.111-0.08-0.185-0.203-0.204-0.339
				c-0.018-0.136,0.02-0.274,0.106-0.381l0.889-1.102c0,0,0,0,0,0c-0.007,0,0.809-1.542-2.234-3.995
				c-0.087-0.07-0.148-0.168-0.173-0.278C8.936,1.45,8.796,0.735,9.152,0.289c0.327-0.411,0.897-0.452,1.636-0.041
				c0.037,0.021,0.071,0.045,0.101,0.074l6.447,6.093c0.109,0.101,0.167,0.246,0.159,0.394c-0.018,0.321,0.088,0.577,0.315,0.76
				c0.289,0.231,0.663,0.232,1.012,0.019c0.073-0.044,0.155-0.069,0.24-0.073c0.771-0.031,1.515-0.009,1.515-0.009
				c0.19,0.005,0.36,0.118,0.439,0.291s0.054,0.375-0.065,0.522l-3.995,4.958C16.861,13.396,16.717,13.464,16.567,13.464z
				 M16.662,11.837c0.02,0.049,0.038,0.098,0.056,0.144l2.802-3.479c-0.097,0.002-0.196,0.004-0.297,0.008
				c-0.68,0.36-1.467,0.3-2.041-0.162C16.767,8.013,16.528,7.541,16.497,7l-1.232-1.145l-5.016-4.762
				c-0.246-0.13-0.359-0.137-0.38-0.137C9.894,0.966,9.901,1.083,9.917,1.21c3.652,3.027,2.325,5.149,2.266,5.239l-0.587,0.729
				l2.846,2.046c0.604-0.171,1.296-0.03,1.789,0.366C16.913,10.144,17.072,11.021,16.662,11.837z"/>
		</g>
	</g>
	<g>
		<path style="fill:#004E5F;" d="M12.992,35.821c-0.138,0-0.277-0.028-0.409-0.088c-7.251-3.257-6.235-10.231-6.225-10.302
			c0.081-0.506,0.532-0.86,1.042-0.842l0.178,0.004c2.141,0,4.616-2.057,5.821-3.279c-0.981-2.104-1.125-3.822-0.427-5.11
			c0.715-1.319,2.143-1.787,2.874-1.855c0.114-0.011,0.229-0.002,0.34,0.027c0.696,0.177,1.383,0.267,2.042,0.267
			c2.875,0,4.443-1.668,4.508-1.739c2.58-2.554,5.207-3.829,7.845-3.829c3.319,0,5.387,2.056,5.473,2.143
			c0.384,0.388,0.385,1.011,0.005,1.401L13.708,35.52C13.516,35.717,13.256,35.821,12.992,35.821z M8.288,26.548
			c0.009,1.552,0.516,4.973,4.492,7.06L33.84,12.03c-0.7-0.437-1.832-0.955-3.258-0.955c-2.093,0-4.246,1.081-6.401,3.211
			c-0.046,0.054-2.151,2.356-5.951,2.356c-0.759,0-1.542-0.093-2.328-0.278c-0.27,0.061-0.887,0.256-1.178,0.805
			c-0.408,0.773-0.137,2.142,0.764,3.854c0.191,0.364,0.14,0.809-0.129,1.12C15.21,22.316,11.902,26.087,8.288,26.548z"/>
		<path style="fill:#004E5F;" d="M15.147,38c-0.261,0-0.511-0.141-0.698-0.322l-2.147-2.114c-0.396-0.386-0.403-1.028-0.018-1.423
			l22.344-22.913c0.185-0.19,0.438-0.301,0.704-0.304c0.246,0.002,0.52,0.098,0.71,0.283l2.147,2.094
			c0.396,0.386,0.403,1.019,0.018,1.414L15.863,37.66C15.678,37.85,15.425,38,15.16,38C15.156,38,15.151,38,15.147,38z
			 M14.414,34.811l0.716,0.699l20.947-21.476l-0.716-0.698L14.414,34.811z"/>
		<path style="fill:#004E5F;" d="M18.785,19.597c-0.039,0-0.077-0.002-0.116-0.007c-0.549-0.063-0.942-0.56-0.878-1.108l0.505-4.363
			c0.063-0.549,0.56-0.942,1.108-0.878c0.549,0.063,0.942,0.56,0.878,1.108l-0.505,4.363C19.718,19.222,19.286,19.597,18.785,19.597
			z"/>
		<path style="fill:#004E5F;" d="M21.98,17.923c-0.028,0-0.057-0.001-0.085-0.003c-0.55-0.047-0.958-0.531-0.912-1.081l0.388-4.563
			c0.047-0.55,0.523-0.957,1.081-0.912c0.55,0.047,0.958,0.531,0.912,1.081l-0.388,4.563C22.931,17.529,22.494,17.923,21.98,17.923z
			"/>
		<path style="fill:#004E5F;" d="M17.591,34.918c-0.126,0-0.252-0.047-0.349-0.143l-2.147-2.094
			c-0.198-0.193-0.202-0.51-0.009-0.707c0.194-0.198,0.51-0.201,0.707-0.01l2.147,2.096c0.198,0.192,0.202,0.509,0.009,0.707
			C17.851,34.867,17.721,34.918,17.591,34.918z"/>
		<path style="fill:#004E5F;" d="M19.686,32.771c-0.126,0-0.252-0.048-0.349-0.142l-2.147-2.096
			c-0.198-0.192-0.202-0.509-0.009-0.707c0.194-0.197,0.51-0.201,0.707-0.008l2.147,2.094c0.198,0.193,0.202,0.51,0.009,0.707
			C19.946,32.721,19.816,32.771,19.686,32.771z"/>
		<path style="fill:#004E5F;" d="M21.781,30.623c-0.126,0-0.252-0.047-0.349-0.143l-2.147-2.094
			c-0.198-0.193-0.202-0.51-0.009-0.707c0.194-0.198,0.51-0.201,0.707-0.01l2.147,2.096c0.198,0.192,0.202,0.509,0.009,0.707
			C22.041,30.572,21.911,30.623,21.781,30.623z"/>
		<path style="fill:#004E5F;" d="M23.875,28.475c-0.126,0-0.252-0.047-0.349-0.142l-2.147-2.095
			c-0.198-0.193-0.202-0.51-0.009-0.707c0.193-0.197,0.51-0.201,0.707-0.009l2.147,2.095c0.198,0.193,0.202,0.51,0.009,0.707
			C24.135,28.425,24.005,28.475,23.875,28.475z"/>
		<path style="fill:#004E5F;" d="M25.97,26.328c-0.126,0-0.252-0.048-0.349-0.143l-2.147-2.095
			c-0.198-0.192-0.202-0.509-0.009-0.707c0.194-0.198,0.51-0.2,0.707-0.009l2.147,2.095c0.198,0.192,0.202,0.509,0.009,0.707
			C26.23,26.277,26.1,26.328,25.97,26.328z"/>
		<path style="fill:#004E5F;" d="M28.763,23.465c-0.126,0-0.252-0.048-0.349-0.143l-2.147-2.095
			c-0.198-0.193-0.202-0.509-0.009-0.707c0.194-0.198,0.51-0.201,0.707-0.009l2.147,2.095c0.198,0.192,0.202,0.509,0.009,0.707
			C29.023,23.414,28.893,23.465,28.763,23.465z"/>
		<path style="fill:#004E5F;" d="M30.858,21.316c-0.126,0-0.252-0.047-0.349-0.142l-2.147-2.095
			c-0.198-0.193-0.202-0.509-0.009-0.707c0.194-0.198,0.51-0.201,0.707-0.009l2.147,2.095c0.198,0.193,0.202,0.509,0.009,0.707
			C31.118,21.266,30.988,21.316,30.858,21.316z"/>
		<path style="fill:#004E5F;" d="M32.953,19.169c-0.126,0-0.252-0.047-0.349-0.142l-2.147-2.095
			c-0.198-0.193-0.202-0.509-0.009-0.707c0.194-0.198,0.51-0.201,0.707-0.009l2.147,2.095c0.198,0.193,0.202,0.509,0.009,0.707
			C33.213,19.119,33.082,19.169,32.953,19.169z"/>
		<path style="fill:#004E5F;" d="M35.047,17.021c-0.125,0-0.252-0.047-0.349-0.142l-2.147-2.095
			c-0.198-0.193-0.202-0.509-0.009-0.707c0.194-0.198,0.511-0.201,0.707-0.009l2.147,2.095c0.197,0.193,0.201,0.509,0.009,0.707
			C35.307,16.971,35.178,17.021,35.047,17.021z"/>
		<path style="fill:#004E5F;" d="M16.874,30.027c-0.223,0-0.426-0.15-0.484-0.376c-0.031-0.12-0.706-2.984,3.405-7.294
			c2.458-2.579,5.348-3.962,7.941-3.791c0.275,0.018,0.484,0.256,0.466,0.532s-0.266,0.472-0.532,0.466
			c-2.288-0.153-4.898,1.12-7.152,3.482c-3.672,3.851-3.166,6.332-3.16,6.356c0.068,0.267-0.093,0.54-0.36,0.608
			C16.957,30.022,16.915,30.027,16.874,30.027z"/>
	</g>
</g>
</svg>
