<svg version="1.1" id="Layer_1" xmlns="http://www.w3.org/2000/svg" xmlns:xlink="http://www.w3.org/1999/xlink" xml:space="preserve">
<g id="big_icon">
	<g>
		<path style="fill:none;stroke:#004E5F;stroke-width:2;stroke-linecap:round;stroke-linejoin:round;stroke-miterlimit:10;" d="
			M17.588,30.523"/>
		<g>
			<path style="fill:#004E5F;" d="M6.013,43.45c-0.197,0-0.392-0.058-0.558-0.17l-5.492-3.688c-0.459-0.308-0.58-0.929-0.272-1.388
				l11.73-17.472c1.067-1.592,2.948-1.774,5.077-0.342l0.09,0.059c0.64,0.429,1.496,1.12,2.016,2.018
				c0.605,1.051,0.596,2.141-0.028,3.069L6.843,43.008c-0.147,0.22-0.377,0.373-0.638,0.424C6.142,43.443,6.077,43.45,6.013,43.45z
				 M1.908,38.49l3.832,2.572l11.175-16.641c0.142-0.21,0.233-0.472-0.044-0.954c-0.256-0.442-0.748-0.921-1.386-1.35l-0.091-0.06
				c-0.629-0.422-1.189-0.65-1.591-0.65c-0.212,0-0.462,0.052-0.722,0.44L1.908,38.49z"/>
			<path style="fill:#004E5F;" d="M17.787,22.945c-0.192,0-0.387-0.055-0.559-0.171c-0.043-0.03-0.084-0.062-0.121-0.097
				c-0.091-0.025-0.196-0.05-0.307-0.079c-0.477-0.122-0.97-0.249-1.315-0.481l-0.091-0.06c-0.432-0.291-0.699-0.761-0.895-1.104
				c-0.004-0.008-0.009-0.015-0.013-0.022c-0.001,0-0.001,0-0.001,0c-0.459-0.307-0.582-0.927-0.275-1.386
				c0,0,0.002-0.001,0.002-0.002l4.07-6.061c0.297-0.442,0.887-0.575,1.346-0.3l2.838,1.705c0.234,0.141,0.4,0.373,0.461,0.64
				c0.059,0.267,0.006,0.547-0.146,0.775l-4.163,6.2c-0.001,0.001-0.001,0.002-0.003,0.003
				C18.422,22.792,18.107,22.945,17.787,22.945z M16.284,20.046c0.077,0.135,0.183,0.311,0.243,0.368l0.061,0.037
				c0.107,0.057,0.5,0.158,0.711,0.212c0.041,0.011,0.084,0.021,0.125,0.032l3.111-4.634l-1.122-0.674L16.284,20.046z"/>
			<path style="fill:#004E5F;" d="M26.47,21.889c-0.021,0-0.042,0-0.063-0.002c-0.354-0.022-0.671-0.231-0.831-0.549
				c0,0-0.359-0.716-0.926-1.87c-0.142-0.289-0.137-0.627,0.016-0.911c0.137-0.257,0.523-1.138-0.256-1.662
				c-0.439-0.294-1.084-0.321-1.516-0.066c-0.314,0.186-0.707,0.186-1.021-0.001l-6.111-3.636c-0.236-0.141-0.404-0.372-0.465-0.64
				s-0.008-0.549,0.146-0.777l1.257-1.87c0.113-0.313,0.789-2.772-4.158-6.095c-0.187-0.125-0.326-0.31-0.395-0.524
				c-0.111-0.347-0.428-1.543,0.181-2.378c0.546-0.75,1.534-0.899,2.862-0.306c0.076,0.035,0.148,0.079,0.215,0.131l11.499,9.115
				c0.235,0.183,0.376,0.461,0.386,0.759c0.014,0.473,0.199,0.832,0.551,1.066c0.452,0.305,0.982,0.251,1.474-0.109
				c0.136-0.1,0.296-0.164,0.462-0.186c1.258-0.164,2.461-0.232,2.512-0.235c0.393-0.015,0.736,0.175,0.925,0.503
				c0.188,0.33,0.173,0.738-0.039,1.053L27.3,21.446C27.113,21.724,26.802,21.889,26.47,21.889z M23.586,14.649
				c0.695,0,1.366,0.202,1.938,0.585c1.138,0.766,1.59,2.094,1.237,3.425l3.583-5.335c-0.025,0.003-0.052,0.006-0.077,0.009
				c-1.117,0.705-2.483,0.713-3.543,0.001c-0.756-0.507-1.238-1.266-1.387-2.171l-2.141-1.666l-8.935-7.117
				C14.146,2.333,14.05,2.3,13.974,2.278c0.003,0.032,0.007,0.064,0.012,0.098c6.503,4.532,4.562,8.327,4.474,8.488l-0.769,1.149
				l4.756,2.829C22.807,14.715,23.191,14.649,23.586,14.649z"/>
		</g>
	</g>
	<g>
		<g>
			<path style="fill:#004E5F;" d="M36.506,37.067c-0.281,0-0.553-0.119-0.745-0.333l-7.218-8.074
				c-0.238-0.268-0.316-0.644-0.202-0.984l3.481-10.374c0.111-0.335,0.393-0.585,0.737-0.66l10.698-2.301
				c0.354-0.076,0.717,0.043,0.955,0.311l7.218,8.074c0.239,0.268,0.317,0.644,0.202,0.984l-3.479,10.373
				c-0.112,0.336-0.394,0.586-0.737,0.66l-10.699,2.301C36.646,37.061,36.576,37.067,36.506,37.067z M30.422,27.762l6.442,7.205
				l9.573-2.059l3.115-9.282l-6.443-7.207l-9.572,2.059L30.422,27.762z"/>
			<path style="fill:#004E5F;" d="M39.897,30.798c-1.429,0-2.794-0.61-3.746-1.677c-0.895-0.998-1.346-2.287-1.271-3.627
				c0.074-1.34,0.667-2.57,1.667-3.463c0.922-0.825,2.11-1.279,3.347-1.279c1.43,0,2.795,0.611,3.746,1.675
				c0.895,1,1.346,2.29,1.271,3.629c-0.075,1.34-0.667,2.57-1.668,3.464C42.322,30.344,41.133,30.798,39.897,30.798z M39.895,22.751
				c-0.743,0-1.459,0.273-2.014,0.77c-0.602,0.538-0.958,1.278-1.004,2.084c-0.045,0.807,0.227,1.582,0.766,2.184
				c1.067,1.195,3.07,1.31,4.268,0.239c0.603-0.538,0.959-1.278,1.004-2.084s-0.227-1.582-0.764-2.184
				C41.577,23.119,40.756,22.751,39.895,22.751z"/>
		</g>
		<g>
			<path style="fill:#004E5F;" d="M19.873,48.363c-0.277,0-0.545-0.115-0.737-0.323l-5.075-5.528
				c-0.243-0.264-0.326-0.639-0.216-0.981l2.269-7.071c0.11-0.342,0.395-0.6,0.746-0.673l7.344-1.544
				c0.347-0.075,0.704,0.041,0.943,0.302l5.074,5.528c0.242,0.264,0.325,0.639,0.215,0.98l-2.268,7.072
				c-0.109,0.342-0.395,0.6-0.746,0.673l-7.344,1.544C20.01,48.357,19.941,48.363,19.873,48.363z M15.927,41.588l4.298,4.68
				l6.217-1.307l1.912-5.965l-4.296-4.68l-6.218,1.307L15.927,41.588z"/>
			<path style="fill:#004E5F;" d="M22.063,43.525c-0.337,0-0.672-0.053-0.996-0.156c-0.828-0.266-1.505-0.838-1.902-1.611
				c-0.399-0.774-0.473-1.658-0.205-2.487c0.434-1.354,1.68-2.265,3.102-2.265c0.338,0,0.673,0.053,0.997,0.157
				c0.828,0.266,1.503,0.839,1.901,1.613s0.471,1.657,0.205,2.485C24.73,42.615,23.483,43.525,22.063,43.525z M22.061,38.006
				c-0.985,0-1.85,0.631-2.15,1.57c-0.184,0.575-0.134,1.188,0.143,1.725c0.275,0.535,0.744,0.932,1.318,1.115
				c1.177,0.379,2.469-0.299,2.841-1.46c0.185-0.574,0.134-1.186-0.142-1.723c-0.276-0.536-0.744-0.935-1.318-1.118
				C22.527,38.043,22.294,38.006,22.061,38.006z"/>
		</g>
	</g>
</g>
</svg>
