<svg version="1.1" xmlns="http://www.w3.org/2000/svg" xmlns:xlink="http://www.w3.org/1999/xlink" xml:space="preserve">
<g id="small_icon">
	<path fill="#004E5F" d="M10,17h2c0.552,0,1-0.448,1-1s-0.448-1-1-1h-2c-0.552,0-1,0.448-1,1S9.448,17,10,17z"/>
	<path fill="#004E5F" d="M15.115,20h-1c0,0-0.455,0.576-1.058,0.576c-0.583,0-1.058-0.482-1.058-0.907V19h-1v0.669
		c0,0.334-0.591,0.88-1.281,0.88C9.106,20.549,8.661,20,8.661,20h-1c0,1,0.865,1.549,2.058,1.549c0.635,0,1.288-0.283,1.734-0.719
		c0.374,0.441,0.945,0.746,1.605,0.746C14.23,21.576,15.115,21,15.115,20z"/>
	<circle fill="#004E5F" cx="6.49" cy="11.022" r="1.024"/>
	<circle fill="#004E5F" cx="16.283" cy="11.022" r="1.024"/>
	<path fill="#004E5F" d="M26.072,30.881c-0.517,0-1.072-0.178-1.072-0.602V29h-0.491l0.579-0.276L25.44,28h-0.002
		c0.027,0,0.046-0.323,0.046-0.406c0-0.225-0.114-0.594-0.255-0.594H23.29c-0.141,0-0.255,0.369-0.255,0.594
		c0,0.083,0.019,0.406,0.046,0.406h-0.002l0.339,0.656L24.043,29H24v1.279c0,0.336-0.559,0.727-1.253,0.727
		c-0.645,0-1.072-1.006-1.072-1.006h-1c0,1,0.886,2.006,2.072,2.006c0.697,0,1.325-0.26,1.742-0.654
		c0.368,0.33,0.917,0.529,1.583,0.529c1.123,0,2.071-0.881,2.071-1.881h-1C27.144,30,26.703,30.881,26.072,30.881z"/>
	<circle fill="#004E5F" cx="21.18" cy="24.081" r="1.024"/>
	<circle fill="#004E5F" cx="27.709" cy="24.081" r="1.024"/>
	<path fill="#004E5F" d="M32.687,20.098l0.124-0.473c0.358-1.361,0.279-2.991-0.216-4.472c-0.246-0.736-0.964-2.486-2.304-2.838
		c-1.609-0.424-3.373,1.165-4.348,3.784c-0.518-0.079-1.043-0.132-1.583-0.132c-0.638,0-1.261,0.073-1.875,0.184
		c-0.151-0.285-0.313-0.561-0.486-0.826v-5.275C22,8,20.776,6.113,19,5.01V4.87c0-2.96-1.646-5.276-3.746-5.276
		c-1.83,0-3.352,1.89-3.677,4.406H9.563C9.232,1.484,7.681-0.406,5.817-0.406C3.712-0.406,2,1.959,2,4.87v0.699
		c-1.225,1.107-2,2.703-2,4.48v5.402c0,2.983,2.134,5.496,5.075,5.973l0.009-0.057C5.411,22.852,6.705,24,8.205,24h5.963
		c-0.194,0.803-0.302,1.625-0.302,2.463c0,5.787,4.708,10.495,10.496,10.495s10.495-4.708,10.495-10.495
		C34.856,24.068,34.041,21.865,32.687,20.098z M29.771,14.246c0.467,0.191,1.418,2.136,1.234,4.1
		c-0.916-0.751-1.966-1.341-3.102-1.75C28.578,14.938,29.517,14.176,29.771,14.246z M15.254,1.594c0.721,0,1.514,1.026,1.703,2.574
		C16.496,4.062,16.021,4,15.535,4H13.6C13.847,2.552,14.591,1.594,15.254,1.594z M5.817,1.594c0.676,0,1.459,0.958,1.72,2.406H6.052
		c-0.709,0-1.387,0.129-2.02,0.354C4.189,2.745,5.041,1.594,5.817,1.594z M5,16.282v3.067c-1.757-0.47-3-2.041-3-3.899v-5.402
		C2,7.816,3.818,6,6.052,6h9.482C17.872,6,20,7.93,20,10.049v5.016l-0.042,0.84c-0.2,1.517-1.371,2.875-2.958,3.388v-3.011
		c0-2.177-1.543-3.057-3-3.18V9.266C14,7.847,13.036,7,11.42,7h-0.438C9.498,7,8,7.701,8,9.266v3.836
		C6.543,13.225,5,14.105,5,16.282z M14.198,23H8.205C7.03,23,6,21.898,6,20.643v-4.36C6,14.311,7.635,14,8.436,14
		c0.002,0,0.005,0,0.007,0C8.728,14,9,13.888,9,13.593V9.266C9,8.036,10.779,8,10.982,8h0.438C13,8,13,8.953,13,9.266v4.327
		c0,0.324,0.341,0.568,0.636,0.481l0.003,0.013c0.71,0,2.361,0.214,2.361,2.195v4.36c0,0.893-0.324,1.787-1.024,2.166l-0.501,0.158
		C14.384,22.98,14.297,23,14.198,23z M24.361,34.958c-4.685,0-8.496-3.812-8.496-8.495c0-1.062,0.194-2.1,0.577-3.083l0.952-2.106
		c1.482-0.42,2.723-1.371,3.547-2.575c1.078-0.477,2.224-0.731,3.42-0.732c4.684,0,8.495,3.812,8.495,8.496
		C32.856,31.146,29.045,34.958,24.361,34.958z"/>
	<path fill="#004E5F" d="M21.445,28.189c0.165,0,0.316-0.109,0.362-0.276c0.055-0.2-0.063-0.406-0.263-0.461l-4.196-1.147
		c-0.202-0.053-0.406,0.062-0.461,0.263c-0.055,0.2,0.063,0.406,0.263,0.461l4.196,1.147C21.379,28.185,21.412,28.189,21.445,28.189
		z"/>
	<path fill="#004E5F" d="M21.55,29.368c-0.034-0.204-0.229-0.342-0.431-0.31l-3.091,0.51c-0.204,0.034-0.343,0.227-0.309,0.432
		c0.03,0.184,0.189,0.314,0.37,0.314c0.021,0,0.041-0.002,0.062-0.006l3.091-0.51C21.445,29.766,21.583,29.572,21.55,29.368z"/>
	<path fill="#004E5F" d="M32.416,26.567c-0.055-0.2-0.261-0.315-0.461-0.263l-4.196,1.147c-0.2,0.055-0.317,0.261-0.263,0.461
		c0.046,0.167,0.197,0.276,0.361,0.276c0.033,0,0.066-0.005,0.1-0.014l4.195-1.147C32.353,26.974,32.471,26.768,32.416,26.567z"/>
	<path fill="#004E5F" d="M31.275,29.568l-3.092-0.51c-0.199-0.033-0.396,0.105-0.431,0.31s0.104,0.397,0.31,0.431l3.09,0.51
		c0.021,0.004,0.041,0.006,0.062,0.006c0.18,0,0.339-0.131,0.369-0.314C31.617,29.795,31.479,29.603,31.275,29.568z"/>
</g>
</svg>
