<svg version="1.1" id="Layer_1" xmlns="http://www.w3.org/2000/svg" xmlns:xlink="http://www.w3.org/1999/xlink" xml:space="preserve">
<g id="big_icon">
	<path style="fill:#004E5F;" d="M25.53,50.676c-0.099,0-0.198-0.016-0.295-0.045c-10.044-3.098-8.964-12.227-8.952-12.318
		c0.063-0.473,0.448-0.835,0.923-0.867c3.444-0.238,6.755-4.225,7.861-5.692c-1.696-2.635-2.204-4.866-1.509-6.638
		c0.855-2.184,3.184-2.719,3.283-2.74c0.111-0.025,0.227-0.031,0.341-0.016c0.521,0.066,1.038,0.1,1.537,0.1
		c4.9,0,7.194-3.154,7.29-3.288c3.36-4.263,6.916-6.401,10.6-6.401c3.352,0,5.508,1.839,5.598,1.918
		c0.398,0.345,0.46,0.94,0.141,1.36L26.326,50.28C26.134,50.533,25.838,50.676,25.53,50.676z M18.229,39.32
		c0.003,1.908,0.636,6.924,6.938,9.18l24.945-32.816c-0.739-0.409-1.964-0.914-3.503-0.914c-3.041,0-6.068,1.883-8.996,5.595
		c-0.082,0.121-2.912,4.094-8.894,4.094c-0.517,0-1.05-0.031-1.584-0.091c-0.362,0.12-1.351,0.525-1.722,1.492
		c-0.47,1.227,0.115,3.075,1.693,5.346c0.234,0.338,0.238,0.785,0.008,1.128C26.941,32.592,23.02,38.359,18.229,39.32z"/>
	<path style="fill:#004E5F;" d="M29.51,53.701c-0.21,0-0.423-0.066-0.604-0.204l-3.98-3.026c-0.212-0.16-0.351-0.397-0.387-0.66
		c-0.035-0.264,0.035-0.529,0.195-0.74l26.021-34.233c0.334-0.439,0.962-0.525,1.4-0.191l3.981,3.026
		c0.212,0.16,0.351,0.398,0.386,0.661c0.036,0.263-0.034,0.529-0.195,0.74L30.307,53.307C30.111,53.564,29.813,53.701,29.51,53.701z
		 M26.932,49.484L29.32,51.3l24.811-32.641l-2.389-1.815L26.932,49.484z"/>
	<path style="fill:#004E5F;" d="M31.39,28c-0.549,0-0.995-0.332-1-0.881l-0.046-6.01C30.34,20.558,30.784,20,31.336,20
		c0.004,0,0.006,0,0.008,0c0.549,0,0.996,0.601,1,1.149l0.046,5.875C32.395,27.577,31.949,28,31.397,28
		C31.395,28,31.393,28,31.39,28z"/>
	<path style="fill:#004E5F;" d="M35.379,25c-0.535,0-0.979-0.192-0.999-0.731l-0.235-6.04c-0.021-0.552,0.408-0.958,0.961-0.98
		c0.546-0.008,1.017,0.438,1.037,0.99l0.236,5.939C36.399,24.73,35.969,25,35.417,25C35.404,25,35.391,25,35.379,25z"/>
	<path style="fill:#004E5F;" d="M32.234,49.619c-0.105,0-0.212-0.033-0.303-0.103l-3.98-3.026c-0.221-0.166-0.263-0.48-0.096-0.7
		c0.166-0.22,0.479-0.263,0.701-0.095l3.98,3.025c0.22,0.167,0.262,0.48,0.096,0.701C32.534,49.551,32.385,49.619,32.234,49.619z"/>
	<path style="fill:#004E5F;" d="M35.26,45.638c-0.105,0-0.212-0.033-0.303-0.103l-3.98-3.025c-0.22-0.166-0.262-0.48-0.096-0.7
		c0.167-0.22,0.48-0.263,0.701-0.095l3.98,3.025c0.22,0.166,0.262,0.48,0.096,0.7C35.56,45.57,35.41,45.638,35.26,45.638z"/>
	<path style="fill:#004E5F;" d="M37.68,42.453c-0.105,0-0.211-0.033-0.302-0.102l-3.98-3.025c-0.22-0.168-0.263-0.48-0.095-0.701
		c0.166-0.22,0.48-0.262,0.7-0.096l3.98,3.026c0.22,0.167,0.263,0.48,0.095,0.7C37.98,42.386,37.831,42.453,37.68,42.453z"/>
	<path style="fill:#004E5F;" d="M39.496,40.064c-0.105,0-0.212-0.033-0.303-0.102l-3.98-3.025c-0.22-0.167-0.262-0.48-0.096-0.701
		c0.168-0.22,0.48-0.262,0.701-0.095l3.98,3.025c0.22,0.167,0.262,0.48,0.096,0.7C39.796,39.997,39.646,40.064,39.496,40.064z"/>
	<path style="fill:#004E5F;" d="M42.521,36.084c-0.105,0-0.211-0.033-0.303-0.102l-3.98-3.025c-0.22-0.168-0.262-0.48-0.096-0.701
		c0.168-0.22,0.48-0.263,0.701-0.096l3.98,3.026c0.221,0.167,0.263,0.48,0.096,0.7C42.822,36.017,42.672,36.084,42.521,36.084z"/>
	<path style="fill:#004E5F;" d="M45.547,32.104c-0.105,0-0.211-0.033-0.303-0.102l-3.98-3.026c-0.219-0.167-0.262-0.48-0.095-0.701
		c0.167-0.22,0.479-0.263,0.7-0.095l3.98,3.026c0.221,0.167,0.263,0.48,0.096,0.7C45.848,32.036,45.697,32.104,45.547,32.104z"/>
	<path style="fill:#004E5F;" d="M47.968,28.919c-0.105,0-0.212-0.033-0.302-0.102l-3.981-3.025c-0.22-0.167-0.263-0.48-0.095-0.701
		c0.166-0.219,0.48-0.263,0.7-0.095l3.981,3.025c0.219,0.167,0.262,0.48,0.095,0.701C48.268,28.852,48.119,28.919,47.968,28.919z"/>
	<path style="fill:#004E5F;" d="M50.389,25.735c-0.105,0-0.212-0.033-0.303-0.102l-3.98-3.026c-0.22-0.167-0.262-0.48-0.096-0.701
		c0.168-0.22,0.48-0.263,0.701-0.095l3.98,3.026c0.22,0.167,0.262,0.48,0.096,0.701C50.688,25.667,50.539,25.735,50.389,25.735z"/>
	<path style="fill:#004E5F;" d="M52.809,22.551c-0.105,0-0.211-0.033-0.302-0.102l-3.981-3.026c-0.219-0.167-0.262-0.48-0.095-0.701
		s0.479-0.262,0.7-0.095l3.981,3.026c0.22,0.167,0.263,0.48,0.095,0.701C53.109,22.483,52.96,22.551,52.809,22.551z"/>
	<path style="fill:#004E5F;" d="M30.643,42.629c-0.172,0-0.338-0.09-0.432-0.249c-0.105-0.185-2.56-4.582,2.264-10.929
		c4.086-5.376,7.176-5.462,9.903-5.538c0.325-0.009,0.647-0.018,0.968-0.036c0.269-0.011,0.512,0.195,0.527,0.47
		c0.017,0.276-0.193,0.512-0.47,0.528c-0.329,0.019-0.662,0.028-0.998,0.038c-2.624,0.073-5.339,0.148-9.134,5.144
		c-4.396,5.785-2.285,9.661-2.193,9.823c0.135,0.239,0.053,0.545-0.186,0.682C30.813,42.607,30.728,42.629,30.643,42.629z"/>
	<g>
		<g>
			<path style="fill:none;stroke:#004E5F;stroke-width:2;stroke-linecap:round;stroke-linejoin:round;stroke-miterlimit:10;" d="
				M18.588,30.523"/>
			<g>
				<path style="fill:#004E5F;" d="M7.013,43.45c-0.197,0-0.392-0.058-0.558-0.17l-5.492-3.688c-0.459-0.308-0.58-0.929-0.272-1.388
					l11.73-17.472c1.067-1.592,2.948-1.774,5.077-0.342l0.09,0.059c0.64,0.429,1.496,1.12,2.016,2.018
					c0.605,1.051,0.596,2.141-0.028,3.069L7.843,43.008c-0.147,0.22-0.377,0.373-0.638,0.424C7.142,43.443,7.077,43.45,7.013,43.45z
					 M2.908,38.49l3.832,2.572l11.175-16.641c0.142-0.21,0.233-0.472-0.044-0.954c-0.256-0.442-0.748-0.921-1.386-1.35l-0.091-0.06
					c-0.629-0.422-1.189-0.65-1.591-0.65c-0.212,0-0.462,0.052-0.722,0.44L2.908,38.49z"/>
				<path style="fill:#004E5F;" d="M18.787,22.945c-0.192,0-0.387-0.055-0.559-0.171c-0.043-0.03-0.084-0.062-0.121-0.097
					c-0.091-0.025-0.196-0.05-0.307-0.079c-0.477-0.122-0.97-0.249-1.315-0.481l-0.091-0.06c-0.432-0.291-0.699-0.761-0.895-1.104
					c-0.004-0.008-0.009-0.015-0.013-0.022c-0.001,0-0.001,0-0.001,0c-0.459-0.307-0.582-0.927-0.275-1.386
					c0,0,0.002-0.001,0.002-0.002l4.07-6.061c0.297-0.441,0.888-0.574,1.346-0.3l2.838,1.705c0.234,0.141,0.4,0.373,0.461,0.64
					c0.059,0.267,0.006,0.547-0.146,0.775l-4.163,6.2c-0.001,0.001-0.001,0.002-0.003,0.003
					C19.422,22.792,19.107,22.945,18.787,22.945z M17.284,20.046c0.077,0.135,0.183,0.311,0.243,0.368l0.061,0.037
					c0.107,0.057,0.5,0.158,0.711,0.212c0.041,0.011,0.084,0.021,0.125,0.032l3.111-4.634l-1.122-0.674L17.284,20.046z"/>
				<path style="fill:#004E5F;" d="M27.47,21.889c-0.021,0-0.042,0-0.063-0.002c-0.354-0.022-0.671-0.231-0.831-0.549
					c0,0-0.359-0.716-0.926-1.87c-0.142-0.289-0.137-0.627,0.016-0.911c0.137-0.257,0.523-1.138-0.256-1.662
					c-0.439-0.294-1.084-0.321-1.516-0.066c-0.314,0.187-0.707,0.186-1.021-0.001l-6.111-3.636c-0.236-0.141-0.404-0.372-0.465-0.64
					s-0.008-0.549,0.146-0.777l1.257-1.87c0.113-0.313,0.789-2.772-4.158-6.095c-0.187-0.125-0.326-0.31-0.395-0.524
					c-0.111-0.347-0.428-1.543,0.181-2.378c0.547-0.749,1.534-0.899,2.862-0.306c0.076,0.035,0.148,0.079,0.215,0.131l11.499,9.115
					c0.235,0.183,0.376,0.461,0.386,0.759c0.014,0.473,0.199,0.832,0.551,1.066c0.452,0.305,0.982,0.251,1.474-0.109
					c0.136-0.1,0.296-0.164,0.462-0.186c1.258-0.164,2.461-0.232,2.512-0.235c0.391-0.019,0.736,0.174,0.925,0.503
					c0.188,0.33,0.173,0.738-0.039,1.053L28.3,21.446C28.113,21.724,27.802,21.889,27.47,21.889z M24.586,14.649
					c0.695,0,1.366,0.202,1.938,0.585c1.138,0.766,1.59,2.094,1.237,3.425l3.583-5.335c-0.025,0.003-0.052,0.006-0.077,0.009
					c-1.117,0.705-2.483,0.713-3.543,0.001c-0.756-0.507-1.238-1.266-1.387-2.171l-2.141-1.666l-8.935-7.117
					C15.146,2.333,15.05,2.3,14.974,2.278c0.003,0.032,0.007,0.064,0.012,0.098c6.503,4.532,4.562,8.327,4.474,8.488l-0.769,1.149
					l4.756,2.829C23.807,14.715,24.191,14.649,24.586,14.649z"/>
			</g>
		</g>
	</g>
</g>
</svg>
