<svg version="1.1" xmlns="http://www.w3.org/2000/svg" xmlns:xlink="http://www.w3.org/1999/xlink" xml:space="preserve">
<g id="small_icon">
	<path fill="#004E5F" d="M8.919,10.388c-0.018-0.01-0.04-0.021-0.062-0.032c-0.124-0.074-0.363-0.279-0.179-1.146
		c0.094-0.605,0.124-1.223,0.089-1.792c0-0.029-0.001-0.083-0.005-0.112C8.604,5.964,8.355,4.58,8.019,3.189
		c0.207-0.461,0.23-0.964,0.07-1.47c0.018-0.031,0.04-0.058,0.054-0.091C8.437,0.893,8.161,0.326,7.424-0.04
		C7.321-0.091,7.207,0,7.091,0H4.61C4.495,0,4.38-0.091,4.277-0.04C3.54,0.327,3.264,0.952,3.558,1.688
		c0.013,0.033,0.039,0.025,0.056,0.056c-0.162,0.508-0.139,0.998,0.068,1.46c-0.04,0.166-0.073,0.324-0.11,0.49
		C3.547,3.74,3.517,3.78,3.503,3.834C3.266,4.792,2.625,7.562,2.889,8.877c0.192,0.453-0.115,1.229-0.284,1.585L2.368,9.709
		C2.284,9.445,2.006,9.302,1.74,9.382c-0.263,0.083-0.41,0.364-0.327,0.627l0.625,1.984c0.042,0.131,0.135,0.239,0.259,0.299
		c0.069,0.034,0.144,0.05,0.218,0.05c0.06,0,0.12-0.011,0.177-0.032l2.312-0.875c0.258-0.098,0.389-0.386,0.291-0.645
		s-0.388-0.389-0.645-0.291L3.967,10.76c0.183-0.364,0.325-0.854,0.411-1.5L4.315,8.425C4.173,8.125,4.966,4.232,5.207,3.268
		c0.051-0.204,0.014-0.42-0.103-0.596C5,2.514,4.933,2.185,5.144,1.812C5.267,1.593,5.256,1,5.158,1h1.385
		C6.445,1,6.434,1.593,6.558,1.812c0.221,0.392,0.136,0.647,0.039,0.793c-0.117,0.176-0.154,0.425-0.103,0.63
		C6.85,4.66,7.111,6.094,7.268,7.446C7.298,7.952,7.273,8.47,7.203,8.93c-0.348,1.632,0.323,2.396,0.947,2.746
		c0.011,0.006,0.022,0.014,0.033,0.02c0.969,0.629,1.458,1.325,1.495,2.098c0.049,5.045,0.074,13.044-0.037,13.958
		C9.453,28.006,9.122,28,8.371,28H3.298c-0.511,0-0.883,0.135-1.134-0.125c-0.03-0.031-0.059,0.05-0.086,0.015
		c-0.074-0.731-0.128-4.247-0.07-12.317c0.003-0.418,0.005-0.604,0.008-0.711c0.005-0.04,0.008-0.069,0.007-0.11
		C2.012,14.344,1.677,14,1.27,14c-0.002,0-0.004,0-0.006,0c-0.522,0-0.68,0-0.73,1H0.526c-0.014,0.2-0.016,0.395-0.018,0.668
		C0.419,27.993,0.583,28.381,0.671,28.602c0.018,0.044,0.04,0.074,0.066,0.115c0.104,0.162,0.219,0.303,0.347,0.436
		c0.526,0.543,1.233,0.834,2.078,0.834C3.217,29.986,3.273,30,3.329,30H8.34c1.471,0,2.237-0.671,2.624-1.277
		c0.025-0.039,0.047-0.092,0.064-0.135c0.189-0.475,0.24-5.459,0.148-14.831C11.115,12.44,10.364,11.308,8.919,10.388z"/>
	<path fill="#004E5F" d="M18.892,13.751c-0.062-1.316-0.812-2.443-2.258-3.364c-0.018-0.01-0.04-0.021-0.062-0.032
		c-0.124-0.074-0.363-0.279-0.179-1.146c0.094-0.605,0.124-1.223,0.089-1.792c0-0.029-0.001-0.083-0.005-0.112
		c-0.157-1.343-0.407-2.727-0.743-4.117c0.207-0.461,0.23-0.964,0.07-1.47c0.018-0.031,0.04-0.058,0.054-0.091
		c0.294-0.736,0.019-1.302-0.718-1.668C15.036-0.091,14.921,0,14.806,0h-2.48c-0.116,0-0.23-0.091-0.333-0.04
		c-0.737,0.366-1.013,0.992-0.719,1.727c0.013,0.033,0.039,0.026,0.056,0.056c-0.162,0.508-0.139,0.998,0.068,1.46
		c-0.337,1.394-0.587,2.775-0.746,4.178c-0.037,0.613-0.007,1.227,0.095,1.873c0.075,0.353,0.12,0.816-0.093,1.029
		c-0.293,0.293-0.293,0.767,0,1.06c0.146,0.146,0.338,0.219,0.53,0.219s0.384-0.074,0.53-0.22c0.553-0.553,0.721-1.361,0.507-2.363
		c-0.078-0.5-0.103-1.01-0.076-1.499c0.159-1.367,0.42-2.784,0.777-4.211c0.051-0.205,0.014-0.421-0.103-0.597
		c-0.104-0.157-0.171-0.486,0.039-0.859C12.982,1.593,12.971,1,12.873,1h1.385c-0.098,0-0.109,0.593,0.015,0.812
		c0.221,0.392,0.136,0.647,0.039,0.793c-0.117,0.176-0.154,0.425-0.103,0.63c0.356,1.424,0.618,2.858,0.775,4.211
		c0.03,0.506,0.005,1.024-0.065,1.483c-0.348,1.632,0.323,2.396,0.947,2.746c0.011,0.006,0.022,0.014,0.033,0.02
		c0.969,0.629,1.458,1.325,1.495,2.098c0.049,5.045,0.074,13.044-0.037,13.958C17.168,28.006,16.843,28,16.086,28h-4.042
		c-0.414,0-0.75,0.586-0.75,1s0.336,1,0.75,1h4.011c0.059,0,0.116-0.018,0.172-0.018c1.357,0,2.081-0.688,2.452-1.27
		c0.025-0.04,0.047-0.087,0.064-0.131C18.933,28.108,18.983,23.124,18.892,13.751z"/>
</g>
</svg>
