<svg version="1.1" id="Layer_1" xmlns="http://www.w3.org/2000/svg" xmlns:xlink="http://www.w3.org/1999/xlink" xml:space="preserve">
<g id="big_icon">
	<g>
		<path style="fill:#004E5F;" d="M29.611,22.479c-0.088,0-0.175-0.022-0.255-0.07L8.066,9.785C7.828,9.644,7.75,9.337,7.891,9.1
			l1.197-2.02c0.141-0.237,0.447-0.315,0.686-0.175c0.238,0.141,0.316,0.448,0.176,0.685L9.006,9.18l20.86,12.37
			c0.237,0.141,0.315,0.448,0.175,0.685C29.947,22.392,29.781,22.479,29.611,22.479z"/>
		<path style="fill:#004E5F;" d="M35.78,32.892c-0.151,0-0.304-0.034-0.442-0.103L3.488,17.077
			c-0.495-0.245-0.699-0.844-0.455-1.339l1.625-3.295c0.118-0.238,0.324-0.419,0.576-0.504c0.25-0.085,0.525-0.068,0.764,0.05
			l22.166,10.935l1.29-2.614L7.852,7.503C7.377,7.223,7.22,6.612,7.498,6.137l3.096-5.28c0.135-0.229,0.354-0.396,0.612-0.462
			c0.258-0.068,0.531-0.028,0.761,0.108l26.895,15.945c0.323,0.191,0.512,0.548,0.488,0.923l-0.676,10.739
			c-0.008,0.132-0.043,0.261-0.102,0.379l-1.895,3.844c-0.117,0.238-0.324,0.42-0.576,0.504
			C35.997,32.874,35.889,32.892,35.78,32.892z M5.27,15.726l30.057,14.827l1.364-2.768l0.624-9.928L11.811,2.736L9.727,6.291
			l21.543,12.77c0.45,0.267,0.619,0.834,0.388,1.303l-2.142,4.342c-0.117,0.238-0.324,0.419-0.575,0.504s-0.526,0.067-0.764-0.05
			L6.01,14.225L5.27,15.726z"/>
		<path style="fill:#004E5F;" d="M35.479,27.464c-0.074,0-0.148-0.017-0.221-0.052l-4.393-2.167
			c-0.248-0.122-0.35-0.422-0.227-0.669c0.122-0.247,0.422-0.349,0.669-0.227l4.394,2.167c0.247,0.122,0.35,0.422,0.227,0.669
			C35.841,27.361,35.664,27.464,35.479,27.464z"/>
		<circle style="fill:#004E5F;" cx="35.328" cy="22.067" r="0.345"/>
	</g>
	<polygon style="fill:#004E5F;" points="25,52 0,52 0,22 6,22 6,24 2,24 2,50 23,50 23,46 25,46 	"/>
	<polygon style="fill:#004E5F;" points="29,47 5,47 5,20 13,20 13,22 7,22 7,45 27,45 27,28 29,28 	"/>
</g>
</svg>
