<svg version="1.1" id="Layer_1" xmlns="http://www.w3.org/2000/svg" xmlns:xlink="http://www.w3.org/1999/xlink" xml:space="preserve">
<g id="small_icon">
	<g>
		<path style="fill:#004E5F;" d="M24.363,18.698c-0.087,0-0.174-0.022-0.254-0.07L6.723,8.319C6.485,8.178,6.407,7.872,6.548,7.634
			l0.978-1.649C7.666,5.747,7.973,5.67,8.211,5.81c0.238,0.141,0.316,0.448,0.175,0.685L7.663,7.714l16.955,10.054
			c0.238,0.141,0.316,0.448,0.175,0.685C24.7,18.611,24.534,18.698,24.363,18.698z"/>
		<path style="fill:#004E5F;" d="M29.401,27.292c-0.152,0-0.304-0.034-0.442-0.103L2.951,14.359
			c-0.495-0.245-0.699-0.844-0.455-1.339l1.327-2.69c0.118-0.238,0.325-0.419,0.576-0.504c0.251-0.086,0.526-0.068,0.764,0.05
			l17.936,8.848l0.896-1.818L6.501,6.535C6.027,6.254,5.87,5.644,6.148,5.169l2.527-4.312C8.81,0.628,9.03,0.461,9.288,0.395
			c0.259-0.066,0.532-0.027,0.76,0.108L32.01,13.523c0.324,0.191,0.512,0.548,0.489,0.923l-0.552,8.77
			c-0.008,0.132-0.042,0.261-0.101,0.379l-1.548,3.139c-0.117,0.238-0.324,0.42-0.576,0.504
			C29.618,27.274,29.509,27.292,29.401,27.292z M4.732,13.008l24.214,11.945l1.017-2.063l0.5-7.958L9.893,2.736L8.376,5.322
			l17.435,10.335c0.45,0.267,0.618,0.834,0.387,1.303l-1.749,3.545c-0.117,0.238-0.324,0.419-0.576,0.504
			c-0.251,0.085-0.526,0.067-0.764-0.05L5.175,12.111L4.732,13.008z"/>
		<path style="fill:#004E5F;" d="M29.155,22.768c-0.074,0-0.149-0.017-0.221-0.052l-3.587-1.769
			c-0.248-0.122-0.35-0.422-0.227-0.669c0.122-0.247,0.422-0.349,0.669-0.227l3.587,1.769c0.248,0.122,0.35,0.422,0.227,0.669
			C29.517,22.666,29.339,22.768,29.155,22.768z"/>
		<circle style="fill:#004E5F;" cx="29.031" cy="18.27" r="0.281"/>
	</g>
	<polygon style="fill:#004E5F;" points="21,43 0,43 0,18 5,18 5,20 2,20 2,41 19,41 19,38 21,38 	"/>
	<polygon style="fill:#004E5F;" points="24,39 4,39 4,16 11,16 11,18 6,18 6,37 22,37 22,23 24,23 	"/>
</g>
</svg>
