<svg version="1.1" id="Layer_1" xmlns="http://www.w3.org/2000/svg" xmlns:xlink="http://www.w3.org/1999/xlink" xml:space="preserve">
<g id="small_icon">
	<g>
		<path style="fill:#004E5F;" d="M16.068,27.198c-1.7,0-10.182-0.157-10.182-3.251c0-3.094,8.481-3.251,10.182-3.251
			s10.182,0.157,10.182,3.251C26.25,27.041,17.768,27.198,16.068,27.198z M8.07,23.947c0.834,0.51,3.584,1.251,7.998,1.251
			s7.164-0.741,7.999-1.251c-0.835-0.51-3.585-1.251-7.999-1.251S8.904,23.438,8.07,23.947z"/>
		<path style="fill:#004E5F;" d="M16.068,30.698c-2.772,0-5.393-0.302-7.19-0.829c-0.265-0.078-0.417-0.356-0.339-0.621
			c0.078-0.266,0.357-0.416,0.621-0.34c1.71,0.502,4.229,0.79,6.909,0.79c2.557,0,4.996-0.265,6.692-0.728
			c0.267-0.073,0.542,0.084,0.614,0.352c0.073,0.266-0.084,0.541-0.351,0.613C21.245,30.42,18.709,30.698,16.068,30.698z"/>
		<path style="fill:#004E5F;" d="M16.597,38.798c-6.038,0-16.255-0.958-16.255-4.552l1.003-12.083
			c-0.003-3.509,9.24-4.467,14.702-4.467c5.41,0,14.531,0.94,14.703,4.448l2.104,12.102C32.853,37.84,22.634,38.798,16.597,38.798z
			 M2.346,34.232c0.418,0.908,5.598,2.565,14.251,2.565c8.591,0,13.759-1.634,14.242-2.546l-2.087-12.006
			c-0.203-0.859-4.872-2.55-12.705-2.55S3.544,21.387,3.34,22.256L2.346,34.232z"/>
	</g>
	<g>
		<path style="fill:#004E5F;" d="M19.994,18.563c-1.795,0-3.603-0.534-5.183-1.625c-4.13-2.853-5.169-8.535-2.316-12.665
			c2.853-4.129,8.535-5.167,12.664-2.316c3.517,2.43,4.875,7.052,3.23,10.991l-1.846-0.771c1.283-3.073,0.223-6.679-2.521-8.575
			c-3.223-2.226-7.656-1.415-9.881,1.807c-2.226,3.223-1.415,7.656,1.808,9.882c2.873,1.986,6.717,1.606,9.137-0.9l1.438,1.39
			C24.75,17.618,22.383,18.563,19.994,18.563z"/>
		<path style="fill:#004E5F;" d="M19.905,15.331c-1.137,0-2.28-0.339-3.275-1.026c-2.61-1.803-3.267-5.393-1.464-8.003
			c1.803-2.609,5.392-3.265,8.002-1.463c2.025,1.399,2.937,3.929,2.268,6.295l-0.962-0.271c0.552-1.956-0.202-4.045-1.875-5.201
			c-2.156-1.489-5.121-0.947-6.611,1.208c-1.49,2.157-0.947,5.123,1.209,6.612c1.82,1.256,4.236,1.104,5.878-0.373l0.669,0.743
			C22.656,14.832,21.285,15.331,19.905,15.331z"/>
		<path style="fill:#004E5F;" d="M27.011,16.76c-0.098,0-0.197-0.029-0.284-0.088l-4.937-3.41c-0.227-0.157-0.284-0.469-0.127-0.696
			l1.705-2.468c0.157-0.229,0.468-0.284,0.696-0.127L29,13.381c0.227,0.157,0.284,0.468,0.127,0.695l-1.705,2.468
			C27.326,16.685,27.169,16.76,27.011,16.76z M22.77,12.722l4.114,2.842l1.137-1.646l-4.114-2.842L22.77,12.722z"/>
	</g>
</g>
</svg>
