<svg version="1.1" id="Layer_1" xmlns="http://www.w3.org/2000/svg" xmlns:xlink="http://www.w3.org/1999/xlink" xml:space="preserve">
<g id="big_icon">
	<polygon style="fill:#004E5F;" points="39,42 11,42 11,37 13,37 13,40 37,40 37,2 13,2 13,16 11,16 11,0 39,0 	"/>
	<path style="fill:#004E5F;" d="M46,42h-9V0h9V42z M39,40h5V2h-5V40z"/>
	<path style="fill:#004E5F;" d="M33,38H0V18h33V38z M2,36h29V20H2V36z"/>
	<path style="fill:#004E5F;" d="M22,26H10v-4h12V26z M11,25h10v-2H11V25z"/>
	<path style="fill:#004E5F;" d="M35,37h-4V21h4V37z M32,36h2V22h-2V36z"/>
	<path style="fill:#004E5F;" d="M35,22h-1v-6h-0.435l-0.003-0.503l-0.484-0.006c-0.004-0.033-0.014-0.079-0.023-0.13
		C33.027,15.219,33,15.06,33,14.954v-0.229C33,13.949,32.499,13,31.914,13h-5.156c-0.664,0-1.234,0.826-1.234,1.502
		c0.012,0.329-0.017,0.762,0.002,0.856L25,15.45V16H7v3H6v-4h18.543c-0.008-0.143-0.013-0.303-0.019-0.481
		C24.523,13.321,25.479,12,26.758,12h5.156C33.258,12,34,13.612,34,14.726v0.229c0,0.014,0.002,0.029,0.004,0.046H35V22z"/>
	<polygon style="fill:#004E5F;" points="35,17 34,17 34,10 16,10 16,16 15,16 15,9 35,9 	"/>
</g>
</svg>
