<svg version="1.1" id="Layer_1" xmlns="http://www.w3.org/2000/svg" xmlns:xlink="http://www.w3.org/1999/xlink" xml:space="preserve">
<g id="small_icon">
	<path style="fill:#004E5F;" d="M29,40H0V11h29V40z M2,38h25V13H2V38z"/>
	<path style="fill:#004E5F;" d="M19.5,36.5c-0.276,0-0.5-0.224-0.5-0.5V15c0-0.276,0.224-0.5,0.5-0.5S20,14.724,20,15v21
		C20,36.276,19.776,36.5,19.5,36.5z"/>
	<path style="fill:#004E5F;" d="M20.833,35.416c-0.099,0-0.198-0.029-0.285-0.09c-0.227-0.157-0.283-0.469-0.125-0.695l1.333-1.918
		c0.158-0.227,0.468-0.283,0.696-0.125c0.227,0.158,0.283,0.47,0.125,0.697l-1.333,1.916C21.147,35.342,20.992,35.416,20.833,35.416
		z"/>
	<path style="fill:#004E5F;" d="M26.084,37.333c-0.159,0-0.315-0.075-0.412-0.216l-2.417-3.5c-0.157-0.227-0.1-0.539,0.127-0.695
		c0.226-0.156,0.538-0.102,0.696,0.127l2.417,3.5c0.157,0.227,0.1,0.539-0.127,0.695C26.281,37.305,26.183,37.333,26.084,37.333z"/>
	<path style="fill:#004E5F;" d="M23.5,31.5c-0.276,0-0.5-0.224-0.5-0.5V21c0-0.276,0.224-0.5,0.5-0.5S24,20.724,24,21v10
		C24,31.276,23.776,31.5,23.5,31.5z"/>
	<path style="fill:#004E5F;" d="M21,12h-2V8.875C19,5.084,15.916,2,12.125,2h-0.25C8.084,2,5,5.084,5,8.875V12H3V8.875
		C3,3.981,6.981,0,11.875,0h0.25C17.019,0,21,3.981,21,8.875V12z"/>
	<path style="fill:#004E5F;" d="M26,12h-2V8.875C24,5.084,20.916,2,17.125,2h-0.25C13.084,2,10,5.084,10,8.875V12H8V8.875
		C8,3.981,11.981,0,16.875,0h0.25C22.019,0,26,3.981,26,8.875V12z"/>
</g>
</svg>
