<svg version="1.1" xmlns="http://www.w3.org/2000/svg" xmlns:xlink="http://www.w3.org/1999/xlink" xml:space="preserve">
<g id="small_icon">
	<path fill="#004E5F" d="M11.846,14.658c-0.078,0-0.157-0.009-0.234-0.028L1.611,12.226c-0.537-0.129-0.868-0.669-0.738-1.206
		L3.276,1.018C3.338,0.76,3.5,0.537,3.726,0.398s0.499-0.181,0.756-0.119l2.584,0.622c0.391,0.094,0.687,0.412,0.752,0.809
		l0.099,0.594l0.665-0.595c0.246-0.218,0.582-0.303,0.9-0.227l5.001,1.202c0.258,0.062,0.481,0.224,0.619,0.45
		c0.139,0.227,0.182,0.498,0.12,0.756l-2.404,10.002c-0.062,0.258-0.224,0.48-0.45,0.619C12.21,14.608,12.029,14.658,11.846,14.658z
		 M3.051,10.515l8.057,1.938l1.937-8.058L9.525,3.549l-1.63,1.457C7.625,5.25,7.243,5.325,6.897,5.204
		c-0.344-0.121-0.595-0.42-0.654-0.78L5.955,2.69L4.987,2.458L3.051,10.515z"/>
	<path fill="#004E5F" d="M3.07,20.598c-0.206,0-0.414-0.064-0.593-0.195c-1.991-1.471-2.904-3.976-2.326-6.382l0.722-3
		c0.129-0.537,0.669-0.868,1.206-0.738c0.537,0.129,0.868,0.669,0.738,1.206l-0.722,3c-0.39,1.623,0.226,3.313,1.57,4.305
		c0.444,0.328,0.538,0.954,0.21,1.398C3.679,20.457,3.376,20.598,3.07,20.598z"/>
	<path fill="#004E5F" d="M6.961,21.532c-0.48,0-0.904-0.347-0.985-0.837c-0.09-0.545,0.278-1.059,0.823-1.149
		c1.647-0.273,2.964-1.499,3.354-3.122l0.721-3c0.129-0.537,0.672-0.868,1.206-0.738c0.537,0.129,0.868,0.669,0.738,1.206l-0.721,3
		c-0.578,2.406-2.53,4.221-4.971,4.626C7.071,21.527,7.016,21.532,6.961,21.532z"/>
	<path fill="#004E5F" d="M11.126,17.658c-0.078,0-0.156-0.009-0.235-0.027L0.889,15.226c-0.537-0.129-0.868-0.669-0.738-1.206
		c0.129-0.537,0.673-0.868,1.206-0.738l10.002,2.404c0.537,0.129,0.868,0.669,0.738,1.206
		C11.987,17.351,11.578,17.658,11.126,17.658z"/>
	<path fill="#004E5F" d="M2.757,32.517c-0.235,0-0.475-0.027-0.713-0.085c-0.794-0.191-1.466-0.68-1.893-1.376
		c-0.426-0.696-0.556-1.519-0.365-2.312l2.164-9.002c0.129-0.537,0.672-0.867,1.206-0.738c0.537,0.129,0.868,0.669,0.738,1.206
		L1.73,29.212c-0.066,0.274-0.021,0.559,0.126,0.8c0.147,0.24,0.38,0.41,0.654,0.476c0.566,0.137,1.139-0.214,1.275-0.782
		l2.164-9.001c0.129-0.537,0.672-0.867,1.206-0.738c0.537,0.129,0.868,0.669,0.738,1.206L5.73,30.174
		C5.394,31.573,4.138,32.517,2.757,32.517z"/>
</g>
</svg>
