<svg version="1.1" xmlns="http://www.w3.org/2000/svg" xmlns:xlink="http://www.w3.org/1999/xlink" xml:space="preserve">
<g id="big_icon">
	<path fill="#004E5F" d="M17.164,19.178c-0.078,0-0.156-0.009-0.233-0.028L2.707,15.73c-0.537-0.129-0.868-0.669-0.738-1.206
		L5.387,0.299c0.062-0.258,0.225-0.48,0.451-0.619c0.225-0.138,0.496-0.181,0.756-0.119l3.675,0.884
		c0.391,0.094,0.687,0.412,0.753,0.809l0.266,1.602l1.518-1.357c0.246-0.218,0.582-0.303,0.9-0.227l7.113,1.709
		c0.258,0.062,0.48,0.224,0.618,0.45c0.139,0.227,0.182,0.499,0.12,0.756l-3.42,14.226c-0.062,0.258-0.224,0.48-0.45,0.619
		C17.528,19.128,17.348,19.178,17.164,19.178z M4.146,14.02l12.279,2.953l2.952-12.281l-5.63-1.353l-2.483,2.22
		c-0.271,0.244-0.653,0.32-0.999,0.198c-0.344-0.121-0.594-0.42-0.654-0.78L9.156,2.235L7.098,1.739L4.146,14.02z"/>
	<path fill="#004E5F" d="M4.684,27.625c-0.207,0-0.415-0.064-0.594-0.196c-2.695-1.99-3.931-5.38-3.148-8.637l1.027-4.268
		c0.129-0.538,0.67-0.868,1.205-0.738c0.537,0.129,0.868,0.669,0.738,1.206l-1.025,4.268c-0.595,2.473,0.344,5.049,2.392,6.561
		c0.444,0.328,0.538,0.954,0.21,1.398C5.293,27.484,4.99,27.625,4.684,27.625z"/>
	<path fill="#004E5F" d="M10.218,28.954c-0.48,0-0.904-0.347-0.985-0.837c-0.09-0.545,0.277-1.059,0.822-1.149
		c2.511-0.417,4.518-2.283,5.112-4.757l1.025-4.267c0.13-0.537,0.671-0.868,1.206-0.738c0.537,0.129,0.867,0.669,0.738,1.206
		l-1.025,4.267c-0.783,3.257-3.424,5.714-6.729,6.262C10.327,28.949,10.271,28.954,10.218,28.954z"/>
	<path fill="#004E5F" d="M16.141,23.445c-0.078,0-0.156-0.009-0.235-0.028L1.68,19.998c-0.536-0.129-0.867-0.669-0.738-1.206
		s0.672-0.866,1.207-0.738l14.225,3.419c0.537,0.129,0.867,0.669,0.738,1.206C17.002,23.137,16.592,23.445,16.141,23.445z"/>
	<path fill="#004E5F" d="M4.238,44.576c-0.303,0-0.609-0.035-0.916-0.109c-1.021-0.244-1.884-0.873-2.432-1.768
		c-0.547-0.895-0.714-1.948-0.468-2.968L3.5,26.93c0.129-0.537,0.67-0.869,1.205-0.738c0.537,0.129,0.868,0.668,0.738,1.205
		L2.367,40.199c-0.121,0.501-0.039,1.018,0.229,1.457c0.269,0.438,0.692,0.746,1.192,0.867c1.034,0.247,2.074-0.391,2.323-1.424
		l3.077-12.803c0.129-0.537,0.674-0.867,1.207-0.738c0.536,0.129,0.867,0.67,0.738,1.207L8.057,41.566
		C7.625,43.365,6.012,44.576,4.238,44.576z"/>
</g>
</svg>
