<svg version="1.1" id="Layer_1" xmlns="http://www.w3.org/2000/svg" xmlns:xlink="http://www.w3.org/1999/xlink" xml:space="preserve">
<g id="big_icon">
	<path style="fill:#004E5F;" d="M30.814,36.422L22.92,35.32L0.278,11.006L11.882,0.202L34.509,24.5l0.823,7.717L30.814,36.422z
		 M23.898,33.438l6.25,0.873l3.088-2.877l-0.646-6.059L11.782,3.028l-8.676,8.079L23.898,33.438z"/>
	<path style="fill:#004E5F;" d="M33.01,40.059l-4.195-4.508l5.521-5.139l4.195,4.508L33.01,40.059z M31.641,35.652l1.471,1.58
		l2.593-2.414l-1.471-1.58L31.641,35.652z"/>
	<path style="fill:#004E5F;" d="M25.979,31.539c-0.133,0-0.268-0.054-0.365-0.159c-0.188-0.202-0.178-0.519,0.025-0.706l3.041-2.832
		c0.203-0.189,0.52-0.178,0.707,0.024c0.188,0.202,0.178,0.519-0.025,0.706l-3.041,2.832C26.223,31.494,26.102,31.539,25.979,31.539
		z"/>
	<path style="fill:#004E5F;" d="M24.506,22.835c-0.769,0-1.448-0.166-1.955-0.311c-0.614-0.176-1.23-0.418-1.997-0.786
		c-0.476-0.228-0.933-0.485-1.352-0.72l-0.39-0.218c-1.063-0.575-2.051-0.935-2.853-1.04c-0.4-0.051-0.787-0.039-1.048,0.035
		c-0.108,0.03-0.207,0.073-0.278,0.12l0.019,0.019c-0.893,0.953-2.523,1.004-3.477,0.109c-0.479-0.449-0.754-1.058-0.774-1.715
		c-0.021-0.656,0.216-1.281,0.666-1.76c0.383-0.365,0.597-0.488,0.822-0.619l0.1-0.058c0.246-0.134,0.503-0.248,0.784-0.347
		c0.494-0.168,1.007-0.27,1.531-0.302c0.884-0.057,1.723,0.063,2.649,0.355c1.666,0.543,2.946,1.441,3.876,2.164l0.457,0.367
		c0.33,0.267,0.633,0.512,0.951,0.736c0.53,0.376,0.967,0.643,1.378,0.841c0.497,0.244,0.928,0.384,1.285,0.417
		c0.076,0.012,0.117,0.015,0.156,0.015c0.235,0,0.464-0.096,0.52-0.135l0.215-0.183c0.474-0.4,1.24-0.335,1.639,0.133
		c0.322,0.38,0.367,0.92,0.114,1.347c-0.702,1.181-1.823,1.433-2.604,1.521C24.782,22.83,24.643,22.835,24.506,22.835z
		 M15.481,18.729c0.193,0,0.397,0.013,0.607,0.04c0.937,0.123,2.014,0.511,3.204,1.154l0.402,0.225
		c0.399,0.225,0.836,0.472,1.292,0.689c0.714,0.343,1.281,0.567,1.84,0.726c0.521,0.149,1.244,0.324,2.018,0.259
		c0.674-0.075,1.375-0.254,1.841-1.036c0.029-0.049,0.036-0.126-0.017-0.188c-0.083-0.097-0.152-0.083-0.23-0.018l-0.221,0.188
		c-0.26,0.219-0.871,0.44-1.445,0.344c-0.441-0.04-0.99-0.213-1.595-0.509c-0.459-0.222-0.942-0.516-1.517-0.924
		c-0.333-0.235-0.654-0.493-1.002-0.774l-0.446-0.357c-0.862-0.669-2.05-1.505-3.565-1.999c-0.802-0.254-1.522-0.359-2.28-0.31
		c-0.436,0.027-0.861,0.111-1.265,0.249c-0.207,0.074-0.42,0.165-0.635,0.282l-0.077,0.045c-0.203,0.117-0.337,0.195-0.615,0.458
		c-0.247,0.264-0.387,0.635-0.375,1.024c0.012,0.389,0.175,0.75,0.459,1.017c0.519,0.487,1.37,0.512,1.911,0.077l0.051-0.072
		c0.093-0.108,0.16-0.167,0.242-0.226c0.176-0.116,0.368-0.201,0.573-0.259C14.882,18.764,15.166,18.729,15.481,18.729z"/>
	<path style="fill:#004E5F;" d="M0.709,30.604c0.412-0.313,0.682-0.479,1.026-0.688c0.328-0.195,0.663-0.375,1.009-0.541
		c0.691-0.333,1.434-0.6,2.234-0.781c0.8-0.18,1.665-0.273,2.564-0.199c0.896,0.075,1.816,0.33,2.633,0.748
		c0.819,0.416,1.521,0.98,2.087,1.59c0.146,0.156,0.27,0.3,0.411,0.476l0.34,0.458c0.227,0.322,0.438,0.666,0.628,1.03
		c0.381,0.725,0.663,1.538,0.796,2.337c0.134,0.799,0.134,1.558,0.112,2.197c-0.024,0.643-0.055,1.172-0.024,1.568
		c0.033,0.398,0.09,0.677,0.274,0.977c0.356,0.597,1.235,1.256,2.185,1.708c0.454,0.218,0.894,0.372,1.29,0.431
		c0.403,0.051,0.748,0.018,1.269-0.121c0.508-0.127,1.244-0.404,2.106-0.438c0.86-0.039,1.682,0.17,2.362,0.449
		c1.379,0.565,2.396,1.408,3.373,2.021c1,0.653,1.992,1.291,3.01,1.797c1.012,0.512,2.035,0.912,3.018,1.086
		c0.985,0.177,1.902,0.094,2.799-0.206c0.447-0.154,0.889-0.374,1.318-0.647c0.215-0.139,0.43-0.282,0.637-0.445l0.305-0.235
		c0.095-0.081,0.127-0.104,0.209-0.187c0.549-0.563,0.686-1.029,0.451-1.886c-0.252-0.826-0.844-1.772-1.57-2.61
		c-0.719-0.845-1.571-1.685-2.416-2.412l-0.04-0.035c-0.419-0.361-0.466-0.993-0.104-1.412c0.32-0.372,0.855-0.45,1.266-0.209
		c1.146,0.673,2.155,1.42,3.121,2.332c0.934,0.926,1.879,1.946,2.439,3.43c0.271,0.733,0.419,1.627,0.256,2.54
		c-0.158,0.914-0.638,1.739-1.191,2.341c-0.123,0.143-0.314,0.325-0.448,0.446l-0.201,0.177l-0.206,0.158
		c-0.271,0.213-0.561,0.412-0.855,0.605c-0.596,0.382-1.247,0.717-1.949,0.963c-1.402,0.521-3.002,0.555-4.4,0.248
		c-1.412-0.299-2.648-0.879-3.783-1.506c-1.13-0.641-2.191-1.316-3.213-2.018c-1.053-0.719-1.965-1.413-2.861-1.754
		c-0.446-0.176-0.836-0.254-1.196-0.234c-0.361,0.014-0.789,0.15-1.445,0.366c-0.642,0.212-1.523,0.376-2.334,0.298
		c-0.818-0.059-1.553-0.277-2.216-0.538c-1.248-0.544-2.572-1.122-3.703-2.481c-0.551-0.672-0.957-1.556-1.129-2.356
		c-0.184-0.804-0.222-1.497-0.291-2.069c-0.125-1.159-0.353-1.821-0.811-2.478c-0.115-0.163-0.246-0.323-0.391-0.482l-0.239-0.248
		l-0.209-0.194c-0.29-0.254-0.58-0.426-0.862-0.531c-0.556-0.197-1.165-0.19-1.939,0.035c-0.38,0.115-0.778,0.293-1.178,0.5
		c-0.199,0.105-0.396,0.221-0.587,0.345c-0.174,0.111-0.411,0.283-0.479,0.345c-1.072,0.957-2.718,0.864-3.676-0.208
		c-0.958-1.073-0.865-2.719,0.208-3.677c0.05-0.045,0.101-0.086,0.153-0.127L0.709,30.604z"/>
</g>
</svg>
