<svg version="1.1" id="Layer_1" xmlns="http://www.w3.org/2000/svg" xmlns:xlink="http://www.w3.org/1999/xlink" xml:space="preserve">
<g id="small_icon">
	<path style="fill:#004E5F;" d="M23.23,27.031l-5.927-0.828L0.706,8.379l8.782-8.177L26.07,18.01l0.619,5.801L23.23,27.031z
		 M18.282,24.32l4.282,0.598l2.03-1.891l-0.442-4.143L9.387,3.028L3.532,8.48L18.282,24.32z"/>
	<path style="fill:#004E5F;" d="M24.708,29.754l-3.408-3.66l4.392-4.088l3.407,3.66L24.708,29.754z M24.127,26.195l0.682,0.732
		l1.464-1.363l-0.682-0.732L24.127,26.195z"/>
	<path style="fill:#004E5F;" d="M19.647,23.352c-0.134,0-0.268-0.054-0.366-0.159c-0.188-0.202-0.177-0.519,0.025-0.706l2.195-2.045
		c0.202-0.188,0.519-0.176,0.707,0.025c0.188,0.202,0.177,0.519-0.025,0.707l-2.195,2.043C19.892,23.307,19.77,23.352,19.647,23.352
		z"/>
	<path style="fill:#004E5F;" d="M18.583,17.069c-0.572,0-1.074-0.123-1.448-0.229c-0.453-0.13-0.904-0.308-1.463-0.576
		c-0.344-0.164-0.675-0.35-0.979-0.521l-0.285-0.16c-0.752-0.406-1.448-0.661-2.01-0.734c-0.27-0.034-0.53-0.027-0.701,0.021
		c-0.061,0.017-0.104,0.036-0.134,0.051l0.01,0.01c-0.695,0.74-1.966,0.78-2.706,0.084c-0.373-0.35-0.587-0.824-0.603-1.334
		c-0.016-0.511,0.168-0.998,0.518-1.37c0.293-0.28,0.461-0.377,0.624-0.471c0.273-0.151,0.468-0.235,0.663-0.304
		c0.37-0.126,0.753-0.202,1.143-0.226c0.657-0.038,1.276,0.046,1.962,0.262c1.225,0.4,2.161,1.057,2.841,1.585l0.336,0.27
		c0.234,0.189,0.45,0.363,0.675,0.522c0.375,0.266,0.684,0.455,0.974,0.595c0.339,0.167,0.643,0.266,0.881,0.288l0.1,0.01
		c0.136,0,0.268-0.055,0.298-0.074l0.142-0.123c0.399-0.337,1.044-0.283,1.379,0.112c0.271,0.319,0.309,0.774,0.096,1.133
		c-0.539,0.905-1.39,1.098-1.983,1.165C18.791,17.065,18.686,17.069,18.583,17.069z M12.071,13.827c0.145,0,0.298,0.01,0.456,0.03
		c0.693,0.09,1.487,0.375,2.361,0.848l0.297,0.167c0.284,0.16,0.595,0.335,0.919,0.49c0.508,0.244,0.91,0.403,1.307,0.517
		c0.364,0.104,0.872,0.225,1.407,0.181c0.616-0.069,0.974-0.266,1.22-0.68l-0.128,0.165c-0.203,0.171-0.686,0.358-1.157,0.279
		c-0.327-0.029-0.739-0.159-1.189-0.38c-0.339-0.164-0.694-0.379-1.113-0.678c-0.241-0.17-0.474-0.357-0.726-0.561l-0.324-0.26
		c-0.613-0.476-1.457-1.07-2.53-1.42c-0.562-0.176-1.066-0.249-1.594-0.216c-0.301,0.019-0.596,0.077-0.877,0.172
		c-0.141,0.05-0.288,0.113-0.437,0.194c-0.196,0.114-0.282,0.164-0.47,0.342c-0.147,0.158-0.235,0.391-0.227,0.634
		c0.007,0.244,0.109,0.47,0.288,0.637c0.32,0.301,0.842,0.323,1.181,0.062l0.076-0.104l0.154-0.126
		c0.149-0.099,0.297-0.165,0.462-0.211C11.613,13.855,11.831,13.827,12.071,13.827z"/>
	<path style="fill:#004E5F;" d="M0.964,21.967c0.598-0.443,1.037-0.681,1.597-0.955c0.539-0.259,1.125-0.461,1.76-0.604
		c0.638-0.137,1.331-0.211,2.062-0.146c0.728,0.069,1.479,0.278,2.143,0.623c0.665,0.346,1.228,0.808,1.675,1.297
		c0.121,0.139,0.192,0.211,0.348,0.408l0.199,0.285c0.214,0.305,0.382,0.586,0.524,0.867c0.294,0.58,0.513,1.233,0.612,1.866
		c0.094,0.632,0.086,1.224,0.057,1.691c-0.03,0.475-0.061,0.831-0.061,1.063c0.004,0.23-0.002,0.349,0.081,0.513
		c0.074,0.162,0.255,0.365,0.499,0.567c0.11,0.096,0.284,0.213,0.386,0.287l0.283,0.164L13.325,30
		c0.298,0.154,0.572,0.25,0.801,0.296c0.234,0.03,0.409,0.029,0.769-0.063c0.347-0.078,0.922-0.299,1.613-0.324
		c0.688-0.031,1.344,0.139,1.864,0.355c1.061,0.439,1.815,1.066,2.508,1.494c0.719,0.465,1.425,0.921,2.144,1.268
		c0.713,0.353,1.422,0.616,2.071,0.724c0.653,0.108,1.222,0.046,1.794-0.149c0.285-0.104,0.574-0.244,0.864-0.422
		c0.144-0.092,0.289-0.186,0.431-0.295l0.206-0.156c0.062-0.053,0.063-0.049,0.115-0.1c0.163-0.158,0.231-0.273,0.268-0.391
		c0.038-0.115,0.057-0.295-0.012-0.55c-0.13-0.508-0.514-1.178-1.008-1.771c-0.483-0.601-1.078-1.22-1.645-1.752l-0.05-0.047
		c-0.403-0.379-0.423-1.014-0.044-1.417c0.32-0.342,0.823-0.408,1.215-0.192c0.869,0.478,1.62,1.004,2.351,1.672
		c0.704,0.679,1.43,1.429,1.885,2.587c0.22,0.573,0.353,1.295,0.222,2.045c-0.13,0.749-0.524,1.422-0.964,1.899
		c-0.096,0.11-0.257,0.264-0.359,0.356l-0.154,0.135l-0.154,0.121c-0.203,0.162-0.422,0.314-0.646,0.463
		c-0.45,0.295-0.95,0.556-1.495,0.741c-1.086,0.396-2.334,0.419-3.401,0.179c-1.079-0.232-2.001-0.676-2.837-1.146
		c-0.832-0.481-1.608-0.974-2.348-1.487c-0.771-0.534-1.413-1.009-1.992-1.226c-0.292-0.115-0.511-0.153-0.703-0.141
		c-0.192,0.007-0.457,0.085-0.95,0.253c-0.479,0.164-1.19,0.296-1.832,0.238c-0.646-0.044-1.222-0.206-1.729-0.401l-0.401-0.168
		l-0.302-0.138c-0.282-0.139-0.49-0.239-0.743-0.391c-0.481-0.289-0.991-0.652-1.437-1.203c-0.448-0.537-0.79-1.256-0.934-1.891
		c-0.155-0.635-0.191-1.161-0.255-1.563c-0.118-0.824-0.293-1.14-0.572-1.504c-0.079-0.098-0.159-0.178-0.211-0.224l-0.219-0.224
		c0.014,0.028-0.073-0.052-0.102-0.074c-0.171-0.133-0.322-0.204-0.451-0.238c-0.25-0.046-0.499-0.032-0.947,0.107
		c-0.216,0.076-0.455,0.189-0.703,0.321c-0.225,0.12-0.543,0.337-0.641,0.428C3.15,27.02,1.5,26.962,0.518,25.909
		s-0.925-2.702,0.127-3.685c0.072-0.067,0.146-0.129,0.223-0.188L0.964,21.967z"/>
</g>
</svg>
