<svg version="1.1" id="Layer_1" xmlns="http://www.w3.org/2000/svg" xmlns:xlink="http://www.w3.org/1999/xlink" xml:space="preserve">
<g id="small_icon">
	<g>
		<path style="fill:#004E5F;" d="M7.448,37.688c-4.245,0-7.698-3.453-7.698-7.698s3.454-7.698,7.698-7.698s7.698,3.453,7.698,7.698
			S11.693,37.688,7.448,37.688z M7.448,24.291c-3.142,0-5.698,2.557-5.698,5.698s2.556,5.698,5.698,5.698
			c3.142,0,5.698-2.557,5.698-5.698S10.59,24.291,7.448,24.291z"/>
		<path style="fill:#004E5F;" d="M2.755,35.752c-0.19,0-0.371-0.108-0.455-0.292c-0.115-0.251-0.004-0.548,0.247-0.663
			c2.201-1.006,3.623-3.22,3.623-5.639c0-1.95-0.936-3.811-2.503-4.977c-0.222-0.165-0.268-0.479-0.103-0.699
			c0.165-0.222,0.479-0.268,0.7-0.104c1.82,1.354,2.907,3.515,2.907,5.779c0,2.809-1.651,5.379-4.207,6.549
			C2.896,35.737,2.825,35.752,2.755,35.752z"/>
		<path style="fill:#004E5F;" d="M12.404,35.459c-0.085,0-0.171-0.021-0.25-0.067c-2.218-1.284-3.596-3.673-3.596-6.233
			c0-1.848,0.699-3.604,1.969-4.947c0.189-0.201,0.506-0.209,0.707-0.02c0.2,0.189,0.209,0.506,0.02,0.707
			c-1.093,1.156-1.695,2.669-1.695,4.26c0,2.205,1.187,4.262,3.097,5.368c0.239,0.138,0.321,0.444,0.182,0.683
			C12.744,35.369,12.577,35.459,12.404,35.459z"/>
		<path style="fill:#004E5F;" d="M14,30H1c-0.276,0-0.5-0.224-0.5-0.5S0.724,29,1,29h13c0.276,0,0.5,0.224,0.5,0.5S14.276,30,14,30z
			"/>
	</g>
	<g>
		<path style="fill:#004E5F;" d="M8.682,21.783c-2.02,0-3.969-0.847-5.346-2.322c-2.751-2.948-2.592-7.584,0.355-10.335
			C5.05,7.857,6.821,7.158,8.68,7.158c2.02,0,3.969,0.846,5.347,2.322c1.333,1.428,2.03,3.289,1.962,5.241
			c-0.067,1.952-0.89,3.761-2.318,5.095C12.312,21.084,10.541,21.783,8.682,21.783z M8.68,9.158c-1.35,0-2.637,0.507-3.624,1.429
			c-2.141,1.999-2.257,5.367-0.258,7.509c1.016,1.087,2.395,1.687,3.884,1.687c1.35,0,2.637-0.508,3.624-1.429
			c1.038-0.968,1.636-2.283,1.685-3.701c0.049-1.418-0.458-2.771-1.426-3.807C11.549,9.757,10.169,9.158,8.68,9.158z"/>
		<circle style="fill:#004E5F;" cx="8.695" cy="14.007" r="0.986"/>
		<circle style="fill:#004E5F;" cx="23.095" cy="30.067" r="0.987"/>
		<path style="fill:#004E5F;" d="M23.013,37.134c-2.02,0-3.969-0.847-5.346-2.323c-1.333-1.428-2.03-3.289-1.963-5.24
			c0.067-1.953,0.891-3.762,2.319-5.094c1.358-1.27,3.13-1.968,4.988-1.968c2.02,0,3.969,0.847,5.346,2.323
			c1.333,1.428,2.03,3.289,1.963,5.24c-0.067,1.953-0.891,3.762-2.319,5.094C26.643,36.436,24.871,37.134,23.013,37.134z
			 M23.01,24.509c-1.35,0-2.637,0.507-3.624,1.429c-1.038,0.969-1.636,2.283-1.685,3.701s0.458,2.771,1.426,3.808
			c1.016,1.089,2.395,1.688,3.884,1.688c1.35,0,2.637-0.507,3.624-1.429c1.038-0.969,1.636-2.283,1.685-3.701
			s-0.458-2.771-1.426-3.808C25.879,25.107,24.5,24.509,23.01,24.509z"/>
		<path style="fill:#004E5F;" d="M22.693,29.951c-5.581-4.062-4.752-17.329-4.714-17.892l1.995,0.134
			c-0.236,3.529,0.003,13.307,3.896,16.14L22.693,29.951z"/>
		
			<rect x="16.764" y="2.465" transform="matrix(0.6825 0.7309 -0.7309 0.6825 9.2689 -11.4064)" style="fill:#004E5F;" width="2" height="5.001"/>
		<polygon style="fill:#004E5F;" points="24.009,29.893 22.014,29.75 22.831,18.402 14.792,8.201 16.364,6.963 24.882,17.773 		"/>
		
			<rect x="24.073" y="15.068" transform="matrix(0.6148 0.7887 -0.7887 0.6148 22.9269 -13.2931)" style="fill:#004E5F;" width="2" height="3.514"/>
		<path style="fill:#004E5F;" d="M28.316,17.004c-0.403,0.376-1.037,0.354-1.414-0.049L23.491,13.3
			c-0.376-0.403-0.354-1.037,0.049-1.414l0,0c0.404-0.376,1.037-0.354,1.414,0.049l3.412,3.655
			C28.742,15.993,28.72,16.627,28.316,17.004L28.316,17.004z"/>
		
			<rect x="13.475" y="5.037" transform="matrix(0.6823 0.7311 -0.7311 0.6823 10.475 -8.0286)" style="fill:#004E5F;" width="2" height="6"/>
		
			<rect x="14.701" y="3.308" transform="matrix(0.6824 0.731 -0.731 0.6824 9.2485 -12.6682)" style="fill:#004E5F;" width="9" height="2"/>
	</g>
</g>
</svg>
