<svg version="1.1" id="Layer_1" xmlns="http://www.w3.org/2000/svg" xmlns:xlink="http://www.w3.org/1999/xlink" xml:space="preserve">
<g id="big_icon">
	<g>
		<path style="fill:#004E5F;" d="M14.049,47.846c-2.34,0-4.525-2.038-5.313-4.955L0.247,11.463
			c-0.424-1.569-0.375-3.177,0.138-4.529C0.94,5.47,1.967,4.47,3.275,4.116L17.997,0.14c0.326-0.088,0.663-0.133,1.002-0.133
			c2.341,0,4.525,2.038,5.313,4.956l8.489,31.427c0.906,3.354-0.452,6.65-3.028,7.347l-14.722,3.977
			C14.726,47.801,14.388,47.846,14.049,47.846z M18.999,2.007c-0.163,0-0.325,0.021-0.481,0.063L3.796,6.047
			c-0.672,0.182-1.22,0.749-1.542,1.597c-0.365,0.96-0.392,2.132-0.077,3.297l8.489,31.428c0.598,2.214,2.38,3.811,3.863,3.413
			l14.722-3.977c1.485-0.401,2.227-2.644,1.619-4.895l-8.49-31.427C21.846,3.501,20.392,2.007,18.999,2.007z"/>
		<path style="fill:#004E5F;" d="M13.003,37.252c-0.086,0-0.173-0.021-0.249-0.066c-0.115-0.065-0.199-0.175-0.234-0.303
			L5.135,9.539C5.063,9.272,5.221,8.998,5.487,8.926l13.021-3.517c0.129-0.035,0.265-0.017,0.379,0.049
			c0.115,0.066,0.199,0.175,0.234,0.303l7.386,27.343c0.071,0.267-0.086,0.541-0.353,0.613l-13.021,3.518
			C13.091,37.246,13.047,37.252,13.003,37.252z M6.231,9.761l7.125,26.377l12.054-3.256L18.286,6.505L6.231,9.761z"/>
		<path style="fill:#004E5F;" d="M19.855,42.327c-0.984,0-1.852-0.665-2.109-1.616L17.57,40.06
			c-0.152-0.563-0.076-1.153,0.215-1.659s0.762-0.869,1.326-1.021l1.952-0.527c1.148-0.311,2.373,0.402,2.682,1.54l0.176,0.651
			c0.313,1.164-0.377,2.365-1.541,2.68l-1.953,0.528C20.239,42.301,20.047,42.327,19.855,42.327z M21.634,37.775
			c-0.104,0-0.208,0.014-0.311,0.041l-1.952,0.528c-0.306,0.083-0.562,0.279-0.719,0.554s-0.199,0.594-0.116,0.9l0.176,0.65
			c0.167,0.617,0.828,1.006,1.454,0.836l1.954-0.527c0.631-0.17,1.005-0.822,0.834-1.454l-0.176-0.651
			C22.639,38.137,22.168,37.775,21.634,37.775z"/>
	</g>
	<path style="fill:#004E5F;" d="M36.93,20.887c-0.112,0-0.225-0.038-0.318-0.115c-0.213-0.176-0.242-0.492-0.066-0.704
		c1.047-1.265,1.624-2.868,1.624-4.515c0-3.907-3.179-7.086-7.087-7.086c-0.481,0-0.962,0.049-1.428,0.145
		c-0.271,0.056-0.535-0.119-0.591-0.389s0.118-0.535,0.39-0.59c0.531-0.109,1.08-0.165,1.629-0.165c4.459,0,8.087,3.627,8.087,8.086
		c0,1.879-0.658,3.709-1.854,5.152C37.217,20.826,37.074,20.887,36.93,20.887z"/>
	<path style="fill:#004E5F;" d="M33.243,18.727c-0.112,0-0.226-0.038-0.318-0.115c-0.213-0.176-0.242-0.492-0.066-0.704
		c0.487-0.588,0.755-1.333,0.755-2.1c0-1.817-1.479-3.295-3.295-3.295c-0.223,0-0.445,0.023-0.664,0.068
		c-0.271,0.056-0.535-0.119-0.591-0.389c-0.056-0.271,0.118-0.535,0.389-0.591c0.285-0.059,0.577-0.088,0.866-0.088
		c2.369,0,4.295,1.927,4.295,4.295c0,0.999-0.35,1.97-0.984,2.737C33.529,18.666,33.387,18.727,33.243,18.727z"/>
</g>
</svg>
