<svg version="1.1" id="Layer_1" xmlns="http://www.w3.org/2000/svg" xmlns:xlink="http://www.w3.org/1999/xlink" xml:space="preserve">
<g id="small_icon">
	<g>
		<path style="fill:#004E5F;" d="M10.665,35.993c-1.852,0-3.575-1.589-4.189-3.865L0.182,8.827c-0.329-1.215-0.289-2.464,0.11-3.517
			c0.436-1.148,1.281-1.967,2.317-2.247l10.915-2.948c0.264-0.071,0.536-0.107,0.811-0.107c1.852,0,3.575,1.589,4.189,3.865
			l6.294,23.302c0.329,1.215,0.289,2.464-0.11,3.517c-0.436,1.147-1.281,1.967-2.317,2.247l-10.915,2.948
			C11.212,35.957,10.939,35.993,10.665,35.993z M14.335,2.007c-0.098,0-0.195,0.013-0.289,0.038L3.131,4.993
			C2.569,5.145,2.283,5.702,2.162,6.02C1.914,6.672,1.896,7.505,2.112,8.305l6.294,23.301c0.471,1.744,1.703,2.572,2.547,2.349
			l10.915-2.948c0.562-0.151,0.848-0.708,0.969-1.026c0.248-0.652,0.266-1.485,0.049-2.285L16.593,4.394
			C16.175,2.843,15.117,2.007,14.335,2.007z"/>
		<path style="fill:#004E5F;" d="M9.89,28.01c-0.087,0-0.173-0.022-0.249-0.066c-0.115-0.066-0.199-0.176-0.234-0.303L3.931,7.367
			C3.859,7.1,4.017,6.826,4.283,6.753l9.654-2.608c0.128-0.034,0.265-0.017,0.379,0.049c0.115,0.066,0.199,0.175,0.234,0.303
			l5.476,20.273c0.072,0.267-0.086,0.541-0.353,0.613l-9.654,2.607C9.977,28.004,9.933,28.01,9.89,28.01z M5.027,7.589l5.215,19.308
			l8.688-2.348L13.715,5.242L5.027,7.589z"/>
		<path style="fill:#004E5F;" d="M14.97,31.771c-0.789,0-1.483-0.531-1.689-1.293l-0.13-0.482c-0.122-0.452-0.061-0.924,0.172-1.329
			s0.61-0.695,1.061-0.817l1.448-0.391c0.917-0.251,1.9,0.322,2.146,1.232l0.13,0.482c0.122,0.451,0.061,0.924-0.172,1.328
			c-0.233,0.406-0.61,0.696-1.061,0.818l-1.448,0.391C15.277,31.752,15.124,31.771,14.97,31.771z M16.289,28.397
			c-0.066,0-0.132,0.009-0.197,0.026l-1.447,0.391c-0.193,0.053-0.355,0.178-0.455,0.352c-0.1,0.173-0.126,0.375-0.074,0.568
			l0.13,0.482c0.105,0.391,0.522,0.638,0.919,0.529l1.448-0.392c0.193-0.052,0.355-0.177,0.455-0.351s0.126-0.375,0.073-0.568
			l-0.13-0.483C16.924,28.625,16.626,28.397,16.289,28.397z"/>
	</g>
	<path style="fill:#004E5F;" d="M27.629,15.876c-0.112,0-0.225-0.038-0.318-0.115c-0.213-0.176-0.242-0.491-0.066-0.704
		c0.757-0.915,1.174-2.074,1.174-3.265c0-2.826-2.299-5.125-5.125-5.125c-0.348,0-0.695,0.035-1.033,0.104
		c-0.272,0.056-0.535-0.119-0.59-0.389c-0.056-0.271,0.119-0.535,0.389-0.59c0.404-0.083,0.819-0.125,1.234-0.125
		c3.377,0,6.125,2.748,6.125,6.125c0,1.423-0.499,2.809-1.404,3.902C27.916,15.814,27.773,15.876,27.629,15.876z"/>
	<path style="fill:#004E5F;" d="M24.896,14.274c-0.112,0-0.225-0.038-0.318-0.115c-0.213-0.176-0.242-0.492-0.066-0.704
		c0.342-0.413,0.53-0.936,0.53-1.474c0-1.276-1.038-2.314-2.314-2.314c-0.157,0-0.313,0.016-0.467,0.047
		c-0.269,0.055-0.535-0.119-0.59-0.389c-0.056-0.271,0.119-0.535,0.389-0.59c0.219-0.045,0.444-0.068,0.668-0.068
		c1.827,0,3.314,1.487,3.314,3.314c0,0.771-0.27,1.521-0.76,2.112C25.183,14.213,25.04,14.274,24.896,14.274z"/>
</g>
</svg>
