<svg version="1.1" id="Layer_1" xmlns="http://www.w3.org/2000/svg" xmlns:xlink="http://www.w3.org/1999/xlink" xml:space="preserve">
<g id="small_icon">
	<path style="fill:#004E5F;" d="M15,29c-0.07,0-0.14-0.008-0.209-0.021l-14-3C0.33,25.879,0,25.472,0,25V4
		c0-0.29,0.126-0.565,0.345-0.755C0.563,3.055,0.852,2.969,1.142,3.01l14,2C15.634,5.081,16,5.502,16,6v22
		c0,0.302-0.136,0.588-0.371,0.777C15.449,28.923,15.227,29,15,29z M2,24.191l12,2.572V6.867L2,5.153V24.191z"/>
	<path style="fill:#004E5F;" d="M15,29c-0.235,0-0.464-0.083-0.646-0.236C14.129,28.573,14,28.294,14,28V6
		c0-0.51,0.383-0.938,0.89-0.994l18-2c0.282-0.036,0.565,0.059,0.777,0.249C33.879,3.444,34,3.715,34,4v21
		c0,0.488-0.354,0.906-0.835,0.986l-18,3C15.11,28.996,15.055,29,15,29z M16,6.895v19.924l16-2.667V5.117L16,6.895z"/>
	<path style="fill:#004E5F;" d="M33,6c-0.552,0-1-0.448-1-1V3.862L18.657,1.868L1.129,4.158C0.588,4.229,0.08,3.843,0.008,3.295
		c-0.071-0.547,0.314-1.049,0.862-1.121l17.667-2.308c0.091-0.012,0.184-0.011,0.277,0.002l14.333,2.142C33.638,2.084,34,2.505,34,3
		v2C34,5.552,33.552,6,33,6z"/>
	<path style="fill:#004E5F;" d="M21.5,27.5c-0.276,0-0.5-0.224-0.5-0.5V6c0-0.276,0.224-0.5,0.5-0.5S22,5.724,22,6v21
		C22,27.276,21.776,27.5,21.5,27.5z"/>
	<path style="fill:#004E5F;" d="M27.5,25.5c-0.276,0-0.5-0.224-0.5-0.5V5c0-0.276,0.224-0.5,0.5-0.5S28,4.724,28,5v20
		C28,25.276,27.776,25.5,27.5,25.5z"/>
	<path style="fill:#004E5F;" d="M7.5,26.5C7.224,26.5,7,26.276,7,26V5c0-0.276,0.224-0.5,0.5-0.5S8,4.724,8,5v21
		C8,26.276,7.776,26.5,7.5,26.5z"/>
	<path style="fill:#004E5F;" d="M8,5.167c-0.247,0-0.462-0.183-0.495-0.435c-0.036-0.273,0.156-0.525,0.43-0.561l19.172-2.539
		c0.271-0.04,0.525,0.157,0.561,0.43s-0.156,0.525-0.43,0.561L8.065,5.163C8.043,5.166,8.021,5.167,8,5.167z"/>
	<path style="fill:#004E5F;" d="M21.5,5.167c-0.02,0-0.039-0.001-0.059-0.003L6.669,3.425C6.395,3.393,6.199,3.145,6.231,2.87
		S6.51,2.396,6.786,2.432l14.772,1.739c0.274,0.032,0.47,0.281,0.438,0.555C21.967,4.98,21.75,5.167,21.5,5.167z"/>
	<path style="fill:#004E5F;" d="M27.5,4.5c-0.021,0-0.041-0.001-0.062-0.004L12.272,2.625c-0.274-0.034-0.469-0.283-0.435-0.557
		s0.288-0.468,0.557-0.435l15.167,1.871c0.274,0.034,0.469,0.283,0.435,0.557C27.965,4.314,27.75,4.5,27.5,4.5z"/>
	<path style="fill:#004E5F;" d="M14.114,14l-13.21-2.591c-0.271-0.054-0.447-0.316-0.394-0.587c0.053-0.271,0.312-0.449,0.587-0.394
		l13.114,2.582L15,13l17.929-2.577c0.274-0.04,0.526,0.151,0.566,0.424c0.039,0.273-0.151,0.526-0.424,0.566l-18,2.582L14.114,14z"
		/>
	<path style="fill:#004E5F;" d="M14.114,21l-13.21-2.592c-0.271-0.053-0.447-0.316-0.394-0.587c0.053-0.271,0.312-0.448,0.587-0.394
		L14.21,20.01L15,20l17.929-2.577c0.274-0.042,0.526,0.151,0.566,0.425c0.039,0.272-0.151,0.525-0.424,0.565l-18,2.582L14.114,21z"
		/>
</g>
</svg>
