<svg version="1.1" id="Layer_1" xmlns="http://www.w3.org/2000/svg" xmlns:xlink="http://www.w3.org/1999/xlink" xml:space="preserve">
<g id="big_icon">
			<path fill="#084F5F" d="M31.993,61.776h-0.006c-8.293,0-16.086-3.183-21.947-9.044c-5.859-5.861-9.086-13.632-9.084-21.921
				c0-17.113,13.92-31.025,31.029-31.025C49.101-0.213,63.022,13.67,63.022,30.783C63.022,47.895,49.103,61.776,31.993,61.776z
				 M31.987,1.797c-7.756,0-15.047,3.02-20.529,8.504c-5.482,5.484-8.502,12.775-8.502,20.532c-0.002,7.755,3.016,15.001,8.5,20.485
				c5.482,5.483,12.773,8.458,20.527,8.458h0.01c16.008,0,29.029-12.979,29.029-28.988C61.022,14.778,47.997,1.798,31.987,1.797z"/>
			<path fill="#084F5F" d="M25.017,60.923c-8.037-8.037-12.465-18.723-12.463-30.09c0-11.366,4.426-22.052,12.465-30.088
				l1.414,1.414c-7.66,7.659-11.879,17.842-11.879,28.674c-0.002,10.832,4.217,21.016,11.877,28.675L25.017,60.923z"/>
			<path fill="#084F5F" d="M38.962,60.92l-1.414-1.414c7.658-7.658,11.875-17.841,11.875-28.673
				c0-10.833-4.217-21.016-11.877-28.674l1.414-1.414c8.037,8.036,12.463,18.721,12.463,30.088
				C51.423,42.199,46.997,52.884,38.962,60.92z"/>
			<path fill="#084F5F" d="M11.53,52.562l-1.414-1.414c12.062-12.062,31.688-12.062,43.746-0.003l-1.414,1.414
				C41.165,41.279,22.81,41.281,11.53,52.562z"/>
			<path fill="#084F5F" d="M31.989,19.562c-7.922,0-15.842-3.014-21.873-9.042l1.414-1.415c11.283,11.279,29.641,11.276,40.92-0.001
				l1.414,1.414C47.833,16.547,39.911,19.562,31.989,19.562z"/>
			<rect x="1.956" y="29.833" fill="#084F5F" width="60.066" height="2"/>
			<rect x="30.987" y="0.797" fill="#084F5F" width="2" height="60.069"/>
</g>
</svg>
