<svg version="1.1" id="Layer_1" xmlns="http://www.w3.org/2000/svg" xmlns:xlink="http://www.w3.org/1999/xlink" xml:space="preserve">
<g id="small_icon">
	<path style="fill:#004E5F;" d="M22.628,16.729c-0.369,0-0.724-0.205-0.898-0.558l-2.656-5.391c-0.167-0.339-0.128-0.744,0.1-1.045
		l3.936-5.199c0.548-0.723,0.728-1.71,0.506-2.781c-0.112-0.541,0.236-1.07,0.777-1.182c0.537-0.115,1.07,0.236,1.182,0.777
		c0.34,1.645,0.03,3.205-0.872,4.394l-3.562,4.706l2.383,4.838c0.244,0.495,0.041,1.095-0.455,1.339
		C22.927,16.696,22.776,16.729,22.628,16.729z"/>
	<path style="fill:#004E5F;" d="M11.333,29.15c-0.221,0-0.438-0.073-0.615-0.211l-5.222-4.066l-4.976-3.636
		c-0.217-0.158-0.36-0.397-0.399-0.662s0.03-0.535,0.192-0.749L1.74,17.94c0.189-0.25,0.484-0.397,0.797-0.397
		c0.001,0,0.003,0,0.004,0l5.137,0.021c0.337-0.6,0.985-1.604,2.233-3.372L0.797,9.287C0.541,9.149,0.356,8.905,0.294,8.619
		c-0.062-0.285,0.003-0.583,0.18-0.816l1.787-2.358c0.212-0.28,0.562-0.427,0.905-0.39l12.578,1.374l3.593-4.748
		c0.902-1.191,2.321-1.912,3.994-2.029c0.488-0.036,0.996,0.122,1.423,0.444c0.424,0.322,0.713,0.764,0.817,1.245
		c0.117,0.54-0.227,1.072-0.767,1.188c-0.533,0.117-1.067-0.224-1.187-0.76c-0.005-0.012-0.027-0.046-0.071-0.079
		c-0.041-0.031-0.079-0.042-0.089-0.043c-1.076,0.076-1.978,0.517-2.526,1.241l-3.936,5.199c-0.212,0.281-0.555,0.429-0.906,0.391
		L3.513,7.104L2.774,8.08l9.083,4.889c0.253,0.136,0.435,0.375,0.5,0.655c0.065,0.28,0.006,0.574-0.161,0.808
		c-1.245,1.737-2.686,3.86-2.915,4.36c-0.102,0.445-0.501,0.775-0.975,0.775c-0.001,0-0.003,0-0.004,0l-5.27-0.022l-0.512,0.677
		l4.18,3.054l4.446,3.463l0.527-0.695l-1.199-4.859c-0.111-0.449,0.101-0.905,0.493-1.118c0.42-0.356,2.071-2.318,3.404-3.986
		c0.176-0.22,0.437-0.356,0.718-0.374c0.279-0.02,0.557,0.084,0.759,0.28l6.933,6.718l0.759-1.002l-0.706-1.725
		c-0.209-0.511,0.036-1.095,0.547-1.304c0.512-0.207,1.095,0.036,1.304,0.547l0.921,2.252c0.133,0.327,0.085,0.701-0.128,0.982
		l-1.784,2.357c-0.173,0.229-0.435,0.371-0.721,0.394c-0.293,0.019-0.567-0.08-0.772-0.278l-6.957-6.741
		c-1.393,1.721-2.194,2.626-2.682,3.112l1.167,4.729c0.072,0.293,0.009,0.604-0.173,0.844l-1.427,1.885
		c-0.162,0.214-0.402,0.354-0.667,0.389C11.42,29.148,11.376,29.15,11.333,29.15z"/>
	<path style="fill:#004E5F;" d="M22.905,17.143c-0.081,0-0.163-0.011-0.244-0.036l-3.064-0.917c-0.45-0.135-0.705-0.608-0.571-1.058
		c0.135-0.45,0.607-0.706,1.058-0.571l2.25,0.673l0.559-1.866c0.135-0.45,0.607-0.703,1.059-0.57c0.45,0.135,0.705,0.609,0.57,1.059
		l-0.803,2.679C23.608,16.905,23.271,17.143,22.905,17.143z"/>
</g>
</svg>
