<svg version="1.1" id="Layer_1" xmlns="http://www.w3.org/2000/svg" xmlns:xlink="http://www.w3.org/1999/xlink" xml:space="preserve" >
<g id="small_icon">
	<path style="clip-path:url(#SVGID_2_);fill:#004E5F;" d="M33.563,4.415l-6.167-2.654c-0.014-0.007-0.029-0.008-0.044-0.013
		c-0.011-0.005-0.019-0.012-0.03-0.016l-4.953-1.679C22.264,0.018,22.156,0,22.047,0h-8.352c-0.082,0-0.164,0.011-0.243,0.03
		L6.756,1.708C6.745,1.712,6.733,1.721,6.72,1.724C6.703,1.729,6.682,1.73,6.664,1.738L0.581,3.917
		C0.092,4.091-0.181,4.608-0.052,5.108l2.236,8.67c0.07,0.266,0.244,0.492,0.486,0.625c0.149,0.083,0.315,0.125,0.483,0.125
		c0.102,0,0.204-0.016,0.304-0.047L6,13.671V28c0,0.553,0.447,1,1,1h20c0.552,0,1-0.447,1-1V13.673l2.525,0.807
		c0.1,0.032,0.202,0.048,0.305,0.048c0.163,0,0.325-0.04,0.471-0.119c0.24-0.127,0.416-0.347,0.491-0.607l2.337-8.194
		C34.267,5.125,34.024,4.614,33.563,4.415 M3.857,12.254L2.113,5.492L6,4.099v7.473L3.857,12.254z M26,27H8V12.303V3.458L13.818,2
		h8.063L26,3.396v8.907V27z M30.151,12.261L28,11.573V4.198l3.963,1.707L30.151,12.261z"/>
	<path style="clip-path:url(#SVGID_2_);fill:#004E5F;" d="M17,10.126c2.804,0,5-2.234,5-5.086V4c0-0.552-0.447-1-1-1s-1,0.448-1,1
		v1.04c0,1.731-1.317,3.086-3,3.086s-3-1.355-3-3.086V4c0-0.552-0.447-1-1-1s-1,0.448-1,1v1.04C12,7.892,14.196,10.126,17,10.126"/>
	<path style="clip-path:url(#SVGID_2_);fill:#004E5F;" d="M24,24H10c-0.276,0-0.5,0.224-0.5,0.5S9.724,25,10,25h14
		c0.276,0,0.5-0.224,0.5-0.5S24.276,24,24,24"/>
</g>
<g id="big_icon">
	<path style="clip-path:url(#SVGID_4_);fill:#004E5F;" d="M43.689,5.785l-8.081-3.48C35.59,2.297,35.57,2.296,35.55,2.292
		c-0.013-0.007-0.025-0.018-0.039-0.023l-6.49-2.199C28.886,0.023,28.744,0,28.6,0H17.657c-0.108,0-0.215,0.012-0.319,0.038
		L8.564,2.239c-0.017,0.004-0.03,0.015-0.047,0.02C8.494,2.268,8.466,2.268,8.442,2.276L0.471,5.13
		c-0.638,0.23-0.996,0.907-0.827,1.562l2.93,11.36c0.091,0.349,0.32,0.646,0.636,0.82c0.196,0.108,0.414,0.164,0.633,0.164
		c0.134,0,0.482-0.021,0.613-0.062L8,17.915v18.775C8,37.414,8.16,38,8.883,38H35.09C35.814,38,36,37.414,36,36.689V17.916
		l3.51,1.059c0.131,0.041,0.365,0.062,0.5,0.062c0.213,0,0.476-0.053,0.668-0.157c0.314-0.167,0.57-0.453,0.666-0.794l3.075-10.738
		C44.6,6.715,44.294,6.044,43.689,5.785 M4.979,16.057L2.8,7.196L8,5.373v9.792L4.979,16.057z M34,35H10V16.122V4.532L17.818,3
		h10.565L34,4.449v11.672V35z M39.02,16.065L36,15.165V5.5l5.295,2.236L39.02,16.065z"/>
	<path style="clip-path:url(#SVGID_4_);fill:#004E5F;" d="M22,13.269c3.674,0,7-2.927,7-6.664V5.242c0-0.724-0.775-1.311-1.5-1.311
		S26,4.518,26,5.242v1.363c0,2.268-1.795,4.043-4,4.043s-4-1.775-4-4.043V5.242c0-0.724-0.775-1.311-1.5-1.311S15,4.518,15,5.242
		v1.363C15,10.342,18.326,13.269,22,13.269"/>
	<path style="clip-path:url(#SVGID_4_);fill:#004E5F;" d="M31.159,31H12.814c-0.362,0-0.655,0.638-0.655,1s0.293,1,0.655,1h18.345
		c0.362,0,0.655-0.638,0.655-1S31.521,31,31.159,31"/>
</g>
</svg>
