<svg version="1.1" id="Layer_1" xmlns="http://www.w3.org/2000/svg" xmlns:xlink="http://www.w3.org/1999/xlink" xml:space="preserve">
<g id="small_icon">
	<path style="fill:#004E5F;" d="M9.5,15h-1C7.122,15,6,16.121,6,17.5S7.122,20,8.5,20h1c1.378,0,2.5-1.121,2.5-2.5S10.878,15,9.5,15
		z M9.5,19h-1C7.673,19,7,18.327,7,17.5S7.673,16,8.5,16h1c0.827,0,1.5,0.673,1.5,1.5S10.327,19,9.5,19z"/>
	<path style="fill:#004E5F;" d="M24.5,15h-1c-1.378,0-2.5,1.121-2.5,2.5s1.122,2.5,2.5,2.5h1c1.378,0,2.5-1.121,2.5-2.5
		S25.878,15,24.5,15z M24.5,19h-1c-0.827,0-1.5-0.673-1.5-1.5s0.673-1.5,1.5-1.5h1c0.827,0,1.5,0.673,1.5,1.5S25.327,19,24.5,19z"/>
	<path style="fill:#004E5F;" d="M29.75,9h-0.5C28.807,9,28.385,9.078,28,9.217V6.056C28,2.717,25.284,0,21.945,0h-10.89
		C7.716,0,5,2.717,5,6.056v3.161C4.615,9.078,4.193,9,3.75,9h-0.5C1.458,9,0,10.256,0,11.8v0.4c0,1.054,0.501,1.896,1.479,2.312
		C1.172,15.221,1,16,1,16.82V23h1v2.621C2,27.484,3.516,29,5.379,29h0.242C7.484,29,9,27.484,9,25.621V23h15v2.621
		C24,27.484,25.516,29,27.379,29h0.242C29.484,29,31,27.484,31,25.621V23h1v-6.18c0-0.82-0.172-1.6-0.479-2.308
		C32.499,14.096,33,13.254,33,12.2v-0.4C33,10.256,31.542,9,29.75,9z M30,21H3v-4.18C3,14.713,4.713,13,6.82,13h19.36
		c2.106,0,3.82,1.713,3.82,3.82V21z M7.006,6h18.988C25.995,6.019,26,6.037,26,6.056V11h-2.578l-5.205-2.513
		C17.969,8.368,17.67,8.472,17.55,8.72s-0.016,0.547,0.233,0.667L21.123,11h-6.7L9.217,8.487C8.97,8.368,8.669,8.472,8.55,8.72
		C8.43,8.969,8.534,9.268,8.783,9.388L12.123,11H7V6.056C7,6.037,7.005,6.019,7.006,6z M11.055,2h10.89c1.483,0,2.769,0.809,3.476,2
		H7.579C8.287,2.809,9.572,2,11.055,2z M2,12.2v-0.4C2,11.421,2.513,11,3.25,11h0.5c0.455,0,0.806,0.167,1.022,0.379
		c-0.785,0.296-1.491,0.752-2.073,1.335C2.405,12.617,2,12.439,2,12.2z M7,25.621C7,26.381,6.381,27,5.621,27H5.379
		C4.619,27,4,26.381,4,25.621V23h3V25.621z M29,25.621C29,26.381,28.381,27,27.621,27h-0.242C26.619,27,26,26.381,26,25.621V23h3
		V25.621z M28.228,11.379C28.444,11.167,28.795,11,29.25,11h0.5c0.737,0,1.25,0.421,1.25,0.8v0.4c0,0.239-0.405,0.417-0.7,0.514
		C29.719,12.131,29.012,11.675,28.228,11.379z"/>
</g>
<g id="big_icon">
	<path style="fill:#004E5F;" d="M13.311,20h-1.361c-1.877,0-3.404,1.623-3.404,3.5s1.527,3.5,3.404,3.5h1.361
		c1.877,0,3.403-1.623,3.403-3.5S15.188,20,13.311,20z M13.311,26h-1.361c-1.126,0-2.043-1.374-2.043-2.5s0.917-2.5,2.043-2.5h1.361
		c1.126,0,2.042,1.374,2.042,2.5S14.437,26,13.311,26z"/>
	<path style="fill:#004E5F;" d="M33.731,20H32.37c-1.876,0-3.403,1.623-3.403,3.5S30.494,27,32.37,27h1.361
		c1.877,0,3.404-1.623,3.404-3.5S35.608,20,33.731,20z M33.731,26H32.37c-1.126,0-2.042-1.374-2.042-2.5S31.244,21,32.37,21h1.361
		c1.126,0,2.042,1.374,2.042,2.5S34.857,26,33.731,26z"/>
	<path style="fill:#004E5F;" d="M40.879,12h-0.68C39.596,12,39,12.358,38,12.548V8.244C38,3.699,34.799,0,30.254,0H15.428
		C10.882,0,7,3.699,7,8.244v4.304C7,12.358,6.085,12,5.482,12H4.801C2.361,12,0,13.962,0,16.064v0.545
		c0,1.435,1.002,2.581,2.334,3.148C1.915,20.721,2,21.783,2,22.898V31h1v3.881C3,37.418,5.163,40,7.699,40h0.33
		C10.566,40,12,37.418,12,34.881V31h21v3.881C33,37.418,35.114,40,37.651,40h0.329c2.537,0,4.02-2.582,4.02-5.119V31h1v-8.102
		c0-1.115,0.085-2.178-0.334-3.141C43.998,19.19,45,18.044,45,16.609v-0.545C45,13.962,43.318,12,40.879,12z M41,29H4v-6.102
		C4,20.031,6.794,17,9.662,17H36.02c2.867,0,4.98,3.031,4.98,5.898V29z M9,8h27l0,0v7h-3.736l-7.085-3.433
		c-0.339-0.162-0.745-0.028-0.909,0.311c-0.163,0.338-0.021,0.754,0.317,0.918L29.134,15h-9.122l-7.086-3.433
		c-0.336-0.162-0.746-0.028-0.908,0.311c-0.164,0.338-0.021,0.754,0.316,0.918L16.881,15H9V8C9,8,8.999,8,9,8z M15.428,3h14.826
		c2.018,0,4.303,1.77,5.266,2.77L9.719,5.865C10.961,3.667,13.408,3,15.428,3z M3,16.609v-0.545C3,15.549,3.799,15,4.801,15h0.682
		c0.619,0,1.098,0.216,1.392,0.504c-1.067,0.403-2.079,1.017-2.872,1.811C3.602,17.183,3,16.936,3,16.609z M9,34.881
		C9,35.916,9.064,37,8.029,37h-0.33C6.664,37,6,35.916,6,34.881V31h3V34.881z M39,34.881C39,35.916,39.016,37,37.98,37h-0.329
		C36.616,37,36,35.916,36,34.881V31h3V34.881z M38.807,15.504C39.102,15.216,39.579,15,40.199,15h0.68
		C41.883,15,42,15.549,42,16.064v0.545c0,0.326-0.262,0.573-0.662,0.706C40.546,16.521,39.875,15.907,38.807,15.504z"/>
</g>
</svg>
