<svg version="1.1" xmlns="http://www.w3.org/2000/svg" xmlns:xlink="http://www.w3.org/1999/xlink" xml:space="preserve">
<g id="small_icon">
	<g>
		<path fill="#004E5F" d="M21,20H4V0h17V20z M6,18h13V2H6V18z"/>
		<path fill="none" stroke="#004E5F" stroke-width="2" stroke-miterlimit="10" d="M4,5"/>
		<polygon fill="#004E5F" points="20,24 0,24 0,19 2,19 2,22 18,22 18,19 20,19 		"/>
		<path fill="#004E5F" d="M2.608,21.736c-0.871,0-1.697-0.275-2.269-0.781C0.124,20.766,0,20.492,0,20.205v-18
			c0-0.393,0.23-0.75,0.588-0.911c0.357-0.161,0.778-0.1,1.073,0.161c0.419,0.369,1.075,0.571,1.563,0.478
			C3.505,1.88,3.696,1.735,3.827,1.477c0.25-0.493,0.854-0.689,1.344-0.439C5.664,1.288,5.86,1.89,5.61,2.382
			C5.201,3.19,4.487,3.728,3.6,3.897C3.087,3.995,2.534,3.967,2,3.828v15.814c0.288,0.099,0.659,0.123,1.012,0.056
			c0.241-0.046,0.831-0.21,1.097-0.733c0.25-0.493,0.853-0.688,1.344-0.439c0.493,0.25,0.689,0.852,0.439,1.344
			c-0.469,0.926-1.382,1.578-2.503,1.793C3.128,21.713,2.866,21.736,2.608,21.736z"/>
	</g>
	<g>
		<path fill="#004E5F" d="M23,21.667c-1.62,0-3.156-0.519-4.441-1.497l1.212-1.592c0.935,0.713,2.051,1.089,3.229,1.089
			c2.941,0,5.334-2.393,5.334-5.333S25.941,9,23,9c-0.833,0-1.63,0.187-2.37,0.554l-0.891-1.791C20.758,7.257,21.855,7,23,7
			c4.044,0,7.334,3.29,7.334,7.333S27.044,21.667,23,21.667z"/>
		<path fill="#004E5F" d="M22.875,16c-0.942,0-1.708-0.766-1.708-1.708s0.767-1.708,1.708-1.708s1.708,0.767,1.708,1.708
			S23.817,16,22.875,16z M22.875,13.583c-0.391,0-0.708,0.318-0.708,0.708S22.484,15,22.875,15s0.708-0.317,0.708-0.708
			S23.266,13.583,22.875,13.583z"/>
	</g>
	<g>
		<path fill="#004E5F" d="M24,31.667c-4.043,0-7.333-3.29-7.333-7.333c0-0.351,0.025-0.701,0.074-1.043l1.979,0.281
			c-0.035,0.249-0.053,0.503-0.053,0.762c0,2.94,2.393,5.333,5.333,5.333c2.941,0,5.334-2.393,5.334-5.333
			c0-1.775-0.879-3.429-2.352-4.424l1.119-1.657c2.023,1.367,3.232,3.641,3.232,6.081C31.334,28.377,28.043,31.667,24,31.667z"/>
		<path fill="#004E5F" d="M23.875,26c-0.942,0-1.708-0.766-1.708-1.708s0.767-1.708,1.708-1.708s1.708,0.766,1.708,1.708
			S24.817,26,23.875,26z M23.875,23.584c-0.391,0-0.708,0.317-0.708,0.708S23.484,25,23.875,25s0.708-0.317,0.708-0.708
			S24.266,23.584,23.875,23.584z"/>
	</g>
</g>
<g id="big_icon">
	<g>
		<path fill="#004E5F" d="M29,27H6V0h23V27z M8,25h19V2H8V25z"/>
		<path fill="none" stroke="#004E5F" stroke-width="2" stroke-miterlimit="10" d="M5.227,6.636"/>
		<polygon fill="#004E5F" points="27,33 0,33 0,26 2,26 2,31 25,31 25,26 27,26 		"/>
		<path fill="#004E5F" d="M3.262,29.812c-1.127,0-2.19-0.353-2.923-0.999C0.123,28.623,0,28.35,0,28.062V2.699
			c0-0.393,0.23-0.75,0.588-0.911s0.777-0.1,1.073,0.161c0.679,0.599,1.753,0.923,2.55,0.769c0.522-0.1,0.895-0.381,1.138-0.86
			C5.6,1.365,6.202,1.169,6.693,1.418c0.492,0.25,0.688,0.852,0.438,1.344C6.613,3.785,5.709,4.466,4.588,4.681
			C3.758,4.841,2.846,4.742,2,4.431v23.107c0.507,0.258,1.225,0.344,1.912,0.212c0.843-0.162,1.511-0.618,1.832-1.252
			c0.25-0.491,0.852-0.688,1.345-0.438s0.688,0.852,0.438,1.345c-0.604,1.188-1.783,2.031-3.238,2.31
			C3.945,29.779,3.6,29.812,3.262,29.812z"/>
	</g>
	<g>
		<path fill="#004E5F" d="M32,29.713c-2.192,0-4.271-0.701-6.01-2.027l1.211-1.59c1.389,1.058,3.048,1.617,4.799,1.617
			c4.369,0,7.924-3.555,7.924-7.925c0-4.37-3.555-7.924-7.924-7.924c-1.238,0-2.423,0.277-3.521,0.824l-0.891-1.791
			c1.378-0.685,2.863-1.033,4.412-1.033c5.473,0,9.924,4.452,9.924,9.924C41.924,25.26,37.473,29.713,32,29.713z"/>
		<path fill="#004E5F" d="M31.824,21.932c-1.215,0-2.203-0.988-2.203-2.202s0.988-2.203,2.203-2.203
			c1.214,0,2.201,0.988,2.201,2.203S33.038,21.932,31.824,21.932z M31.824,18.527c-0.664,0-1.203,0.54-1.203,1.203
			s0.539,1.202,1.203,1.202c0.662,0,1.201-0.539,1.201-1.202S32.486,18.527,31.824,18.527z"/>
	</g>
	<g>
		<path fill="#004E5F" d="M33.409,43.803c-5.473,0-9.925-4.451-9.925-9.924c0-0.476,0.033-0.951,0.1-1.412l1.98,0.283
			c-0.053,0.369-0.08,0.748-0.08,1.129c0,4.369,3.555,7.924,7.925,7.924s7.925-3.555,7.925-7.924c0-2.637-1.307-5.094-3.494-6.572
			l1.119-1.656c2.74,1.85,4.375,4.926,4.375,8.229C43.334,39.352,38.881,43.803,33.409,43.803z"/>
		<path fill="#004E5F" d="M33.232,36.022c-1.215,0-2.203-0.987-2.203-2.202s0.988-2.203,2.203-2.203s2.203,0.988,2.203,2.203
			S34.447,36.022,33.232,36.022z M33.232,32.617c-0.663,0-1.203,0.54-1.203,1.203s0.54,1.202,1.203,1.202
			c0.664,0,1.203-0.539,1.203-1.202S33.896,32.617,33.232,32.617z"/>
	</g>
</g>
</svg>
