<svg version="1.1" id="Layer_1" xmlns="http://www.w3.org/2000/svg" xmlns:xlink="http://www.w3.org/1999/xlink" xml:space="preserve">
<g id="small_icon">
	<g>
		<path style="fill:none;stroke:#004E5F;stroke-width:2;stroke-linecap:round;stroke-linejoin:round;stroke-miterlimit:10;" d="
			M1.171,16.26"/>
		<path style="fill:#004E5F;" d="M22.586,18H2c-0.552,0-1-0.447-1-1s0.448-1,1-1h20.586C22.814,16,23,15.814,23,15.586V2.414
			C23,2.186,22.814,2,22.586,2H7C6.448,2,6,1.552,6,1s0.448-1,1-1h15.586C23.917,0,25,1.083,25,2.414v13.172
			C25,16.917,23.917,18,22.586,18z"/>
		<path style="fill:#004E5F;" d="M22.586,27H2.414C1.083,27,0,25.917,0,24.586v-3.172C0,20.083,1.083,19,2.414,19h20.172
			C23.917,19,25,20.083,25,21.414v3.172C25,25.917,23.917,27,22.586,27z M2.414,21C2.186,21,2,21.186,2,21.414v3.172
			C2,24.814,2.186,25,2.414,25h20.172C22.814,25,23,24.814,23,24.586v-3.172C23,21.186,22.814,21,22.586,21H2.414z"/>
		<rect x="8" y="17" style="fill:#004E5F;" width="10" height="3"/>
		<rect x="4" y="22" style="fill:#004E5F;" width="1.833" height="0.666"/>
		<rect x="4" y="23.334" style="fill:#004E5F;" width="1.833" height="0.666"/>
		<rect x="7" y="22" style="fill:#004E5F;" width="1.833" height="0.666"/>
		<rect x="7" y="23.334" style="fill:#004E5F;" width="1.833" height="0.666"/>
		<rect x="10" y="22" style="fill:#004E5F;" width="1.833" height="0.666"/>
		<rect x="10" y="23.334" style="fill:#004E5F;" width="1.833" height="0.666"/>
		<rect x="13" y="22" style="fill:#004E5F;" width="1.833" height="0.666"/>
		<rect x="13" y="23.334" style="fill:#004E5F;" width="1.833" height="0.666"/>
		<rect x="16" y="22" style="fill:#004E5F;" width="1.833" height="0.666"/>
		<rect x="16" y="23.334" style="fill:#004E5F;" width="1.833" height="0.666"/>
		<rect x="19" y="22" style="fill:#004E5F;" width="1.833" height="0.666"/>
		<rect x="19" y="23.334" style="fill:#004E5F;" width="1.833" height="0.666"/>
		<path style="fill:#004E5F;" d="M23,14H2c-0.552,0-1-0.448-1-1s0.448-1,1-1h21c0.552,0,1,0.448,1,1S23.552,14,23,14z"/>
	</g>
	<path style="fill:#004E5F;" d="M18,18H2.5C1.122,18,0,16.879,0,15.5v-13C0,1.122,1.122,0,2.5,0H18c0.552,0,1,0.448,1,1
		s-0.448,1-1,1H2.5C2.224,2,2,2.224,2,2.5v13C2,15.775,2.224,16,2.5,16H18c0.552,0,1,0.447,1,1S18.552,18,18,18z"/>
</g>
<g id="big_icon">
	<g>
		<path style="fill:none;stroke:#004E5F;stroke-width:2;stroke-linecap:round;stroke-linejoin:round;stroke-miterlimit:10;" d="
			M3.044,24.292"/>
		<path style="fill:#004E5F;" d="M35.383,26H4c-0.553,0-1-0.447-1-1s0.447-1,1-1h31.383C35.918,24,36,24,36,23.274V3.384
			C36,3.242,35.982,2,35.383,2H12c-0.553,0-1-0.448-1-1s0.447-1,1-1h23.383C36.973,0,38,1.328,38,3.384v19.891
			C38,25.646,36.36,26,35.383,26z"/>
		<path style="fill:#004E5F;" d="M34.863,40H4.137C2.407,40,1,38.594,1,36.865v-4.73C1,30.406,2.407,29,4.137,29h30.727
			C36.593,29,38,30.406,38,32.135v4.73C38,38.594,36.593,40,34.863,40z M4.137,31C3.51,31,3,31.51,3,32.135v4.73
			C3,37.49,3.51,38,4.137,38h30.727C35.49,38,36,37.49,36,36.865v-4.73C36,31.51,35.49,31,34.863,31H4.137z"/>
		<rect x="13" y="25" style="fill:#004E5F;" width="16" height="5"/>
		<rect x="8" y="33" style="fill:#004E5F;" width="2" height="1"/>
		<rect x="8" y="35" style="fill:#004E5F;" width="2" height="1"/>
		<rect x="12" y="33" style="fill:#004E5F;" width="3" height="1"/>
		<rect x="12" y="35" style="fill:#004E5F;" width="3" height="1"/>
		<rect x="16" y="33" style="fill:#004E5F;" width="3" height="1"/>
		<rect x="16" y="35" style="fill:#004E5F;" width="3" height="1"/>
		<rect x="21" y="33" style="fill:#004E5F;" width="2" height="1"/>
		<rect x="21" y="35" style="fill:#004E5F;" width="2" height="1"/>
		<rect x="25" y="33" style="fill:#004E5F;" width="4" height="1"/>
		<rect x="25" y="35" style="fill:#004E5F;" width="4" height="1"/>
		<rect x="30" y="33" style="fill:#004E5F;" width="3" height="1"/>
		<rect x="30" y="35" style="fill:#004E5F;" width="3" height="1"/>
		<path style="fill:#004E5F;" d="M36,20H2c-0.553,0-1-0.448-1-1s0.447-1,1-1h34c0.553,0,1,0.448,1,1S36.553,20,36,20z"/>
	</g>
	<path style="fill:#004E5F;" d="M28,26H3.326C1.492,26,0,24.549,0,22.766V3.234C0,1.451,1.492,0,3.326,0H28c0.553,0,1,0.448,1,1
		s-0.447,1-1,1H3.326C2.596,2,2,2.554,2,3.234v19.532C2,23.446,2.596,24,3.326,24H28c0.553,0,1,0.447,1,1S28.553,26,28,26z"/>
</g>
</svg>
