<svg version="1.1" id="Layer_1" xmlns="http://www.w3.org/2000/svg" xmlns:xlink="http://www.w3.org/1999/xlink" xml:space="preserve">
<g id="small_icon">
	<path style="fill:#004E5F;" d="M42,3H32V1c0-0.552-0.447-1-1-1H12c-0.553,0-1,0.448-1,1v2H1C0.447,3,0,3.448,0,4v18
		c0,0.553,0.447,1,1,1h10c0,0.553,0.447,1,1,1h19c0.553,0,1-0.447,1-1h10c0.553,0,1-0.447,1-1V4C43,3.448,42.553,3,42,3z M2,21V5h9
		v16H2z M22,14h4v8h-4V14z M21,22h-4v-8h4V22z M27,22v-8.5c0-0.276-0.224-0.5-0.5-0.5h-5h-5c-0.276,0-0.5,0.224-0.5,0.5V22h-3V4V2
		h17v2v18H27z M41,21h-9V5h9V21z"/>
	<path style="fill:#004E5F;" d="M6,10h1c0.553,0,1-0.448,1-1V8c0-0.552-0.447-1-1-1H6C5.447,7,5,7.448,5,8v1C5,9.552,5.447,10,6,10z
		"/>
	<path style="fill:#004E5F;" d="M36,10h1c0.553,0,1-0.448,1-1V8c0-0.552-0.447-1-1-1h-1c-0.553,0-1,0.448-1,1v1
		C35,9.552,35.447,10,36,10z"/>
	<path style="fill:#004E5F;" d="M18,6h1c0.553,0,1-0.448,1-1V4c0-0.552-0.447-1-1-1h-1c-0.553,0-1,0.448-1,1v1
		C17,5.552,17.447,6,18,6z"/>
	<path style="fill:#004E5F;" d="M25,6h1c0.553,0,1-0.448,1-1V4c0-0.552-0.447-1-1-1h-1c-0.553,0-1,0.448-1,1v1
		C24,5.552,24.447,6,25,6z"/>
	<polygon style="fill:#004E5F;" points="4,13 4,14.125 4.867,13 	"/>
	<polygon style="fill:#004E5F;" points="9,19 9,17.057 7.502,19 	"/>
	<polygon style="fill:#004E5F;" points="4,15.354 4,19 6.556,19 9,15.828 9,13 5.814,13 	"/>
	<polygon style="fill:#004E5F;" points="34,13 34,14.125 34.867,13 	"/>
	<polygon style="fill:#004E5F;" points="39,19 39,17.057 37.502,19 	"/>
	<polygon style="fill:#004E5F;" points="39,15.828 39,13 35.814,13 34,15.354 34,19 36.556,19 	"/>
	<path style="fill:#004E5F;" d="M28.5,8h-14C14.224,8,14,8.224,14,8.5v3c0,0.276,0.224,0.5,0.5,0.5h14c0.276,0,0.5-0.224,0.5-0.5v-3
		C29,8.224,28.776,8,28.5,8z M28,11H15V9h13V11z"/>
	<rect x="19.5" y="17.057" style="fill:#004E5F;" width="0.375" height="0.972"/>
	<rect x="22.5" y="17.057" style="fill:#004E5F;" width="0.375" height="0.972"/>
</g>
<g id="big_icon">
	<path style="fill:#004E5F;" d="M54.938,4H42V0.915C42,0.192,41.272,0,40.549,0H15.696C14.974,0,14,0.192,14,0.915V4H1.308
		C0.585,4,0,4.116,0,4.839v23.545C0,29.106,0.585,30,1.308,30h13.081c0,0,0.585,1,1.308,1h24.853c0.724,0,1.309-1,1.309-1h13.08
		C55.661,30,56,29.106,56,28.384V4.839C56,4.116,55.661,4,54.938,4z M3,27V6h11v21H3z M29,18h5v10h-5V18z M27,28h-5V18h5V28z M35,28
		V17.266C35,16.904,35.024,17,34.663,17h-6.54h-6.54C21.221,17,21,16.904,21,17.266V28h-4V4.839V2h22v2.839V28H35z M54,27H42V6h12
		V27z"/>
	<path style="fill:#004E5F;" d="M11,10.309C11,9.586,10.414,9,9.692,9H8.308C7.586,9,7,9.586,7,10.309v1.383
		C7,12.414,7.586,13,8.308,13h1.385C10.414,13,11,12.414,11,11.691V10.309z"/>
	<path style="fill:#004E5F;" d="M50,10.309C50,9.586,49.414,9,48.691,9h-1.383C46.586,9,46,9.586,46,10.309v1.383
		C46,12.414,46.586,13,47.309,13h1.383C49.414,13,50,12.414,50,11.691V10.309z"/>
	<path style="fill:#004E5F;" d="M26,5.308C26,4.586,25.414,4,24.691,4h-1.383C22.586,4,22,4.586,22,5.308v1.385
		C22,7.414,22.586,8,23.309,8h1.383C25.414,8,26,7.414,26,6.692V5.308z"/>
	<path style="fill:#004E5F;" d="M35,5.308C35,4.586,34.414,4,33.691,4h-1.383C31.586,4,31,4.586,31,5.308v1.385
		C31,7.414,31.586,8,32.309,8h1.383C34.414,8,35,7.414,35,6.692V5.308z"/>
	<polygon style="fill:#004E5F;" points="5.232,16.611 5.232,18.083 6.366,16.611 	"/>
	<polygon style="fill:#004E5F;" points="12,24 12,21.918 9.813,24 	"/>
	<polygon style="fill:#004E5F;" points="5,19.691 5,24 8.575,24 12,20.311 12,17 7.605,17 	"/>
	<polygon style="fill:#004E5F;" points="44.474,16.611 44.474,18.083 45.607,16.611 	"/>
	<polygon style="fill:#004E5F;" points="51,24 51,21.918 49.054,24 	"/>
	<polygon style="fill:#004E5F;" points="51,20.311 51,17 46.847,17 44,19.691 44,24 47.816,24 	"/>
	<path style="fill:#004E5F;" d="M38,10.654C38,10.293,37.707,10,37.346,10H18.654C18.293,10,18,10.293,18,10.654v3.691
		C18,14.707,18.293,15,18.654,15h18.691C37.707,15,38,14.707,38,14.346V10.654z M37,14H20v-3h17V14z"/>
	<rect x="25.507" y="21.918" style="fill:#004E5F;" width="0.49" height="1.271"/>
	<rect x="29.431" y="21.918" style="fill:#004E5F;" width="0.491" height="1.271"/>
</g>
</svg>
