<svg version="1.1" id="Layer_1" xmlns="http://www.w3.org/2000/svg" xmlns:xlink="http://www.w3.org/1999/xlink" xml:space="preserve">
<g id="big_icon">
	<g>
		<rect x="3.495" y="4.924" fill="#084F5F" width="1" height="45.778"/>
	</g>
	<g>
		<polygon fill="#084F5F" points="42.57,51.702 3.995,51.702 3.995,49.702 40.57,49.702 40.57,5.924 3.995,5.924 3.995,3.924 
			42.57,3.924 		"/>
	</g>
	<g>
		<rect x="9.862" y="4.924" fill="#084F5F" width="2" height="45.778"/>
	</g>
	<g>
		<g>
			<path fill="#084F5F" d="M3.995,13.404c-2.228,0-4.04-1.812-4.04-4.04s1.812-4.04,4.04-4.04s4.039,1.812,4.039,4.04
				S6.223,13.404,3.995,13.404z M3.995,7.325c-1.125,0-2.04,0.915-2.04,2.04c0,1.125,0.915,2.04,2.04,2.04
				c1.124,0,2.039-0.915,2.039-2.04C6.034,8.24,5.119,7.325,3.995,7.325z"/>
		</g>
		<g>
			<path fill="#084F5F" d="M3.995,19.482c-2.228,0-4.04-1.812-4.04-4.039s1.812-4.039,4.04-4.039s4.039,1.812,4.039,4.039
				S6.223,19.482,3.995,19.482z M3.995,13.404c-1.125,0-2.04,0.915-2.04,2.039c0,1.124,0.915,2.039,2.04,2.039
				c1.124,0,2.039-0.915,2.039-2.039C6.034,14.319,5.119,13.404,3.995,13.404z"/>
		</g>
		<g>
			<path fill="#084F5F" d="M3.995,25.562c-2.228,0-4.04-1.812-4.04-4.04s1.812-4.04,4.04-4.04s4.039,1.812,4.039,4.04
				S6.223,25.562,3.995,25.562z M3.995,19.482c-1.125,0-2.04,0.915-2.04,2.04c0,1.125,0.915,2.04,2.04,2.04
				c1.124,0,2.039-0.915,2.039-2.04C6.034,20.397,5.119,19.482,3.995,19.482z"/>
		</g>
		<g>
			<path fill="#084F5F" d="M3.995,31.639c-2.228,0-4.04-1.812-4.04-4.04c0-2.227,1.812-4.038,4.04-4.038s4.039,1.812,4.039,4.038
				C8.034,29.827,6.223,31.639,3.995,31.639z M3.995,25.562c-1.125,0-2.04,0.914-2.04,2.038c0,1.125,0.915,2.04,2.04,2.04
				c1.124,0,2.039-0.915,2.039-2.04C6.034,26.476,5.119,25.562,3.995,25.562z"/>
		</g>
		<g>
			<path fill="#084F5F" d="M3.995,37.718c-2.228,0-4.04-1.812-4.04-4.04c0-2.227,1.812-4.039,4.04-4.039s4.039,1.812,4.039,4.039
				C8.034,35.906,6.223,37.718,3.995,37.718z M3.995,31.639c-1.125,0-2.04,0.915-2.04,2.039c0,1.125,0.915,2.04,2.04,2.04
				c1.124,0,2.039-0.915,2.039-2.04C6.034,32.554,5.119,31.639,3.995,31.639z"/>
		</g>
		<g>
			<path fill="#084F5F" d="M3.995,43.796c-2.228,0-4.04-1.812-4.04-4.04c0-2.227,1.812-4.038,4.04-4.038s4.039,1.812,4.039,4.038
				C8.034,41.984,6.223,43.796,3.995,43.796z M3.995,37.718c-1.125,0-2.04,0.914-2.04,2.038c0,1.125,0.915,2.04,2.04,2.04
				c1.124,0,2.039-0.915,2.039-2.04C6.034,38.632,5.119,37.718,3.995,37.718z"/>
		</g>
		<g>
			<path fill="#084F5F" d="M3.995,49.875c-2.228,0-4.04-1.812-4.04-4.041c0-2.227,1.812-4.039,4.04-4.039s4.039,1.812,4.039,4.039
				C8.034,48.063,6.223,49.875,3.995,49.875z M3.995,43.796c-1.125,0-2.04,0.915-2.04,2.039c0,1.125,0.915,2.041,2.04,2.041
				c1.124,0,2.039-0.916,2.039-2.041C6.034,44.711,5.119,43.796,3.995,43.796z"/>
		</g>
	</g>
	<g>
		<g>
			<path fill="#084F5F" d="M53.156,43.501h-6.291V7.246h6.291V43.501z M48.865,41.501h2.291V9.246h-2.291V41.501z"/>
		</g>
		<g>
			<path fill="#084F5F" d="M52.156,49.158h-4.291c-0.553,0-1-0.448-1-1v-5.657c0-0.552,0.447-1,1-1h4.291c0.553,0,1,0.448,1,1v5.657
				C53.156,48.71,52.709,49.158,52.156,49.158z M48.865,47.158h2.291v-3.657h-2.291V47.158z"/>
		</g>
		<g>
			<polygon fill="#084F5F" points="51.224,8.606 50.011,5.473 48.798,8.606 46.933,7.885 50.011,-0.068 53.089,7.885 			"/>
		</g>
	</g>
	<g>
		<path fill="#084F5F" d="M37.922,22.406H14.511v-8.007h23.411V22.406z M15.511,21.406h21.411v-6.007H15.511V21.406z"/>
	</g>
	<g>
		<rect x="47.865" y="37.917" fill="#084F5F" width="4.291" height="2"/>
	</g>
</g>
<g id="small_icon">
	<g>
		<rect x="2.721" y="4.358" fill="#084F5F" width="1" height="34.132"/>
	</g>
	<g>
		<polygon fill="#084F5F" points="32.237,39.491 3.221,39.491 3.221,37.491 30.237,37.491 30.237,5.358 3.221,5.358 3.221,3.358 
			32.237,3.358 		"/>
	</g>
	<g>
		<rect x="7.342" y="4.358" fill="#084F5F" width="2" height="34.132"/>
	</g>
	<g>
		<g>
			<path fill="#084F5F" d="M3.221,10.936c-1.801,0-3.266-1.466-3.266-3.267c0-1.8,1.465-3.265,3.266-3.265s3.267,1.465,3.267,3.265
				C6.487,9.47,5.021,10.936,3.221,10.936z M3.221,6.404c-0.698,0-1.266,0.567-1.266,1.265c0,0.699,0.567,1.267,1.266,1.267
				s1.267-0.568,1.267-1.267C4.487,6.971,3.919,6.404,3.221,6.404z"/>
		</g>
		<g>
			<path fill="#084F5F" d="M3.221,15.467c-1.801,0-3.266-1.465-3.266-3.266S1.42,8.936,3.221,8.936s3.267,1.465,3.267,3.266
				S5.021,15.467,3.221,15.467z M3.221,10.936c-0.698,0-1.266,0.568-1.266,1.266s0.567,1.266,1.266,1.266s1.267-0.568,1.267-1.266
				S3.919,10.936,3.221,10.936z"/>
		</g>
		<g>
			<path fill="#084F5F" d="M3.221,20.001c-1.801,0-3.266-1.466-3.266-3.268c0-1.801,1.465-3.266,3.266-3.266
				s3.267,1.465,3.267,3.266C6.487,18.535,5.021,20.001,3.221,20.001z M3.221,15.467c-0.698,0-1.266,0.568-1.266,1.266
				c0,0.699,0.567,1.268,1.266,1.268s1.267-0.569,1.267-1.268C4.487,16.035,3.919,15.467,3.221,15.467z"/>
		</g>
		<g>
			<path fill="#084F5F" d="M3.221,24.532c-1.801,0-3.266-1.465-3.266-3.266c0-1.8,1.465-3.265,3.266-3.265s3.267,1.464,3.267,3.265
				C6.487,23.066,5.021,24.532,3.221,24.532z M3.221,20.001c-0.698,0-1.266,0.567-1.266,1.265c0,0.698,0.567,1.266,1.266,1.266
				s1.267-0.568,1.267-1.266C4.487,20.568,3.919,20.001,3.221,20.001z"/>
		</g>
		<g>
			<path fill="#084F5F" d="M3.221,29.065c-1.801,0-3.266-1.466-3.266-3.267c0-1.801,1.465-3.266,3.266-3.266
				s3.267,1.465,3.267,3.266C6.487,27.599,5.021,29.065,3.221,29.065z M3.221,24.532c-0.698,0-1.266,0.568-1.266,1.266
				c0,0.699,0.567,1.267,1.266,1.267s1.267-0.568,1.267-1.267C4.487,25.1,3.919,24.532,3.221,24.532z"/>
		</g>
		<g>
			<path fill="#084F5F" d="M3.221,33.597c-1.801,0-3.266-1.465-3.266-3.267c0-1.8,1.465-3.265,3.266-3.265s3.267,1.465,3.267,3.265
				C6.487,32.131,5.021,33.597,3.221,33.597z M3.221,29.065c-0.698,0-1.266,0.567-1.266,1.265c0,0.698,0.567,1.267,1.266,1.267
				s1.267-0.568,1.267-1.267C4.487,29.632,3.919,29.065,3.221,29.065z"/>
		</g>
		<g>
			<path fill="#084F5F" d="M3.221,38.128c-1.801,0-3.266-1.465-3.266-3.266s1.465-3.266,3.266-3.266s3.267,1.465,3.267,3.266
				S5.021,38.128,3.221,38.128z M3.221,33.597c-0.698,0-1.266,0.568-1.266,1.266c0,0.698,0.567,1.266,1.266,1.266
				s1.267-0.568,1.267-1.266C4.487,34.165,3.919,33.597,3.221,33.597z"/>
		</g>
	</g>
	<g>
		<g>
			<path fill="#084F5F" d="M40.13,33.376h-5.199V5.835h5.199V33.376z M36.931,31.376h1.199V7.835h-1.199V31.376z"/>
		</g>
		<g>
			<path fill="#084F5F" d="M39.13,37.594h-3.199c-0.553,0-1-0.448-1-1v-4.218c0-0.552,0.447-1,1-1h3.199c0.553,0,1,0.448,1,1v4.218
				C40.13,37.146,39.683,37.594,39.13,37.594z M36.931,35.594h1.199v-2.218h-1.199V35.594z"/>
		</g>
		<g>
			<polygon fill="#084F5F" points="38.197,7.196 37.53,5.473 36.863,7.196 34.998,6.475 37.53,-0.068 40.062,6.475 			"/>
		</g>
	</g>
	<g>
		<path fill="#084F5F" d="M28.645,17.52H10.936v-6.224h17.709V17.52z M11.936,16.52h15.709v-4.224H11.936V16.52z"/>
	</g>
	<g>
		<rect x="35.931" y="28.258" fill="#084F5F" width="3.199" height="2"/>
	</g>
</g>
</svg>
