<svg version="1.1" id="Layer_1" xmlns="http://www.w3.org/2000/svg" xmlns:xlink="http://www.w3.org/1999/xlink" xml:space="preserve">
<g id="small_icon">
	<g>
		<path style="fill:#004E5F;" d="M6.058,19.84c-0.314,0-0.631-0.023-0.948-0.07c-1.673-0.25-3.149-1.136-4.155-2.496l-0.199-0.268
			c-2.077-2.806-1.484-6.78,1.322-8.858l9.11-6.743c1.36-1.006,3.03-1.422,4.703-1.174c1.673,0.25,3.149,1.136,4.155,2.496
			l0.199,0.268c2.077,2.807,1.484,6.78-1.322,8.858l-2.035,1.507c-0.445,0.327-1.071,0.234-1.399-0.208
			c-0.329-0.444-0.235-1.07,0.208-1.399l2.035-1.507c1.92-1.421,2.326-4.141,0.905-6.061l-0.199-0.268
			c-0.688-0.93-1.698-1.537-2.843-1.708c-1.146-0.172-2.288,0.115-3.218,0.803l-9.11,6.743c-1.92,1.422-2.326,4.141-0.904,6.062
			l0.199,0.268c0.688,0.93,1.698,1.537,2.843,1.708c1.145,0.17,2.288-0.115,3.218-0.803l2.151-1.592
			c0.442-0.329,1.07-0.235,1.398,0.209s0.235,1.07-0.209,1.398l-2.15,1.592C8.71,19.412,7.404,19.84,6.058,19.84z"/>
		<path style="fill:#004E5F;" d="M5.402,10.421c0.869-0.116,1.698-0.016,2.518,0.137c0.815,0.175,1.621,0.403,2.387,0.849
			c0.252,0.146,0.338,0.47,0.191,0.722c-0.082,0.141-0.221,0.23-0.37,0.255c-0.875,0.146-1.709,0.073-2.534-0.052
			c-0.82-0.147-1.631-0.348-2.403-0.764c-0.298-0.161-0.409-0.533-0.249-0.831C5.04,10.56,5.215,10.448,5.402,10.421z"/>
		<path style="fill:#004E5F;" d="M11.083,6.211c0.869-0.116,1.698-0.016,2.518,0.137c0.815,0.175,1.622,0.403,2.387,0.849
			c0.252,0.146,0.338,0.47,0.191,0.722c-0.082,0.141-0.221,0.23-0.37,0.255c-0.875,0.146-1.709,0.073-2.534-0.052
			c-0.82-0.148-1.631-0.348-2.403-0.764c-0.298-0.161-0.409-0.533-0.249-0.831C10.721,6.35,10.897,6.238,11.083,6.211z"/>
	</g>
	<g>
		<path style="fill:#004E5F;" d="M31,14H20c-0.552,0-1-0.448-1-1V9c0-0.552,0.448-1,1-1h11c0.552,0,1,0.448,1,1v4
			C32,13.552,31.552,14,31,14z M21,12h9v-2h-9V12z"/>
		<path style="fill:#004E5F;" d="M30,26h-9c-0.552,0-1-0.447-1-1V13c0-0.552,0.448-1,1-1h9c0.552,0,1,0.448,1,1v12
			C31,25.553,30.552,26,30,26z M22,24h7V14h-7V24z"/>
		<path style="fill:#004E5F;" d="M22.5,13.5c-0.276,0-0.5-0.224-0.5-0.5v-3c0-0.276,0.224-0.5,0.5-0.5S23,9.724,23,10v3
			C23,13.276,22.776,13.5,22.5,13.5z"/>
		<path style="fill:#004E5F;" d="M24.5,13.5c-0.276,0-0.5-0.224-0.5-0.5v-3c0-0.276,0.224-0.5,0.5-0.5S25,9.724,25,10v3
			C25,13.276,24.776,13.5,24.5,13.5z"/>
		<path style="fill:#004E5F;" d="M26.5,13.5c-0.276,0-0.5-0.224-0.5-0.5v-3c0-0.276,0.224-0.5,0.5-0.5S27,9.724,27,10v3
			C27,13.276,26.776,13.5,26.5,13.5z"/>
		<path style="fill:#004E5F;" d="M28.5,13.5c-0.276,0-0.5-0.224-0.5-0.5v-3c0-0.276,0.224-0.5,0.5-0.5S29,9.724,29,10v3
			C29,13.276,28.776,13.5,28.5,13.5z"/>
		<path style="fill:#004E5F;" d="M27.5,21h-4c-0.276,0-0.5-0.224-0.5-0.5v-4c0-0.276,0.224-0.5,0.5-0.5h4c0.276,0,0.5,0.224,0.5,0.5
			v4C28,20.776,27.776,21,27.5,21z M24,20h3v-3h-3V20z"/>
	</g>
	<g>
		<path style="fill:#004E5F;" d="M17,37h-6c-1.654,0-3-1.436-3-3.2v-8.6c0-1.169,1.392-5.009,2.054-6.767
			C10,18.155,10,17.861,10,17.625v-0.25C10,16.065,11.065,15,12.375,15h3.25C16.935,15,18,16.065,18,17.375v0.856
			c2,6.373,2,6.805,2,6.969v8.6C20,35.564,18.654,37,17,37z M12,17.748c0.178,0.262,0.229,0.594,0.112,0.898
			C11.096,21.303,10,24.564,10,25.2v8.6c0,0.661,0.449,1.2,1,1.2h6c0.551,0,1-0.539,1-1.2v-8.6c-0.063-0.358-1.044-3.62-1.954-6.516
			C16.016,18.587,16,18.474,16,18.373v-0.998C16,17.168,15.832,17,15.625,17h-3.25C12.168,17,12,17.168,12,17.375v0.25
			C12,17.669,12,17.709,12,17.748z"/>
		<path style="fill:#004E5F;" d="M15.621,17h-3.241C11.067,17,10,15.878,10,14.5s1.067-2.5,2.379-2.5h3.241
			C16.933,12,18,13.122,18,14.5S16.933,17,15.621,17z M12.379,14C12.174,14,12,14.229,12,14.5s0.174,0.5,0.379,0.5h3.241
			C15.826,15,16,14.771,16,14.5S15.826,14,15.621,14H12.379z"/>
		<path style="fill:#004E5F;" d="M16.5,31h-5c-0.276,0-0.5-0.224-0.5-0.5v-5c0-0.276,0.224-0.5,0.5-0.5h5c0.276,0,0.5,0.224,0.5,0.5
			v5C17,30.776,16.776,31,16.5,31z M12,30h4v-4h-4V30z"/>
	</g>
</g>
<g id="big_icon">
	<g>
		<path style="fill:#004E5F;" d="M7.569,24.661c-0.388,0-0.776-0.028-1.166-0.087c-2.058-0.307-3.872-1.397-5.11-3.069l-0.252-0.342
			c-2.555-3.45-1.825-8.336,1.625-10.892L14.26,1.69c1.672-1.238,3.725-1.754,5.783-1.443c2.059,0.307,3.873,1.397,5.109,3.069
			l0.253,0.34c2.554,3.452,1.825,8.338-1.626,10.893l-2.59,1.918c-0.443,0.328-1.07,0.234-1.398-0.208
			c-0.328-0.444-0.235-1.07,0.209-1.399l2.59-1.918c2.564-1.899,3.106-5.53,1.208-8.095l-0.253-0.34
			c-0.92-1.243-2.268-2.053-3.797-2.281c-1.528-0.232-3.055,0.153-4.298,1.073L3.856,11.878c-2.563,1.899-3.106,5.531-1.208,8.096
			l0.254,0.342c0.918,1.242,2.268,2.052,3.796,2.28c1.526,0.227,3.056-0.153,4.298-1.073l2.737-2.026
			c0.443-0.329,1.069-0.235,1.398,0.209c0.329,0.444,0.235,1.07-0.209,1.398l-2.737,2.026C10.831,24.135,9.225,24.661,7.569,24.661z
			"/>
		<path style="fill:#004E5F;" d="M6.707,13.103c1.092-0.075,2.145,0.066,3.188,0.26c1.039,0.215,2.068,0.484,3.058,0.971
			c0.257,0.126,0.362,0.435,0.236,0.691c-0.082,0.167-0.242,0.27-0.414,0.286c-1.099,0.104-2.156-0.008-3.205-0.175
			c-1.044-0.188-2.078-0.429-3.074-0.886c-0.302-0.139-0.434-0.496-0.295-0.798C6.296,13.246,6.494,13.118,6.707,13.103z"/>
		<path style="fill:#004E5F;" d="M13.938,7.745c1.093-0.075,2.146,0.066,3.189,0.26c1.039,0.216,2.068,0.485,3.058,0.972
			c0.257,0.126,0.362,0.436,0.235,0.691c-0.082,0.167-0.242,0.27-0.414,0.286c-1.098,0.104-2.156-0.009-3.205-0.175
			c-1.043-0.188-2.078-0.43-3.073-0.887c-0.302-0.139-0.435-0.496-0.296-0.798C13.527,7.888,13.726,7.76,13.938,7.745z"/>
	</g>
	<g>
		<path style="fill:#004E5F;" d="M39,17H25c-0.553,0-1-0.448-1-1v-5c0-0.552,0.447-1,1-1h14c0.553,0,1,0.448,1,1v5
			C40,16.552,39.553,17,39,17z M26,15h12v-3H26V15z"/>
		<path style="fill:#004E5F;" d="M38,33H27c-0.553,0-1-0.447-1-1V16c0-0.552,0.447-1,1-1h11c0.553,0,1,0.448,1,1v16
			C39,32.553,38.553,33,38,33z M28,31h9V17h-9V31z"/>
		<path style="fill:#004E5F;" d="M28.5,16.5c-0.276,0-0.5-0.224-0.5-0.5v-4c0-0.276,0.224-0.5,0.5-0.5S29,11.724,29,12v4
			C29,16.276,28.776,16.5,28.5,16.5z"/>
		<path style="fill:#004E5F;" d="M31.5,16.5c-0.276,0-0.5-0.224-0.5-0.5v-4c0-0.276,0.224-0.5,0.5-0.5S32,11.724,32,12v4
			C32,16.276,31.776,16.5,31.5,16.5z"/>
		<path style="fill:#004E5F;" d="M33.5,16.5c-0.276,0-0.5-0.224-0.5-0.5v-4c0-0.276,0.224-0.5,0.5-0.5S34,11.724,34,12v4
			C34,16.276,33.776,16.5,33.5,16.5z"/>
		<path style="fill:#004E5F;" d="M36.5,16.5c-0.276,0-0.5-0.224-0.5-0.5v-4c0-0.276,0.224-0.5,0.5-0.5S37,11.724,37,12v4
			C37,16.276,36.776,16.5,36.5,16.5z"/>
		<path style="fill:#004E5F;" d="M34.5,26h-5c-0.276,0-0.5-0.224-0.5-0.5v-5c0-0.276,0.224-0.5,0.5-0.5h5c0.276,0,0.5,0.224,0.5,0.5
			v5C35,25.776,34.776,26,34.5,26z M30,25h4v-4h-4V25z"/>
	</g>
	<g>
		<path style="fill:#004E5F;" d="M21.496,47h-7.637C11.947,47,10,44.83,10,42.699V31.756c0-1.523,2.152-6.922,2.906-8.768
			c0-0.099,0.014-0.196,0.038-0.287C12.981,22.568,13,22.371,13,22.114v-0.318C13,20.229,14.146,19,15.609,19h4.137
			C20.274,19,22,19.202,22,21.796v1.105c3,8.108,3,8.649,3,8.854v10.943C25,44.734,23.561,47,21.496,47z M14.97,22.718
			c0.05,0.203,0.037,0.421-0.047,0.624C13.486,26.814,12,30.912,12,31.756v10.943C12,43.788,13.108,45,13.859,45h7.637
			C22.213,45,23,43.796,23,42.699V31.756c-0.09-0.459-1.566-4.623-2.938-8.328C20.021,23.317,20,23.198,20,23.079v-1.283
			c0-0.613-0.143-0.778-0.148-0.785l0,0c-0.002,0-0.033-0.012-0.105-0.012h-4.137C15.162,21,15,21.476,15,21.796v0.318
			C15,22.356,14.988,22.555,14.97,22.718z"/>
		<path style="fill:#004E5F;" d="M20.244,21h-4.488C14.236,21,13,19.695,13,18.091v-0.182C13,16.305,14.236,15,15.756,15h4.488
			C21.764,15,23,16.305,23,17.909v0.182C23,19.695,21.764,21,20.244,21z M15.756,17C15.339,17,15,17.408,15,17.909v0.182
			C15,18.592,15.339,19,15.756,19h4.488C20.661,19,21,18.592,21,18.091v-0.182C21,17.408,20.661,17,20.244,17H15.756z"/>
		<path style="fill:#004E5F;" d="M20.5,39h-6c-0.276,0-0.5-0.224-0.5-0.5v-6c0-0.276,0.224-0.5,0.5-0.5h6c0.276,0,0.5,0.224,0.5,0.5
			v6C21,38.776,20.776,39,20.5,39z M15,38h5v-5h-5V38z"/>
	</g>
</g>
</svg>
