<svg version="1.1" id="Layer_1" xmlns="http://www.w3.org/2000/svg" xmlns:xlink="http://www.w3.org/1999/xlink" xml:space="preserve">
<g id="small_icon">
	<path style="fill:#004E5F;" d="M34,14L34,14L2,13.989c-0.419,0-0.794-0.263-0.938-0.656C-1.671,5.868,4.032,1.725,4.089,1.684
		c0.419-0.295,0.993-0.228,1.33,0.158c1.582,1.808,5.274,1.996,6.534,2.005c1.246-3.282,2.987-3.996,4.266-3.996
		c1.345,0,2.321,0.796,2.428,0.887C18.735,0.813,18.809,0.901,18.866,1c2.053,3.559,5.244,3.662,5.601,3.662
		c5.483,0.096,8.044,2.333,9.24,4.192c1.317,2.045,1.294,4.08,1.293,4.165C34.99,13.563,34.545,14,34,14z M2.721,11.989L32.88,12
		c-0.377-1.754-1.936-5.224-8.369-5.339c-0.849,0.014-4.706-0.217-7.269-4.476c-0.184-0.119-0.576-0.334-1.023-0.334
		c-1.334,0-2.203,2.062-2.602,3.292c-0.127,0.391-0.482,0.665-0.893,0.689c0,0-0.249,0.015-0.667,0.015
		c-1.561,0-5.162-0.21-7.42-2.002C3.534,4.935,1.438,7.686,2.721,11.989z"/>
	<path style="fill:#004E5F;" d="M34,17H2c-0.552,0-1-0.447-1-1v-3c0-0.553,0.448-1,1-1h32c0.552,0,1,0.447,1,1v3
		C35,16.553,34.552,17,34,17z M3,15h30v-1H3V15z"/>
	<path style="fill:#004E5F;" d="M17.659,6.807c-0.299,0-0.595-0.134-0.792-0.389c-0.337-0.437-0.257-1.065,0.18-1.403l3.476-2.685
		c0.437-0.337,1.064-0.257,1.403,0.18c0.337,0.437,0.257,1.065-0.18,1.403L18.27,6.598C18.087,6.739,17.873,6.807,17.659,6.807z"/>
	<path style="fill:#004E5F;" d="M21.088,7.925c-0.289,0-0.575-0.125-0.773-0.365c-0.351-0.427-0.289-1.057,0.137-1.408l3.537-2.909
		c0.426-0.351,1.057-0.289,1.408,0.137c0.351,0.427,0.289,1.057-0.137,1.408l-3.537,2.909C21.537,7.851,21.312,7.925,21.088,7.925z"
		/>
	<path style="fill:#004E5F;" d="M5.5,16.5C5.224,16.5,5,16.276,5,16v-3c0-0.276,0.224-0.5,0.5-0.5S6,12.724,6,13v3
		C6,16.276,5.776,16.5,5.5,16.5z"/>
	<path style="fill:#004E5F;" d="M8.5,16.5C8.224,16.5,8,16.276,8,16v-3c0-0.276,0.224-0.5,0.5-0.5S9,12.724,9,13v3
		C9,16.276,8.776,16.5,8.5,16.5z"/>
	<path style="fill:#004E5F;" d="M11.5,16.5c-0.276,0-0.5-0.224-0.5-0.5v-3c0-0.276,0.224-0.5,0.5-0.5S12,12.724,12,13v3
		C12,16.276,11.776,16.5,11.5,16.5z"/>
	<path style="fill:#004E5F;" d="M14.5,16.5c-0.276,0-0.5-0.224-0.5-0.5v-3c0-0.276,0.224-0.5,0.5-0.5S15,12.724,15,13v3
		C15,16.276,14.776,16.5,14.5,16.5z"/>
	<path style="fill:#004E5F;" d="M17.5,16.5c-0.276,0-0.5-0.224-0.5-0.5v-3c0-0.276,0.224-0.5,0.5-0.5S18,12.724,18,13v3
		C18,16.276,17.776,16.5,17.5,16.5z"/>
	<path style="fill:#004E5F;" d="M21.5,16.5c-0.276,0-0.5-0.224-0.5-0.5v-3c0-0.276,0.224-0.5,0.5-0.5S22,12.724,22,13v3
		C22,16.276,21.776,16.5,21.5,16.5z"/>
	<path style="fill:#004E5F;" d="M24.5,16.5c-0.276,0-0.5-0.224-0.5-0.5v-3c0-0.276,0.224-0.5,0.5-0.5S25,12.724,25,13v3
		C25,16.276,24.776,16.5,24.5,16.5z"/>
	<path style="fill:#004E5F;" d="M27.5,16.5c-0.276,0-0.5-0.224-0.5-0.5v-3c0-0.276,0.224-0.5,0.5-0.5S28,12.724,28,13v3
		C28,16.276,27.776,16.5,27.5,16.5z"/>
	<path style="fill:#004E5F;" d="M30.5,16.5c-0.276,0-0.5-0.224-0.5-0.5v-3c0-0.276,0.224-0.5,0.5-0.5S31,12.724,31,13v3
		C31,16.276,30.776,16.5,30.5,16.5z"/>
	<path style="fill:#004E5F;" d="M23.551,13.02c-0.141,0-0.281-0.061-0.38-0.176c-1.493-1.746-4.247-2.715-7.487-2.688
		c-5.334,0.06-6.746,2.161-6.76,2.182c-0.148,0.229-0.455,0.3-0.688,0.156c-0.232-0.146-0.306-0.448-0.164-0.681
		c0.064-0.106,1.644-2.59,7.599-2.657c3.584-0.013,6.574,1.067,8.259,3.039c0.18,0.21,0.155,0.525-0.055,0.704
		C23.782,12.979,23.666,13.02,23.551,13.02z"/>
</g>
<g id="big_icon">
	<path style="fill:#004E5F;" d="M45,18H2c-0.42,0-0.795-0.262-0.939-0.656C-2.551,7.473,5.37,2.808,5.451,2.762
		c0.413-0.235,0.936-0.148,1.249,0.21c2.334,2.668,7.8,2.825,9.288,2.815c1.611-4.421,3.859-5.375,5.499-5.375
		c1.686,0,2.908,0.998,3.042,1.111c0.087,0.075,0.162,0.163,0.219,0.263c2.858,4.955,7.332,5.098,7.832,5.098
		c0.007,0,0.093,0.01,0.104-0.001c4.932,0.089,8.599,1.401,10.898,3.901c2.611,2.838,2.427,6.143,2.418,6.283
		C45.963,17.592,45.527,18,45,18z M2.715,16h41.22c-0.141-0.963-0.568-2.451-1.854-3.832C40.164,10.104,36.989,9,32.646,9
		c-0.003,0-0.005,0-0.008,0c-1.081,0-6.175-0.359-9.519-5.978c-0.25-0.173-0.887-0.582-1.633-0.582
		c-1.913,0-3.137,2.523-3.828,4.652c-0.127,0.391-0.482,0.658-0.893,0.682c0,0-0.327,0.017-0.876,0.017
		c-2.132,0-7.147-0.296-10.064-2.868C4.308,6.08,0.698,9.617,2.715,16z"/>
	<path style="fill:#004E5F;" d="M45,23H2c-0.552,0-1-0.447-1-1v-5c0-0.553,0.448-1,1-1h43c0.553,0,1,0.447,1,1v5
		C46,22.553,45.553,23,45,23z M3,21h41v-3H3V21z"/>
	<path style="fill:#004E5F;" d="M23.421,9.078c-0.299,0-0.595-0.134-0.792-0.389c-0.337-0.437-0.257-1.065,0.18-1.403l4.676-3.611
		c0.436-0.337,1.064-0.257,1.403,0.18c0.337,0.437,0.257,1.065-0.18,1.403l-4.676,3.611C23.85,9.01,23.635,9.078,23.421,9.078z"/>
	<path style="fill:#004E5F;" d="M28.034,10.582c-0.289,0-0.575-0.125-0.773-0.365C26.91,9.791,26.972,9.16,27.398,8.81l4.758-3.912
		c0.426-0.35,1.057-0.29,1.407,0.137s0.289,1.057-0.138,1.408l-4.757,3.912C28.482,10.507,28.257,10.582,28.034,10.582z"/>
	<path style="fill:#004E5F;" d="M6.5,22.5C6.224,22.5,6,22.276,6,22v-5c0-0.276,0.224-0.5,0.5-0.5S7,16.724,7,17v5
		C7,22.276,6.776,22.5,6.5,22.5z"/>
	<path style="fill:#004E5F;" d="M11.5,22.5c-0.276,0-0.5-0.224-0.5-0.5v-5c0-0.276,0.224-0.5,0.5-0.5S12,16.724,12,17v5
		C12,22.276,11.776,22.5,11.5,22.5z"/>
	<path style="fill:#004E5F;" d="M15.5,22.5c-0.276,0-0.5-0.224-0.5-0.5v-5c0-0.276,0.224-0.5,0.5-0.5S16,16.724,16,17v5
		C16,22.276,15.776,22.5,15.5,22.5z"/>
	<path style="fill:#004E5F;" d="M18.5,22.5c-0.276,0-0.5-0.224-0.5-0.5v-5c0-0.276,0.224-0.5,0.5-0.5S19,16.724,19,17v5
		C19,22.276,18.776,22.5,18.5,22.5z"/>
	<path style="fill:#004E5F;" d="M23.5,22.5c-0.276,0-0.5-0.224-0.5-0.5v-5c0-0.276,0.224-0.5,0.5-0.5S24,16.724,24,17v5
		C24,22.276,23.776,22.5,23.5,22.5z"/>
	<path style="fill:#004E5F;" d="M28.5,22.5c-0.276,0-0.5-0.224-0.5-0.5v-5c0-0.276,0.224-0.5,0.5-0.5S29,16.724,29,17v5
		C29,22.276,28.776,22.5,28.5,22.5z"/>
	<path style="fill:#004E5F;" d="M32.5,22.5c-0.276,0-0.5-0.224-0.5-0.5v-5c0-0.276,0.224-0.5,0.5-0.5S33,16.724,33,17v5
		C33,22.276,32.776,22.5,32.5,22.5z"/>
	<path style="fill:#004E5F;" d="M36.5,22.5c-0.276,0-0.5-0.224-0.5-0.5v-5c0-0.276,0.224-0.5,0.5-0.5S37,16.724,37,17v5
		C37,22.276,36.776,22.5,36.5,22.5z"/>
	<path style="fill:#004E5F;" d="M40.5,22.5c-0.276,0-0.5-0.224-0.5-0.5v-5c0-0.276,0.224-0.5,0.5-0.5S41,16.724,41,17v5
		C41,22.276,40.776,22.5,40.5,22.5z"/>
	<path style="fill:#004E5F;" d="M31.347,17.606c-0.142,0-0.281-0.06-0.38-0.175c-0.215-0.252-0.423-0.26-0.634-0.521
		C28.688,14.865,26.985,13,20.715,13c-0.001,0-0.002,0-0.004,0c-7.267,0-9.075,3.777-9.148,3.949
		c-0.108,0.253-0.402,0.248-0.655,0.14c-0.253-0.107-0.373-0.21-0.267-0.464C10.723,16.428,12.739,12,20.711,12
		c0.001,0,0.002,0,0.004,0c6.75,0,8.688,2.158,10.397,4.283c0.204,0.254,0.406,0.38,0.614,0.623c0.18,0.21,0.154,0.463-0.055,0.643
		C31.578,17.629,31.462,17.606,31.347,17.606z"/>
</g>
</svg>
