<svg version="1.1" id="Layer_1" xmlns="http://www.w3.org/2000/svg" xmlns:xlink="http://www.w3.org/1999/xlink" xml:space="preserve">
<g id="small_icon">
	<g>
		<path style="fill:#004E5F;" d="M5.66,15.813c-0.312,0-0.609-0.146-0.799-0.399L0.238,9.262C0.026,8.98-0.021,8.607,0.113,8.281
			l2.931-7.114c0.137-0.333,0.442-0.565,0.798-0.611l7.554-0.963c0.356-0.044,0.71,0.104,0.926,0.392l4.623,6.151
			c0.212,0.282,0.26,0.655,0.125,0.981l-2.931,7.114c-0.137,0.333-0.442,0.565-0.798,0.611l-7.553,0.963
			C5.744,15.811,5.702,15.813,5.66,15.813z M2.179,8.516l3.931,5.231l6.4-0.816l2.493-6.05l-3.931-5.231l-6.4,0.816L2.179,8.516z"/>
		<path style="fill:#004E5F;" d="M8.597,11.112c-1.668,0-3.086-1.25-3.297-2.908C5.187,7.323,5.425,6.45,5.969,5.747
			c0.544-0.704,1.33-1.153,2.212-1.265c1.842-0.234,3.495,1.084,3.723,2.881c0.112,0.882-0.125,1.754-0.669,2.458
			c-0.544,0.704-1.33,1.153-2.212,1.265C8.88,11.104,8.738,11.112,8.597,11.112z M8.605,5.455c-0.099,0-0.198,0.006-0.298,0.019
			C7.69,5.552,7.14,5.866,6.76,6.358C6.379,6.85,6.213,7.461,6.292,8.078c0.16,1.258,1.309,2.183,2.604,2.015
			c0.618-0.079,1.167-0.393,1.548-0.885c0.38-0.492,0.547-1.103,0.468-1.719C10.764,6.329,9.772,5.455,8.605,5.455z"/>
	</g>
	<g>
		<path style="fill:#004E5F;" d="M7.903,29.725c-0.307,0-0.601-0.143-0.792-0.389l-3.192-4.133c-0.22-0.285-0.27-0.666-0.131-0.997
			l2.032-4.869c0.136-0.325,0.434-0.556,0.783-0.604l5.225-0.737c0.357-0.05,0.711,0.095,0.931,0.379l3.192,4.132
			c0.22,0.284,0.27,0.664,0.131,0.996l-2.032,4.87c-0.136,0.325-0.434,0.556-0.783,0.604l-5.225,0.738
			C7.996,29.721,7.95,29.725,7.903,29.725z M5.858,24.439l2.481,3.213l4.085-0.576l1.589-3.808l-2.481-3.212l-4.085,0.576
			L5.858,24.439z"/>
		<path style="fill:#004E5F;" d="M9.89,26.33c-0.762,0-1.466-0.346-1.932-0.948c-0.398-0.516-0.572-1.155-0.489-1.802
			s0.413-1.223,0.929-1.621c1.034-0.799,2.625-0.592,3.422,0.439c0.398,0.516,0.572,1.156,0.489,1.804
			c-0.083,0.646-0.413,1.222-0.929,1.618C10.95,26.154,10.435,26.33,9.89,26.33z M9.887,22.451c-0.321,0-0.624,0.104-0.878,0.299
			c-0.305,0.236-0.5,0.575-0.548,0.957c-0.049,0.381,0.054,0.759,0.289,1.063c0.471,0.611,1.408,0.735,2.019,0.26
			c0.305-0.234,0.5-0.574,0.548-0.955c0.049-0.381-0.053-0.76-0.289-1.064C10.753,22.654,10.337,22.451,9.887,22.451z"/>
	</g>
	<g>
		<path style="fill:#004E5F;" d="M27.846,14.658c-0.078,0-0.157-0.009-0.234-0.028l-10.001-2.405
			c-0.537-0.129-0.868-0.669-0.738-1.206l2.404-10.002c0.062-0.258,0.224-0.48,0.45-0.619s0.499-0.181,0.756-0.119l2.584,0.622
			c0.391,0.094,0.687,0.412,0.752,0.809l0.099,0.594l0.665-0.595c0.246-0.218,0.582-0.303,0.9-0.227l5.001,1.202
			c0.258,0.062,0.481,0.224,0.619,0.45c0.139,0.227,0.182,0.498,0.12,0.756l-2.404,10.002c-0.062,0.258-0.224,0.48-0.45,0.619
			C28.21,14.608,28.029,14.658,27.846,14.658z M19.051,10.515l8.057,1.938l1.937-8.058l-3.519-0.846l-1.63,1.457
			c-0.271,0.244-0.653,0.319-0.999,0.198c-0.344-0.121-0.595-0.42-0.654-0.78L21.955,2.69l-0.968-0.233L19.051,10.515z"/>
		<path style="fill:#004E5F;" d="M19.07,20.598c-0.206,0-0.414-0.064-0.593-0.195c-1.991-1.471-2.904-3.977-2.326-6.382l0.722-3
			c0.129-0.537,0.669-0.868,1.206-0.738c0.537,0.129,0.868,0.669,0.738,1.206l-0.722,3c-0.39,1.624,0.226,3.313,1.57,4.305
			c0.444,0.328,0.538,0.954,0.21,1.398C19.679,20.457,19.376,20.598,19.07,20.598z"/>
		<path style="fill:#004E5F;" d="M22.961,21.532c-0.48,0-0.904-0.347-0.985-0.837c-0.09-0.545,0.278-1.059,0.823-1.149
			c1.647-0.273,2.964-1.499,3.354-3.122l0.721-3c0.129-0.537,0.672-0.868,1.206-0.738c0.537,0.129,0.868,0.669,0.738,1.206l-0.721,3
			c-0.578,2.405-2.53,4.221-4.971,4.626C23.071,21.527,23.016,21.532,22.961,21.532z"/>
		<path style="fill:#004E5F;" d="M27.126,17.658c-0.078,0-0.156-0.009-0.235-0.027l-10.002-2.404
			c-0.537-0.129-0.868-0.669-0.738-1.207c0.129-0.537,0.673-0.868,1.206-0.738l10.002,2.404c0.537,0.129,0.868,0.67,0.738,1.207
			C27.987,17.351,27.578,17.658,27.126,17.658z"/>
		<path style="fill:#004E5F;" d="M18.757,32.517c-0.235,0-0.475-0.027-0.713-0.085c-0.794-0.191-1.466-0.68-1.893-1.376
			c-0.426-0.696-0.556-1.519-0.365-2.312l2.164-9.002c0.129-0.537,0.672-0.867,1.206-0.738c0.537,0.129,0.868,0.669,0.738,1.206
			l-2.164,9.002c-0.066,0.274-0.021,0.559,0.126,0.8c0.147,0.24,0.38,0.41,0.654,0.476c0.566,0.137,1.139-0.214,1.275-0.782
			l2.164-9.001c0.129-0.537,0.672-0.867,1.206-0.738c0.537,0.129,0.868,0.669,0.738,1.206l-2.164,9.002
			C21.394,31.573,20.138,32.517,18.757,32.517z"/>
	</g>
</g>
<g id="big_icon">
	<g>
		<path style="fill:#004E5F;" d="M7.612,22.82c-0.312,0-0.609-0.146-0.799-0.399l-6.574-8.748c-0.212-0.282-0.26-0.655-0.125-0.981
			L4.281,2.573c0.137-0.333,0.442-0.565,0.798-0.611l10.743-1.37c0.359-0.046,0.709,0.104,0.926,0.392l6.574,8.748
			c0.212,0.282,0.26,0.655,0.125,0.981l-4.168,10.118c-0.137,0.333-0.442,0.565-0.798,0.611l-10.742,1.37
			C7.696,22.817,7.654,22.82,7.612,22.82z M2.179,12.926l5.883,7.828l9.589-1.223l3.73-9.054l-5.883-7.828L5.909,3.873L2.179,12.926
			z"/>
		<path style="fill:#004E5F;" d="M11.789,16.847c-2.518,0-4.657-1.886-4.976-4.388c-0.17-1.331,0.188-2.648,1.01-3.709
			C8.644,7.688,9.829,7.01,11.16,6.84c2.783-0.354,5.273,1.636,5.619,4.348c0.169,1.331-0.189,2.648-1.01,3.709
			c-0.821,1.062-2.006,1.739-3.338,1.909C12.215,16.833,12,16.847,11.789,16.847z M11.8,8.8c-0.128,0-0.257,0.008-0.388,0.025
			c-0.801,0.102-1.514,0.51-2.008,1.148s-0.71,1.432-0.608,2.232c0.208,1.634,1.712,2.827,3.381,2.616
			c0.802-0.102,1.515-0.51,2.009-1.149c0.494-0.638,0.71-1.431,0.607-2.232C14.603,9.935,13.315,8.8,11.8,8.8z"/>
	</g>
	<g>
		<path style="fill:#004E5F;" d="M10.802,42.604c-0.307,0-0.601-0.142-0.792-0.389l-4.54-5.878c-0.22-0.283-0.27-0.664-0.131-0.996
			l2.89-6.925c0.136-0.325,0.434-0.556,0.783-0.604l7.431-1.049c0.355-0.049,0.711,0.095,0.931,0.379l4.54,5.877
			c0.22,0.283,0.27,0.664,0.131,0.996l-2.89,6.926c-0.136,0.326-0.434,0.556-0.783,0.605l-7.431,1.048
			C10.895,42.602,10.848,42.604,10.802,42.604z M7.409,35.576l3.829,4.957l6.291-0.888l2.447-5.864l-3.829-4.955l-6.291,0.887
			L7.409,35.576z"/>
		<path style="fill:#004E5F;" d="M13.627,37.989c-1.018,0-1.959-0.462-2.581-1.267c-0.532-0.689-0.765-1.544-0.654-2.408
			c0.111-0.863,0.552-1.632,1.241-2.164c0.575-0.444,1.263-0.68,1.989-0.68c1.019,0,1.96,0.463,2.582,1.268
			c0.532,0.689,0.765,1.544,0.654,2.408c-0.111,0.863-0.552,1.631-1.241,2.162C15.043,37.754,14.354,37.989,13.627,37.989z
			 M13.623,32.471c-0.503,0-0.979,0.163-1.378,0.471c-0.478,0.369-0.783,0.902-0.86,1.501c-0.077,0.599,0.084,1.19,0.453,1.668
			c0.738,0.957,2.209,1.149,3.168,0.407c0.478-0.369,0.783-0.9,0.86-1.499c0.077-0.599-0.084-1.191-0.453-1.669
			C14.982,32.791,14.33,32.471,13.623,32.471z"/>
	</g>
	<g>
		<path style="fill:#004E5F;" d="M39.164,21.178c-0.078,0-0.156-0.009-0.233-0.028l-14.224-3.42
			c-0.537-0.129-0.868-0.669-0.738-1.206l3.419-14.225c0.062-0.258,0.224-0.48,0.45-0.619c0.226-0.138,0.497-0.181,0.756-0.119
			l3.675,0.884c0.391,0.094,0.687,0.412,0.752,0.809l0.266,1.602l1.518-1.357c0.246-0.218,0.582-0.303,0.9-0.227l7.113,1.709
			c0.258,0.062,0.48,0.224,0.618,0.45c0.139,0.227,0.182,0.499,0.12,0.756l-3.42,14.226c-0.063,0.258-0.224,0.48-0.45,0.619
			C39.528,21.128,39.348,21.178,39.164,21.178z M26.146,16.02l12.279,2.953l2.952-12.281l-5.63-1.353l-2.483,2.22
			c-0.271,0.244-0.654,0.32-0.999,0.198c-0.344-0.121-0.595-0.42-0.654-0.78l-0.455-2.741l-2.059-0.496L26.146,16.02z"/>
		<path style="fill:#004E5F;" d="M26.683,29.625c-0.206,0-0.415-0.064-0.593-0.196c-2.695-1.99-3.931-5.38-3.148-8.637l1.026-4.268
			c0.129-0.538,0.67-0.868,1.206-0.738c0.537,0.129,0.868,0.669,0.738,1.206l-1.026,4.268c-0.594,2.473,0.345,5.049,2.392,6.561
			c0.444,0.328,0.538,0.954,0.21,1.398C27.292,29.484,26.99,29.625,26.683,29.625z"/>
		<path style="fill:#004E5F;" d="M32.218,30.954c-0.48,0-0.904-0.347-0.985-0.837c-0.09-0.545,0.278-1.059,0.823-1.149
			c2.51-0.417,4.517-2.283,5.112-4.757l1.025-4.267c0.13-0.537,0.671-0.868,1.206-0.738c0.537,0.129,0.867,0.669,0.738,1.206
			l-1.025,4.267c-0.783,3.257-3.424,5.714-6.729,6.262C32.327,30.949,32.272,30.954,32.218,30.954z"/>
		<path style="fill:#004E5F;" d="M38.141,25.445c-0.078,0-0.156-0.01-0.235-0.028L23.68,21.998
			c-0.537-0.129-0.868-0.669-0.738-1.206c0.129-0.537,0.672-0.866,1.206-0.738l14.225,3.419c0.537,0.129,0.867,0.669,0.738,1.206
			C39.002,25.137,38.592,25.445,38.141,25.445z"/>
		<path style="fill:#004E5F;" d="M26.238,46.576c-0.302,0-0.609-0.035-0.916-0.109c-1.02-0.244-1.883-0.873-2.431-1.768
			c-0.548-0.895-0.714-1.948-0.468-2.968L25.5,28.93c0.129-0.537,0.671-0.869,1.206-0.738c0.537,0.129,0.868,0.668,0.738,1.205
			l-3.077,12.803c-0.121,0.501-0.039,1.018,0.229,1.457c0.269,0.438,0.692,0.746,1.192,0.867c1.034,0.247,2.075-0.391,2.323-1.424
			l3.078-12.803c0.129-0.537,0.673-0.867,1.206-0.738c0.537,0.129,0.868,0.67,0.738,1.207l-3.078,12.801
			C29.625,45.365,28.011,46.576,26.238,46.576z"/>
	</g>
</g>
</svg>
