<svg version="1.1" id="Layer_1" xmlns="http://www.w3.org/2000/svg" xmlns:xlink="http://www.w3.org/1999/xlink" xml:space="preserve">
<g id="big_icon">
<path fill="#084F5F" d="M55.551,18.079L38.65,1.177c-0.375-0.375-1.039-0.375-1.414,0l-3.568,3.569L25.68,0.135
	c-0.478-0.277-1.09-0.112-1.366,0.366l-3.065,5.311L13.031,3.61c-0.531-0.142-1.082,0.174-1.225,0.707l-1.769,6.6H1
	c-0.553,0-1,0.448-1,1v32c0,0.552,0.447,1,1,1h24c0.553,0,1-0.448,1-1v-2.144l1.448,0.388c0.085,0.023,0.172,0.034,0.259,0.034
	c0.174,0,0.347-0.045,0.5-0.134c0.229-0.133,0.397-0.351,0.466-0.607l0.209-0.781l0.745,0.43c0.157,0.091,0.329,0.134,0.499,0.134
	c0.308,0,0.601-0.148,0.794-0.405l0.938,0.939c0.188,0.188,0.441,0.293,0.707,0.293s0.52-0.105,0.707-0.293l22.278-22.279
	C55.941,19.102,55.941,18.469,55.551,18.079z M32.565,39.65l-0.599-0.599l14.78-25.6c0.133-0.229,0.168-0.502,0.1-0.759
	s-0.236-0.475-0.466-0.607l-10.92-6.304l2.482-2.483L53.43,18.786L32.565,39.65z M27.089,39.639L27,39.971l-1-0.268V39.01v-1.155
	V36.7v-0.788v-1.414v-1.414V15.242v-1.414v-1.414v-0.497c0-0.552-0.447-1-1-1h-4.391h-1.154H18.3h-6.191L13.479,5.8l6.733,1.804
	l1,0.268l1,0.268l6.357,1.704l1.115,0.299l1.115,0.299l3.835,1.027l-6.392,23.86l-0.299,1.115l-0.299,1.115l-0.021,0.08l-0.268,1
	L27.089,39.639z M24,41.238v1.679H2v-30h7.502h1.035h1.035h5.573H18.3h1.155H24v1.497v1.414v1.414v13.842v1.414v1.414v1.633V36.7
	v1.155v1.312v1.035V41.238z M29.761,38.872l-0.343-0.198l0.16-0.597l0.299-1.115l6.949-25.941c0.143-0.534-0.174-1.082-0.707-1.225
	l-3.686-0.987L31.318,8.51l-1.115-0.299l-6.955-1.864l2.298-3.98l6.657,3.843L33.1,6.728l0.896,0.518l10.519,6.072L30.502,37.587
	l-0.518,0.896L29.761,38.872z"/>
</g>
<g id="small_icon">
<path fill="#084F5F" d="M39.135,12.571L27.467,0.904c-0.375-0.375-1.039-0.375-1.414,0l-2.295,2.295l-5.309-3.064
	c-0.478-0.276-1.09-0.113-1.366,0.366l-1.998,3.46L9.644,2.503C9.113,2.36,8.562,2.677,8.419,3.21L7.426,6.917H1
	c-0.553,0-1,0.448-1,1v22c0,0.552,0.447,1,1,1h17c0.553,0,1-0.448,1-1v-0.319l0.435,0.117c0.085,0.023,0.172,0.034,0.259,0.034
	c0.174,0,0.347-0.045,0.5-0.134c0.229-0.133,0.397-0.351,0.466-0.607l0.04-0.149l0.166,0.096c0.157,0.091,0.329,0.134,0.499,0.134
	c0.19,0,0.375-0.059,0.536-0.162l0.439,0.439c0.195,0.195,0.451,0.293,0.707,0.293s0.512-0.098,0.707-0.293l15.381-15.379
	c0.188-0.188,0.293-0.442,0.293-0.707S39.322,12.759,39.135,12.571z M23.047,27.244l-0.025-0.025L33.106,9.751
	c0.051-0.088,0.074-0.186,0.096-0.284l3.812,3.811L23.047,27.244z M17,28.917h-0.541H2v-20h4.89h1.035H8.96h3.265h1.154h1.155H17
	v1.04v1.414v1.414v8.411v1.414v1.414v0.388v1.155v1.155v0.27v1.035V28.917z M19,27.473v-0.75v-0.698v-0.457V24.61v-1.414V10.785
	V9.371V7.957v-0.04c0-0.552-0.447-1-1-1h-2.312h-1.155h-1.154H9.496l0.596-2.223l3.958,1.061l1,0.268l1.001,0.268l3.641,0.976
	l1.115,0.299l1.115,0.299l2.176,0.583L19.903,24.1l-0.299,1.115l-0.162,0.607l-0.137,0.508l-0.132,0.492L19,27.473z M22.293,4.664
	l0.896,0.518l0.896,0.518l6.788,3.918l-9.316,16.137l-0.05,0.086l0.028-0.107l4.752-17.735c0.068-0.256,0.033-0.529-0.1-0.759
	s-0.352-0.397-0.607-0.466L23.555,6.23l-1.115-0.299l-1.115-0.299l-4.238-1.136l1.229-2.13L22.293,4.664z M26.76,3.025l4.513,4.513
	l-5.722-3.303L26.76,3.025z"/>
</g>
</svg>
