<svg version="1.1" id="Layer_1" xmlns="http://www.w3.org/2000/svg" xmlns:xlink="http://www.w3.org/1999/xlink" xml:space="preserve">
<g id="small_icon">
	<path style="fill:#004E5F;" d="M12.375,33.75c-6.919,0-12.548-5.629-12.548-12.548S5.456,8.654,12.375,8.654
		s12.548,5.629,12.548,12.548S19.294,33.75,12.375,33.75z M12.375,10.654c-5.816,0-10.548,4.732-10.548,10.548
		c0,5.815,4.732,10.548,10.548,10.548s10.548-4.732,10.548-10.548C22.923,15.386,18.191,10.654,12.375,10.654z"/>
	<path style="fill:#004E5F;" d="M12.375,30.25c-5.002,0-9.072-4.069-9.072-9.072s4.069-9.072,9.072-9.072s9.072,4.069,9.072,9.072
		S17.377,30.25,12.375,30.25z M12.375,14.106c-3.899,0-7.072,3.172-7.072,7.072c0,3.9,3.172,7.072,7.072,7.072
		s7.072-3.172,7.072-7.072C19.447,17.279,16.274,14.106,12.375,14.106z"/>
	<path style="fill:#004E5F;" d="M17.825,12.082c-0.233,0-0.467-0.081-0.657-0.247c-0.417-0.363-0.459-0.995-0.096-1.411l4.544-5.21
		L17.198,2H7.595L3.81,5.367l3.204,3.905c0.351,0.427,0.288,1.057-0.139,1.407c-0.426,0.351-1.057,0.289-1.407-0.139L1.654,5.892
		C1.313,5.477,1.362,4.867,1.763,4.511L6.55,0.253C6.733,0.09,6.97,0,7.215,0h10.308c0.211,0,0.417,0.067,0.588,0.191l5.565,4.049
		c0.227,0.165,0.374,0.418,0.405,0.697c0.031,0.278-0.056,0.558-0.24,0.769l-5.262,6.033C18.382,11.966,18.104,12.082,17.825,12.082
		z"/>
	<path style="fill:#004E5F;" d="M2.427,6c-0.548,0-0.995-0.375-1-0.923C1.422,4.524,1.865,4.105,2.417,4.1l20.661-0.192
		c0.595-0.004,1.005,0.446,1.01,0.998s-0.438,0.942-0.99,0.948L2.438,6C2.434,6,2.431,6,2.427,6z"/>
	<path style="fill:#004E5F;" d="M12.375,5.924c-0.221,0-0.443-0.073-0.628-0.223L7.291,2.097C6.861,1.75,6.794,1.12,7.142,0.691
		c0.347-0.43,0.977-0.496,1.406-0.148l4.456,3.604c0.429,0.347,0.496,0.977,0.148,1.406C12.955,5.797,12.666,5.924,12.375,5.924z"/>
	<path style="fill:#004E5F;" d="M13.375,6.133c-0.25,0-0.5-0.093-0.694-0.28c-0.397-0.383-0.41-1.016-0.026-1.414l3.673-3.813
		c0.383-0.398,1.016-0.41,1.414-0.026c0.397,0.383,0.41,1.016,0.026,1.414l-3.673,3.813C13.899,6.03,13.637,6.133,13.375,6.133z"/>
</g>
<g id="big_icon">
	<path style="fill:#004E5F;" d="M15.375,42.25c-8.623,0-15.639-7.016-15.639-15.64c0-8.624,7.016-15.639,15.639-15.639
		s15.64,7.016,15.64,15.639C31.015,35.234,23.998,42.25,15.375,42.25z M15.375,12.971c-7.521,0-13.639,6.119-13.639,13.639
		s6.118,13.64,13.639,13.64c7.521,0,13.64-6.119,13.64-13.64S22.896,12.971,15.375,12.971z"/>
	<path style="fill:#004E5F;" d="M15.375,37.813c-6.193,0-11.232-5.039-11.232-11.232s5.039-11.232,11.232-11.232
		s11.232,5.039,11.232,11.232S21.568,37.813,15.375,37.813z M15.375,17.348c-5.091,0-9.232,4.142-9.232,9.232
		s4.142,9.232,9.232,9.232s9.232-4.142,9.232-9.232S20.466,17.348,15.375,17.348z"/>
	<path style="fill:#004E5F;" d="M8.32,14.781c-0.304,0-0.604-0.138-0.801-0.399L1.965,6.999C1.652,6.583,1.711,5.996,2.1,5.65
		l6.069-5.397C8.352,0.09,8.588,0,8.834,0h13.067c0.212,0,0.417,0.067,0.589,0.191l7.055,5.133c0.227,0.165,0.373,0.418,0.404,0.697
		c0.031,0.278-0.055,0.558-0.24,0.769l-6.67,7.648c-0.362,0.417-0.994,0.46-1.411,0.096c-0.417-0.363-0.46-0.995-0.097-1.411
		l5.953-6.825L21.576,2H9.214L4.117,6.533l5.002,6.647c0.332,0.441,0.242,1.068-0.199,1.4C8.74,14.716,8.529,14.781,8.32,14.781z"/>
	<path style="fill:#004E5F;" d="M2.764,7c-0.547,0-0.994-0.321-1-0.87c-0.005-0.552,0.438-0.944,0.99-0.95l26.191-0.235
		c0.551,0.007,1.006,0.453,1.011,1.004c0.005,0.552-0.438,0.893-0.989,0.898L2.774,7C2.771,7,2.768,7,2.764,7z"/>
	<path style="fill:#004E5F;" d="M15.375,6.974c-0.222,0-0.443-0.073-0.629-0.223L9.098,2.183c-0.43-0.347-0.496-0.977-0.148-1.406
		s0.977-0.496,1.406-0.148l5.648,4.569c0.43,0.347,0.496,0.977,0.148,1.406C15.955,6.847,15.666,6.974,15.375,6.974z"/>
	<path style="fill:#004E5F;" d="M16.5,7c-0.264,0-0.525-0.103-0.723-0.309c-0.381-0.399-0.367-1.032,0.031-1.414l4.799-4.595
		c0.398-0.382,1.031-0.37,1.414,0.031c0.381,0.399,0.367,1.032-0.031,1.414l-4.799,4.595C16.998,6.908,16.748,7,16.5,7z"/>
</g>
</svg>
