<svg version="1.1" id="Layer_1" xmlns="http://www.w3.org/2000/svg" xmlns:xlink="http://www.w3.org/1999/xlink" xml:space="preserve">
<g id="small_icon">
	<path style="fill:#004E5F;" d="M30.539,20c-0.447,0-0.843-0.466-0.963-0.9c-0.542-1.958-2.419-3.78-4.784-4.514
		c-0.515-0.159-1.083-0.282-1.689-0.282c-2.375,0-4.763,1.167-5.895,2.339c-0.262,0.272-0.657,0.362-1.016,0.25l-0.756-0.239
		c-0.361-0.112-0.628-0.42-0.69-0.793c-0.373-2.227-2.693-5.308-5.24-6.098c-2.551-0.79-5.319-0.264-6.79,1.259
		c-0.263,0.272-0.656,0.373-1.016,0.261l-0.747-0.232c-0.27-0.083-0.491-0.277-0.61-0.533s-0.125-0.55-0.016-0.81
		c2.624-6.24,8.098-9.966,14.644-9.966c1.746,0,3.511,0.273,5.248,0.812c8.246,2.557,12.789,10.073,11.305,18.453
		C31.443,19.467,31.054,20,30.587,20C30.571,20,30.555,20,30.539,20z M23.103,12.262c0.808,0,1.575,0.111,2.281,0.33
		c1.764,0.546,3.292,1.523,4.408,2.761c-0.167-5.989-3.98-10.97-10.166-12.888c-1.544-0.479-3.11-0.722-4.655-0.722
		c-4.853,0-9.036,2.357-11.596,6.42c1.936-0.894,4.416-1.026,6.722-0.312c3.006,0.932,5.54,4.037,6.389,6.73
		C18.231,13.188,20.813,12.262,23.103,12.262z"/>
	<path style="fill:#004E5F;" d="M10.765,36.092c-0.257,0-0.516-0.039-0.769-0.117c-0.659-0.205-1.2-0.653-1.521-1.264
		C8.152,34.1,8.088,33.4,8.293,32.74l5.788-18.665c0.163-0.527,0.725-0.823,1.251-0.659c0.527,0.164,0.822,0.724,0.659,1.251
		l-5.788,18.666c-0.046,0.148-0.032,0.307,0.041,0.445c0.073,0.137,0.195,0.238,0.344,0.285c0.15,0.046,0.307,0.031,0.446-0.041
		c0.138-0.072,0.239-0.195,0.286-0.344l5.788-18.666c0.163-0.527,0.723-0.822,1.251-0.659c0.527,0.164,0.822,0.724,0.659,1.251
		l-5.788,18.665c-0.205,0.66-0.653,1.2-1.264,1.521C11.589,35.991,11.179,36.092,10.765,36.092z"/>
	<path style="fill:#004E5F;" d="M17.801,11.305c-0.049,0-0.099-0.007-0.148-0.022c-0.264-0.082-0.412-0.362-0.33-0.625l1.877-6.053
		c0.082-0.264,0.359-0.41,0.625-0.33c0.264,0.082,0.412,0.362,0.33,0.625l-1.877,6.053C18.212,11.167,18.014,11.305,17.801,11.305z"
		/>
</g>
<g id="big_icon">
	<path style="fill:#004E5F;" d="M40.258,27c-0.447,0-0.842-0.469-0.963-0.903c-0.773-2.796-3.336-5.263-6.688-6.302
		c-0.728-0.226-1.529-0.382-2.383-0.382c-3.302,0-6.627,1.635-8.205,3.271c-0.262,0.271-0.656,0.362-1.016,0.25l-1.02-0.322
		c-0.361-0.112-0.629-0.42-0.691-0.793c-0.52-3.104-3.756-7.4-7.31-8.502c-3.567-1.106-7.442-0.359-9.516,1.79
		c-0.263,0.272-0.657,0.374-1.016,0.261l-1.007-0.313c-0.27-0.083-0.492-0.277-0.611-0.533c-0.119-0.255-0.125-0.55-0.016-0.81
		C3.303,5.426,10.567,0.479,19.254,0.479c2.32,0,4.668,0.363,6.977,1.08C37.182,4.953,43.214,14.88,41.244,26.005
		C41.162,26.465,40.773,27,40.307,27C40.29,27,40.274,27,40.258,27z M30.225,17.37c1.055,0,2.056,0.145,2.975,0.43
		c2.662,0.825,4.916,2.393,6.405,4.366c0.179-8.667-5.132-15.958-13.966-18.697c-2.117-0.657-4.266-0.99-6.385-0.99
		c-7.095,0-13.146,3.663-16.58,9.913c2.654-1.66,6.421-2.066,9.902-0.987c4.141,1.284,7.602,5.714,8.537,9.363
		C23.074,19.048,26.547,17.37,30.225,17.37z"/>
	<path style="fill:#004E5F;" d="M13.571,48.822c-0.308,0-0.618-0.046-0.927-0.142c-0.801-0.248-1.458-0.794-1.848-1.535
		c-0.391-0.741-0.469-1.591-0.221-2.392l7.811-25.184c0.163-0.527,0.724-0.822,1.251-0.659s0.822,0.724,0.659,1.251l-7.811,25.185
		c-0.09,0.29-0.062,0.598,0.08,0.866c0.141,0.269,0.379,0.466,0.67,0.557c0.6,0.187,1.238-0.151,1.424-0.75l7.809-25.183
		c0.164-0.528,0.725-0.824,1.252-0.659c0.527,0.164,0.822,0.724,0.658,1.251L16.57,46.613C16.153,47.957,14.91,48.822,13.571,48.822
		z"/>
	<path style="fill:#004E5F;" d="M23.071,15.555c-0.049,0-0.099-0.007-0.147-0.022c-0.265-0.082-0.412-0.362-0.33-0.625l2.533-8.167
		c0.082-0.263,0.361-0.412,0.625-0.33c0.265,0.082,0.412,0.362,0.33,0.625l-2.533,8.167C23.482,15.417,23.285,15.555,23.071,15.555z
		"/>
</g>
</svg>
