<svg version="1.1" id="Layer_1" xmlns="http://www.w3.org/2000/svg" xmlns:xlink="http://www.w3.org/1999/xlink" xml:space="preserve">
<g id="small_icon">
	<path style="fill:#004E5F;" d="M34,32H0v-1c0-9.092,4.299-16.408,10-17.771V0h5v4.38C15,5.79,16.147,6,16.831,6h0.354
		C17.863,6,19,5.79,19,4.38V0h5v13.292c5.574,1.515,10,8.75,10,17.708V32z M2.09,30h29.57C31.34,21.642,27,15,22,15v-2l0,0V2h-1
		v2.38C21,6.545,19.467,8,17.185,8h-0.354C14.54,8,13,6.545,13,4.38V2h-1v12l0,0v1C7,15,2.409,21.642,2.09,30z"/>
	<path style="fill:#004E5F;" d="M19,15h-5c-0.276,0-0.5-0.224-0.5-0.5S13.724,14,14,14h5c0.276,0,0.5,0.224,0.5,0.5S19.276,15,19,15
		z"/>
</g>
<g id="big_icon">
	<path style="fill:#004E5F;" d="M46,43H0v-1c0-12.152,6.238-22.224,14-23.789V0h6v5.629C20,7.202,20.947,8,22.814,8h0.484
		C25.721,8,26,6.647,26,5.629V0h6v18.265C39.641,19.994,46,29.979,46,42V43z M2.248,41h41.254C43.159,29.518,37,20,30,20v-2l0,0V2
		h-2v3.629C28,8.366,26.242,10,23.299,10h-0.484C19.846,10,18,8.325,18,5.629V2h-2v16l0,0v2C9,20,2.59,29.518,2.248,41z"/>
	<path style="fill:#004E5F;" d="M25,19h-5c-0.276,0-0.5-0.224-0.5-0.5S19.724,18,20,18h5c0.276,0,0.5,0.224,0.5,0.5S25.276,19,25,19
		z"/>
</g>
</svg>
