<svg version="1.1" xmlns="http://www.w3.org/2000/svg" xmlns:xlink="http://www.w3.org/1999/xlink" xml:space="preserve">
<g id="small_icon">
	<path fill="#004E5F" d="M19,32H0v-8.24L5.113,21h9.732L19,23.76V32z M2,30h15v-5.047L14.339,23H5.618L2,24.953V30z"/>
	<path fill="#004E5F" d="M17.379,18.871l-0.742-0.109l0.29-1.979l0.742,0.108c1.773,0.26,3.427-0.971,3.687-2.744l0.217-1.484
		c0.26-1.772-0.971-3.426-2.744-3.687l-0.742-0.108l0.29-1.979l0.742,0.109c2.864,0.42,4.853,3.091,4.433,5.956l-0.218,1.484
		C22.915,17.301,20.244,19.291,17.379,18.871z"/>
	<rect x="10" y="10" fill="#004E5F" width="1" height="7"/>
	<rect x="9" y="11" fill="#004E5F" width="4" height="1"/>
	<rect x="9" y="14" fill="#004E5F" width="4" height="1"/>
	<path fill="#004E5F" d="M4.976,34h-1c-0.827,0-1.5-0.672-1.5-1.5c0-0.826,0.673-1.5,1.5-1.5h1c0.827,0,1.5,0.674,1.5,1.5
		C6.476,33.328,5.803,34,4.976,34z M3.976,32.26c-0.276,0-0.5,0.225-0.5,0.5s0.224,0.5,0.5,0.5h1c0.276,0,0.5-0.225,0.5-0.5
		s-0.224-0.5-0.5-0.5H3.976z"/>
	<path fill="#004E5F" d="M15.976,34h-1c-0.827,0-1.5-0.672-1.5-1.5c0-0.826,0.673-1.5,1.5-1.5h1c0.827,0,1.5,0.674,1.5,1.5
		C17.476,33.328,16.803,34,15.976,34z M14.976,32.26c-0.276,0-0.5,0.225-0.5,0.5s0.224,0.5,0.5,0.5h1c0.276,0,0.5-0.225,0.5-0.5
		s-0.224-0.5-0.5-0.5H14.976z"/>
	<path fill="#004E5F" d="M13.976,28h-8c-0.827,0-1.5-0.672-1.5-1.5c0-0.826,0.673-1.5,1.5-1.5h8c0.827,0,1.5,0.674,1.5,1.5
		C15.476,27.328,14.803,28,13.976,28z M5.976,26c-0.276,0-0.5,0.225-0.5,0.5S5.7,27,5.976,27h8c0.276,0,0.5-0.225,0.5-0.5
		s-0.224-0.5-0.5-0.5H5.976z"/>
	<rect x="7.038" y="25.76" fill="#004E5F" width="1.75" height="2"/>
	<polygon fill="none" stroke="#004E5F" stroke-width="2" stroke-miterlimit="10" points="16.319,19 4.444,19 2.96,4 17.803,4 	"/>
	<path fill="#004E5F" d="M1.476,1.726L1.476,1.726C1.476,0.906,2.14,0,2.96,0h14.843c0.82,0,1.484,0.786,1.484,1.605l0,0"/>
</g>
<g id="big_icon">
	<path fill="#004E5F" d="M25,41H0V30.262L6.568,27h13.112L25,30.277V41z M2,39h21v-7.508L19.19,29H7.034L2,31.506V39z"/>
	<path fill="#004E5F" d="M23.309,24.99c-0.235,0-0.471-0.012-0.705-0.035l-0.93-0.096l0.205-1.99l0.93,0.096
		c1.283,0.13,2.63-0.25,3.681-1.053c1.064-0.813,1.721-1.952,1.851-3.206l0.21-2.043c0.131-1.269-0.294-2.623-1.166-3.714
		c-0.871-1.091-2.091-1.791-3.346-1.92l-0.93-0.096l0.205-1.989l0.93,0.096c1.785,0.184,3.499,1.154,4.703,2.661
		c1.197,1.498,1.777,3.381,1.594,5.167l-0.211,2.043c-0.186,1.808-1.119,3.438-2.626,4.59C26.442,24.465,24.873,24.99,23.309,24.99z
		"/>
	<rect x="14" y="11" fill="#004E5F" width="1" height="10"/>
	<rect x="12" y="13" fill="#004E5F" width="5" height="1"/>
	<rect x="12" y="17" fill="#004E5F" width="5" height="1"/>
	<path fill="#004E5F" d="M8,42.131C8,43.163,7.163,44,6.131,44H4.869C3.837,44,3,43.163,3,42.131v-0.262C3,40.837,3.837,40,4.869,40
		h1.262C7.163,40,8,40.837,8,41.869V42.131z M5.345,41C4.865,41,4,41.65,4,42.129v0.262C4,42.871,4.865,43,5.345,43h1.262
		C7.086,43,7,42.871,7,42.391v-0.262C7,41.65,7.086,41,6.606,41H5.345z"/>
	<path fill="#004E5F" d="M23,42.131C23,43.163,22.163,44,21.131,44h-1.262C18.837,44,18,43.163,18,42.131v-0.262
		C18,40.837,18.837,40,19.869,40h1.262C22.163,40,23,40.837,23,41.869V42.131z M20.345,41C19.865,41,19,41.65,19,42.129v0.262
		C19,42.871,19.865,43,20.345,43h1.262C22.086,43,22,42.871,22,42.391v-0.262C22,41.65,22.086,41,21.606,41H20.345z"/>
	<path fill="#004E5F" d="M20,34.131C20,35.163,19.163,36,18.131,36H6.869C5.837,36,5,35.163,5,34.131v-0.262
		C5,32.837,5.837,32,6.869,32h11.262C19.163,32,20,32.837,20,33.869V34.131z M7.345,33C6.865,33,6,33.65,6,34.129v0.262
		C6,34.871,6.865,35,7.345,35h11.262C19.086,35,19,34.871,19,34.391v-0.262C19,33.65,19.086,33,18.606,33H7.345z"/>
	<rect x="9.476" y="33.26" fill="#004E5F" width="2" height="2"/>
	<polygon fill="none" stroke="#004E5F" stroke-width="2" stroke-miterlimit="10" points="21.476,25 5.476,25 3.476,5 23.476,5 	"/>
	<path fill="#004E5F" d="M1.476,2.13L1.476,2.13c0-1.104,0.896-2.13,2-2.13h20c1.104,0,2,0.96,2,2.065l0,0"/>
</g>
</svg>
