<svg version="1.1" id="Layer_1" xmlns="http://www.w3.org/2000/svg" xmlns:xlink="http://www.w3.org/1999/xlink" xml:space="preserve">
<g id="small_icon">
	<g>
		<path style="fill:none;stroke:#004E5F;stroke-width:2;stroke-linecap:round;stroke-linejoin:round;stroke-miterlimit:10;" d="
			M10.712,18.301"/>
		<g>
			<path style="fill:#004E5F;" d="M3.116,25.376c-0.114,0-0.225-0.038-0.314-0.11l-3.114-2.51c-0.215-0.174-0.249-0.488-0.076-0.703
				l7.981-9.906c0.688-0.857,1.772-0.857,2.928,0.075c0.406,0.326,0.874,0.774,1.13,1.325c0.292,0.626,0.233,1.243-0.165,1.737
				l-7.982,9.905c-0.083,0.104-0.204,0.17-0.336,0.184C3.151,25.375,3.133,25.376,3.116,25.376z M0.705,22.291l2.335,1.882
				l7.669-9.517c0.105-0.13,0.205-0.327,0.037-0.687c-0.137-0.293-0.418-0.621-0.793-0.922c-0.46-0.371-0.817-0.542-1.092-0.542
				c-0.117,0-0.295,0.028-0.488,0.269L0.705,22.291z"/>
			<path style="fill:#004E5F;" d="M11.447,13.645c-0.11,0-0.303-0.036-0.396-0.111c-0.027-0.022-0.092-0.046-0.113-0.072
				c-0.059-0.022-0.151-0.046-0.227-0.073c-0.273-0.096-0.566-0.195-0.749-0.342c-0.276-0.223-0.406-0.497-0.508-0.716
				c-0.006-0.013-0.014-0.026-0.02-0.038c-0.006-0.004-0.014-0.009-0.02-0.015c-0.214-0.173-0.249-0.487-0.075-0.702l2.768-3.436
				c0.166-0.208,0.465-0.247,0.683-0.091l1.62,1.176c0.111,0.081,0.184,0.203,0.202,0.339s0.143,0.273,0.057,0.38L12,13.458v0.001
				C12,13.582,11.593,13.645,11.447,13.645z M10.355,11.908c0.001,0.002,0.002,0.004,0.003,0.006
				c0.04,0.086,0.122,0.267,0.169,0.314c0.115,0.085,0.361,0.171,0.494,0.218c0.049,0.018,0.097,0.034,0.143,0.051l2.232-2.771
				l-0.81-0.588L10.355,11.908z"/>
			<path style="fill:#004E5F;" d="M16.567,13.464c-0.024,0-0.049-0.002-0.074-0.005c-0.176-0.026-0.324-0.144-0.39-0.309
				c0,0-0.179-0.45-0.46-1.173c-0.058-0.15-0.041-0.318,0.047-0.453c0.223-0.343,0.317-0.827-0.088-1.154
				c-0.282-0.227-0.709-0.282-1.021-0.132c-0.166,0.079-0.36,0.063-0.508-0.045l-3.49-2.51c-0.111-0.08-0.185-0.203-0.204-0.339
				c-0.018-0.136,0.02-0.274,0.106-0.381l0.889-1.102c0,0,0,0,0,0c-0.007,0,0.809-1.542-2.234-3.995
				c-0.087-0.07-0.148-0.168-0.173-0.278C8.936,1.45,8.796,0.735,9.152,0.289c0.327-0.411,0.897-0.452,1.636-0.041
				c0.037,0.021,0.071,0.045,0.101,0.074l6.447,6.093c0.109,0.101,0.167,0.246,0.159,0.394c-0.018,0.321,0.088,0.577,0.315,0.76
				c0.289,0.231,0.663,0.232,1.012,0.019c0.073-0.044,0.155-0.069,0.24-0.073c0.771-0.031,1.515-0.009,1.515-0.009
				c0.19,0.005,0.36,0.118,0.439,0.291s0.054,0.375-0.065,0.522l-3.995,4.958C16.861,13.396,16.717,13.464,16.567,13.464z
				 M16.662,11.837c0.02,0.049,0.038,0.098,0.056,0.144l2.802-3.479c-0.097,0.002-0.196,0.004-0.297,0.008
				c-0.68,0.36-1.467,0.3-2.041-0.162C16.767,8.013,16.528,7.541,16.497,7l-1.232-1.145l-5.016-4.762
				c-0.246-0.13-0.359-0.137-0.38-0.137C9.894,0.966,9.901,1.083,9.917,1.21c3.652,3.027,2.325,5.149,2.266,5.239l-0.587,0.729
				l2.846,2.046c0.604-0.171,1.296-0.03,1.789,0.366C16.913,10.144,17.072,11.021,16.662,11.837z"/>
		</g>
	</g>
	<g>
		<path style="fill:#004E5F;" d="M12.992,35.821c-0.138,0-0.277-0.028-0.409-0.088c-7.251-3.257-6.235-10.231-6.225-10.302
			c0.081-0.506,0.532-0.86,1.042-0.842l0.178,0.004c2.141,0,4.616-2.057,5.821-3.279c-0.981-2.104-1.125-3.822-0.427-5.11
			c0.715-1.319,2.143-1.787,2.874-1.855c0.114-0.011,0.229-0.002,0.34,0.027c0.696,0.177,1.383,0.267,2.042,0.267
			c2.875,0,4.443-1.668,4.508-1.739c2.58-2.554,5.207-3.829,7.845-3.829c3.319,0,5.387,2.056,5.473,2.143
			c0.384,0.388,0.385,1.011,0.005,1.401L13.708,35.52C13.516,35.717,13.256,35.821,12.992,35.821z M8.288,26.548
			c0.009,1.552,0.516,4.973,4.492,7.06L33.84,12.03c-0.7-0.437-1.832-0.955-3.258-0.955c-2.093,0-4.246,1.081-6.401,3.211
			c-0.046,0.054-2.151,2.356-5.951,2.356c-0.759,0-1.542-0.093-2.328-0.278c-0.27,0.061-0.887,0.256-1.178,0.805
			c-0.408,0.773-0.137,2.142,0.764,3.854c0.191,0.364,0.14,0.809-0.129,1.12C15.21,22.316,11.902,26.087,8.288,26.548z"/>
		<path style="fill:#004E5F;" d="M15.147,38c-0.261,0-0.511-0.141-0.698-0.322l-2.147-2.114c-0.396-0.386-0.403-1.028-0.018-1.423
			l22.344-22.913c0.185-0.19,0.438-0.301,0.704-0.304c0.246,0.002,0.52,0.098,0.71,0.283l2.147,2.094
			c0.396,0.386,0.403,1.019,0.018,1.414L15.863,37.66C15.678,37.85,15.425,38,15.16,38C15.156,38,15.151,38,15.147,38z
			 M14.414,34.811l0.716,0.699l20.947-21.476l-0.716-0.698L14.414,34.811z"/>
		<path style="fill:#004E5F;" d="M18.785,19.597c-0.039,0-0.077-0.002-0.116-0.007c-0.549-0.063-0.942-0.56-0.878-1.108l0.505-4.363
			c0.063-0.549,0.56-0.942,1.108-0.878c0.549,0.063,0.942,0.56,0.878,1.108l-0.505,4.363C19.718,19.222,19.286,19.597,18.785,19.597
			z"/>
		<path style="fill:#004E5F;" d="M21.98,17.923c-0.028,0-0.057-0.001-0.085-0.003c-0.55-0.047-0.958-0.531-0.912-1.081l0.388-4.563
			c0.047-0.55,0.523-0.957,1.081-0.912c0.55,0.047,0.958,0.531,0.912,1.081l-0.388,4.563C22.931,17.529,22.494,17.923,21.98,17.923z
			"/>
		<path style="fill:#004E5F;" d="M17.591,34.918c-0.126,0-0.252-0.047-0.349-0.143l-2.147-2.094
			c-0.198-0.193-0.202-0.51-0.009-0.707c0.194-0.198,0.51-0.201,0.707-0.01l2.147,2.096c0.198,0.192,0.202,0.509,0.009,0.707
			C17.851,34.867,17.721,34.918,17.591,34.918z"/>
		<path style="fill:#004E5F;" d="M19.686,32.771c-0.126,0-0.252-0.048-0.349-0.142l-2.147-2.096
			c-0.198-0.192-0.202-0.509-0.009-0.707c0.194-0.197,0.51-0.201,0.707-0.008l2.147,2.094c0.198,0.193,0.202,0.51,0.009,0.707
			C19.946,32.721,19.816,32.771,19.686,32.771z"/>
		<path style="fill:#004E5F;" d="M21.781,30.623c-0.126,0-0.252-0.047-0.349-0.143l-2.147-2.094
			c-0.198-0.193-0.202-0.51-0.009-0.707c0.194-0.198,0.51-0.201,0.707-0.01l2.147,2.096c0.198,0.192,0.202,0.509,0.009,0.707
			C22.041,30.572,21.911,30.623,21.781,30.623z"/>
		<path style="fill:#004E5F;" d="M23.875,28.475c-0.126,0-0.252-0.047-0.349-0.142l-2.147-2.095
			c-0.198-0.193-0.202-0.51-0.009-0.707c0.193-0.197,0.51-0.201,0.707-0.009l2.147,2.095c0.198,0.193,0.202,0.51,0.009,0.707
			C24.135,28.425,24.005,28.475,23.875,28.475z"/>
		<path style="fill:#004E5F;" d="M25.97,26.328c-0.126,0-0.252-0.048-0.349-0.143l-2.147-2.095
			c-0.198-0.192-0.202-0.509-0.009-0.707c0.194-0.198,0.51-0.2,0.707-0.009l2.147,2.095c0.198,0.192,0.202,0.509,0.009,0.707
			C26.23,26.277,26.1,26.328,25.97,26.328z"/>
		<path style="fill:#004E5F;" d="M28.763,23.465c-0.126,0-0.252-0.048-0.349-0.143l-2.147-2.095
			c-0.198-0.193-0.202-0.509-0.009-0.707c0.194-0.198,0.51-0.201,0.707-0.009l2.147,2.095c0.198,0.192,0.202,0.509,0.009,0.707
			C29.023,23.414,28.893,23.465,28.763,23.465z"/>
		<path style="fill:#004E5F;" d="M30.858,21.316c-0.126,0-0.252-0.047-0.349-0.142l-2.147-2.095
			c-0.198-0.193-0.202-0.509-0.009-0.707c0.194-0.198,0.51-0.201,0.707-0.009l2.147,2.095c0.198,0.193,0.202,0.509,0.009,0.707
			C31.118,21.266,30.988,21.316,30.858,21.316z"/>
		<path style="fill:#004E5F;" d="M32.953,19.169c-0.126,0-0.252-0.047-0.349-0.142l-2.147-2.095
			c-0.198-0.193-0.202-0.509-0.009-0.707c0.194-0.198,0.51-0.201,0.707-0.009l2.147,2.095c0.198,0.193,0.202,0.509,0.009,0.707
			C33.213,19.119,33.082,19.169,32.953,19.169z"/>
		<path style="fill:#004E5F;" d="M35.047,17.021c-0.125,0-0.252-0.047-0.349-0.142l-2.147-2.095
			c-0.198-0.193-0.202-0.509-0.009-0.707c0.194-0.198,0.511-0.201,0.707-0.009l2.147,2.095c0.197,0.193,0.201,0.509,0.009,0.707
			C35.307,16.971,35.178,17.021,35.047,17.021z"/>
		<path style="fill:#004E5F;" d="M16.874,30.027c-0.223,0-0.426-0.15-0.484-0.376c-0.031-0.12-0.706-2.984,3.405-7.294
			c2.458-2.579,5.348-3.962,7.941-3.791c0.275,0.018,0.484,0.256,0.466,0.532s-0.266,0.472-0.532,0.466
			c-2.288-0.153-4.898,1.12-7.152,3.482c-3.672,3.851-3.166,6.332-3.16,6.356c0.068,0.267-0.093,0.54-0.36,0.608
			C16.957,30.022,16.915,30.027,16.874,30.027z"/>
	</g>
</g>
<g id="big_icon">
	<path style="fill:#004E5F;" d="M25.53,50.676c-0.099,0-0.198-0.016-0.295-0.045c-10.044-3.098-8.964-12.227-8.952-12.318
		c0.063-0.473,0.448-0.835,0.923-0.867c3.444-0.238,6.755-4.225,7.861-5.692c-1.696-2.635-2.204-4.866-1.509-6.638
		c0.855-2.184,3.184-2.719,3.283-2.74c0.111-0.025,0.227-0.031,0.341-0.016c0.521,0.066,1.038,0.1,1.537,0.1
		c4.9,0,7.194-3.154,7.29-3.288c3.36-4.263,6.916-6.401,10.6-6.401c3.352,0,5.508,1.839,5.598,1.918
		c0.398,0.345,0.46,0.94,0.141,1.36L26.326,50.28C26.134,50.533,25.838,50.676,25.53,50.676z M18.229,39.32
		c0.003,1.908,0.636,6.924,6.938,9.18l24.945-32.816c-0.739-0.409-1.964-0.914-3.503-0.914c-3.041,0-6.068,1.883-8.996,5.595
		c-0.082,0.121-2.912,4.094-8.894,4.094c-0.517,0-1.05-0.031-1.584-0.091c-0.362,0.12-1.351,0.525-1.722,1.492
		c-0.47,1.227,0.115,3.075,1.693,5.346c0.234,0.338,0.238,0.785,0.008,1.128C26.941,32.592,23.02,38.359,18.229,39.32z"/>
	<path style="fill:#004E5F;" d="M29.51,53.701c-0.21,0-0.423-0.066-0.604-0.204l-3.98-3.026c-0.212-0.16-0.351-0.397-0.387-0.66
		c-0.035-0.264,0.035-0.529,0.195-0.74l26.021-34.233c0.334-0.439,0.962-0.525,1.4-0.191l3.981,3.026
		c0.212,0.16,0.351,0.398,0.386,0.661c0.036,0.263-0.034,0.529-0.195,0.74L30.307,53.307C30.111,53.564,29.813,53.701,29.51,53.701z
		 M26.932,49.484L29.32,51.3l24.811-32.641l-2.389-1.815L26.932,49.484z"/>
	<path style="fill:#004E5F;" d="M31.39,28c-0.549,0-0.995-0.332-1-0.881l-0.046-6.01C30.34,20.558,30.784,20,31.336,20
		c0.004,0,0.006,0,0.008,0c0.549,0,0.996,0.601,1,1.149l0.046,5.875C32.395,27.577,31.949,28,31.397,28
		C31.395,28,31.393,28,31.39,28z"/>
	<path style="fill:#004E5F;" d="M35.379,25c-0.535,0-0.979-0.192-0.999-0.731l-0.235-6.04c-0.021-0.552,0.408-0.958,0.961-0.98
		c0.546-0.008,1.017,0.438,1.037,0.99l0.236,5.939C36.399,24.73,35.969,25,35.417,25C35.404,25,35.391,25,35.379,25z"/>
	<path style="fill:#004E5F;" d="M32.234,49.619c-0.105,0-0.212-0.033-0.303-0.103l-3.98-3.026c-0.221-0.166-0.263-0.48-0.096-0.7
		c0.166-0.22,0.479-0.263,0.701-0.095l3.98,3.025c0.22,0.167,0.262,0.48,0.096,0.701C32.534,49.551,32.385,49.619,32.234,49.619z"/>
	<path style="fill:#004E5F;" d="M35.26,45.638c-0.105,0-0.212-0.033-0.303-0.103l-3.98-3.025c-0.22-0.166-0.262-0.48-0.096-0.7
		c0.167-0.22,0.48-0.263,0.701-0.095l3.98,3.025c0.22,0.166,0.262,0.48,0.096,0.7C35.56,45.57,35.41,45.638,35.26,45.638z"/>
	<path style="fill:#004E5F;" d="M37.68,42.453c-0.105,0-0.211-0.033-0.302-0.102l-3.98-3.025c-0.22-0.168-0.263-0.48-0.095-0.701
		c0.166-0.22,0.48-0.262,0.7-0.096l3.98,3.026c0.22,0.167,0.263,0.48,0.095,0.7C37.98,42.386,37.831,42.453,37.68,42.453z"/>
	<path style="fill:#004E5F;" d="M39.496,40.064c-0.105,0-0.212-0.033-0.303-0.102l-3.98-3.025c-0.22-0.167-0.262-0.48-0.096-0.701
		c0.168-0.22,0.48-0.262,0.701-0.095l3.98,3.025c0.22,0.167,0.262,0.48,0.096,0.7C39.796,39.997,39.646,40.064,39.496,40.064z"/>
	<path style="fill:#004E5F;" d="M42.521,36.084c-0.105,0-0.211-0.033-0.303-0.102l-3.98-3.025c-0.22-0.168-0.262-0.48-0.096-0.701
		c0.168-0.22,0.48-0.263,0.701-0.096l3.98,3.026c0.221,0.167,0.263,0.48,0.096,0.7C42.822,36.017,42.672,36.084,42.521,36.084z"/>
	<path style="fill:#004E5F;" d="M45.547,32.104c-0.105,0-0.211-0.033-0.303-0.102l-3.98-3.026c-0.219-0.167-0.262-0.48-0.095-0.701
		c0.167-0.22,0.479-0.263,0.7-0.095l3.98,3.026c0.221,0.167,0.263,0.48,0.096,0.7C45.848,32.036,45.697,32.104,45.547,32.104z"/>
	<path style="fill:#004E5F;" d="M47.968,28.919c-0.105,0-0.212-0.033-0.302-0.102l-3.981-3.025c-0.22-0.167-0.263-0.48-0.095-0.701
		c0.166-0.219,0.48-0.263,0.7-0.095l3.981,3.025c0.219,0.167,0.262,0.48,0.095,0.701C48.268,28.852,48.119,28.919,47.968,28.919z"/>
	<path style="fill:#004E5F;" d="M50.389,25.735c-0.105,0-0.212-0.033-0.303-0.102l-3.98-3.026c-0.22-0.167-0.262-0.48-0.096-0.701
		c0.168-0.22,0.48-0.263,0.701-0.095l3.98,3.026c0.22,0.167,0.262,0.48,0.096,0.701C50.688,25.667,50.539,25.735,50.389,25.735z"/>
	<path style="fill:#004E5F;" d="M52.809,22.551c-0.105,0-0.211-0.033-0.302-0.102l-3.981-3.026c-0.219-0.167-0.262-0.48-0.095-0.701
		s0.479-0.262,0.7-0.095l3.981,3.026c0.22,0.167,0.263,0.48,0.095,0.701C53.109,22.483,52.96,22.551,52.809,22.551z"/>
	<path style="fill:#004E5F;" d="M30.643,42.629c-0.172,0-0.338-0.09-0.432-0.249c-0.105-0.185-2.56-4.582,2.264-10.929
		c4.086-5.376,7.176-5.462,9.903-5.538c0.325-0.009,0.647-0.018,0.968-0.036c0.269-0.011,0.512,0.195,0.527,0.47
		c0.017,0.276-0.193,0.512-0.47,0.528c-0.329,0.019-0.662,0.028-0.998,0.038c-2.624,0.073-5.339,0.148-9.134,5.144
		c-4.396,5.785-2.285,9.661-2.193,9.823c0.135,0.239,0.053,0.545-0.186,0.682C30.813,42.607,30.728,42.629,30.643,42.629z"/>
	<g>
		<g>
			<path style="fill:none;stroke:#004E5F;stroke-width:2;stroke-linecap:round;stroke-linejoin:round;stroke-miterlimit:10;" d="
				M18.588,30.523"/>
			<g>
				<path style="fill:#004E5F;" d="M7.013,43.45c-0.197,0-0.392-0.058-0.558-0.17l-5.492-3.688c-0.459-0.308-0.58-0.929-0.272-1.388
					l11.73-17.472c1.067-1.592,2.948-1.774,5.077-0.342l0.09,0.059c0.64,0.429,1.496,1.12,2.016,2.018
					c0.605,1.051,0.596,2.141-0.028,3.069L7.843,43.008c-0.147,0.22-0.377,0.373-0.638,0.424C7.142,43.443,7.077,43.45,7.013,43.45z
					 M2.908,38.49l3.832,2.572l11.175-16.641c0.142-0.21,0.233-0.472-0.044-0.954c-0.256-0.442-0.748-0.921-1.386-1.35l-0.091-0.06
					c-0.629-0.422-1.189-0.65-1.591-0.65c-0.212,0-0.462,0.052-0.722,0.44L2.908,38.49z"/>
				<path style="fill:#004E5F;" d="M18.787,22.945c-0.192,0-0.387-0.055-0.559-0.171c-0.043-0.03-0.084-0.062-0.121-0.097
					c-0.091-0.025-0.196-0.05-0.307-0.079c-0.477-0.122-0.97-0.249-1.315-0.481l-0.091-0.06c-0.432-0.291-0.699-0.761-0.895-1.104
					c-0.004-0.008-0.009-0.015-0.013-0.022c-0.001,0-0.001,0-0.001,0c-0.459-0.307-0.582-0.927-0.275-1.386
					c0,0,0.002-0.001,0.002-0.002l4.07-6.061c0.297-0.441,0.888-0.574,1.346-0.3l2.838,1.705c0.234,0.141,0.4,0.373,0.461,0.64
					c0.059,0.267,0.006,0.547-0.146,0.775l-4.163,6.2c-0.001,0.001-0.001,0.002-0.003,0.003
					C19.422,22.792,19.107,22.945,18.787,22.945z M17.284,20.046c0.077,0.135,0.183,0.311,0.243,0.368l0.061,0.037
					c0.107,0.057,0.5,0.158,0.711,0.212c0.041,0.011,0.084,0.021,0.125,0.032l3.111-4.634l-1.122-0.674L17.284,20.046z"/>
				<path style="fill:#004E5F;" d="M27.47,21.889c-0.021,0-0.042,0-0.063-0.002c-0.354-0.022-0.671-0.231-0.831-0.549
					c0,0-0.359-0.716-0.926-1.87c-0.142-0.289-0.137-0.627,0.016-0.911c0.137-0.257,0.523-1.138-0.256-1.662
					c-0.439-0.294-1.084-0.321-1.516-0.066c-0.314,0.187-0.707,0.186-1.021-0.001l-6.111-3.636c-0.236-0.141-0.404-0.372-0.465-0.64
					s-0.008-0.549,0.146-0.777l1.257-1.87c0.113-0.313,0.789-2.772-4.158-6.095c-0.187-0.125-0.326-0.31-0.395-0.524
					c-0.111-0.347-0.428-1.543,0.181-2.378c0.547-0.749,1.534-0.899,2.862-0.306c0.076,0.035,0.148,0.079,0.215,0.131l11.499,9.115
					c0.235,0.183,0.376,0.461,0.386,0.759c0.014,0.473,0.199,0.832,0.551,1.066c0.452,0.305,0.982,0.251,1.474-0.109
					c0.136-0.1,0.296-0.164,0.462-0.186c1.258-0.164,2.461-0.232,2.512-0.235c0.391-0.019,0.736,0.174,0.925,0.503
					c0.188,0.33,0.173,0.738-0.039,1.053L28.3,21.446C28.113,21.724,27.802,21.889,27.47,21.889z M24.586,14.649
					c0.695,0,1.366,0.202,1.938,0.585c1.138,0.766,1.59,2.094,1.237,3.425l3.583-5.335c-0.025,0.003-0.052,0.006-0.077,0.009
					c-1.117,0.705-2.483,0.713-3.543,0.001c-0.756-0.507-1.238-1.266-1.387-2.171l-2.141-1.666l-8.935-7.117
					C15.146,2.333,15.05,2.3,14.974,2.278c0.003,0.032,0.007,0.064,0.012,0.098c6.503,4.532,4.562,8.327,4.474,8.488l-0.769,1.149
					l4.756,2.829C23.807,14.715,24.191,14.649,24.586,14.649z"/>
			</g>
		</g>
	</g>
</g>
</svg>
