<svg version="1.1" id="Layer_1" xmlns="http://www.w3.org/2000/svg" xmlns:xlink="http://www.w3.org/1999/xlink" xml:space="preserve">
<g id="small_icon">
	<g>
		<path style="fill:none;stroke:#004E5F;stroke-width:2;stroke-linecap:round;stroke-linejoin:round;stroke-miterlimit:10;" d="
			M11.171,20.26"/>
		<g>
			<path style="fill:#004E5F;" d="M4.174,27.97c-0.099,0-0.196-0.029-0.279-0.085l-3.32-2.23c-0.229-0.153-0.29-0.464-0.136-0.693
				L7.529,14.4c0.614-0.915,1.689-1.008,2.923-0.179c0.433,0.29,0.938,0.696,1.241,1.222c0.345,0.598,0.34,1.218-0.013,1.745
				L4.589,27.748c-0.074,0.11-0.188,0.187-0.318,0.213C4.238,27.967,4.206,27.97,4.174,27.97z M1.547,25.104l2.49,1.672
				l6.813-10.146c0.094-0.139,0.175-0.343-0.023-0.688c-0.162-0.281-0.471-0.583-0.87-0.851C9.5,14.785,9.15,14.645,8.883,14.645
				c-0.146,0-0.338,0.035-0.524,0.313L1.547,25.104z"/>
			<path style="fill:#004E5F;" d="M11.292,15.574c-0.096,0-0.193-0.027-0.279-0.085c-0.029-0.02-0.055-0.042-0.079-0.066
				c-0.06-0.018-0.134-0.035-0.211-0.055c-0.281-0.072-0.571-0.146-0.766-0.277c-0.294-0.197-0.443-0.459-0.563-0.669
				c-0.007-0.012-0.014-0.024-0.021-0.037c-0.006-0.004-0.013-0.008-0.02-0.013c-0.229-0.154-0.289-0.464-0.135-0.693l2.459-3.664
				c0.149-0.22,0.445-0.286,0.673-0.15l1.716,1.031c0.117,0.071,0.201,0.187,0.23,0.32c0.029,0.134,0.003,0.274-0.073,0.388
				l-2.517,3.748l0,0.001C11.61,15.497,11.452,15.574,11.292,15.574z M10.26,13.922c0.001,0.002,0.002,0.004,0.003,0.005
				c0.047,0.083,0.145,0.255,0.196,0.298c0.123,0.075,0.375,0.14,0.511,0.174c0.051,0.013,0.1,0.025,0.146,0.038l1.984-2.954
				l-0.858-0.516L10.26,13.922z"/>
			<path style="fill:#004E5F;" d="M16.54,15c-0.01,0-0.021,0-0.031,0c-0.177,0-0.335-0.148-0.416-0.308c0,0-0.217-0.448-0.56-1.144
				c-0.071-0.145-0.068-0.322,0.007-0.464c0.192-0.361,0.244-0.855-0.188-1.146c-0.301-0.202-0.731-0.222-1.028-0.045
				c-0.157,0.093-0.353,0.092-0.51-0.001l-3.694-2.198c-0.118-0.07-0.202-0.186-0.232-0.32C9.858,9.24,9.884,9.099,9.961,8.985
				l0.79-1.175c0,0,0,0,0,0c-0.007,0,0.672-1.607-2.572-3.786C8.085,3.962,8.016,3.87,7.981,3.763
				C7.936,3.622,7.728,2.895,8.075,2.419c0.301-0.413,0.852-0.487,1.604-0.15c0.039,0.018,0.075,0.039,0.107,0.065l6.952,5.51
				c0.118,0.091,0.188,0.23,0.193,0.379c0.01,0.321,0.137,0.566,0.379,0.729c0.308,0.206,0.677,0.174,1.01-0.069
				c0.068-0.05,0.148-0.082,0.232-0.093c0.765-0.098,1.509-0.141,1.509-0.141c0.191-0.006,0.369,0.086,0.463,0.251
				c0.094,0.165,0.087,0.369-0.019,0.527l-3.55,5.319C16.862,14.885,16.706,15,16.54,15z M16.536,13.304
				c0.023,0.047,0.046,0.094,0.068,0.138l2.49-3.709c-0.096,0.01-0.195,0.021-0.295,0.034c-0.643,0.417-1.434,0.427-2.047,0.016
				c-0.444-0.298-0.722-0.748-0.8-1.283l-1.327-1.034L9.215,3.157C8.994,3.064,8.88,3.054,8.839,3.054
				c0.015,0.008,0.03,0.124,0.056,0.25c3.9,2.699,2.762,4.928,2.711,5.022l-0.521,0.778l3.012,1.792
				c0.582-0.222,1.286-0.145,1.814,0.209C16.64,11.595,16.875,12.456,16.536,13.304z"/>
		</g>
	</g>
	<g>
		<path style="fill:#004E5F;" d="M21.446,3.1c-0.093,0-0.187-0.017-0.278-0.054c-0.321-0.128-0.505-0.454-0.467-0.782h-1.708
			c0.027,0.323-0.152,0.644-0.466,0.769c-0.385,0.154-0.816-0.021-0.97-0.405c-0.294-0.735-0.018-1.419,0.719-1.786
			c0.104-0.051,0.218-0.078,0.333-0.078h2.48c0.116,0,0.23,0.027,0.333,0.078c0.737,0.366,1.012,1.05,0.718,1.786
			C22.025,2.922,21.744,3.1,21.446,3.1z"/>
		<path style="fill:#004E5F;" d="M17.162,30.963c-0.845,0-1.552-0.273-2.078-0.816c-0.128-0.133-0.243-0.28-0.347-0.442
			c-0.026-0.04-0.048-0.083-0.066-0.128c-0.088-0.221-0.252-0.631-0.164-12.957c0.002-0.287,0.004-0.536,0.02-0.747
			c-0.002-0.022-0.004-0.044-0.005-0.067h0.011c0,0,0-0.001,0-0.001h-0.011l0.011,0c0.05-0.528,0.208-0.794,0.73-0.798
			c0.002,0,0.004,0,0.006,0c0.407,0,0.742,0.355,0.752,0.763c0.001,0.041-0.001,0.082-0.007,0.122
			c-0.002,0.106-0.005,0.322-0.008,0.74c-0.058,8.071-0.004,11.644,0.07,12.375c0.027,0.035,0.056,0.069,0.086,0.101
			c0.251,0.259,0.624,0.385,1.134,0.354l5.073-0.001c0.751,0.023,1.082-0.223,1.27-0.478c0.111-0.914,0.085-9.144,0.037-14.188
			c-0.037-0.773-0.526-1.468-1.495-2.097c-0.011-0.006-0.022-0.012-0.033-0.018c-0.624-0.35-1.295-1.109-0.947-2.742
			c0.07-0.459,0.095-0.969,0.065-1.475c-0.157-1.353-0.418-2.77-0.775-4.194c-0.051-0.205-0.014-0.421,0.103-0.597
			c0.097-0.146,0.183-0.335-0.039-0.727c-0.204-0.361-0.076-0.818,0.285-1.022c0.36-0.203,0.817-0.076,1.022,0.285
			c0.38,0.674,0.431,1.366,0.154,1.982c0.336,1.391,0.586,2.774,0.743,4.117c0.003,0.029,0.005,0.083,0.005,0.112
			c0.035,0.568,0.005,1.186-0.089,1.792c-0.184,0.866,0.055,1.071,0.179,1.146c0.023,0.011,0.045,0.022,0.063,0.032
			c1.445,0.92,2.196,2.047,2.258,3.364c0.091,9.373,0.041,14.352-0.148,14.826c-0.017,0.044-0.039,0.085-0.064,0.125
			c-0.387,0.606-1.153,1.325-2.624,1.257h-5.011C17.273,30.962,17.217,30.963,17.162,30.963z"/>
		<path style="fill:none;stroke:#004E5F;stroke-width:1.5;stroke-linecap:round;stroke-linejoin:round;stroke-miterlimit:10;" d="
			M17.184,12.025"/>
		<path style="fill:none;stroke:#004E5F;stroke-width:1.5;stroke-linecap:round;stroke-linejoin:round;stroke-miterlimit:10;" d="
			M17.685,8.418"/>
		<path style="fill:#004E5F;" d="M17.876,7.771c-0.04,0-0.08-0.003-0.12-0.01c-0.409-0.066-0.687-0.451-0.621-0.859
			c0.144-0.891,0.327-1.803,0.547-2.713c-0.277-0.616-0.225-1.308,0.155-1.981c0.205-0.36,0.662-0.486,1.022-0.285
			c0.361,0.204,0.488,0.661,0.285,1.022c-0.21,0.373-0.143,0.57-0.039,0.727c0.116,0.176,0.154,0.392,0.103,0.596
			c-0.241,0.964-0.44,1.931-0.592,2.873C18.556,7.509,18.237,7.771,17.876,7.771z"/>
	</g>
	<g>
		<path style="fill:#004E5F;" d="M29.161,3.1c-0.093,0-0.187-0.017-0.278-0.054c-0.321-0.128-0.505-0.454-0.467-0.782h-1.708
			c0.027,0.323-0.152,0.644-0.466,0.769c-0.386,0.154-0.817-0.021-0.97-0.405c-0.294-0.735-0.018-1.419,0.719-1.786
			c0.104-0.051,0.218-0.078,0.333-0.078h2.48c0.116,0,0.23,0.027,0.333,0.078c0.737,0.366,1.012,1.05,0.718,1.786
			C29.74,2.922,29.458,3.1,29.161,3.1z"/>
		<path style="fill:#004E5F;" d="M30.228,30.963c-0.057,0-0.114-0.002-0.172-0.004h-4.011c-0.414,0-0.75-0.336-0.75-0.75
			s0.336-0.75,0.75-0.75h4.042c0.757,0.023,1.082-0.223,1.27-0.478c0.111-0.914,0.086-9.144,0.037-14.188
			c-0.037-0.773-0.526-1.468-1.495-2.097c-0.011-0.006-0.022-0.012-0.033-0.018c-0.624-0.35-1.295-1.109-0.947-2.742
			c0.07-0.459,0.095-0.969,0.065-1.475c-0.157-1.353-0.418-2.77-0.775-4.194c-0.051-0.205-0.014-0.421,0.103-0.597
			c0.097-0.146,0.183-0.335-0.039-0.727c-0.204-0.361-0.076-0.818,0.285-1.022c0.36-0.203,0.817-0.076,1.022,0.285
			c0.38,0.674,0.431,1.366,0.154,1.982c0.336,1.391,0.586,2.774,0.743,4.117c0.003,0.029,0.005,0.083,0.005,0.112
			c0.035,0.568,0.005,1.186-0.089,1.792c-0.184,0.866,0.055,1.071,0.179,1.146c0.023,0.011,0.045,0.022,0.063,0.032
			c1.445,0.92,2.196,2.047,2.258,3.364c0.091,9.373,0.041,14.352-0.148,14.826c-0.017,0.044-0.038,0.085-0.063,0.125
			C32.309,30.284,31.584,30.963,30.228,30.963z"/>
		<path style="fill:#004E5F;" d="M25.184,12.561c-0.192,0-0.384-0.073-0.53-0.22c-0.293-0.293-0.293-0.768,0-1.061
			c0.212-0.212,0.167-0.678,0.093-1.031c-0.102-0.646-0.132-1.263-0.095-1.876c0.159-1.403,0.409-2.791,0.746-4.185
			c-0.277-0.616-0.225-1.308,0.155-1.981c0.205-0.36,0.662-0.486,1.022-0.285c0.361,0.204,0.488,0.661,0.285,1.022
			c-0.21,0.373-0.143,0.57-0.039,0.727c0.117,0.176,0.154,0.392,0.103,0.597c-0.357,1.427-0.619,2.844-0.777,4.211
			c-0.026,0.489-0.002,0.999,0.076,1.499c0.214,1.002,0.046,1.81-0.507,2.363C25.567,12.487,25.375,12.561,25.184,12.561z"/>
	</g>
</g>
<g id="big_icon">
	<g>
		<path style="fill:none;stroke:#004E5F;stroke-width:2;stroke-linecap:round;stroke-linejoin:round;stroke-miterlimit:10;" d="
			M18.588,32.523"/>
		<g>
			<path style="fill:#004E5F;" d="M7.013,45.45c-0.197,0-0.392-0.058-0.558-0.17l-5.492-3.688c-0.459-0.308-0.58-0.929-0.272-1.388
				l11.73-17.472c1.067-1.592,2.947-1.774,5.077-0.342l0.09,0.059c0.64,0.429,1.496,1.12,2.016,2.018
				c0.605,1.051,0.596,2.141-0.028,3.069L7.843,45.008c-0.147,0.22-0.377,0.373-0.638,0.424C7.142,45.443,7.077,45.45,7.013,45.45z
				 M2.908,40.49l3.832,2.572l11.175-16.641c0.142-0.21,0.233-0.472-0.044-0.954c-0.256-0.442-0.748-0.921-1.386-1.35l-0.091-0.06
				c-0.629-0.422-1.189-0.65-1.591-0.65c-0.212,0-0.462,0.052-0.722,0.44L2.908,40.49z"/>
			<path style="fill:#004E5F;" d="M18.787,24.945c-0.192,0-0.387-0.055-0.559-0.171c-0.043-0.03-0.084-0.062-0.121-0.097
				c-0.091-0.025-0.196-0.05-0.307-0.079c-0.477-0.122-0.97-0.249-1.315-0.481l-0.091-0.06c-0.432-0.291-0.699-0.761-0.895-1.104
				c-0.004-0.008-0.009-0.015-0.013-0.022c-0.001,0-0.001,0-0.001,0c-0.459-0.307-0.582-0.927-0.275-1.386
				c0,0,0.002-0.001,0.002-0.002l4.07-6.061c0.297-0.441,0.887-0.574,1.346-0.3l2.838,1.705c0.234,0.141,0.4,0.373,0.461,0.64
				c0.059,0.267,0.006,0.547-0.146,0.775l-4.163,6.2c-0.001,0.001-0.001,0.002-0.003,0.003
				C19.422,24.792,19.107,24.945,18.787,24.945z M17.284,22.046c0.077,0.135,0.183,0.311,0.243,0.368l0.061,0.037
				c0.107,0.057,0.5,0.158,0.711,0.212c0.041,0.011,0.084,0.021,0.125,0.032l3.111-4.634l-1.122-0.674L17.284,22.046z"/>
			<path style="fill:#004E5F;" d="M27.47,23.889c-0.021,0-0.042,0-0.063-0.002c-0.354-0.022-0.671-0.231-0.831-0.549
				c0,0-0.359-0.716-0.926-1.87c-0.142-0.289-0.137-0.627,0.016-0.911c0.137-0.257,0.523-1.138-0.256-1.662
				c-0.439-0.294-1.084-0.321-1.516-0.066c-0.314,0.187-0.707,0.186-1.021-0.001l-6.111-3.636c-0.236-0.141-0.404-0.372-0.465-0.64
				s-0.008-0.549,0.146-0.777l1.257-1.87c0.113-0.313,0.789-2.772-4.158-6.095c-0.187-0.125-0.326-0.31-0.395-0.524
				c-0.111-0.347-0.428-1.543,0.181-2.378c0.546-0.749,1.534-0.899,2.862-0.306c0.076,0.035,0.148,0.079,0.215,0.131l11.499,9.115
				c0.235,0.183,0.376,0.461,0.386,0.759c0.014,0.473,0.199,0.832,0.551,1.066c0.452,0.305,0.982,0.251,1.474-0.109
				c0.136-0.1,0.296-0.164,0.462-0.186c1.258-0.164,2.461-0.232,2.512-0.235c0.388-0.013,0.737,0.174,0.925,0.503
				c0.188,0.33,0.173,0.738-0.039,1.053L28.3,23.446C28.113,23.724,27.802,23.889,27.47,23.889z M24.586,16.649
				c0.695,0,1.366,0.202,1.938,0.585c1.138,0.766,1.59,2.094,1.237,3.425l3.583-5.335c-0.025,0.003-0.052,0.006-0.077,0.009
				c-1.117,0.705-2.483,0.713-3.543,0.001c-0.756-0.507-1.238-1.266-1.387-2.171l-2.141-1.666l-8.935-7.117
				C15.146,4.333,15.05,4.3,14.974,4.278c0.003,0.032,0.007,0.064,0.012,0.098c6.503,4.532,4.562,8.327,4.474,8.488l-0.769,1.149
				l4.756,2.829C23.807,16.715,24.191,16.649,24.586,16.649z"/>
		</g>
	</g>
	<g>
		<path style="fill:#004E5F;" d="M35.586,3.897c-0.123,0-0.249-0.023-0.371-0.072c-0.513-0.205-0.762-0.787-0.558-1.3
			c0.001-0.003,0.003-0.007,0.005-0.011H31.23c0.001,0.003,0.002,0.007,0.004,0.011c0.205,0.513-0.045,1.095-0.558,1.3
			c-0.516,0.204-1.095-0.046-1.3-0.558c-0.435-1.089-0.023-2.104,1.072-2.648c0.139-0.069,0.291-0.104,0.445-0.104h4.104
			c0.154,0,0.307,0.036,0.445,0.104c1.096,0.544,1.506,1.559,1.071,2.648C36.358,3.659,35.982,3.897,35.586,3.897z"/>
		<path style="fill:#004E5F;" d="M28.5,49.988c-1.335,0-2.443-0.428-3.266-1.275c-0.205-0.219-0.387-0.449-0.545-0.695
			c-0.034-0.055-0.063-0.111-0.087-0.17c-0.13-0.326-0.401-1.006-0.253-21.344c0.004-0.521,0.006-0.94,0.029-1.273
			c-0.002-0.025-0.004-0.051-0.004-0.077l0.011,0c0-0.001,0-0.003,0.001-0.005l-0.013,0l0.013-0.001
			c0.068-0.793,0.28-1.067,0.973-1.075c0.578,0.025,1,0.479,1.014,1.025c0.002,0.063-0.002,0.124-0.012,0.184
			c-0.003,0.174-0.008,0.531-0.012,1.236c-0.1,13.598-0.004,19.485,0.123,20.565c0.064,0.088,0.134,0.17,0.207,0.248
			c0.461,0.475,1.131,0.69,2.053,0.653l8.384-0.001c1.37,0.061,1.975-0.449,2.302-0.9c0.222-1.787,0.182-15.28,0.101-23.602
			c-0.065-1.375-0.916-2.591-2.598-3.68c-0.021-0.01-0.042-0.019-0.054-0.026c-0.961-0.539-1.994-1.719-1.447-4.277
			c0.12-0.79,0.162-1.651,0.111-2.506c-0.262-2.26-0.697-4.616-1.289-6.981c-0.068-0.273-0.018-0.562,0.138-0.796
			c0.204-0.308,0.358-0.722-0.055-1.452c-0.271-0.481-0.102-1.091,0.38-1.363c0.482-0.271,1.091-0.102,1.362,0.379
			c0.739,1.311,0.576,2.38,0.212,3.135c0.563,2.317,0.981,4.625,1.244,6.865c0.004,0.039,0.007,0.077,0.007,0.116
			c0.056,0.977,0.008,1.981-0.145,2.965c-0.337,1.586,0.153,1.989,0.405,2.14c0.008,0.003,0.016,0.006,0.02,0.009
			c0.043,0.019,0.085,0.042,0.125,0.067c2.277,1.453,3.482,3.253,3.582,5.349c0.104,10.644,0.146,23.484-0.23,24.424
			c-0.022,0.059-0.051,0.113-0.084,0.166c-0.605,0.951-1.816,2.068-4.129,1.968l-8.3,0.001C28.682,49.986,28.59,49.988,28.5,49.988z
			"/>
		<path style="fill:none;stroke:#004E5F;stroke-width:2;stroke-linecap:round;stroke-linejoin:round;stroke-miterlimit:10;" d="
			M28.534,18.902"/>
		<path style="fill:none;stroke:#004E5F;stroke-width:2;stroke-linecap:round;stroke-linejoin:round;stroke-miterlimit:10;" d="
			M29.363,12.934"/>
		<path style="fill:#004E5F;" d="M29.68,11.624c-0.053,0-0.105-0.004-0.16-0.013c-0.545-0.088-0.916-0.601-0.828-1.146
			c0.242-1.5,0.551-3.03,0.922-4.552c-0.365-0.755-0.527-1.825,0.213-3.135c0.271-0.48,0.883-0.65,1.362-0.378
			c0.481,0.272,0.649,0.882,0.378,1.363c-0.412,0.73-0.259,1.144-0.055,1.453c0.156,0.234,0.205,0.522,0.137,0.795
			c-0.398,1.595-0.729,3.201-0.982,4.773C30.587,11.274,30.162,11.624,29.68,11.624z"/>
	</g>
	<g>
		<path style="fill:#004E5F;" d="M48.348,3.897c-0.123,0-0.248-0.023-0.37-0.072c-0.513-0.205-0.763-0.787-0.558-1.3
			c0.002-0.003,0.003-0.007,0.004-0.011h-3.432c0.001,0.003,0.002,0.007,0.004,0.011c0.205,0.513-0.045,1.095-0.558,1.3
			c-0.517,0.204-1.095-0.046-1.3-0.558c-0.436-1.089-0.023-2.104,1.075-2.649c0.138-0.068,0.29-0.104,0.444-0.104h4.103
			c0.154,0,0.307,0.036,0.444,0.104c1.097,0.544,1.508,1.559,1.072,2.648C49.121,3.659,48.746,3.897,48.348,3.897z"/>
		<path style="fill:#004E5F;" d="M50.113,49.987c-0.091,0-0.183-0.002-0.277-0.006l-6.645,0.001c-0.553,0-1-0.447-1-1s0.447-1,1-1
			h6.687c1.396,0.054,2.001-0.472,2.323-0.929c0.201-1.417,0.16-15.146,0.079-23.573c-0.064-1.374-0.913-2.588-2.592-3.676
			c-0.021-0.01-0.04-0.02-0.058-0.029c-0.962-0.539-1.994-1.718-1.449-4.277c0.122-0.791,0.164-1.651,0.112-2.504
			c-0.261-2.256-0.696-4.611-1.29-6.983c-0.068-0.273-0.018-0.563,0.139-0.797c0.205-0.307,0.358-0.72-0.055-1.451
			c-0.271-0.481-0.102-1.091,0.379-1.363c0.482-0.271,1.092-0.102,1.363,0.379c0.74,1.312,0.576,2.382,0.211,3.135
			c0.564,2.324,0.983,4.631,1.244,6.864c0.004,0.039,0.007,0.078,0.007,0.116c0.058,0.976,0.01,1.981-0.146,2.967
			c-0.34,1.604,0.167,1.997,0.416,2.143c0.031,0.014,0.062,0.028,0.082,0.04c2.332,1.485,3.537,3.285,3.635,5.38
			c0.104,10.642,0.146,23.483-0.229,24.423c-0.023,0.058-0.052,0.113-0.086,0.166C53.384,48.926,52.248,49.987,50.113,49.987z"/>
		<path style="fill:#004E5F;" d="M41.769,19.547c-0.256,0-0.511-0.097-0.706-0.292c-0.391-0.39-0.392-1.023-0.002-1.414
			c0.344-0.345,0.418-0.993,0.219-1.926c-0.164-1.041-0.211-2.045-0.151-3.041c0.263-2.32,0.681-4.632,1.247-6.96
			c-0.363-0.753-0.527-1.822,0.212-3.133c0.271-0.481,0.878-0.653,1.362-0.38c0.48,0.271,0.65,0.881,0.38,1.362
			c-0.412,0.732-0.259,1.146-0.055,1.453c0.155,0.234,0.206,0.523,0.138,0.796c-0.59,2.358-1.023,4.695-1.287,6.946
			c0,0.015,0,0.029-0.001,0.037c-0.051,0.853-0.011,1.713,0.122,2.558c0.338,1.584,0.083,2.847-0.77,3.702
			C42.281,19.449,42.025,19.547,41.769,19.547z"/>
	</g>
</g>
</svg>
