<svg version="1.1" xmlns="http://www.w3.org/2000/svg" xmlns:xlink="http://www.w3.org/1999/xlink" x="0px" y="0px" width="200px"
	 height="150px" xml:space="preserve">
<g id="small_icon">
	<g>
		<path fill="#004E5F" d="M14.435,12.086c-0.009,0.002-0.017,0.005-0.026,0.008c-0.013,0.004-0.027,0.003-0.041,0.007
			 M11.049,20.309l0.104,0.487c0.05,0.192,0.167,0.355,0.341,0.451c0.107,0.06,0.223,0.091,0.344,0.091
			c0.073,0,0.2-0.012,0.272-0.035L14,20.719v10.349C14,31.467,14.211,32,14.611,32h14.443C29.453,32,30,31.467,30,31.067V20.72
			l1.712,0.583c0.072,0.023,0.091,0.035,0.165,0.035c0.117,0,0.207-0.029,0.312-0.086c0.173-0.093,0.286-0.25,0.34-0.439
			l1.681-5.917c0.101-0.348-0.08-0.718-0.413-0.861l-4.455-1.917c-0.01-0.004-0.021-0.005-0.033-0.008
			c-0.008-0.004-0.014-0.01-0.021-0.012l-3.577-1.135C25.635,10.935,25.557,11,25.478,11h-3.716l-1.35,1h4.946L29,13.297v6.433V30
			H15V19.645l-0.668-0.441l-1.77,0.492l-0.15-0.764L11.049,20.309z M31.442,19.699L30,19.203v-5.326l2.807,1.232L31.442,19.699z"/>
		<path fill="#004E5F" d="M17.867,15.039c0.229,1.876,2.156,3.207,4.055,3.207c2.025,0,4.078-1.701,4.078-3.76v-0.752
			c0-0.398-0.601-0.722-1-0.722s-1,0.324-1,0.722v0.752c0,1.25-0.785,2.228-2,2.228s-2-0.979-2-2.228V14"/>
		<path fill="#004E5F" d="M26.889,28H16.777c-0.2,0-0.361,0.301-0.361,0.5s0.161,0.5,0.361,0.5h10.111c0.199,0,0.36-0.301,0.36-0.5
			S27.088,28,26.889,28z"/>
	</g>
	<g>
		<g>
			<path fill="none" stroke="#004E5F" stroke-linecap="round" stroke-linejoin="round" stroke-miterlimit="10" d="M12.037,19.997"/>
			<g>
				<path fill="#004E5F" d="M4.227,28.545c-0.099,0-0.196-0.029-0.279-0.085l-3.706-2.488c-0.229-0.153-0.29-0.464-0.136-0.694
					l7.915-11.789c0.667-0.995,1.835-1.09,3.184-0.184c0.478,0.319,1.033,0.767,1.366,1.345c0.374,0.648,0.369,1.318-0.012,1.886
					L4.642,28.324c-0.074,0.109-0.188,0.186-0.318,0.211C4.291,28.542,4.259,28.545,4.227,28.545z M1.214,25.42l2.875,1.932
					l7.639-11.374c0.113-0.169,0.213-0.417-0.024-0.829c-0.185-0.321-0.536-0.665-0.988-0.968c-0.966-0.647-1.489-0.697-1.864-0.135
					L1.214,25.42z"/>
				<path fill="#004E5F" d="M12.379,14.709c-0.097,0-0.297-0.028-0.383-0.085c-0.033-0.022-0.115-0.048-0.141-0.077
					c-0.071-0.021-0.187-0.042-0.281-0.066c-0.307-0.079-0.638-0.161-0.846-0.3c-0.318-0.213-0.486-0.499-0.617-0.728
					c-0.011-0.018-0.023-0.036-0.033-0.053c-0.012-0.006-0.024-0.014-0.035-0.021c-0.229-0.154-0.291-0.464-0.138-0.693v0
					l2.746-4.089c0.148-0.22,0.444-0.286,0.673-0.15l1.914,1.151c0.117,0.071,0.201,0.187,0.23,0.32
					c0.029,0.134,0.21,0.274,0.134,0.388L13,14.488c0,0,0,0.001,0,0.001C12,14.632,12.539,14.709,12.379,14.709z M10.951,12.92
					c0.008,0.013,0.016,0.025,0.022,0.038c0.056,0.098,0.171,0.301,0.233,0.349c0.143,0.091,0.434,0.166,0.59,0.206
					c0.072,0.019,0.141,0.036,0.205,0.053l2.271-3.382l-1.057-0.635L10.951,12.92z"/>
				<path fill="#004E5F" d="M18.029,14c-0.01,0-0.021,0-0.031,0c-0.178,0-0.336-0.118-0.415-0.277c0,0-0.243-0.484-0.624-1.262
					c-0.07-0.145-0.067-0.314,0.008-0.456c0.227-0.425,0.285-1.002-0.229-1.349c-0.354-0.236-0.858-0.257-1.21-0.05
					c-0.157,0.093-0.353,0.093-0.511,0l-4.124-2.454c-0.118-0.07-0.202-0.186-0.231-0.32c-0.031-0.134-0.004-0.275,0.072-0.389
					l0.881-1.311v0c-0.006,0,0.793-1.835-2.887-4.306C8.636,1.765,8.566,1.672,8.531,1.565C8.482,1.413,8.258,0.626,8.629,0.117
					c0.318-0.438,0.906-0.512,1.719-0.15c0.037,0.017,0.074,0.039,0.107,0.065l7.76,6.152c0.118,0.091,0.188,0.23,0.193,0.379
					c0.008,0.26,0.092,0.62,0.449,0.859c0.365,0.247,0.805,0.209,1.195-0.078c0.067-0.05,0.146-0.082,0.23-0.092
					c0.853-0.111,1.682-0.158,1.682-0.158c0.193-0.008,0.369,0.087,0.463,0.251c0.094,0.165,0.086,0.369-0.02,0.526l-3.963,5.904
					C18.352,13.916,18.195,14,18.029,14z M17.963,12.235c0.047,0.095,0.09,0.184,0.132,0.268L21,8.177
					c-0.15,0.015-0.309,0.033-0.468,0.052c-0.704,0.459-1.564,0.474-2.231,0.025c-0.488-0.327-0.793-0.823-0.872-1.415L15.93,5.672
					L9.883,0.856C9.633,0.75,9.496,0.733,9.436,0.733c-0.029,0.035-0.023,0.203,0.01,0.372c4.334,2.988,3.082,5.439,3.025,5.543
					l-0.612,0.914l3.439,2.046c0.636-0.253,1.415-0.173,1.997,0.217C18.092,10.362,18.344,11.307,17.963,12.235z"/>
			</g>
		</g>
	</g>
</g>
<g id="big_icon">
	<g>
		<path fill="#004E5F" d="M21.142,17.799c-0.014,0.003-0.024,0.008-0.038,0.012c-0.02,0.006-0.042,0.004-0.062,0.011 M16.123,29.984
			l0.156,0.723c0.074,0.285,0.246,0.527,0.504,0.669c0.16,0.089,0.33,0.134,0.51,0.134c0.109,0,0.549-0.017,0.655-0.051L21,30.594
			V45.93c0,0.592-0.189,1.07,0.402,1.07h21.406C43.4,47,44,46.521,44,45.93V30.594l2.643,0.865c0.107,0.034,0.187,0.051,0.296,0.051
			c0.175,0,0.333-0.043,0.49-0.127c0.256-0.137,0.437-0.371,0.516-0.65l2.498-8.77c0.147-0.516-0.115-1.064-0.61-1.276l-6.6-2.842
			c-0.016-0.006-0.031-0.007-0.048-0.012c-0.011-0.006-0.021-0.015-0.032-0.019l-5.301-1.776C37.74,15.999,37.624,16,37.507,16H32
			l-2,2h7.33L42,19.595v9.534V45H22V29l-1-0.652l-2.628,0.729l-0.225-1.132L16.123,29.984z M46.242,29.083L44,28.348v-7.895
			l4.213,1.827L46.242,29.083z"/>
		<path fill="#004E5F" d="M26.035,21.857c0.339,2.779,3.15,4.911,5.965,4.911c3,0,6-2.36,6-5.413v-1.114
			c0-0.591-0.908-1.07-1.5-1.07s-1.5,0.479-1.5,1.07v1.114c0,1.852-1.199,3.303-3,3.303s-3-1.451-3-3.303V20"/>
		<path fill="#004E5F" d="M39.598,41H24.613c-0.297,0-0.535,0.704-0.535,1s0.238,1,0.535,1h14.984c0.296,0,0.535-0.704,0.535-1
			S39.894,41,39.598,41z"/>
	</g>
	<g>
		<g>
			<path fill="none" stroke="#004E5F" stroke-width="2" stroke-linecap="round" stroke-linejoin="round" stroke-miterlimit="10" d="
				M17.588,29.523"/>
			<g>
				<path fill="#004E5F" d="M6.013,42.45c-0.197,0-0.392-0.058-0.558-0.17l-5.492-3.688c-0.459-0.308-0.58-0.929-0.272-1.388
					l11.73-17.472c1.067-1.592,2.948-1.774,5.077-0.342l0.09,0.059c0.64,0.429,1.496,1.12,2.016,2.018
					c0.605,1.051,0.596,2.141-0.028,3.069L6.843,42.008c-0.147,0.22-0.377,0.373-0.638,0.424C6.142,42.443,6.077,42.45,6.013,42.45z
					 M1.908,37.49l3.832,2.572l11.175-16.641c0.142-0.21,0.233-0.472-0.044-0.954c-0.256-0.442-0.748-0.921-1.386-1.35l-0.091-0.06
					c-0.629-0.422-1.189-0.65-1.591-0.65c-0.212,0-0.462,0.052-0.722,0.44L1.908,37.49z"/>
				<path fill="#004E5F" d="M17.787,21.945c-0.192,0-0.387-0.055-0.559-0.171c-0.043-0.03-0.084-0.062-0.121-0.097
					c-0.091-0.025-0.196-0.05-0.307-0.079c-0.477-0.122-0.97-0.249-1.315-0.481l-0.091-0.06c-0.432-0.291-0.699-0.761-0.895-1.104
					c-0.004-0.008-0.009-0.015-0.013-0.022c-0.001,0-0.001,0-0.001,0c-0.459-0.307-0.582-0.927-0.275-1.386
					c0,0,0.002-0.001,0.002-0.002l4.07-6.061c0.297-0.442,0.888-0.575,1.346-0.3l2.838,1.705c0.234,0.141,0.4,0.373,0.461,0.64
					c0.059,0.267,0.006,0.547-0.146,0.775l-4.163,6.2c-0.001,0.001-0.001,0.002-0.003,0.003
					C18.422,21.792,18.107,21.945,17.787,21.945z M16.284,19.046c0.077,0.135,0.183,0.311,0.243,0.368l0.061,0.037
					c0.107,0.057,0.5,0.158,0.711,0.212c0.041,0.011,0.084,0.021,0.125,0.032l3.111-4.634l-1.122-0.674L16.284,19.046z"/>
				<path fill="#004E5F" d="M26.47,20.889c-0.021,0-0.042,0-0.062-0.002c-0.354-0.022-0.671-0.231-0.831-0.549
					c0,0-0.359-0.716-0.926-1.87c-0.142-0.289-0.137-0.627,0.016-0.911c0.137-0.257,0.523-1.138-0.256-1.662
					c-0.44-0.294-1.084-0.321-1.516-0.066c-0.314,0.186-0.707,0.186-1.021-0.001l-6.111-3.636c-0.236-0.141-0.404-0.372-0.465-0.64
					s-0.008-0.549,0.146-0.777l1.257-1.87c0.113-0.313,0.789-2.772-4.158-6.095c-0.187-0.125-0.326-0.31-0.395-0.524
					c-0.111-0.347-0.428-1.543,0.181-2.378c0.547-0.75,1.534-0.898,2.862-0.306c0.076,0.035,0.148,0.079,0.215,0.131l11.499,9.115
					c0.235,0.183,0.376,0.461,0.386,0.759c0.014,0.473,0.199,0.832,0.551,1.066c0.452,0.305,0.982,0.251,1.474-0.109
					c0.136-0.1,0.296-0.164,0.462-0.186c1.258-0.164,2.461-0.232,2.512-0.235c0.39-0.021,0.736,0.174,0.925,0.503
					c0.188,0.33,0.173,0.738-0.039,1.053L27.3,20.446C27.113,20.724,26.802,20.889,26.47,20.889z M23.586,13.649
					c0.695,0,1.366,0.202,1.938,0.585c1.138,0.766,1.59,2.094,1.237,3.425l3.583-5.335c-0.025,0.003-0.052,0.006-0.077,0.009
					c-1.117,0.705-2.482,0.713-3.543,0.001c-0.756-0.507-1.238-1.266-1.387-2.171l-2.141-1.666l-8.935-7.117
					C14.146,1.333,14.05,1.3,13.974,1.278c0.003,0.032,0.007,0.064,0.012,0.098c6.503,4.532,4.562,8.327,4.474,8.488l-0.769,1.149
					l4.756,2.829C22.807,13.715,23.191,13.649,23.586,13.649z"/>
			</g>
		</g>
	</g>
</g>
</svg>
