<svg version="1.1" id="Layer_1" xmlns="http://www.w3.org/2000/svg" xmlns:xlink="http://www.w3.org/1999/xlink" xml:space="preserve">
<g id="small_icon">
	<path style="fill:#004E5F;" d="M29,33H10v-8.5l4.637-2.5h9.732L29,24.5V33z M12,31h15v-5.307L23.864,24h-8.722L12,25.693V31z"/>
	<polygon style="fill:#004E5F;" points="26.936,23 12.116,23 11.206,15.638 13.19,15.393 13.884,21 25.064,21 25.931,8 22,8 22,6 
		28.069,6 	"/>
	<path style="fill:#004E5F;" d="M27.75,22H27v-2h0.75c1.792,0,3.25-1.458,3.25-3.25v-1.5c0-1.792-1.458-3.25-3.25-3.25H27v-2h0.75
		c2.895,0,5.25,2.355,5.25,5.25v1.5C33,19.645,30.645,22,27.75,22z"/>
	<path style="fill:#004E5F;" d="M15,2h9.756C26.548,2,28,3,28,5H17"/>
	<rect x="20" y="11" style="fill:#004E5F;" width="1" height="7"/>
	<rect x="19" y="12" style="fill:#004E5F;" width="4" height="1"/>
	<rect x="19" y="15" style="fill:#004E5F;" width="4" height="1"/>
	<path style="fill:#004E5F;" d="M14.5,35h-1c-0.827,0-1.5-0.673-1.5-1.5s0.673-1.5,1.5-1.5h1c0.827,0,1.5,0.673,1.5,1.5
		S15.327,35,14.5,35z M13.5,33c-0.276,0-0.5,0.225-0.5,0.5s0.224,0.5,0.5,0.5h1c0.276,0,0.5-0.225,0.5-0.5S14.776,33,14.5,33H13.5z"
		/>
	<path style="fill:#004E5F;" d="M25.5,35h-1c-0.827,0-1.5-0.673-1.5-1.5s0.673-1.5,1.5-1.5h1c0.827,0,1.5,0.673,1.5,1.5
		S26.327,35,25.5,35z M24.5,33c-0.276,0-0.5,0.225-0.5,0.5s0.224,0.5,0.5,0.5h1c0.276,0,0.5-0.225,0.5-0.5S25.776,33,25.5,33H24.5z"
		/>
	<path style="fill:#004E5F;" d="M23.5,29h-8c-0.827,0-1.5-0.673-1.5-1.5s0.673-1.5,1.5-1.5h8c0.827,0,1.5,0.673,1.5,1.5
		S24.327,29,23.5,29z M15.5,27c-0.276,0-0.5,0.225-0.5,0.5s0.224,0.5,0.5,0.5h8c0.276,0,0.5-0.225,0.5-0.5S23.776,27,23.5,27H15.5z"
		/>
	<rect x="16.563" y="26.5" style="fill:#004E5F;" width="1.75" height="2"/>
	<g>
		<g>
			<path style="fill:none;stroke:#004E5F;stroke-width:2;stroke-linecap:round;stroke-linejoin:round;stroke-miterlimit:10;" d="
				M10.712,18.301"/>
			<g>
				<path style="fill:#004E5F;" d="M3.116,25.376c-0.114,0-0.225-0.038-0.314-0.11l-3.114-2.51
					c-0.215-0.174-0.249-0.488-0.076-0.703l7.981-9.906c0.688-0.856,1.772-0.857,2.928,0.075c0.406,0.326,0.874,0.774,1.13,1.325
					c0.292,0.626,0.233,1.243-0.165,1.737l-7.982,9.905c-0.083,0.104-0.204,0.17-0.336,0.184
					C3.151,25.375,3.133,25.376,3.116,25.376z M0.705,22.291l2.335,1.882l7.669-9.517c0.105-0.13,0.205-0.327,0.037-0.687
					c-0.137-0.293-0.418-0.621-0.793-0.922c-0.46-0.371-0.817-0.542-1.092-0.542c-0.117,0-0.295,0.028-0.488,0.269L0.705,22.291z"/>
				<path style="fill:#004E5F;" d="M11.447,13.645c-0.11,0-0.303-0.036-0.396-0.111c-0.027-0.022-0.092-0.046-0.113-0.072
					c-0.059-0.022-0.151-0.046-0.227-0.073c-0.273-0.096-0.566-0.195-0.749-0.342c-0.276-0.223-0.406-0.497-0.508-0.716
					c-0.006-0.013-0.014-0.026-0.02-0.038c-0.006-0.004-0.014-0.009-0.02-0.015c-0.214-0.173-0.249-0.487-0.075-0.702l2.768-3.436
					c0.166-0.209,0.465-0.248,0.683-0.091l1.62,1.176c0.111,0.081,0.184,0.203,0.202,0.339s0.143,0.273,0.057,0.38L12,13.458v0.001
					C12,13.582,11.593,13.645,11.447,13.645z M10.355,11.908c0.001,0.002,0.002,0.004,0.003,0.006
					c0.04,0.086,0.122,0.267,0.169,0.314c0.115,0.085,0.361,0.171,0.494,0.218c0.049,0.018,0.097,0.034,0.143,0.051l2.232-2.771
					l-0.81-0.588L10.355,11.908z"/>
				<path style="fill:#004E5F;" d="M16.567,13.464c-0.024,0-0.049-0.002-0.074-0.005c-0.176-0.026-0.324-0.144-0.39-0.309
					c0,0-0.179-0.45-0.46-1.173c-0.058-0.15-0.041-0.318,0.047-0.453c0.223-0.343,0.317-0.827-0.088-1.154
					c-0.282-0.227-0.709-0.281-1.021-0.132c-0.166,0.08-0.36,0.063-0.508-0.045l-3.49-2.51c-0.111-0.08-0.185-0.203-0.204-0.339
					c-0.018-0.136,0.02-0.274,0.106-0.381l0.889-1.102c0,0,0,0,0,0c-0.007,0,0.809-1.542-2.234-3.995
					c-0.087-0.07-0.148-0.168-0.173-0.278C8.936,1.45,8.796,0.735,9.152,0.289c0.327-0.41,0.897-0.451,1.636-0.041
					c0.037,0.021,0.071,0.045,0.101,0.074l6.447,6.093c0.109,0.101,0.167,0.246,0.159,0.394c-0.018,0.321,0.088,0.577,0.315,0.76
					c0.289,0.231,0.663,0.232,1.012,0.019c0.073-0.044,0.155-0.069,0.24-0.073c0.771-0.031,1.515-0.01,1.515-0.01
					c0.19,0.006,0.36,0.119,0.439,0.291s0.054,0.375-0.065,0.522l-3.995,4.958C16.861,13.396,16.717,13.464,16.567,13.464z
					 M16.662,11.837c0.02,0.049,0.038,0.098,0.056,0.144l2.802-3.479c-0.097,0.002-0.196,0.004-0.297,0.008
					c-0.68,0.36-1.467,0.3-2.041-0.162C16.767,8.013,16.528,7.541,16.497,7l-1.232-1.145l-5.016-4.762
					c-0.246-0.13-0.359-0.137-0.38-0.137C9.894,0.966,9.901,1.083,9.917,1.21c3.652,3.027,2.325,5.149,2.266,5.239l-0.587,0.729
					l2.846,2.046c0.604-0.172,1.296-0.03,1.789,0.366C16.913,10.144,17.072,11.021,16.662,11.837z"/>
			</g>
		</g>
	</g>
</g>
<g id="big_icon">
	<path style="fill:#004E5F;" d="M44,46H19V35.002L25.093,32h13.112L44,35.018V46z M21,44h21v-7.769L37.715,34H25.559L21,36.246V44z"
		/>
	<polygon style="fill:#004E5F;" points="41.473,32 21.861,32 20.617,22.521 22.602,22.261 23.615,30 39.604,30 40.837,12 35,12 
		35,10 42.979,10 	"/>
	<path style="fill:#004E5F;" d="M41.833,29.73c-0.235,0-0.471-0.012-0.705-0.035l-0.93-0.096l0.205-1.99l0.93,0.096
		c1.283,0.13,2.63-0.251,3.681-1.053c1.064-0.813,1.721-1.952,1.851-3.206l0.21-2.043c0.131-1.269-0.294-2.623-1.166-3.714
		c-0.871-1.091-2.091-1.791-3.346-1.92l-0.93-0.096l0.205-1.989l0.93,0.096c1.785,0.184,3.499,1.154,4.703,2.661
		c1.197,1.498,1.777,3.381,1.594,5.167l-0.211,2.043c-0.186,1.808-1.119,3.438-2.626,4.591C44.967,29.205,43.397,29.73,41.833,29.73
		z"/>
	<path style="fill:#004E5F;" d="M25,4h13.836c2.453,0,4.441,1,4.441,4H28"/>
	<rect x="33" y="16" style="fill:#004E5F;" width="1" height="10"/>
	<rect x="31" y="18" style="fill:#004E5F;" width="5" height="1"/>
	<rect x="31" y="22" style="fill:#004E5F;" width="5" height="1"/>
	<path style="fill:#004E5F;" d="M25.131,49h-1.262C22.838,49,22,48.162,22,47.131v-0.262C22,45.838,22.838,45,23.869,45h1.262
		C26.162,45,27,45.838,27,46.869v0.262C27,48.162,26.162,49,25.131,49z M23.869,46C23.39,46,23,46.39,23,46.869v0.262
		C23,47.61,23.39,48,23.869,48h1.262C25.61,48,26,47.61,26,47.131v-0.262C26,46.39,25.61,46,25.131,46H23.869z"/>
	<path style="fill:#004E5F;" d="M40.131,49h-1.262C37.838,49,37,48.162,37,47.131v-0.262C37,45.838,37.838,45,38.869,45h1.262
		C41.162,45,42,45.838,42,46.869v0.262C42,48.162,41.162,49,40.131,49z M38.869,46C38.39,46,38,46.39,38,46.869v0.262
		C38,47.61,38.39,48,38.869,48h1.262C40.61,48,41,47.61,41,47.131v-0.262C41,46.39,40.61,46,40.131,46H38.869z"/>
	<path style="fill:#004E5F;" d="M37.131,41H25.869C24.838,41,24,40.162,24,39.131v-0.262C24,37.838,24.838,37,25.869,37h11.262
		C38.162,37,39,37.838,39,38.869v0.262C39,40.162,38.162,41,37.131,41z M25.869,38C25.39,38,25,38.39,25,38.869v0.262
		C25,39.61,25.39,40,25.869,40h11.262C37.61,40,38,39.61,38,39.131v-0.262C38,38.39,37.61,38,37.131,38H25.869z"/>
	<rect x="28" y="38" style="fill:#004E5F;" width="2" height="2"/>
	<g>
		<g>
			<path style="fill:none;stroke:#004E5F;stroke-width:2;stroke-linecap:round;stroke-linejoin:round;stroke-miterlimit:10;" d="
				M17.588,30.523"/>
			<g>
				<path style="fill:#004E5F;" d="M6.013,43.45c-0.197,0-0.392-0.058-0.558-0.17l-5.492-3.688c-0.459-0.308-0.58-0.929-0.272-1.388
					l11.73-17.472c1.067-1.591,2.948-1.774,5.077-0.342l0.09,0.059c0.64,0.429,1.496,1.12,2.016,2.018
					c0.605,1.051,0.596,2.141-0.028,3.069L6.843,43.008c-0.147,0.22-0.377,0.373-0.638,0.424C6.142,43.443,6.077,43.45,6.013,43.45z
					 M1.908,38.49l3.832,2.572l11.175-16.641c0.142-0.21,0.233-0.472-0.044-0.954c-0.256-0.442-0.748-0.921-1.386-1.35l-0.091-0.06
					c-0.629-0.422-1.189-0.65-1.591-0.65c-0.212,0-0.462,0.052-0.722,0.44L1.908,38.49z"/>
				<path style="fill:#004E5F;" d="M17.787,22.945c-0.192,0-0.387-0.055-0.559-0.171c-0.043-0.03-0.084-0.062-0.121-0.097
					c-0.091-0.025-0.196-0.05-0.307-0.079c-0.477-0.122-0.97-0.249-1.315-0.481l-0.091-0.06c-0.432-0.291-0.699-0.761-0.895-1.104
					c-0.004-0.008-0.009-0.015-0.013-0.022c-0.001,0-0.001,0-0.001,0c-0.459-0.307-0.582-0.927-0.275-1.386
					c0,0,0.002-0.001,0.002-0.002l4.07-6.061c0.297-0.442,0.888-0.575,1.346-0.3l2.838,1.705c0.234,0.141,0.4,0.373,0.461,0.64
					c0.059,0.267,0.006,0.547-0.146,0.775l-4.163,6.2c-0.001,0.001-0.001,0.002-0.003,0.003
					C18.422,22.792,18.107,22.945,17.787,22.945z M16.284,20.046c0.077,0.135,0.183,0.311,0.243,0.368l0.061,0.037
					c0.107,0.057,0.5,0.158,0.711,0.212c0.041,0.011,0.084,0.021,0.125,0.032l3.111-4.634l-1.122-0.674L16.284,20.046z"/>
				<path style="fill:#004E5F;" d="M26.47,21.889c-0.021,0-0.042,0-0.063-0.002c-0.354-0.022-0.671-0.231-0.831-0.549
					c0,0-0.359-0.716-0.926-1.87c-0.142-0.289-0.137-0.627,0.016-0.911c0.137-0.257,0.523-1.138-0.256-1.662
					c-0.439-0.294-1.084-0.321-1.516-0.066c-0.314,0.187-0.707,0.186-1.021-0.001l-6.111-3.636c-0.236-0.141-0.404-0.372-0.465-0.64
					s-0.008-0.549,0.146-0.777l1.257-1.87c0.113-0.313,0.789-2.772-4.158-6.095c-0.187-0.125-0.326-0.31-0.395-0.524
					c-0.111-0.347-0.428-1.543,0.181-2.378c0.547-0.75,1.534-0.898,2.862-0.306c0.076,0.035,0.148,0.079,0.215,0.131l11.499,9.115
					c0.235,0.183,0.376,0.461,0.386,0.759c0.014,0.473,0.199,0.832,0.551,1.066c0.452,0.306,0.982,0.25,1.474-0.109
					c0.136-0.1,0.296-0.164,0.462-0.186c1.258-0.164,2.461-0.232,2.512-0.235c0.391-0.013,0.736,0.174,0.925,0.503
					c0.188,0.33,0.173,0.738-0.039,1.053L27.3,21.446C27.113,21.724,26.802,21.889,26.47,21.889z M23.586,14.649
					c0.695,0,1.366,0.202,1.938,0.585c1.138,0.766,1.59,2.094,1.237,3.425l3.583-5.335c-0.025,0.003-0.052,0.006-0.077,0.009
					c-1.117,0.705-2.483,0.713-3.543,0.001c-0.756-0.507-1.238-1.266-1.387-2.171l-2.141-1.666l-8.935-7.117
					C14.146,2.333,14.05,2.3,13.974,2.278c0.003,0.032,0.007,0.064,0.012,0.098c6.503,4.532,4.562,8.327,4.474,8.488l-0.769,1.149
					l4.756,2.829C22.807,14.715,23.191,14.649,23.586,14.649z"/>
			</g>
		</g>
	</g>
</g>
</svg>
