<svg version="1.1" id="Layer_1" xmlns="http://www.w3.org/2000/svg" xmlns:xlink="http://www.w3.org/1999/xlink" xml:space="preserve">
<g id="small_icon" >
	
		<path style="display:inline;fill:none;stroke:#004E5F;stroke-width:2;stroke-linecap:round;stroke-linejoin:round;stroke-miterlimit:10;" d="
		M11.171,18.26"/>
	<path style="display:inline;fill:#004E5F;" d="M32.586,20H12c-0.552,0-1-0.447-1-1s0.448-1,1-1h20.586
		C32.814,18,33,17.814,33,17.586V4.414C33,4.186,32.814,4,32.586,4H17c-0.552,0-1-0.448-1-1s0.448-1,1-1h15.586
		C33.917,2,35,3.083,35,4.414v13.172C35,18.917,33.917,20,32.586,20z"/>
	<path style="display:inline;fill:#004E5F;" d="M32.586,29H12.414C11.083,29,10,27.917,10,26.586v-3.172
		C10,22.083,11.083,21,12.414,21h20.172C33.917,21,35,22.083,35,23.414v3.172C35,27.917,33.917,29,32.586,29z M12.414,23
		C12.186,23,12,23.186,12,23.414v3.172C12,26.814,12.186,27,12.414,27h20.172C32.814,27,33,26.814,33,26.586v-3.172
		C33,23.186,32.814,23,32.586,23H12.414z"/>
	<rect x="18" y="19" style="display:inline;fill:#004E5F;" width="10" height="3"/>
	<rect x="14" y="24" style="display:inline;fill:#004E5F;" width="1.833" height="0.666"/>
	<rect x="14" y="25.334" style="display:inline;fill:#004E5F;" width="1.833" height="0.666"/>
	<rect x="17" y="24" style="display:inline;fill:#004E5F;" width="1.833" height="0.666"/>
	<rect x="17" y="25.334" style="display:inline;fill:#004E5F;" width="1.833" height="0.666"/>
	<rect x="20" y="24" style="display:inline;fill:#004E5F;" width="1.833" height="0.666"/>
	<rect x="20" y="25.334" style="display:inline;fill:#004E5F;" width="1.833" height="0.666"/>
	<rect x="23" y="24" style="display:inline;fill:#004E5F;" width="1.833" height="0.666"/>
	<rect x="23" y="25.334" style="display:inline;fill:#004E5F;" width="1.833" height="0.666"/>
	<rect x="26" y="24" style="display:inline;fill:#004E5F;" width="1.833" height="0.666"/>
	<rect x="26" y="25.334" style="display:inline;fill:#004E5F;" width="1.833" height="0.666"/>
	<rect x="29" y="24" style="display:inline;fill:#004E5F;" width="1.833" height="0.666"/>
	<rect x="29" y="25.334" style="display:inline;fill:#004E5F;" width="1.833" height="0.666"/>
	<path style="display:inline;fill:#004E5F;" d="M33,16H14c-0.552,0-1-0.447-1-1s0.448-1,1-1h19c0.553,0,1,0.447,1,1S33.553,16,33,16
		z"/>
	<g style="display:inline;">
		<path style="fill:#004E5F;" d="M4.174,25.97c-0.099,0-0.196-0.029-0.279-0.085l-3.32-2.23c-0.229-0.153-0.29-0.464-0.136-0.693
			L7.529,12.4c0.614-0.916,1.689-1.008,2.923-0.179c0.433,0.29,0.938,0.696,1.241,1.222c0.345,0.598,0.34,1.217-0.013,1.745
			L4.589,25.748c-0.074,0.11-0.188,0.187-0.318,0.213C4.238,25.967,4.206,25.97,4.174,25.97z M1.547,23.104l2.49,1.672l6.813-10.146
			c0.094-0.14,0.175-0.343-0.023-0.688c-0.162-0.281-0.471-0.583-0.87-0.851C9.5,12.785,9.15,12.645,8.883,12.645
			c-0.146,0-0.338,0.035-0.524,0.313L1.547,23.104z"/>
		<path style="fill:#004E5F;" d="M11.292,13.574c-0.096,0-0.193-0.027-0.279-0.085c-0.029-0.02-0.055-0.042-0.079-0.066
			c-0.06-0.018-0.134-0.035-0.211-0.055c-0.281-0.072-0.571-0.146-0.766-0.277c-0.294-0.197-0.443-0.459-0.563-0.669
			c-0.007-0.012-0.014-0.024-0.021-0.037c-0.006-0.004-0.013-0.008-0.02-0.013c-0.229-0.154-0.289-0.464-0.135-0.693l2.459-3.664
			c0.149-0.221,0.445-0.287,0.673-0.15l1.716,1.031c0.117,0.071,0.201,0.187,0.23,0.32c0.029,0.134,0.003,0.274-0.073,0.388
			l-2.517,3.748l0,0.001C11.61,13.497,11.452,13.574,11.292,13.574z M10.26,11.922c0.001,0.002,0.002,0.004,0.003,0.005
			c0.047,0.083,0.145,0.255,0.196,0.298c0.123,0.075,0.375,0.14,0.511,0.174c0.051,0.013,0.1,0.025,0.146,0.038l1.984-2.954
			l-0.858-0.516L10.26,11.922z"/>
		<path style="fill:#004E5F;" d="M16.54,13c-0.01,0-0.021,0-0.031,0c-0.177,0-0.335-0.148-0.416-0.308c0,0-0.217-0.448-0.56-1.144
			c-0.071-0.145-0.068-0.322,0.007-0.464c0.192-0.361,0.244-0.855-0.188-1.146c-0.301-0.202-0.731-0.222-1.028-0.045
			c-0.157,0.093-0.353,0.092-0.51-0.001l-3.694-2.198c-0.118-0.07-0.202-0.186-0.232-0.32C9.858,7.24,9.884,7.099,9.961,6.985
			l0.79-1.175c0,0,0,0,0,0c-0.007,0,0.672-1.607-2.572-3.786C8.085,1.962,8.016,1.87,7.981,1.763
			C7.936,1.622,7.728,0.895,8.075,0.419c0.301-0.413,0.852-0.486,1.604-0.15c0.039,0.018,0.075,0.039,0.107,0.065l6.952,5.51
			c0.118,0.091,0.188,0.23,0.193,0.379c0.01,0.321,0.137,0.566,0.379,0.729c0.308,0.206,0.677,0.175,1.01-0.069
			c0.068-0.05,0.148-0.082,0.232-0.093c0.765-0.098,1.509-0.141,1.509-0.141c0.191-0.008,0.369,0.086,0.463,0.251
			c0.094,0.165,0.087,0.369-0.019,0.527l-3.55,5.319C16.862,12.885,16.706,13,16.54,13z M16.536,11.304
			c0.023,0.047,0.046,0.094,0.068,0.138l2.49-3.709c-0.096,0.01-0.195,0.021-0.295,0.034c-0.643,0.417-1.434,0.427-2.047,0.016
			c-0.444-0.298-0.722-0.748-0.8-1.283l-1.327-1.034L9.215,1.157C8.994,1.064,8.88,1.054,8.839,1.054
			c0.015,0.008,0.03,0.124,0.056,0.25c3.9,2.699,2.762,4.928,2.711,5.022l-0.521,0.778l3.012,1.792
			c0.582-0.223,1.286-0.145,1.814,0.209C16.64,9.595,16.875,10.456,16.536,11.304z"/>
	</g>
</g>
<g id="big_icon">
	<path style="fill:none;stroke:#004E5F;stroke-width:2;stroke-linecap:round;stroke-linejoin:round;stroke-miterlimit:10;" d="
		M17.044,28.292"/>
	<path style="fill:#004E5F;" d="M49.383,30H18c-0.553,0-1-0.447-1-1s0.447-1,1-1h31.383C49.918,28,50,28,50,27.274V7.384
		C50,7.242,49.982,6,49.383,6H26c-0.553,0-1-0.448-1-1s0.447-1,1-1h23.383C50.973,4,52,5.328,52,7.384v19.891
		C52,29.646,50.36,30,49.383,30z"/>
	<path style="fill:#004E5F;" d="M48.863,44H18.137C16.407,44,15,42.594,15,40.865v-4.73C15,34.406,16.407,33,18.137,33h30.727
		C50.593,33,52,34.406,52,36.135v4.73C52,42.594,50.593,44,48.863,44z M18.137,35C17.51,35,17,35.51,17,36.135v4.73
		C17,41.49,17.51,42,18.137,42h30.727C49.49,42,50,41.49,50,40.865v-4.73C50,35.51,49.49,35,48.863,35H18.137z"/>
	<rect x="27" y="29" style="fill:#004E5F;" width="16" height="5"/>
	<rect x="22" y="37" style="fill:#004E5F;" width="2" height="1"/>
	<rect x="22" y="39" style="fill:#004E5F;" width="2" height="1"/>
	<rect x="26" y="37" style="fill:#004E5F;" width="3" height="1"/>
	<rect x="26" y="39" style="fill:#004E5F;" width="3" height="1"/>
	<rect x="30" y="37" style="fill:#004E5F;" width="3" height="1"/>
	<rect x="30" y="39" style="fill:#004E5F;" width="3" height="1"/>
	<rect x="35" y="37" style="fill:#004E5F;" width="2" height="1"/>
	<rect x="35" y="39" style="fill:#004E5F;" width="2" height="1"/>
	<rect x="39" y="37" style="fill:#004E5F;" width="4" height="1"/>
	<rect x="39" y="39" style="fill:#004E5F;" width="4" height="1"/>
	<rect x="44" y="37" style="fill:#004E5F;" width="3" height="1"/>
	<rect x="44" y="39" style="fill:#004E5F;" width="3" height="1"/>
	<path style="fill:#004E5F;" d="M50,24H22c-0.553,0-1-0.447-1-1s0.447-1,1-1h28c0.553,0,1,0.447,1,1S50.553,24,50,24z"/>
	<g>
		<path style="fill:#004E5F;" d="M6.478,40.18c-0.197,0-0.392-0.059-0.558-0.17l-5.014-3.366c-0.221-0.147-0.373-0.377-0.424-0.638
			c-0.052-0.26,0.002-0.529,0.15-0.75l10.708-15.949c1.001-1.493,2.769-1.673,4.755-0.338l0.091,0.061
			c0.722,0.484,1.968,1.493,2.229,2.829c0.133,0.677-0.006,1.344-0.4,1.931L7.309,39.736c-0.148,0.221-0.377,0.373-0.638,0.424
			C6.606,40.174,6.542,40.18,6.478,40.18z M2.851,35.541l3.354,2.251l10.152-15.119c0.101-0.148,0.128-0.272,0.097-0.431
			c-0.087-0.444-0.615-1.038-1.379-1.55l-0.091-0.061c-0.551-0.37-1.045-0.573-1.395-0.573c-0.179,0-0.374,0.044-0.587,0.363
			L2.851,35.541z"/>
		<path style="fill:#004E5F;" d="M17.226,21.461c-0.192,0-0.388-0.055-0.559-0.171c-0.037-0.025-0.072-0.052-0.104-0.081
			c-0.078-0.021-0.166-0.042-0.258-0.066c-0.443-0.113-0.901-0.23-1.23-0.451l-0.091-0.061c-0.401-0.271-0.653-0.711-0.836-1.033
			c-0.001-0.001-0.001-0.003-0.003-0.004c-0.443-0.312-0.557-0.923-0.254-1.375l3.716-5.532c0.298-0.442,0.89-0.574,1.345-0.299
			l2.592,1.558c0.234,0.141,0.4,0.372,0.461,0.64c0.059,0.268,0.006,0.547-0.146,0.775l-3.801,5.658
			c0,0.001-0.002,0.003-0.003,0.005C17.86,21.308,17.546,21.461,17.226,21.461z M15.956,18.731c0.063,0.106,0.136,0.224,0.179,0.268
			l0.052,0.03c0.08,0.039,0.427,0.128,0.614,0.176c0.018,0.005,0.037,0.01,0.055,0.015l2.756-4.103l-0.875-0.526L15.956,18.731z"/>
		<path style="fill:#004E5F;" d="M25.152,20.497c-0.021,0-0.042,0-0.063-0.002c-0.355-0.022-0.672-0.232-0.832-0.55
			c0,0-0.328-0.655-0.846-1.706c-0.143-0.289-0.137-0.628,0.016-0.913c0.116-0.218,0.445-0.966-0.205-1.404
			c-0.373-0.25-0.924-0.275-1.291-0.057c-0.316,0.185-0.707,0.186-1.021-0.001l-5.578-3.318c-0.236-0.141-0.404-0.372-0.464-0.64
			c-0.061-0.268-0.007-0.549,0.146-0.777l1.143-1.697c0.102-0.296,0.655-2.481-3.769-5.453c-0.187-0.125-0.325-0.31-0.395-0.524
			c-0.104-0.327-0.402-1.454,0.177-2.249c0.521-0.719,1.463-0.868,2.721-0.307c0.076,0.035,0.148,0.079,0.215,0.131l10.496,8.318
			c0.234,0.183,0.377,0.461,0.385,0.759c0.013,0.402,0.169,0.707,0.465,0.905c0.385,0.259,0.824,0.212,1.244-0.097
			c0.136-0.1,0.295-0.164,0.463-0.186c1.152-0.149,2.252-0.212,2.299-0.215c0.387-0.013,0.737,0.174,0.925,0.503
			c0.188,0.33,0.173,0.737-0.039,1.053l-5.36,7.984C25.797,20.332,25.484,20.497,25.152,20.497z M22.518,13.712
			c0.653,0,1.283,0.19,1.82,0.55c0.949,0.639,1.391,1.692,1.249,2.793l2.855-4.254c-1,0.533-2.18,0.492-3.106-0.129
			c-0.701-0.471-1.152-1.172-1.298-2.007l-1.928-1.5l-6.348-5.055c3.601,3.453,2.226,6.145,2.155,6.276l-0.656,0.98l4.227,2.514
			C21.814,13.77,22.163,13.712,22.518,13.712z"/>
	</g>
</g>
</svg>
