<svg version="1.1" id="Layer_1" xmlns="http://www.w3.org/2000/svg" xmlns:xlink="http://www.w3.org/1999/xlink" xml:space="preserve">
<g id="small_icon">
	<path style="fill:#004E5F;" d="M29,40H0V11h29V40z M2,38h25V13H2V38z"/>
	<path style="fill:#004E5F;" d="M19.5,36.5c-0.276,0-0.5-0.224-0.5-0.5V15c0-0.276,0.224-0.5,0.5-0.5S20,14.724,20,15v21
		C20,36.276,19.776,36.5,19.5,36.5z"/>
	<path style="fill:#004E5F;" d="M20.833,35.416c-0.099,0-0.198-0.029-0.285-0.09c-0.227-0.157-0.283-0.469-0.125-0.695l1.333-1.918
		c0.158-0.227,0.468-0.283,0.696-0.125c0.227,0.158,0.283,0.47,0.125,0.697l-1.333,1.916C21.147,35.342,20.992,35.416,20.833,35.416
		z"/>
	<path style="fill:#004E5F;" d="M26.084,37.333c-0.159,0-0.315-0.075-0.412-0.216l-2.417-3.5c-0.157-0.227-0.1-0.539,0.127-0.695
		c0.226-0.156,0.538-0.102,0.696,0.127l2.417,3.5c0.157,0.227,0.1,0.539-0.127,0.695C26.281,37.305,26.183,37.333,26.084,37.333z"/>
	<path style="fill:#004E5F;" d="M23.5,31.5c-0.276,0-0.5-0.224-0.5-0.5V21c0-0.276,0.224-0.5,0.5-0.5S24,20.724,24,21v10
		C24,31.276,23.776,31.5,23.5,31.5z"/>
	<path style="fill:#004E5F;" d="M21,12h-2V8.875C19,5.084,15.916,2,12.125,2h-0.25C8.084,2,5,5.084,5,8.875V12H3V8.875
		C3,3.981,6.981,0,11.875,0h0.25C17.019,0,21,3.981,21,8.875V12z"/>
	<path style="fill:#004E5F;" d="M26,12h-2V8.875C24,5.084,20.916,2,17.125,2h-0.25C13.084,2,10,5.084,10,8.875V12H8V8.875
		C8,3.981,11.981,0,16.875,0h0.25C22.019,0,26,3.981,26,8.875V12z"/>
</g>
<g id="big_icon">
	<path style="fill:#004E5F;" d="M33,47H0V13h33V47z M2,45h29V15H2V45z"/>
	<path style="fill:#004E5F;" d="M22.5,42.5c-0.276,0-0.5-0.224-0.5-0.5V18c0-0.276,0.224-0.5,0.5-0.5S23,17.724,23,18v24
		C23,42.276,22.776,42.5,22.5,42.5z"/>
	<path style="fill:#004E5F;" d="M23.973,41.515c-0.099,0-0.197-0.028-0.285-0.089c-0.227-0.158-0.283-0.47-0.125-0.696l1.572-2.263
		c0.156-0.227,0.469-0.283,0.695-0.125c0.228,0.158,0.283,0.47,0.126,0.696l-1.572,2.263C24.287,41.439,24.131,41.515,23.973,41.515
		z"/>
	<path style="fill:#004E5F;" d="M30.168,43.776c-0.159,0-0.315-0.075-0.412-0.216l-2.852-4.13c-0.157-0.228-0.1-0.538,0.127-0.696
		c0.227-0.156,0.538-0.1,0.695,0.128l2.852,4.13c0.157,0.228,0.1,0.539-0.127,0.695C30.364,43.748,30.266,43.776,30.168,43.776z"/>
	<path style="fill:#004E5F;" d="M27.5,36.5c-0.276,0-0.5-0.224-0.5-0.5V25c0-0.276,0.224-0.5,0.5-0.5S28,24.724,28,25v11
		C28,36.276,27.776,36.5,27.5,36.5z"/>
	<path style="fill:#004E5F;" d="M24,14h-2v-3.709C22,5.719,18.275,2,13.697,2h-0.295C8.77,2,5,5.719,5,10.291V14H3v-3.709
		C3,4.617,7.666,0,13.402,0h0.295C19.379,0,24,4.617,24,10.291V14z"/>
	<path style="fill:#004E5F;" d="M30,14h-2v-3.709C28,5.719,24.23,2,19.598,2h-0.295C14.725,2,11,5.719,11,10.291V14H9v-3.709
		C9,4.617,13.621,0,19.303,0h0.295C25.334,0,30,4.617,30,10.291V14z"/>
</g>
</svg>
