<svg version="1.1" id="Layer_1" xmlns="http://www.w3.org/2000/svg" xmlns:xlink="http://www.w3.org/1999/xlink" xml:space="preserve">
<g id="small_icon">
	<g>
		<path style="fill:#004E5F;" d="M7.448,37.688c-4.245,0-7.698-3.453-7.698-7.698s3.454-7.698,7.698-7.698s7.698,3.453,7.698,7.698
			S11.693,37.688,7.448,37.688z M7.448,24.291c-3.142,0-5.698,2.557-5.698,5.698s2.556,5.698,5.698,5.698
			c3.142,0,5.698-2.557,5.698-5.698S10.59,24.291,7.448,24.291z"/>
		<path style="fill:#004E5F;" d="M2.755,35.752c-0.19,0-0.371-0.108-0.455-0.292c-0.115-0.251-0.004-0.548,0.247-0.663
			c2.201-1.006,3.623-3.22,3.623-5.639c0-1.95-0.936-3.811-2.503-4.977c-0.222-0.165-0.268-0.479-0.103-0.699
			c0.165-0.222,0.479-0.268,0.7-0.104c1.82,1.354,2.907,3.515,2.907,5.779c0,2.809-1.651,5.379-4.207,6.549
			C2.896,35.737,2.825,35.752,2.755,35.752z"/>
		<path style="fill:#004E5F;" d="M12.404,35.459c-0.085,0-0.171-0.021-0.25-0.067c-2.218-1.284-3.596-3.673-3.596-6.233
			c0-1.848,0.699-3.604,1.969-4.947c0.189-0.201,0.506-0.209,0.707-0.02c0.2,0.189,0.209,0.506,0.02,0.707
			c-1.093,1.156-1.695,2.669-1.695,4.26c0,2.205,1.187,4.262,3.097,5.368c0.239,0.138,0.321,0.444,0.182,0.683
			C12.744,35.369,12.577,35.459,12.404,35.459z"/>
		<path style="fill:#004E5F;" d="M14,30H1c-0.276,0-0.5-0.224-0.5-0.5S0.724,29,1,29h13c0.276,0,0.5,0.224,0.5,0.5S14.276,30,14,30z
			"/>
	</g>
	<g>
		<path style="fill:#004E5F;" d="M8.682,21.783c-2.02,0-3.969-0.847-5.346-2.322c-2.751-2.948-2.592-7.584,0.355-10.335
			C5.05,7.857,6.821,7.158,8.68,7.158c2.02,0,3.969,0.846,5.347,2.322c1.333,1.428,2.03,3.289,1.962,5.241
			c-0.067,1.952-0.89,3.761-2.318,5.095C12.312,21.084,10.541,21.783,8.682,21.783z M8.68,9.158c-1.35,0-2.637,0.507-3.624,1.429
			c-2.141,1.999-2.257,5.367-0.258,7.509c1.016,1.087,2.395,1.687,3.884,1.687c1.35,0,2.637-0.508,3.624-1.429
			c1.038-0.968,1.636-2.283,1.685-3.701c0.049-1.418-0.458-2.771-1.426-3.807C11.549,9.757,10.169,9.158,8.68,9.158z"/>
		<circle style="fill:#004E5F;" cx="8.695" cy="14.007" r="0.986"/>
		<circle style="fill:#004E5F;" cx="23.095" cy="30.067" r="0.987"/>
		<path style="fill:#004E5F;" d="M23.013,37.134c-2.02,0-3.969-0.847-5.346-2.323c-1.333-1.428-2.03-3.289-1.963-5.24
			c0.067-1.953,0.891-3.762,2.319-5.094c1.358-1.27,3.13-1.968,4.988-1.968c2.02,0,3.969,0.847,5.346,2.323
			c1.333,1.428,2.03,3.289,1.963,5.24c-0.067,1.953-0.891,3.762-2.319,5.094C26.643,36.436,24.871,37.134,23.013,37.134z
			 M23.01,24.509c-1.35,0-2.637,0.507-3.624,1.429c-1.038,0.969-1.636,2.283-1.685,3.701s0.458,2.771,1.426,3.808
			c1.016,1.089,2.395,1.688,3.884,1.688c1.35,0,2.637-0.507,3.624-1.429c1.038-0.969,1.636-2.283,1.685-3.701
			s-0.458-2.771-1.426-3.808C25.879,25.107,24.5,24.509,23.01,24.509z"/>
		<path style="fill:#004E5F;" d="M22.693,29.951c-5.581-4.062-4.752-17.329-4.714-17.892l1.995,0.134
			c-0.236,3.529,0.003,13.307,3.896,16.14L22.693,29.951z"/>
		
			<rect x="16.764" y="2.465" transform="matrix(0.6825 0.7309 -0.7309 0.6825 9.2689 -11.4064)" style="fill:#004E5F;" width="2" height="5.001"/>
		<polygon style="fill:#004E5F;" points="24.009,29.893 22.014,29.75 22.831,18.402 14.792,8.201 16.364,6.963 24.882,17.773 		"/>
		
			<rect x="24.073" y="15.068" transform="matrix(0.6148 0.7887 -0.7887 0.6148 22.9269 -13.2931)" style="fill:#004E5F;" width="2" height="3.514"/>
		<path style="fill:#004E5F;" d="M28.316,17.004c-0.403,0.376-1.037,0.354-1.414-0.049L23.491,13.3
			c-0.376-0.403-0.354-1.037,0.049-1.414l0,0c0.404-0.376,1.037-0.354,1.414,0.049l3.412,3.655
			C28.742,15.993,28.72,16.627,28.316,17.004L28.316,17.004z"/>
		
			<rect x="13.475" y="5.037" transform="matrix(0.6823 0.7311 -0.7311 0.6823 10.475 -8.0286)" style="fill:#004E5F;" width="2" height="6"/>
		
			<rect x="14.701" y="3.308" transform="matrix(0.6824 0.731 -0.731 0.6824 9.2485 -12.6682)" style="fill:#004E5F;" width="9" height="2"/>
	</g>
</g>
<g id="big_icon">
	<g>
		<path style="fill:#004E5F;" d="M9.577,49.021c-5.418,0-9.827-4.408-9.827-9.827c0-5.418,4.408-9.825,9.827-9.825
			c5.418,0,9.826,4.407,9.826,9.825C19.402,44.612,14.995,49.021,9.577,49.021z M9.577,31.368c-4.315,0-7.827,3.511-7.827,7.825
			c0,4.316,3.511,7.827,7.827,7.827c4.315,0,7.826-3.511,7.826-7.827C17.402,34.879,13.892,31.368,9.577,31.368z"/>
		<path style="fill:#004E5F;" d="M3.393,46.629c-0.19,0-0.371-0.108-0.455-0.292c-0.115-0.251-0.004-0.548,0.247-0.663
			C6.14,44.322,8.05,41.35,8.05,38.1c0-2.659-1.226-5.096-3.363-6.688c-0.222-0.164-0.268-0.478-0.103-0.699
			c0.165-0.221,0.478-0.268,0.699-0.102C7.643,32.365,9.05,35.165,9.05,38.1c0,3.641-2.139,6.971-5.45,8.484
			C3.533,46.614,3.462,46.629,3.393,46.629z"/>
		<path style="fill:#004E5F;" d="M16.107,46.242c-0.085,0-0.171-0.021-0.25-0.067c-2.874-1.662-4.66-4.757-4.66-8.075
			c0-2.395,0.906-4.672,2.551-6.41c0.191-0.201,0.507-0.209,0.707-0.02c0.201,0.189,0.209,0.506,0.02,0.707
			c-1.469,1.553-2.277,3.584-2.277,5.723c0,2.963,1.594,5.726,4.161,7.21c0.239,0.138,0.321,0.444,0.182,0.683
			C16.448,46.152,16.28,46.242,16.107,46.242z"/>
		<path style="fill:#004E5F;" d="M18,39H1c-0.276,0-0.5-0.224-0.5-0.5S0.724,38,1,38h17c0.276,0,0.5,0.224,0.5,0.5S18.276,39,18,39z
			"/>
	</g>
	<g>
		<path style="fill:#004E5F;" d="M11.203,28.063c-2.574,0-5.058-1.078-6.813-2.959c-3.506-3.756-3.303-9.664,0.453-13.17
			c1.732-1.616,3.989-2.506,6.357-2.506c2.575,0,5.058,1.079,6.814,2.959c3.506,3.756,3.302,9.664-0.453,13.17
			C15.828,27.173,13.571,28.063,11.203,28.063z M11.199,11.427c-1.859,0-3.632,0.699-4.992,1.968
			c-2.949,2.753-3.109,7.394-0.355,10.344c1.399,1.499,3.3,2.324,5.351,2.324c1.859,0,3.632-0.699,4.992-1.968
			c2.95-2.754,3.11-7.394,0.356-10.344C15.152,12.252,13.251,11.427,11.199,11.427z"/>
		<circle style="fill:#004E5F;" cx="11.22" cy="18.133" r="1.299"/>
		<circle style="fill:#004E5F;" cx="30.194" cy="39.297" r="1.301"/>
		<path style="fill:#004E5F;" d="M30.086,48.291c-2.574,0-5.057-1.079-6.813-2.961c-1.699-1.818-2.587-4.189-2.502-6.678
			c0.086-2.487,1.135-4.793,2.955-6.49c1.73-1.617,3.988-2.508,6.355-2.508c2.574,0,5.059,1.079,6.813,2.961
			c1.698,1.818,2.587,4.19,2.501,6.678c-0.085,2.487-1.134,4.793-2.953,6.49C34.712,47.4,32.455,48.291,30.086,48.291z
			 M30.082,31.654c-1.858,0-3.631,0.699-4.99,1.969c-1.43,1.334-2.254,3.145-2.321,5.098c-0.067,1.954,0.631,3.816,1.965,5.245
			c1.399,1.499,3.3,2.325,5.351,2.325c1.859,0,3.633-0.699,4.992-1.969c1.43-1.334,2.253-3.145,2.32-5.098
			c0.066-1.953-0.631-3.816-1.965-5.245C34.035,32.48,32.135,31.654,30.082,31.654z"/>
		<path style="fill:#004E5F;" d="M29.852,38.887c-7.213-5.249-6.131-22.563-6.082-23.297l1.996,0.135
			c-0.012,0.168-1.061,16.943,5.263,21.545L29.852,38.887z"/>
		
			<rect x="22.169" y="2.925" transform="matrix(0.6825 0.7309 -0.7309 0.6825 11.9016 -14.9585)" style="fill:#004E5F;" width="2" height="6.589"/>
		<polygon style="fill:#004E5F;" points="31.082,39.045 29.087,38.9 30.173,23.826 19.504,10.286 21.075,9.048 32.224,23.197 		"/>
		
			<rect x="31.8" y="19.532" transform="matrix(0.6148 0.7887 -0.7887 0.6148 29.8642 -17.4534)" style="fill:#004E5F;" width="2" height="4.631"/>
		<path style="fill:#004E5F;" d="M37.075,22.082c-0.532,0.496-1.366,0.468-1.862-0.064l-4.496-4.815
			c-0.496-0.532-0.468-1.366,0.063-1.864l0,0c0.532-0.494,1.366-0.467,1.862,0.064l4.496,4.817
			C37.635,20.751,37.607,21.586,37.075,22.082L37.075,22.082z"/>
		
			<rect x="17.835" y="6.314" transform="matrix(0.6823 0.7311 -0.7311 0.6823 13.4908 -10.5081)" style="fill:#004E5F;" width="2" height="7.907"/>
		
			<rect x="19.134" y="4.353" transform="matrix(0.6824 0.731 -0.731 0.6824 11.8745 -16.6216)" style="fill:#004E5F;" width="11.859" height="2"/>
	</g>
</g>
</svg>
