<svg version="1.1" id="Layer_1" xmlns="http://www.w3.org/2000/svg" xmlns:xlink="http://www.w3.org/1999/xlink" xml:space="preserve">
<g id="small_icon">
	<g>
		<path style="fill:#004E5F;" d="M10.665,35.993c-1.852,0-3.575-1.589-4.189-3.865L0.182,8.827c-0.329-1.215-0.289-2.464,0.11-3.517
			c0.436-1.148,1.281-1.967,2.317-2.247l10.915-2.948c0.264-0.071,0.536-0.107,0.811-0.107c1.852,0,3.575,1.589,4.189,3.865
			l6.294,23.302c0.329,1.215,0.289,2.464-0.11,3.517c-0.436,1.147-1.281,1.967-2.317,2.247l-10.915,2.948
			C11.212,35.957,10.939,35.993,10.665,35.993z M14.335,2.007c-0.098,0-0.195,0.013-0.289,0.038L3.131,4.993
			C2.569,5.145,2.283,5.702,2.162,6.02C1.914,6.672,1.896,7.505,2.112,8.305l6.294,23.301c0.471,1.744,1.703,2.572,2.547,2.349
			l10.915-2.948c0.562-0.151,0.848-0.708,0.969-1.026c0.248-0.652,0.266-1.485,0.049-2.285L16.593,4.394
			C16.175,2.843,15.117,2.007,14.335,2.007z"/>
		<path style="fill:#004E5F;" d="M9.89,28.01c-0.087,0-0.173-0.022-0.249-0.066c-0.115-0.066-0.199-0.176-0.234-0.303L3.931,7.367
			C3.859,7.1,4.017,6.826,4.283,6.753l9.654-2.608c0.128-0.034,0.265-0.017,0.379,0.049c0.115,0.066,0.199,0.175,0.234,0.303
			l5.476,20.273c0.072,0.267-0.086,0.541-0.353,0.613l-9.654,2.607C9.977,28.004,9.933,28.01,9.89,28.01z M5.027,7.589l5.215,19.308
			l8.688-2.348L13.715,5.242L5.027,7.589z"/>
		<path style="fill:#004E5F;" d="M14.97,31.771c-0.789,0-1.483-0.531-1.689-1.293l-0.13-0.482c-0.122-0.452-0.061-0.924,0.172-1.329
			s0.61-0.695,1.061-0.817l1.448-0.391c0.917-0.251,1.9,0.322,2.146,1.232l0.13,0.482c0.122,0.451,0.061,0.924-0.172,1.328
			c-0.233,0.406-0.61,0.696-1.061,0.818l-1.448,0.391C15.277,31.752,15.124,31.771,14.97,31.771z M16.289,28.397
			c-0.066,0-0.132,0.009-0.197,0.026l-1.447,0.391c-0.193,0.053-0.355,0.178-0.455,0.352c-0.1,0.173-0.126,0.375-0.074,0.568
			l0.13,0.482c0.105,0.391,0.522,0.638,0.919,0.529l1.448-0.392c0.193-0.052,0.355-0.177,0.455-0.351s0.126-0.375,0.073-0.568
			l-0.13-0.483C16.924,28.625,16.626,28.397,16.289,28.397z"/>
	</g>
	<path style="fill:#004E5F;" d="M27.629,15.876c-0.112,0-0.225-0.038-0.318-0.115c-0.213-0.176-0.242-0.491-0.066-0.704
		c0.757-0.915,1.174-2.074,1.174-3.265c0-2.826-2.299-5.125-5.125-5.125c-0.348,0-0.695,0.035-1.033,0.104
		c-0.272,0.056-0.535-0.119-0.59-0.389c-0.056-0.271,0.119-0.535,0.389-0.59c0.404-0.083,0.819-0.125,1.234-0.125
		c3.377,0,6.125,2.748,6.125,6.125c0,1.423-0.499,2.809-1.404,3.902C27.916,15.814,27.773,15.876,27.629,15.876z"/>
	<path style="fill:#004E5F;" d="M24.896,14.274c-0.112,0-0.225-0.038-0.318-0.115c-0.213-0.176-0.242-0.492-0.066-0.704
		c0.342-0.413,0.53-0.936,0.53-1.474c0-1.276-1.038-2.314-2.314-2.314c-0.157,0-0.313,0.016-0.467,0.047
		c-0.269,0.055-0.535-0.119-0.59-0.389c-0.056-0.271,0.119-0.535,0.389-0.59c0.219-0.045,0.444-0.068,0.668-0.068
		c1.827,0,3.314,1.487,3.314,3.314c0,0.771-0.27,1.521-0.76,2.112C25.183,14.213,25.04,14.274,24.896,14.274z"/>
</g>
<g id="big_icon">
	<g>
		<path style="fill:#004E5F;" d="M14.049,47.846c-2.34,0-4.525-2.038-5.313-4.955L0.247,11.463
			c-0.424-1.569-0.375-3.177,0.138-4.529C0.94,5.47,1.967,4.47,3.275,4.116L17.997,0.14c0.326-0.088,0.663-0.133,1.002-0.133
			c2.341,0,4.525,2.038,5.313,4.956l8.489,31.427c0.906,3.354-0.452,6.65-3.028,7.347l-14.722,3.977
			C14.726,47.801,14.388,47.846,14.049,47.846z M18.999,2.007c-0.163,0-0.325,0.021-0.481,0.063L3.796,6.047
			c-0.672,0.182-1.22,0.749-1.542,1.597c-0.365,0.96-0.392,2.132-0.077,3.297l8.489,31.428c0.598,2.214,2.38,3.811,3.863,3.413
			l14.722-3.977c1.485-0.401,2.227-2.644,1.619-4.895l-8.49-31.427C21.846,3.501,20.392,2.007,18.999,2.007z"/>
		<path style="fill:#004E5F;" d="M13.003,37.252c-0.086,0-0.173-0.021-0.249-0.066c-0.115-0.065-0.199-0.175-0.234-0.303
			L5.135,9.539C5.063,9.272,5.221,8.998,5.487,8.926l13.021-3.517c0.129-0.035,0.265-0.017,0.379,0.049
			c0.115,0.066,0.199,0.175,0.234,0.303l7.386,27.343c0.071,0.267-0.086,0.541-0.353,0.613l-13.021,3.518
			C13.091,37.246,13.047,37.252,13.003,37.252z M6.231,9.761l7.125,26.377l12.054-3.256L18.286,6.505L6.231,9.761z"/>
		<path style="fill:#004E5F;" d="M19.855,42.327c-0.984,0-1.852-0.665-2.109-1.616L17.57,40.06
			c-0.152-0.563-0.076-1.153,0.215-1.659s0.762-0.869,1.326-1.021l1.952-0.527c1.148-0.311,2.373,0.402,2.682,1.54l0.176,0.651
			c0.313,1.164-0.377,2.365-1.541,2.68l-1.953,0.528C20.239,42.301,20.047,42.327,19.855,42.327z M21.634,37.775
			c-0.104,0-0.208,0.014-0.311,0.041l-1.952,0.528c-0.306,0.083-0.562,0.279-0.719,0.554s-0.199,0.594-0.116,0.9l0.176,0.65
			c0.167,0.617,0.828,1.006,1.454,0.836l1.954-0.527c0.631-0.17,1.005-0.822,0.834-1.454l-0.176-0.651
			C22.639,38.137,22.168,37.775,21.634,37.775z"/>
	</g>
	<path style="fill:#004E5F;" d="M36.93,20.887c-0.112,0-0.225-0.038-0.318-0.115c-0.213-0.176-0.242-0.492-0.066-0.704
		c1.047-1.265,1.624-2.868,1.624-4.515c0-3.907-3.179-7.086-7.087-7.086c-0.481,0-0.962,0.049-1.428,0.145
		c-0.271,0.056-0.535-0.119-0.591-0.389s0.118-0.535,0.39-0.59c0.531-0.109,1.08-0.165,1.629-0.165c4.459,0,8.087,3.627,8.087,8.086
		c0,1.879-0.658,3.709-1.854,5.152C37.217,20.826,37.074,20.887,36.93,20.887z"/>
	<path style="fill:#004E5F;" d="M33.243,18.727c-0.112,0-0.226-0.038-0.318-0.115c-0.213-0.176-0.242-0.492-0.066-0.704
		c0.487-0.588,0.755-1.333,0.755-2.1c0-1.817-1.479-3.295-3.295-3.295c-0.223,0-0.445,0.023-0.664,0.068
		c-0.271,0.056-0.535-0.119-0.591-0.389c-0.056-0.271,0.118-0.535,0.389-0.591c0.285-0.059,0.577-0.088,0.866-0.088
		c2.369,0,4.295,1.927,4.295,4.295c0,0.999-0.35,1.97-0.984,2.737C33.529,18.666,33.387,18.727,33.243,18.727z"/>
</g>
</svg>
