<svg version="1.1" id="Layer_1" xmlns="http://www.w3.org/2000/svg" xmlns:xlink="http://www.w3.org/1999/xlink" xml:space="preserve">
<g id="small_icon">
	<path style="fill:#004E5F;" d="M15,29c-0.07,0-0.14-0.008-0.209-0.021l-14-3C0.33,25.879,0,25.472,0,25V4
		c0-0.29,0.126-0.565,0.345-0.755C0.563,3.055,0.852,2.969,1.142,3.01l14,2C15.634,5.081,16,5.502,16,6v22
		c0,0.302-0.136,0.588-0.371,0.777C15.449,28.923,15.227,29,15,29z M2,24.191l12,2.572V6.867L2,5.153V24.191z"/>
	<path style="fill:#004E5F;" d="M15,29c-0.235,0-0.464-0.083-0.646-0.236C14.129,28.573,14,28.294,14,28V6
		c0-0.51,0.383-0.938,0.89-0.994l18-2c0.282-0.036,0.565,0.059,0.777,0.249C33.879,3.444,34,3.715,34,4v21
		c0,0.488-0.354,0.906-0.835,0.986l-18,3C15.11,28.996,15.055,29,15,29z M16,6.895v19.924l16-2.667V5.117L16,6.895z"/>
	<path style="fill:#004E5F;" d="M33,6c-0.552,0-1-0.448-1-1V3.862L18.657,1.868L1.129,4.158C0.588,4.229,0.08,3.843,0.008,3.295
		c-0.071-0.547,0.314-1.049,0.862-1.121l17.667-2.308c0.091-0.012,0.184-0.011,0.277,0.002l14.333,2.142C33.638,2.084,34,2.505,34,3
		v2C34,5.552,33.552,6,33,6z"/>
	<path style="fill:#004E5F;" d="M21.5,27.5c-0.276,0-0.5-0.224-0.5-0.5V6c0-0.276,0.224-0.5,0.5-0.5S22,5.724,22,6v21
		C22,27.276,21.776,27.5,21.5,27.5z"/>
	<path style="fill:#004E5F;" d="M27.5,25.5c-0.276,0-0.5-0.224-0.5-0.5V5c0-0.276,0.224-0.5,0.5-0.5S28,4.724,28,5v20
		C28,25.276,27.776,25.5,27.5,25.5z"/>
	<path style="fill:#004E5F;" d="M7.5,26.5C7.224,26.5,7,26.276,7,26V5c0-0.276,0.224-0.5,0.5-0.5S8,4.724,8,5v21
		C8,26.276,7.776,26.5,7.5,26.5z"/>
	<path style="fill:#004E5F;" d="M8,5.167c-0.247,0-0.462-0.183-0.495-0.435c-0.036-0.273,0.156-0.525,0.43-0.561l19.172-2.539
		c0.271-0.04,0.525,0.157,0.561,0.43s-0.156,0.525-0.43,0.561L8.065,5.163C8.043,5.166,8.021,5.167,8,5.167z"/>
	<path style="fill:#004E5F;" d="M21.5,5.167c-0.02,0-0.039-0.001-0.059-0.003L6.669,3.425C6.395,3.393,6.199,3.145,6.231,2.87
		S6.51,2.396,6.786,2.432l14.772,1.739c0.274,0.032,0.47,0.281,0.438,0.555C21.967,4.98,21.75,5.167,21.5,5.167z"/>
	<path style="fill:#004E5F;" d="M27.5,4.5c-0.021,0-0.041-0.001-0.062-0.004L12.272,2.625c-0.274-0.034-0.469-0.283-0.435-0.557
		s0.288-0.468,0.557-0.435l15.167,1.871c0.274,0.034,0.469,0.283,0.435,0.557C27.965,4.314,27.75,4.5,27.5,4.5z"/>
	<path style="fill:#004E5F;" d="M14.114,14l-13.21-2.591c-0.271-0.054-0.447-0.316-0.394-0.587c0.053-0.271,0.312-0.449,0.587-0.394
		l13.114,2.582L15,13l17.929-2.577c0.274-0.04,0.526,0.151,0.566,0.424c0.039,0.273-0.151,0.526-0.424,0.566l-18,2.582L14.114,14z"
		/>
	<path style="fill:#004E5F;" d="M14.114,21l-13.21-2.592c-0.271-0.053-0.447-0.316-0.394-0.587c0.053-0.271,0.312-0.448,0.587-0.394
		L14.21,20.01L15,20l17.929-2.577c0.274-0.042,0.526,0.151,0.566,0.425c0.039,0.272-0.151,0.525-0.424,0.565l-18,2.582L14.114,21z"
		/>
</g>
<g id="big_icon">
	<path style="fill:#004E5F;" d="M21,40.875c-0.07,0-0.141-0.008-0.211-0.023l-20-4.313C0.329,36.44,0,36.033,0,35.563V5.375
		c0-0.29,0.126-0.566,0.345-0.756c0.219-0.189,0.51-0.274,0.797-0.234l20,2.875C21.635,7.331,22,7.752,22,8.25v31.625
		c0,0.302-0.137,0.588-0.372,0.777C21.449,40.797,21.227,40.875,21,40.875z M2,34.755l18,3.881V9.116L2,6.528V34.755z"/>
	<path style="fill:#004E5F;" d="M21,40.875c-0.235,0-0.465-0.084-0.646-0.238C20.129,40.447,20,40.168,20,39.875V8.25
		c0-0.51,0.383-0.938,0.89-0.994l26-2.875c0.281-0.031,0.564,0.059,0.776,0.249S48,5.09,48,5.375v30.188
		c0,0.488-0.354,0.906-0.836,0.986l-26,4.313C21.109,40.87,21.054,40.875,21,40.875z M22,9.145v29.55l24-3.98V6.491L22,9.145z"/>
	<path style="fill:#004E5F;" d="M47,8c-0.553,0-1-0.448-1-1V4.801L26.388,1.915L1.131,5.261c-0.543,0.075-1.05-0.312-1.123-0.86
		c-0.073-0.547,0.313-1.05,0.86-1.123l25.396-3.365c0.092-0.013,0.185-0.012,0.277,0.002l20.604,3.032
		C47.637,3.02,48,3.441,48,3.937V7C48,7.552,47.553,8,47,8z"/>
	<path style="fill:#004E5F;" d="M30.5,38.5c-0.276,0-0.5-0.224-0.5-0.5V8c0-0.276,0.224-0.5,0.5-0.5S31,7.724,31,8v30
		C31,38.276,30.776,38.5,30.5,38.5z"/>
	<path style="fill:#004E5F;" d="M39.5,36.5c-0.276,0-0.5-0.224-0.5-0.5V7c0-0.276,0.224-0.5,0.5-0.5S40,6.724,40,7v29
		C40,36.276,39.776,36.5,39.5,36.5z"/>
	<path style="fill:#004E5F;" d="M10.5,37.5c-0.276,0-0.5-0.224-0.5-0.5V7c0-0.276,0.224-0.5,0.5-0.5S11,6.724,11,7v30
		C11,37.276,10.776,37.5,10.5,37.5z"/>
	<path style="fill:#004E5F;" d="M11.062,6.834c-0.247,0-0.462-0.183-0.495-0.435c-0.036-0.273,0.156-0.525,0.43-0.561l27.56-3.649
		c0.275-0.037,0.525,0.156,0.562,0.43c0.036,0.273-0.156,0.525-0.431,0.561L11.128,6.83C11.106,6.833,11.083,6.834,11.062,6.834z"/>
	<path style="fill:#004E5F;" d="M30.469,6.834c-0.02,0-0.039-0.001-0.059-0.003l-21.235-2.5C8.901,4.299,8.705,4.05,8.737,3.776
		c0.032-0.274,0.278-0.473,0.555-0.438l21.235,2.5c0.273,0.032,0.471,0.281,0.438,0.555C30.936,6.647,30.719,6.834,30.469,6.834z"/>
	<path style="fill:#004E5F;" d="M39.094,5.875c-0.02,0-0.041-0.001-0.061-0.004L17.23,3.181c-0.274-0.034-0.469-0.283-0.435-0.557
		s0.293-0.47,0.557-0.435l21.802,2.689c0.275,0.034,0.47,0.283,0.436,0.557C39.559,5.689,39.344,5.875,39.094,5.875z"/>
	<path style="fill:#004E5F;" d="M19.851,20c-0.035,0-0.069-0.003-0.103-0.011L0.897,16.043c-0.27-0.057-0.443-0.321-0.387-0.592
		s0.321-0.442,0.592-0.387L19.903,19h1.222l25.802-3.823c0.271-0.038,0.527,0.148,0.567,0.421c0.041,0.273-0.148,0.527-0.421,0.568
		l-25.875,3.829L19.851,20z"/>
	<path style="fill:#004E5F;" d="M19.851,30c-0.034,0-0.068-0.004-0.102-0.01L0.898,26.074c-0.271-0.056-0.444-0.321-0.388-0.591
		c0.057-0.271,0.322-0.444,0.591-0.388L19.902,29h1.223l25.803-3.808c0.271-0.045,0.527,0.149,0.566,0.422
		c0.041,0.273-0.148,0.527-0.422,0.567l-25.875,3.813L19.851,30z"/>
</g>
</svg>
