<svg version="1.1" id="Layer_1" xmlns="http://www.w3.org/2000/svg" xmlns:xlink="http://www.w3.org/1999/xlink" xml:space="preserve">
<g id="small_icon">
	<path style="fill:#004E5F;" d="M22.628,16.729c-0.369,0-0.724-0.205-0.898-0.558l-2.656-5.391c-0.167-0.339-0.128-0.744,0.1-1.045
		l3.936-5.199c0.548-0.723,0.728-1.71,0.506-2.781c-0.112-0.541,0.236-1.07,0.777-1.182c0.537-0.115,1.07,0.236,1.182,0.777
		c0.34,1.645,0.03,3.205-0.872,4.394l-3.562,4.706l2.383,4.838c0.244,0.495,0.041,1.095-0.455,1.339
		C22.927,16.696,22.776,16.729,22.628,16.729z"/>
	<path style="fill:#004E5F;" d="M11.333,29.15c-0.221,0-0.438-0.073-0.615-0.211l-5.222-4.066l-4.976-3.636
		c-0.217-0.158-0.36-0.397-0.399-0.662s0.03-0.535,0.192-0.749L1.74,17.94c0.189-0.25,0.484-0.397,0.797-0.397
		c0.001,0,0.003,0,0.004,0l5.137,0.021c0.337-0.6,0.985-1.604,2.233-3.372L0.797,9.287C0.541,9.149,0.356,8.905,0.294,8.619
		c-0.062-0.285,0.003-0.583,0.18-0.816l1.787-2.358c0.212-0.28,0.562-0.427,0.905-0.39l12.578,1.374l3.593-4.748
		c0.902-1.191,2.321-1.912,3.994-2.029c0.488-0.036,0.996,0.122,1.423,0.444c0.424,0.322,0.713,0.764,0.817,1.245
		c0.117,0.54-0.227,1.072-0.767,1.188c-0.533,0.117-1.067-0.224-1.187-0.76c-0.005-0.012-0.027-0.046-0.071-0.079
		c-0.041-0.031-0.079-0.042-0.089-0.043c-1.076,0.076-1.978,0.517-2.526,1.241l-3.936,5.199c-0.212,0.281-0.555,0.429-0.906,0.391
		L3.513,7.104L2.774,8.08l9.083,4.889c0.253,0.136,0.435,0.375,0.5,0.655c0.065,0.28,0.006,0.574-0.161,0.808
		c-1.245,1.737-2.686,3.86-2.915,4.36c-0.102,0.445-0.501,0.775-0.975,0.775c-0.001,0-0.003,0-0.004,0l-5.27-0.022l-0.512,0.677
		l4.18,3.054l4.446,3.463l0.527-0.695l-1.199-4.859c-0.111-0.449,0.101-0.905,0.493-1.118c0.42-0.356,2.071-2.318,3.404-3.986
		c0.176-0.22,0.437-0.356,0.718-0.374c0.279-0.02,0.557,0.084,0.759,0.28l6.933,6.718l0.759-1.002l-0.706-1.725
		c-0.209-0.511,0.036-1.095,0.547-1.304c0.512-0.207,1.095,0.036,1.304,0.547l0.921,2.252c0.133,0.327,0.085,0.701-0.128,0.982
		l-1.784,2.357c-0.173,0.229-0.435,0.371-0.721,0.394c-0.293,0.019-0.567-0.08-0.772-0.278l-6.957-6.741
		c-1.393,1.721-2.194,2.626-2.682,3.112l1.167,4.729c0.072,0.293,0.009,0.604-0.173,0.844l-1.427,1.885
		c-0.162,0.214-0.402,0.354-0.667,0.389C11.42,29.148,11.376,29.15,11.333,29.15z"/>
	<path style="fill:#004E5F;" d="M22.905,17.143c-0.081,0-0.163-0.011-0.244-0.036l-3.064-0.917c-0.45-0.135-0.705-0.608-0.571-1.058
		c0.135-0.45,0.607-0.706,1.058-0.571l2.25,0.673l0.559-1.866c0.135-0.45,0.607-0.703,1.059-0.57c0.45,0.135,0.705,0.609,0.57,1.059
		l-0.803,2.679C23.608,16.905,23.271,17.143,22.905,17.143z"/>
</g>
<g id="big_icon">
	<path style="fill:#004E5F;" d="M39.308,30.26c-0.554,0-1.085-0.308-1.347-0.838l-4.716-9.569c-0.251-0.509-0.192-1.116,0.149-1.568
		l6.986-9.229c1.021-1.346,1.359-3.178,0.949-5.159c-0.167-0.811,0.355-1.604,1.166-1.772c0.813-0.166,1.605,0.355,1.773,1.166
		c0.586,2.842,0.055,5.533-1.498,7.578l-6.426,8.49l4.307,8.739c0.366,0.743,0.061,1.643-0.683,2.009
		C39.756,30.209,39.53,30.26,39.308,30.26z"/>
	<path style="fill:#004E5F;" d="M19.258,52.311c-0.332,0-0.656-0.11-0.922-0.316l-9.27-7.219l-8.841-6.46
		c-0.325-0.237-0.54-0.595-0.599-0.993c-0.059-0.396,0.045-0.802,0.287-1.123l2.533-3.35c0.283-0.375,0.727-0.595,1.196-0.595
		c0.002,0,0.004,0,0.007,0l9.284,0.038c0.575-1.045,1.757-2.899,4.202-6.354L0.686,17.082C0.3,16.874,0.023,16.508-0.069,16.08
		s0.006-0.876,0.271-1.225l3.172-4.185c0.318-0.419,0.829-0.639,1.358-0.585l22.483,2.456l6.473-8.551
		c1.554-2.053,4.001-3.293,6.892-3.494c0.784-0.054,1.64,0.207,2.337,0.73c0.703,0.535,1.18,1.261,1.35,2.05
		c0.176,0.81-0.339,1.608-1.148,1.783C42.309,5.236,41.51,4.72,41.334,3.91c-0.013-0.057-0.083-0.182-0.227-0.291
		c-0.15-0.113-0.27-0.129-0.313-0.131c-2.021,0.14-3.693,0.961-4.715,2.312l-6.986,9.229c-0.318,0.42-0.828,0.646-1.359,0.586
		L5.25,13.16l-1.6,2.111l16.406,8.833c0.38,0.205,0.653,0.563,0.75,0.982c0.098,0.42,0.01,0.862-0.242,1.212
		c-2.25,3.141-4.842,6.96-5.212,7.81c-0.144,0.682-0.748,1.189-1.468,1.189c-0.002,0-0.004,0-0.006,0l-9.491-0.039l-1.161,1.535
		l7.646,5.588l8.106,6.313l1.183-1.563l-2.16-8.752c-0.168-0.682,0.16-1.376,0.764-1.689c0.719-0.587,3.691-4.117,6.102-7.135
		c0.264-0.331,0.654-0.534,1.076-0.561c0.424-0.022,0.836,0.126,1.14,0.42l12.53,12.142l1.629-2.152l-1.311-3.206
		c-0.314-0.766,0.053-1.643,0.82-1.955c0.768-0.314,1.643,0.053,1.955,0.82l1.635,3.996c0.201,0.491,0.129,1.051-0.191,1.474
		l-3.167,4.186c-0.259,0.343-0.653,0.558-1.081,0.591c-0.428,0.031-0.852-0.12-1.159-0.419L26.178,32.712
		c-2.713,3.358-4.189,5.011-5.041,5.843l2.109,8.551c0.109,0.439,0.014,0.904-0.26,1.265l-2.532,3.346
		c-0.243,0.319-0.603,0.53-1.001,0.582C19.389,52.307,19.322,52.311,19.258,52.311z"/>
	<path style="fill:#004E5F;" d="M39.799,31.262c-0.142,0-0.287-0.021-0.43-0.064l-5.441-1.627c-0.793-0.237-1.244-1.073-1.006-1.867
		c0.236-0.793,1.069-1.247,1.867-1.007l4.003,1.198l0.995-3.32c0.237-0.794,1.074-1.245,1.867-1.007s1.244,1.074,1.006,1.867
		l-1.424,4.757C41.041,30.842,40.445,31.262,39.799,31.262z"/>
</g>
</svg>
