<svg version="1.1" id="Layer_1" xmlns="http://www.w3.org/2000/svg" xmlns:xlink="http://www.w3.org/1999/xlink" xml:space="preserve">
<g id="big_icon">
			<path fill="#084F5F" d="M31.993,61.776h-0.006c-8.293,0-16.086-3.183-21.947-9.044c-5.859-5.861-9.086-13.632-9.084-21.921
				c0-17.113,13.92-31.025,31.029-31.025C49.101-0.213,63.022,13.67,63.022,30.783C63.022,47.895,49.103,61.776,31.993,61.776z
				 M31.987,1.797c-7.756,0-15.047,3.02-20.529,8.504c-5.482,5.484-8.502,12.775-8.502,20.532c-0.002,7.755,3.016,15.001,8.5,20.485
				c5.482,5.483,12.773,8.458,20.527,8.458h0.01c16.008,0,29.029-12.979,29.029-28.988C61.022,14.778,47.997,1.798,31.987,1.797z"/>
			<path fill="#084F5F" d="M25.017,60.923c-8.037-8.037-12.465-18.723-12.463-30.09c0-11.366,4.426-22.052,12.465-30.088
				l1.414,1.414c-7.66,7.659-11.879,17.842-11.879,28.674c-0.002,10.832,4.217,21.016,11.877,28.675L25.017,60.923z"/>
			<path fill="#084F5F" d="M38.962,60.92l-1.414-1.414c7.658-7.658,11.875-17.841,11.875-28.673
				c0-10.833-4.217-21.016-11.877-28.674l1.414-1.414c8.037,8.036,12.463,18.721,12.463,30.088
				C51.423,42.199,46.997,52.884,38.962,60.92z"/>
			<path fill="#084F5F" d="M11.53,52.562l-1.414-1.414c12.062-12.062,31.688-12.062,43.746-0.003l-1.414,1.414
				C41.165,41.279,22.81,41.281,11.53,52.562z"/>
			<path fill="#084F5F" d="M31.989,19.562c-7.922,0-15.842-3.014-21.873-9.042l1.414-1.415c11.283,11.279,29.641,11.276,40.92-0.001
				l1.414,1.414C47.833,16.547,39.911,19.562,31.989,19.562z"/>
			<rect x="1.956" y="29.833" fill="#084F5F" width="60.066" height="2"/>
			<rect x="30.987" y="0.797" fill="#084F5F" width="2" height="60.069"/>
</g>
<g id="small_icon">
			<path fill="#084F5F" d="M13.114,24.102L13.114,24.102c-3.248,0-6.302-1.264-8.598-3.561c-2.297-2.296-3.562-5.349-3.561-8.597
				c0-6.704,5.453-12.158,12.155-12.158c6.705,0,12.159,5.454,12.159,12.158C25.271,18.648,19.817,24.102,13.114,24.102
				L13.114,24.102z M13.112,1.786c-5.601,0-10.156,4.557-10.156,10.158c0,2.713,1.056,5.102,2.975,7.02
				c1.918,1.918,4.469,2.812,7.182,2.812h0.002c5.601,0,10.156-4.394,10.156-9.995C23.271,6.181,18.714,1.786,13.112,1.786z"/>
			<path fill="#084F5F" d="M10.786,23.359c-0.129,0-0.256-0.049-0.354-0.146c-3.011-3.01-4.668-7.012-4.668-11.269
				s1.658-8.259,4.668-11.269c0.195-0.195,0.512-0.195,0.707,0s0.195,0.512,0,0.707C8.317,4.204,6.765,7.955,6.765,11.944
				s1.553,7.74,4.375,10.562c0.195,0.195,0.195,0.512,0,0.707C11.042,23.311,10.913,23.359,10.786,23.359z"/>
			<path fill="#084F5F" d="M15.44,23.359c-0.127,0-0.256-0.049-0.354-0.146c-0.195-0.195-0.195-0.512,0-0.707
				c5.823-5.824,5.823-15.299,0-21.123c-0.195-0.195-0.195-0.512,0-0.707s0.512-0.195,0.707,0c6.213,6.213,6.213,16.323,0,22.537
				C15.696,23.31,15.569,23.359,15.44,23.359z"/>
			<path fill="#084F5F" d="M5.25,20.254c-0.128,0-0.256-0.049-0.354-0.146c-0.195-0.195-0.195-0.512,0-0.707
				c2.194-2.195,5.112-3.404,8.217-3.404c3.104,0,6.021,1.208,8.216,3.403c0.195,0.195,0.195,0.512,0,0.707s-0.512,0.195-0.707,0
				c-2.006-2.005-4.672-3.11-7.509-3.11s-5.504,1.105-7.51,3.111C5.506,20.205,5.378,20.254,5.25,20.254z"/>
			<path fill="#084F5F" d="M13.113,7.885c-2.976,0-5.951-1.132-8.217-3.397c-0.195-0.195-0.195-0.512,0-0.707s0.512-0.195,0.707,0
				c4.141,4.14,10.879,4.14,15.02,0c0.195-0.195,0.512-0.195,0.707,0s0.195,0.512,0,0.707C19.064,6.753,16.089,7.885,13.113,7.885z"
				/>
			<path fill="#084F5F" d="M24.271,12.444H1.956c-0.277,0-0.5-0.224-0.5-0.5s0.223-0.5,0.5-0.5h22.314c0.276,0,0.5,0.224,0.5,0.5
				S24.547,12.444,24.271,12.444z"/>
			<path fill="#084F5F" d="M13.112,23.602c-0.276,0-0.5-0.224-0.5-0.5V0.786c0-0.276,0.224-0.5,0.5-0.5s0.5,0.224,0.5,0.5v22.315
				C13.612,23.378,13.389,23.602,13.112,23.602z"/>
</g>
</svg>
